/* XPM */
static char *noname[] = {
/* width height ncolors chars_per_pixel */
"48 48 3 1",
/* colors */
"` c #000000",
"a c #6666E6 m #000000",
"b c #CC7E66 m #ffffff",
/* pixels */
"`aaaaaaaaaaaaaaaaaaaaaaaaaaaaaaaaaaaaaaaaaaaaaaa",
"`a`````````````````````````````````````````````a",
"`abbbbbbbbbbbbbbbbbbbbbbbbbbbbbbbbbbbbbbbbbbbb`a",
"`abbbbbbbbbbbbbbbbbbbbbbbbbbbbbbbbbbbbbbbbbbbb`a",
"`abbbbbbbbbbbbbbbbbbbbbbbbbbbbbbbbbbbbbbbbbbbb`a",
"`abbbbbbbbbbbbbbbbbbbbbbbbbbbbbbbbbbbbbbbbbbbb`a",
"`abbbbbbbbbbbbbbbbbbbbbbbbbbbbbbbbbbbbbbbbbbbb`a",
"`abbbbbbbbbbbbbbbbbbbbbbbbbbbbbbbbbbbbbbbbbbbb`a",
"`abbbbbbbbbbbbbbbbbbbbbbbbbbbbbbbbbbbbbbbbbbbb`a",
"`abbbbbbbbbbbbbbbbbbbbbbbbbbbbbbbbbbbbbbbbbbbb`a",
"`abbbbbbbbbbbbbbbbbbbbbbbbbbbbbbbbbbbbbbbbbbbb`a",
"`abbbbbbbbbbbbbbbbbbbbbbbbbbbbbbbbbbbbbbbbbbbb`a",
"`abbbbbbbbbbbbbbbbbbbbbbbbbbbbbbbbbbbbbbbbbbbb`a",
"`abbbbbbbbbbbbbbbbbbbbbbbbbbbbbbbbbbbbbbbbbbbb`a",
"`abbbbbbbbbbbbbbbbbbbbbbbbbbbbbbbbbbbbbbbbbbbb`a",
"`abbbbbbbbbbbbbbbbbbbbbbbbbbbbbbbbbbbbbbbbbbbb`a",
"`abbbbbbbbbbbbbbbbbbbbbbbbbbbbbbbbbbbbbbbbbbbb`a",
"`abbbbbbbbbbbbbbbbbbbbbbbbbbbbbbbbbbbbbbbbbbbb`a",
"`abbbbbbbbbbbbbbbbbb`aaaaabbbbbbbbbbbbbbbbbbbb`a",
"`abbbbbbbbbbbbbbbbb`aa```aabbbbbbbbbbbbbbbbbbb`a",
"`abbbbbbbbbbbbbbbb`aa`bbb`aabbbbbbbbbbbbbbbbbb`a",
"`abbbbbbbbbbbbbbbb`aabbbbb``bbbbbbbbbbbbbbbbbb`a",
"`abbbbbbbbbbbbbbbb`aabbbbbbbbbbbbbbbbbbbbbbbbb`a",
"`abbbbbbbbbbbbbbbb`aabbbbbbbbbbbbbbbbbbbbbbbbb`a",
"`abbbbbbbbbbbbbbbb`aabbbbbbbbbbbbbbbbbbbbbbbbb`a",
"`abbbbbbbbbbbbbbbb`aabbbbbbbbbbbbbbbbbbbbbbbbb`a",
"`abbbbbbbbbbbbbbbb`aabbbbbaabbbbbbbbbbbbbbbbbb`a",
"`abbbbbbbbbbbbbbbb``aabbbaa`bbbbbbbbbbbbbbbbbb`a",
"`abbbbbbbbbbbbbbbbb``aaaaa`bbbbbbbbbbbbbbbbbbb`a",
"`abbbbbbbbbbbbbbbbbb``````bbbbbbbbbbbbbbbbbbbb`a",
"`abbbbbbbbbbbbbbbbbbbbbbbbbbbbbbbbbbbbbbbbbbbb`a",
"`abbbbbbbbbbbbbbbbbbbbbbbbbbbbbbbbbbbbbbbbbbbb`a",
"`abbbbbbbbbbbbbbbbbbbbbbbbbbbbbbbbbbbbbbbbbbbb`a",
"`abbbbbbbbbbbbbbbbbbbbbbbbbbbbbbbbbbbbbbbbbbbb`a",
"`abbbbbbbbbbbbbbbbbbbbbbbbbbbbbbbbbbbbbbbbbbbb`a",
"`abbbbbbbbbbbbbbbbbbbbbbbbbbbbbbbbbbbbbbbbbbbb`a",
"`abbbbbbbbbbbbbbbbbbbbbbbbbbbbbbbbbbbbbbbbbbbb`a",
"`abbbbbbbbbbbbbbbbbbbbbbbbbbbbbbbbbbbbbbbbbbbb`a",
"`abbbbbbbbbbbbbbbbbbbbbbbbbbbbbbbbbbbbbbbbbbbb`a",
"`abbbbbbbbbbbbbbbbbbbbbbbbbbbbbbbbbbbbbbbbbbbb`a",
"`abbbbbbbbbbbbbbbbbbbbbbbbbbbbbbbbbbbbbbbbbbbb`a",
"`abbbbbbbbbbbbbbbbbbbbbbbbbbbbbbbbbbbbbbbbbbbb`a",
"`abbbbbbbbbbbbbbbbbbbbbbbbbbbbbbbbbbbbbbbbbbbb`a",
"`abbbbbbbbbbbbbbbbbbbbbbbbbbbbbbbbbbbbbbbbbbbb`a",
"`abbbbbbbbbbbbbbbbbbbbbbbbbbbbbbbbbbbbbbbbbbbb`a",
"`abbbbbbbbbbbbbbbbbbbbbbbbbbbbbbbbbbbbbbbbbbbb`a",
"`aaaaaaaaaaaaaaaaaaaaaaaaaaaaaaaaaaaaaaaaaaaaaaa",
"````````````````````````````````````````````````"
};
