/* XPM */
static char *noname[] = {
/* width height ncolors chars_per_pixel */
"32 32 10 1",
/* colors */
"` c #000000",
"a c #00BF00",
"b c #3F3F3F",
"c c #3F3F00",
"d c #003F00",
"e c #3C00BF",
"f c #7F7F3F",
"g c #7F3D00",
"h c #3F0000",
"i c #3C00FF",
/* pixels */
"````````````````````````````````",
"``hhhhhhhhhhhhhhhhhhhhhhhhhhhh``",
"`h`hhhhhhhhhhhhhhhhhhhhhhhhhh`f`",
"`hh`hhhhhhhhhhhhhhhhhhhhhhhh`ff`",
"`hhh````````````````````````fff`",
"`hhh`eeeeeeeegccceeegceecee`fff`",
"`hhh`eeeeeeecccceeegccceeee`fff`",
"`hhh`eieiegcceieigccicieiei`fff`",
"`hhh`ieiegcceiegcccieieieie`fff`",
"`hhh`eiigciiigcciiieiiieiii`fff`",
"`hhh`iiiciiigcciiiiiiiiiiii`fff`",
"`hhh`iib`iib`iiiiiiiiiiiiii`fff`",
"`hhh`iib`iib`iiiiiiiiiiiiii`fff`",
"`hhh`iib`iib`iiiiiiiiiiiiii`fff`",
"`hhh`iib`iib`iiiiiiiiiiiiii`fff`",
"`hhh`iib`iib`iiiiiiiiiiiiii`fff`",
"`hhh`iib`iib`iiiiiiiiiiiiii`fff`",
"`hhh`i``````````````````iii`fff`",
"`hhh`dbbbbbbbbbbbbbbbbbbddd`fff`",
"`hhh`d``````````````````ddd`fff`",
"`hhh`d`b``b``b``b``b````ddd`fff`",
"`hhh`a`b``b``b``b``b````ddd`fff`",
"`hhh`d``````````````````dad`fff`",
"`hhh`dadadadadadadadadadada`fff`",
"`hhh`adadadadadadadadadadad`fff`",
"`hhh`aaaaaaaaaaaaaaaaaaaaaa`fff`",
"`hhh`aaaaaaaaaaaaaaaaaaaaaa`fff`",
"`hhh````````````````````````fff`",
"`hh`ffffffffffffffffffffffff`ff`",
"`h`ffffffffffffffffffffffffff`f`",
"``ffffffffffffffffffffffffffff``",
"````````````````````````````````"
};
