/* XPM */
static char *noname[] = {
/* width height ncolors chars_per_pixel */
"58 58 12 1",
/* colors */
"` c #000000",
"a c #7F7F7F",
"b c #5D5D5D",
"c c #007F00",
"d c #BF7900",
"e c #FF0000",
"f c #4F4FFF",
"g c #FFFFFF",
"h c #7F7F00",
"i c #FF7700",
"j c #BFBFBF",
"k c #0000FF",
/* pixels */
"jjjjjjjjjjjjjjjjjjjjjjjjjjjjjjjjjjjjjjjjjjjjjjjjjjjjjjjjjj",
"jaaddddaaaaddddaaaaddddaaaaddddaaaaddddaaaaddddaaaaddddaab",
"jaaddddaaaaddddaaaaddddaaaaddddaaaaddddaaaaddddaaaaddddaab",
"jaabbbbbbbbbbbbbbbbbbbbbbbbbbbbbbbbbbbbbbbbbbbbbbbbbbbbaab",
"jaabggggggggggggggggggggggggggggggggggggggggggggggggggjaab",
"jddbgdddhdddddddddddddddd`ddddddddddddddededededdddddgjddb",
"jddbgaaaaaaaaaaaadddddddd`bjdddddhdaaaaabjbjbjbfdddddgjddb",
"jddbgddddddddddhadddddddd``bddddddaajajabaababbddddddgjddb",
"jddbgdddddddddddaddddddddb```dddddaaaaaabaababbddddddgjddb",
"jaabgdfdddddfdddafddddfdbhhfddddfaajafdfbaabaabfdddfdgjaab",
"jaabgebbbbbbbbbbbbbbbbbbbbbbbbbbbbbbbbbbbbbbbbbbbbbbegjaab",
"jaabgdjbbbbbbbbbbbbbbbbbbbbbbbbbbbbbbbbbbbbjbbbbaabjdgjaab",
"jaabgebbabbbbbbbbbbbbbbbbbbbbbbbbbbbbbbbbbbjbbbbababegjaab",
"jddbgdjababjjbjjbjjbjjbjjbjjbjjbjjbjjbjjbjjbjjbbbbbjdgjddb",
"jddbgebaabbbbbbbbbbbbbbbbbbbbbbbbbbbbbbbbbbjbbbbbaabegjddb",
"jddbgdjbbbbbbbbbbbbbbbbbbbbbbbbbbbbbbbbbbbbjbbbbabajdgjddb",
"jddbgebbbbbbbbbbbbbbbbbbbbbbbbbbbbbbbbbbbbbbbbbbbbbbegjddb",
"jaabgddfajaafddddfddddfadddfddddfaaaafdfbbbjbbbfdddfdgjaab",
"jaabgdddaaaadddddddddddaddddddhddajaadddbbbjbbbddddddgjaab",
"jaabgdddajaadddddddddddaaaaadddddaaaadddbbbbbbbddaaadgjaab",
"jaabgdddaaaaaaaaaaaaaaaadddadddddajaadddbbbjbbbdjbdadgjaab",
"jddbgdddajaadddddddddddddddadddddaaaadddbbbjbbbdjadadgjddb",
"jddbgdddaaaaaddddddddddddddadjjjjjjjaddfbbbbbbbfdddadgjddb",
"jddbgddaaajaagggaaaaaagagaaa`jjjejbjadddbbbjbbbddddadgjddb",
"jddbgddaaaaajagajajajaggggab`jjbjjjjadddbbbjbbbdddhadgjddb",
"jaabgddaaaaggbgbggaaaaabgaba`jbjjjejadddbbbbbbbddddadgjaab",
"jaabgddaaaaagggggaejjjjjjbab`jjajbjjadddbbbjbbbddddadgjaab",
"jaabgddejjjjbejjjbgagagajaba`jjjajajaddfbbbjbbbfdddadgjaab",
"jaabgdbjgagabgagabjjjjjjjbab`jjjjjbjahddbbbbbbbddddadgjaab",
"jddbgdbjjjjjbjjjjbjjjjjjjaba```````aadddbbbjbbbddddadgjddb",
"jddbgdbjjjjjbjjjjbgagagajbabbbbbbajaadddbbbjbbbddddadgjddb",
"jddbgdbjgagabgagabejjjjjjabbbbbbbaaaadddbbbbbbbdaaaadgjddb",
"jddbgdbejjjjbejjjbkkkkkkkjaaaaabbajaaddfbbbjbbbfaddddgjddb",
"jaabgdbkkkkkkk``kk`kk`kkfjjaajabbaaaadddbbbjbbbdadaadgjaab",
"jaabgddhhhhbbhbbhhbh`b`ffjbaababbajaadddbbbbbbbdadbbdgjaab",
"jaabgdddaaaabbbbbbb`bb``fjgjagabaaaaadddbbbjbbbdadaadgjaab",
"jaabgddab`ahhaaaaaa`aaa`fjajjajbagjaadddbbbjbbbdadbbdgjaab",
"jddbgd`a``abbbbbbbaaaa`ffjgjjgjbggaagddfbbbbbbbfadaadgjddb",
"jddbgbjaaabababababaaaa`fjajjajggajggdddbbbjbbbdadbbdgjddb",
"jddbgbbaaabhhhhhhbbfaaa`fejjjjeggggggdddbbbjbbbdaddddgjddb",
"jddbgbjaacbbbbbddabfaa`fbbbbbbbbgaaaaddfbbbbbbbfaddddgjddb",
"jaabgbbaacbbbbbdhbbaaa`fjagaagabggjaaaaabbbjbbbdaddddgjaab",
"jaabgbjaaabbbbbddabaac`fjjajjajbagaaaaaabbbjbbbaaddddgjaab",
"jaabgbbaaabbbbbdhbbaaca`jjgjjgjbaajajajabbbbbbbddddddgjaab",
"jaabgbjaaab```dddabaaaa`ejajjaebaaaaaaaabbbjbbbddddddgjaab",
"jddbgbbaaaadddddhbaaaa`fbbbbbbbbaajaaddfbbbjbbbfdddddgjddb",
"jddbgbjaaaaaaaaaaaaaaa`fjaaaaabaaaaaadddbbbbbbbddddddgjddb",
"jddbgbbaaaaaaaahaaaaaaa`jgjjgjbaaaaaadddbaabbabdddhddgjddb",
"jddbgbjbaaaaaaaaaaaaaaa`jajjajbaaaaaadddbbababbddddddgjddb",
"jaabgdbbjbjbjbjbjbjaia`fejjjjehdddddhddfbaabaabfdddddgjaab",
"jaabgddbbbbbbbbbbbbaiadbbbbbbhhdddddddhdbjbjbjbddddddgjaab",
"jaabgdhddhhhhhhhhb`aaaddhhhhhhhdhddddddddddddddddddddgjaab",
"jaabgddddddddddddbaaadddddddddddddddddddededededdddddgjaab",
"jddbggggggggggggggggggggggggggggggggggggggggggggggggggjddb",
"jddbjjjjjjjjjjjjjjjjjjjjjjjjjjjjjjjjjjjjjjjjjjjjjjjjjjjddb",
"jddaaaaddddaaaaddddaaaaddddaaaaddddaaaaddddaaaaddddaaaaddb",
"jddaaaaddddaaaaddddaaaaddddaaaaddddaaaaddddaaaaddddaaaaddb",
"jbbbbbbbbbbbbbbbbbbbbbbbbbbbbbbbbbbbbbbbbbbbbbbbbbbbbbbbbb"
};
