/* XPM */
static char *noname[] = {
/* width height ncolors chars_per_pixel */
"34 34 9 1",
/* colors */
"# c #000000",
"a c #7F7F7F",
"b c #5D5D5D",
"c c #BF7900",
"d c #FF0000",
"  c #FFFFFF",
"f c #FF7700",
"g c #BFBFBF",
"h c #0000FF",
/* pixels */
"gggggggggggggggggggggggggggggggggg",
"gccccccccccccccccccccccccccccccccb",
"gccccccccccccccccccccccccccccccccb",
"gccbbbbbbbbbbbbbbbbbbbbbbbbbbbbccb",
"gccb##########################gccb",
"gccb# # # # # # # # # # # # ##gccb",
"gccb## # # # # # # # # # # # #gccb",
"gccb# # # # # # # # # # # # ##gccb",
"gccb## #ffdddddf # # # # # # #gccb",
"gccb# # dfffffff# # # # # #b##gccb",
"gccb## #ddff # # # # # # #ab #gccb",
"gccb# # ddfff # # ### # #ab ##gccb",
"gccb## #ddffhh # # # # #aab# #gccb",
"gccb# # ddffh # # ### # ##b ##gccb",
"gccb## #ddfffffdddd#ddd###b# #gccb",
"gccb# # ddfffffffffffff ##b ##gccb",
"gccb## #ddfffffffffffffb##b# #gccb",
"gccb# # ##b#fb#fb#fb#aaa##b ##gccb",
"gccb## b#bbbbbbbbbbbb#ba##b# #gccb",
"gccb# #bbbb##b##b##bbbb###b ##gccb",
"gccb##bbbb###b##b###bbbb##b# #gccb",
"gccb# #bb#bb##bb##bb#bb###b ##gccb",
"gccb###bb#bb##bb##bb#bb#aab# #gccb",
"gccb# bbbb###b##b###bbbb#ab ##gccb",
"gccb###bbbb##b##b##bbbb# #ab #gccb",
"gccb# #b#bbbbbbbbbbbb#b # #b##gccb",
"gccb## # #b# b# b# b## # # # #gccb",
"gccb# # # # # # # # # # # # ##gccb",
"gccb## # # # # # # # # # # # #gccb",
"gccb##########################gccb",
"gccbgggggggggggggggggggggggggggccb",
"gccccccccccccccccccccccccccccccccb",
"gccccccccccccccccccccccccccccccccb",
"gbbbbbbbbbbbbbbbbbbbbbbbbbbbbbbbbb"
};
