/* XPM */
static char *noname[] = {
/* width height ncolors chars_per_pixel */
"34 34 11 1",
/* colors */
"# c #000000",
"a c #7F7F7F",
"b c #00FF00",
"c c #5D5D5D",
"d c #007F00",
"e c #BF7900",
"f c #FF0000",
"  c #FFFFFF",
"h c #7F7F00",
"i c #FF7700",
"j c #BFBFBF",
/* pixels */
"jjjjjjjjjjjjjjjjjjjjjjjjjjjjjjjjjj",
"jeebbbbeeeebbbbeeeebbbbeeeebbbbeec",
"jeebbbbeeeebbbbeeeebbbbeeeebbbbeec",
"jeecccccccccccccccccccccccccccceec",
"jeec##########################jeec",
"jbbc# # # # #dbdbbbdbb# # # ##jbbc",
"jbbc## # #bbbbbbbdbbdbbdbd # #jbbc",
"jbbc# # #bdbbbdbbbbdbbdbbdb ##jbbc",
"jbbc## bbbbbbbbbdbbbbdbdbbdd #jbbc",
"jeec# #bdbbbbbdbbdbdbdbdbdbd##jeec",
"jeec##bbbbbdbbbbdbdbdbdbdddbd#jeec",
"jeec# dbbbbbdbdbbdbdbbdddbbdd#jeec",
"jeec#bbbdbdbbbbdbdbbddbdbddbd#jeec",
"jbbc#bbbbdbbdbbbdbdddbdbdbdd##jbbc",
"jbbc#dbdbdbdbdbdbdbdbddddda# #jbbc",
"jbbc#bbdbbdbdbdbdbdbddd # a ##jbbc",
"jbbc##dbbdbdbdbdddddda # #a# #jbbc",
"jeec# #dddddddddd # #a# # a ##jeec",
"jeec## # # hhhccc# # a # #a# #jeec",
"jeec# # # #hhhccc # #a# # a ##jeec",
"jeec## # # hhhccc# # a ii#a# #jeec",
"jbbc# # # #hhhccc # #a#ff#a ##jbbc",
"jbbc## # # hhhccc# # a####a# #jbbc",
"jbbc# # # hhhcccc # #a ff a ##jbbc",
"jbbc## #hhhhcccccc # cffffc# #jbbc",
"jeec# hhhhhcccccccc # # ### ##jeec",
"jeec#hhhhhccccccceeeee#ee#eee#jeec",
"jeec#eeehhecceeccceeeeececeee#jeec",
"jeec#eehheeceeeecceeeececeeee#jeec",
"jbbc##########################jbbc",
"jbbcjjjjjjjjjjjjjjjjjjjjjjjjjjjbbc",
"jbbeeeebbbbeeeebbbbeeeebbbbeeeebbc",
"jbbeeeebbbbeeeebbbbeeeebbbbeeeebbc",
"jccccccccccccccccccccccccccccccccc"
};
