/* XPM */
static char *noname[] = {
/* width height ncolors chars_per_pixel */
"34 34 6 1",
/* colors */
"` c #000000",
"a c #5D5D5D",
"b c #FFFFFF",
"c c #FFFF00",
"d c #7F7F00",
"e c #BFBFBF",
/* pixels */
"eeeeeeeeeeeeeeeeeeeeeeeeeeeeeeeeee",
"ecc````cccc````cccc````cccc````cca",
"ecc````cccc````cccc````cccc````cca",
"eccaaaaaaaaaaaaaaaaaaaaaaaaaaaacca",
"eccabbbbbbbbbbbbbbbbbbbbbbbbbbecca",
"e``abbbbbbbbbbbbbbbbbbbbbbbbbbe``a",
"e``abbbbbbbdabbbbbbbbbbbbbbbbbe``a",
"e``abb`````aa`````bbbbbbbbbbbbe``a",
"e``abbbbbbbdabbbbbbbbbbbbbbbbbe``a",
"eccabbbbbbbdabbbbbbbbbbbbbbbbbecca",
"eccabbbbbbbdabbbbbbbbbbbbbbbbbecca",
"eccabb`````aa`````bbbbbbbbbbbbecca",
"eccabbbbbbbdabbbbbbbbbbbbbbbbbecca",
"e``abbbbbbbdabbbbbbbabbbbbbbbbe``a",
"e``abbbbbbbdabbbb```a```bbbbbbe``a",
"e``abbbbbbbdabbbbbbbabbbbbbbbbe``a",
"e``abbbbbbbdabbbbbbbabbbbbbbbbe``a",
"eccabbbbbbbdabbbb```a```bbbbbbecca",
"eccabbbbbbbdabbbbbbbabbbbbbbbbecca",
"eccabbbbbbbdabbbbbbbabb``a``bbecca",
"eccabbbbbbbdabbbbbbbabbbbabbbbecca",
"e``abbbbbbbdabbbbbbbabb``a``bbe``a",
"e``abbbbbbbdabbbbbbbabbbbabbbbe``a",
"e``abbbbbbbdabbbbbbbabbbbabbbbe``a",
"e``abbbbbbbdabbbbbbbabbbbabbbbe``a",
"eccabbbbbbbdabbbbbbbabbbbabbbbecca",
"eccabbbbbbbdabbbbbbbabbbbbbbbbecca",
"eccabbbbbbbdabbbbbbbbbbbbbbbbbecca",
"eccabbbbbbbbbbbbbbbbbbbbbbbbbbecca",
"e``abbbbbbbbbbbbbbbbbbbbbbbbbbe``a",
"e``aeeeeeeeeeeeeeeeeeeeeeeeeeee``a",
"e``cccc````cccc````cccc````cccc``a",
"e``cccc````cccc````cccc````cccc``a",
"eaaaaaaaaaaaaaaaaaaaaaaaaaaaaaaaaa"
};
