/* XPM */
static char * obj2_5_xpm[] = {
"32 32 10 1",
" 	c None",
".	c #BFBFBFBFBFBF",
"X	c #7F7F7F7F7F7F",
"o	c #FFFFFFFF0000",
"O	c #FFFF00000000",
"+	c #FFFFFFFFFFFF",
"@	c #66666666E6E6",
"#	c #3F3F3F3F3F3F",
"$	c #000000000000",
"%	c #00000000E6E6",
"                                ",
"                                ",
"                                ",
"                                ",
"                         .      ",
"                        .XX   o ",
"             OOOOOO     .XX. X  ",
"          OOO      OOO  .X. o   ",
"         O            O .. X    ",
"        O              O. o     ",
"       O              ..O       ",
"      O         X    ..+ O      ",
"     O         X  @X..+   O     ",
"     O        X #XX..+    O     ",
"     O       X #XX...+    O     ",
"    O       X#XXX...+@     O    ",
"    O      . XX....++      O    ",
"    O       XX.##.++# X    O    ",
"    O       $$X##++X X     O    ",
"    O      #$%$X+++ X      O    ",
"    O      #$$%$++#X       O    ",
"    O      #$$$#+ X        O    ",
"     O      ###  .        O     ",
"     O                    O     ",
"      O                  O      ",
"       O                O       ",
"        O              O        ",
"         O            O         ",
"          OOO      OOO          ",
"             OOOOOO             ",
"                                ",
"                                "};
