/* XPM */
static char * obj2_2_xpm[] = {
"32 32 10 1",
" 	c None",
".	c #FFFF00000000",
"X	c #7F7F7F7F7F7F",
"o	c #BFBFBFBFBFBF",
"O	c #3F3F3F3F3F3F",
"+	c #FFFFFFFF0000",
"@	c #FFFFFFFFFFFF",
"#	c #66666666E6E6",
"$	c #000000000000",
"%	c #00000000E6E6",
"                                ",
"                                ",
"                                ",
"                                ",
"                 ......         ",
"              ...      ...      ",
"             .            .     ",
"            .              .    ",
"           .                .   ",
"          .                  .  ",
"         .                    . ",
"         .      XXXXXXXo      . ",
"        .        O   O         .",
"+XX+XX+ .       @@X@@@XXX      .",
"   X    .    #@@@@@@@@$$$X     .",
"   ooooo.ooooooooooOOo$%$$X    .",
"   XXo  .  ooooooooOOo$%$$X    .",
"   oo   .    #XXXXXXXX$$$X     .",
"        .       XXOXXXXXX      .",
"         .       O   O        . ",
"         .      XXXXXXXo      . ",
"         .                    . ",
"          .                  .  ",
"           .                .   ",
"            .              .    ",
"             .            .     ",
"              ...      ...      ",
"                 ......         ",
"                                ",
"                                ",
"                                ",
"                                "};
