/* XPM */
static char * obj2_0_xpm[] = {
"32 32 10 1",
" 	c None",
".	c #FFFF00000000",
"X	c #7F7F7F7F7F7F",
"o	c #BFBFBFBFBFBF",
"O	c #000000000000",
"+	c #3F3F3F3F3F3F",
"@	c #00000000E6E6",
"#	c #FFFFFFFFFFFF",
"$	c #66666666E6E6",
"%	c #FFFFFFFF0000",
"             ......             ",
"          ...      ...          ",
"         .            .         ",
"        .              .        ",
"       .                .       ",
"      .        XX        .      ",
"     .        oOOX        .     ",
"     .       XO+OO+       .     ",
"    .      o oO@@O+ o      .    ",
"    .      X oO+OO+ X      .    ",
"    .      X+##ooXX+X      .    ",
"    .      X ##++XX X      .    ",
"    .      X ##++XX X      .    ",
"    .      X X#ooX+ X      .    ",
"    .      X+##ooXX+X      .    ",
"     .     X ##ooXX X     .     ",
"     .        #ooX        .     ",
"     .        #ooX        .     ",
"      .       $#o$       .      ",
"       .       #o       .       ",
"        .      #o      .        ",
"         .     Xo     .         ",
"          ...   o  ...          ",
"             ......             ",
"                o               ",
"              % o               ",
"              X oo              ",
"              X oXo             ",
"              %XoXo             ",
"              X                 ",
"              X                 ",
"              %                 "};
