/* XPM */
static char * obj5_3_xpm[] = {
"48 48 6 1",
" 	c None",
".	c #FFFFFFFFFFFF",
"X	c #FFFF7F7F0000",
"o	c #FFFF00000000",
"O	c #000000000000",
"+	c #FFFFFFFF0000",
"                                                ",
"                                                ",
"                                                ",
"                                                ",
"                                                ",
"                                                ",
"         .XXXX                                  ",
"        .XXXXXXoo                               ",
"       XXXXXXXXXoo                              ",
"      .XXXXXooXXXoo     XoXoXo                  ",
"      XXoooooXoXXXoo   XXXoXoXo                 ",
"     XXoo   oooXXXXoo   XXXoXoX                 ",
"    XXoo     oooXXXXoo   XoXo                   ",
"    Xoo       ooXXXXXoo  oXooo                  ",
"   XXo         ooXXXXXoo Xoooo                  ",
"   Xo          ooXXXXXXoXXoXooo                 ",
"   Xo           ooXXXXXXoXXoXoo                 ",
"   o             oX.XXXXXoXXooo                 ",
"   o             XXXXXXXXXoXXoo                 ",
"                 XXXX.XXXXXooooo                ",
"                 XXXX.XXXXXXoooo   Xo           ",
"                .XXXXXXXXXXXXooo   oXo          ",
"               .XXXXXX.XXXXXXXoo   Xooo         ",
"               .XXoXXXXXXXXXXXXoo  oXooo        ",
"               XXXXoXXXXXXXXXXXXoXoXoooo        ",
"                XXoXoXXX.XXXXXXXXoXoXo          ",
"                XXXoXoXXXXXXXXXXXXoXoo          ",
"                 XXooooXXX.XXXXXXoXooo          ",
"                  Xooo XXXXXXXXXXXoXoo          ",
"                   oo   XXX.XXXXXoXooo          ",
"                         XXXXXXXXXooo           ",
"                          XX.XXXXXXoo           ",
"                       XX.XXX.XXXXoXo           ",
"                       X.XXXXX.XXXXXo           ",
"                       X.XoXXXXXXXXooo          ",
"                       XXXXoooXXXXXXoo          ",
"                        XXXooooXXXXXXoo         ",
"                         XXXoOooXoXXXooo        ",
"                         XXXoo oo+ooXoo+o       ",
"                          XXoo  oo++XX++o       ",
"                          XoXoo  ooXXXXXo       ",
"                           Xoo    oooXXoo       ",
"                                    oooo        ",
"                                                ",
"                                                ",
"                                                ",
"                                                ",
"                                                "};
