/* XPM */
static char *noname[] = {
/* width height ncolors chars_per_pixel */
"67 57 7 1",
/* colors */
"` c #000000",
"a c #00BF00",
"b c #3F3F3F",
"c c #3F3FFF",
"d c #BF7F3F",
"e c #585858",
"f c #DFDFDF",
/* pixels */
"```````````````````````````````````````````````````````````````````",
"``fffffffffffffffffffffffffffffffffffffffffffffffffffffffffffffff``",
"`f`fffffffffffffffffffffffffffffffffffffffffffffffffffffffffffff`e`",
"`ff`fffffffffffffffffffffffffffffffffffffffffffffffffffffffffff`ee`",
"`fff```````````````````````````````````````````````````````````eee`",
"`fff`dddddddddddddddaaddddddcccddddddddddddccc`ddddddddddddddd`eee`",
"`fff`dd`d`dd`d`ddddaaaadddddccc`cccddddddaadcccdddddddaadad``d`eee`",
"`fff`dd`d`dd`d`ddddaaadddddddcccccccccdddaddcccdddddddaaaa`````eee`",
"`fff`dd`d`dd`d`dddddddd`ddddddd`dddcccdddad`cccddcccddddddd````eee`",
"`fff````````````dddaddddddddddddddddccdddaddcc`ccc`cddddddd``d`eee`",
"`fff`ddbbbbbbb`dddaaaddddd`dddaaddddccdddaaddcccccccccccd`d``d`eee`",
"`fff````````b``dddaaad`ddddaaaaaaaddccdddddddccccd`dcccccdd`dd`eee`",
"`fff`ddddddddd`dddaddddddaaaaaddddddccdd`ddddcccdddddcdcc`d`dd`eee`",
"`fff`dddddcccc`dddaaadddddddcccccdddcddd`dddd`ddddddddddcdd`dd`eee`",
"`fff`dd`ccccdc`cddddaadddddc`cccccccc`dd`dddd`dddddddddcc`d`dd`eee`",
"`fff`dcccc`ddd`ccdddddddddcc`dddcccc`bbb`b`````ddddddccccdd`dd`eee`",
"`fff`cc`dddddd`cccdddddddccb`bbd`dddbb```bbbbb`ddddcccccddd`dd`eee`",
"`fff`d`ddddddd`dccccddddcccb`db`dddddd`````````dddcccc`dddd`dd`eee`",
"`fff`ddddddddd`ddcccccccccdb`d`ddbbbbddddd``ddddd`ccccddddd`dd`eee`",
"`fff`d````dddd`ddddccccccdbb`````````````````cddcccccddddd`ddd`eee`",
"`fff`ddddd`ddd`dddddddddbbbb`bbddbbbbcccccccccccccc`ddddd`dddd`eee`",
"`fff`dddddd`dd`dddddddddddd``dbbbddccccccccccccccc`b``````dddd`eee`",
"`fff`ddddddd`````````ddddb`b`bbbdcccccc`bbbbbbbcccbb`bbbb`daad`eee`",
"`fff`dddddddd``ddddddd`bb`bb`bbccccc`b````````bb```b`bb`b`daad`eee`",
"`fff`dd`dddddd`ddddddd```b`b`bdcccc`bbb`b```b`bbbbbb`bb`b`dddd`eee`",
"`fff`ddddddadd``dddddd``bbbb`dcccc`bbbbbb```b`bbbb`b`bb`b`dd```eee`",
"`fff`ddd`ddddd``````````b``b`cccc`b`bb`bb``bb```bb`bbbbbb`d````eee`",
"`fff`ddddddddd`bbbbbb````````ccc`bbb```bbbbb```bbbbbbbbb```ddd`eee`",
"`fff`ddaddaddd`bbb``b`````````````````bbbbbbbb````````````dddd`eee`",
"`fff`daaaddddd`b`bb`b`bbbb```cccbbb````````````````bbbb```dddd`eee`",
"`fff`daaaadadd`b`bb`b````````cccbbbbbbbbbbbbbb`bbbbbbbbbbaaddd`eee`",
"`fff`daadddddd`b`bb`b`bbbb``b`cc`bb```bbb``````````````b`adaad`eee`",
"`fff`dddd`dddd``bbb`b```bb``b`ccccbbbbbbbb`````````````b`adddd`eee`",
"`fff`d`ddddddd``b`b`b``````b``cccc`````````````````bbbb`baaadd`eee`",
"`fff`dddddddddbbbbb`b`b```bb`bbbcccccccbbbbbbb`bbb``````badadd`eee`",
"`fff`dddddddddbbbbb`b`bbbbbb`bbbcccccccbbbb`b``b`b``````baaadd`eee`",
"`fff`dddd````````````````````````````cccb`b`b``bbbb``b``b`dddd`eee`",
"`fff`dddddd`ddbb``b````ddd`b`bbbbbbbb```bbb`b``b``b`bb``b`dddd`eee`",
"`fff`dddddddddbbbbb````d`ddb`bbbbdbbb`bcbbb`b``bb`b`b```b`dddd`eee`",
"`fff`ddddddddd`bbbb````d``````````````ccb`b`b````bb`bb``b`dddd`eee`",
"`fff`ddddddddd`bbbb`a`ad`bbb`bbdc`ccccccb`bbb```bbb`bbbbb``````eee`",
"`fff`ddddddddd`b`bbb`aab`bdb`b`cc`cccccbbb`b``bbbbb`bbbbb`dddd`eee`",
"`fff`ddd`ddddd`b`bbb`aabbdbd`bccc`c`d`bbb`````bbbbbb`aaaaadddd`eee`",
"`fff`dddd``````````````dbdbd`bccb`bbbbb`````b````bbaa``aaaaaad`eee`",
"`fff`ddddddddd`bbbb``b`dbbbb`bccc`b````bbb``bbbbbbbaaaaaaaaaaa`eee`",
"`fff`ddddddddd`bbbbb`b`abbdb`bcccbbb`bbbbb`bb`bb```bbb``aadddd`eee`",
"`fff`ddddddddd``````````bbbb`cccccbb`bbbbbb`bbbbbbbbccccccccdd`eee`",
"`fff`ddddddddddddddd`dddbdbbdccccc`b`bbbcccc``bbbbbccccccccccc`eee`",
"`fff`ddddddddddddddd`ddbbddad`ccccccc`ccccccccccccccccdddcccc``eee`",
"`fff`ddddddddddddddd`ddbdddaddddcccccccccccccccccccccdddddcccc`eee`",
"`fff`ddddddddddddddd`dddddaaddddddccccdddddcccccccdddddddddddd`eee`",
"`fff`ddddddddddddddddddddddddddddddddddddddddddddddddddddddddd`eee`",
"`fff```````````````````````````````````````````````````````````eee`",
"`ff`eeeeeeeeeeeeeeeeeeeeeeeeeeeeeeeeeeeeeeeeeeeeeeeeeeeeeeeeeee`ee`",
"`f`eeeeeeeeeeeeeeeeeeeeeeeeeeeeeeeeeeeeeeeeeeeeeeeeeeeeeeeeeeeee`e`",
"``eeeeeeeeeeeeeeeeeeeeeeeeeeeeeeeeeeeeeeeeeeeeeeeeeeeeeeeeeeeeeee``",
"```````````````````````````````````````````````````````````````````"
};
