/* XPM */
static char *noname[] = {
/* width height ncolors chars_per_pixel */
"67 57 7 1",
/* colors */
"` c #000000",
"a c #7F7F7F",
"b c #FFBF7F",
"c c #00FF00",
"d c #585858",
"e c #7F7FFF",
"f c #DFDFDF",
/* pixels */
"```````````````````````````````````````````````````````````````````",
"``ddddddddddddddddddddddddddddddddddddddddddddddddddddddddddddddd``",
"`d`ddddddddddddddddddddddddddddddddddddddddddddddddddddddddddddd`f`",
"`dd`ddddddddddddddddddddddddddddddddddddddddddddddddddddddddddd`ff`",
"`ddd```````````````````````````````````````````````````````````fff`",
"`ddd``eeeeeeeee````bbbbbbbbbbbbbbbbbbbbbbbbbbbbbbbbeeeeebbbbbb`fff`",
"`ddd`b`eeeeeeeeeaa````bbbbbbbbbbbbbbbbbb``````bb`beeeeebbbcbbb`fff`",
"`ddd`bb``eeeeeeeeaaa``````````bbbbbbbb``````aa``aeeeebbbccbbbb`fff`",
"`ddd`bb```eeeeeeeeaaeeeeeeeab`bbbbbbb``````aaaaaaeeebbccbbbbbb`fff`",
"`ddd`bbb`aaaeeeeeeeeeeeeeeeaebbbbbb``bbb``aaaeeeeeebbb`````bbb`fff`",
"`ddd`cbbb``aaeeeeeeeeeeeeeeaeeebbbbb`bbb`a`eaeeeee`bb`bbbbbbbb`fff`",
"`ddd`bbbbbbbab```eeeeeeeeeeaeee`bbbbb``aa`eeaeeee``bb`bbbbbbbb`fff`",
"`ddd`bbcbbbb`bbb``aa`a`````aeeeeeeeb`a``eeeeaeea````b`bbbbbbbb`fff`",
"`ddd`bbbcbbb`b`bb`aaaaaaaaaa`eeeeeeeeeeeeeeea``aaaa```bbbbbbbb`fff`",
"`ddd`bbbcbbb```bbbaa`aa```aa``eeeeeeeeeeeeebab`a`aaaa`bbbbbbbb`fff`",
"`ddd`bbbccbb```bbbb````````aaa`eeeeeeeeeeebb`baa`aa`a`bbbbbbbb`fff`",
"`ddd`bbcccbb```bbbbb``aaaa```aaeeeeeeeeeeebb``a````aa```````bb`fff`",
"`ddd`bbbccb````aaaaa``aaa`````aeeeeeeeeee``b``aa```aaabbbbbbbb`fff`",
"`ddd`bbbbbbbbb`aaaa```aa``````a`eeeeeeeeea````aaaaaaaabbbbbbbb`fff`",
"`ddd`bbbbbbbbb`aaa```````a```a``eeeeeeeee``````aa`aaa`bbbbbbbb`fff`",
"`ddd`bbbbbbb```aa````````a````aeeeeeeeeee``````aaaa`a`bbbbbbbb`fff`",
"`ddd`bbbbbb``a`a`````a```aaa``aeeeeeeeeeeeaaaaaaaaaaa`bbbbbbbb`fff`",
"`ddd`ccbbb``````````aaaa`````eeeeeeeeeeeeeeaaaa`aaa``````````b`fff`",
"`ddd`ccb````````aa``a``aa```eeeeeeeeeeeeeeee````aaa```bbbbbbbb`fff`",
"`ddd`cc`bbb`````a```````aaaeeeeeeeaa`eeeeeee````aaa```bcbbbbbb`fff`",
"`ddd`cc`bbb``````````````eeeeeeaa`a```aeeeee`aa`a`a```bbbbcbbb`fff`",
"`ddd`bb`bbb`aa```aa`a`a`baaeeaaaaaa````aaaaaaaa`a`aa``bbbccbbb`fff`",
"`ddd`bb`bbb`aa```aa`aaa`beaa`a``````a```eeeee```aaaa``bbbcbbbb`fff`",
"`ddd`bb`bbb`aaaaaa```aa`eeeeaa`a````a```eeeee```a`a`````bbbbbb`fff`",
"`ddd`bb`bbb`````````````eeeeaaaa````aa``aeeeee```````````bbbbb`fff`",
"`ddd`bb`bbb`aaaaaa````a`eeeaaaaa`aa`aa``aeeeee```````aa``bbbbb`fff`",
"`ddd`bb`bbb`aaaaa`````aaeeeaaaaaaa`aaa``aeeeeeee``````a````bbb`fff`",
"`ddd`bb`bbb`aa```a````eeee`````````a````aaeeeeeee`````a`````bb`fff`",
"`ddd`bb`bbbaaa``aa```eeeee```````````````aeeeeeeeaa``````bb`bb`fff`",
"`ddd`bb````aaa``````eeeee````c``````````aaeeeeeeeeeebbbbbbbbbb`fff`",
"`ddd`bb`bbb``aa`````eeeeaaacccc```a````aaeeeeeeeeeeeeee`b`b`b``fff`",
"`ddd`bbbbbb```aaaa`eeeeea`cccc```aaaa``aaeeeeeeeeeeeeeeeeeeaaa`fff`",
"`ddd`bbbbbb``aaaa`aaeaaaa`cccc`````aa``aaeeeeeeeeeeeeeeeeeeeee`fff`",
"`ddd`b```````aaa`eaaaaaaa`ccc`````aaa``aaeeeeeeeeeeeeeeeeeeeee`fff`",
"`ddd`cccccb`eeeeeeaea`````````````aa``aaaeeeeeeeeeeeeeeeeeeeee`fff`",
"`ddd`cbccc`eeeeeeeaa``aaaaa``aa``aa```aa`eeeeeeeeeeeeeeeeeeeee`fff`",
"`ddd`bccb`eeeeeeeeba`aaaa```aaaa``a```aa`eeeeeeeeeeeeeeeeeeeee`fff`",
"`ddd`b`beeeeeeee`bbaa``aaaaaaa`a``aa``aa`eeeeeeeeeeeeeeeeeeeee`fff`",
"`ddd``eeeeeebbbbbbbb`aaaa`aaaa`aaa````aeeeeeeeeeeeeeeeeeeeeeee`fff`",
"`ddd`eeeeee```````````````aaa``aaa```aaeeee`eeeeea``ee`aeeeeee`fff`",
"`ddd`eeeeebcc`bbbcbb`````aaaaaaa```````ee`aa`aaaaaaaa``aa`eeee`fff`",
"`ddd`eeeebbcccbbbaa``aaaaaaaaa``babbbbbeeaaaaa````aaa``aaaeeee`fff`",
"`ddd`eebbbbcccc```aa```````````babb````ee```````````a`aaaaaeee`fff`",
"`ddd`bb````cbcbbb`bbaabbabbbbbcccbabbbbb`bb```aaaaaaa`aaa``eee`fff`",
"`ddd``````a`cc`````b`bbbabbbbbabbccbbbbb`bbbb`c````````aaa``ee`fff`",
"`ddd`bbb`bbbcbbbbbbbbbbbbbbccbbbbbbbbbbb`bbbbbcbbbbbbbbb````ee`fff`",
"`ddd`bbbbbbbbbbbbbbbbbbbbbbbbbbbbbbbbbbbbbbbbbbbbbbbbbbbbbb`aa`fff`",
"`ddd```````````````````````````````````````````````````````````fff`",
"`dd`fffffffffffffffffffffffffffffffffffffffffffffffffffffffffff`ff`",
"`d`fffffffffffffffffffffffffffffffffffffffffffffffffffffffffffff`f`",
"``fffffffffffffffffffffffffffffffffffffffffffffffffffffffffffffff``",
"```````````````````````````````````````````````````````````````````"
};
