/* XPM */
static char *tiles__[] = {
/* columns rows colors chars-per-pixel */
"39 47 5 1",
"  c black",
". c #00007F7F0000",
"X c red",
"o c gray81",
"O c gray100",
/* pixels */
"                                       ",
" OOOOOOOOOOOOOOOOOOOOOOOOOOOOOOOOOOOOO ",
" OOOOOOOOOOOOOOOOOOOOOOOOOOOOOOOOOOOOO ",
" OOOOOOOOOOOOOOOOOOOOOOOOOOOOOOOOOOOOO ",
" OOOOOOOOOOOOOOOOOOOOOOOOOOOOOOOOOOOOO ",
" OOOOOOOOOOOOOOOOOOOOOOOOOOOOOOOOOOOOO ",
" OOOOOOOOOOOOOOOOOOOOOOOOOOOOOOOOOOOOO ",
" OOOOOOOOOOOOOOOOOOOOOOOOOOOOOOOOOOOOO ",
" OOO.OOOOOOOOOOOOOOOOOOOOOOOOOOOOOOOOO ",
" OOO.OOOOOOOOOOOOOOOOOOOOOOOOOOOOOOOOO ",
" O.....OOOOOOOOOOOOOOOOOOOOOOOOOOOOOOO ",
" OOO.OOOOOOOOOOOOOOOOOOOOOOOOOOOOOOOOO ",
" OOO.OOOOOOOOOOOOOOOOOOOOOOOOOOOOOOOOO ",
" OOOOOOOOOOOOOOOOOOOOOOOOOOOOOOOOOOOOO ",
" OOOOOOOOOOOOOOOOOOOOOOOOOOOOOOOOOOOOO ",
" OOOOOOOOOOOOOOOOOOOOOOOOOOOOOOOOOOOOO ",
" OOOOOOOOOOOOOOOOOOOOOOOOOOOOOOOOOOOOO ",
" OOOOOOOOOOOOOOOOOOOOOOOOOOOOOOOOOOOOO ",
" OOOOOOOOOOOOOOOOOOOOOOOOOOOOOOOOOOOOO ",
" OOO                                OO ",
" OO  oooooooooooooooooooooooooooooo OO ",
" OO  oooo   ooooooo   ooooooo ooooo OO ",
" OO  oooo oo ooooo ooo oooooo ooooo OO ",
" OO  oooo oo ooooo oooooooooo ooooo OO ",
" OO  oooo   oooooo oooooooooo ooooo OO ",
" OO  oooo oo ooooo ooo oooooo ooooo OO ",
" OO  oooo oo oooooo   ooooooo ooooo OO ",
" OO  oooooooooooooooooooooooooooooo OO ",
" OO                                 OO ",
" OO                                OOO ",
" OOOOOOOOOOOOOOOOOOOOOOOOOOOOOOOOOOOOO ",
" OOOOOOOOOOOOOOOOOOOOOOOOOOOOOOOOOOOOO ",
" OOOOOOOOOOOOOOOOOOOOOOOOOOOOOOOOOOOOO ",
" OOOOOOOOOOOOOOOOOOOOOOOOOOOOOOOOOOOOO ",
" OOOOOOOOOOOOOOOOOOOOOOOOOOOOOOOOOOOOO ",
" OOOOOOOOOOOOOOOOOOOOOOOOOOOOOOOOOOOOO ",
" OOOOOOOOOOOOOOOOOOOOOOOOOOOOOOOOOOOOO ",
" OXXXXXOOOOOOOOOOOOOOOOOOOOOOOOOOOOOOO ",
" OOOOOOOOOOOOOOOOOOOOOOOOOOOOOOOOOOOOO ",
" OOOOOOOOOOOOOOOOOOOOOOOOOOOOOOOOOOOOO ",
" OOOOOOOOOOOOOOOOOOOOOOOOOOOOOOOOOOOOO ",
" OOOOOOOOOOOOOOOOOOOOOOOOOOOOOOOOOOOOO ",
" OOOOOOOOOOOOOOOOOOOOOOOOOOOOOOOOOOOOO ",
" OOOOOOOOOOOOOOOOOOOOOOOOOOOOOOOOOOOOO ",
" OOOOOOOOOOOOOOOOOOOOOOOOOOOOOOOOOOOOO ",
" OOOOOOOOOOOOOOOOOOOOOOOOOOOOOOOOOOOOO ",
"                                       "
};
