/* XPM */
static char *tiles____[] = {
/* columns rows colors chars-per-pixel */
"48 48 6 1",
"  c black",
". c #99997F7F4C4C",
"X c red",
"o c #FFFF7F7F0000",
"O c yellow",
"+ c None",
/* pixels */
"++++++++++++++++++++++++++++++++++++++++++++++++",
"++++++++++++++++++++++++++++++++++++++++++++++++",
"++++++++++++++++++++++++++++++++++++++++++++++++",
"+++++++++++++++++++X++++++++++o+o++o++++++++++++",
"+++++++++++X+++++++++++++++++++++++++++o++++++++",
"+++++X++++++++++o++++++++X++++++++++++++++++++++",
"++++X++++++++++++Xo+++++++++++++++++++++++++++++",
"++++++++++.+++++++++++++++++++++++++++++X+++++++",
"++++++o+++++++++++++++++++++++++++++.+++X+++++++",
"++++++++++++++++++++.+++++++++++++++++++++X+++++",
"+++++++++++++++++++++++++.+++o++++++++++++++++++",
"++++++++++++++++++++++++++++++++++++++++++++++++",
"++++++++++++++++++++++++++++++++++++++++++X+++++",
"+++o++++X+++++++++++++++++++++++++++++++++++++++",
"+++++++++++++++o+++++++++o++++++++++++++++++++++",
"++++++++++++++++++++++++++++o+++++++++++++++++++",
"++o++++++++++++++++++++++++++++o++++++++++++++++",
"++++++o+++++++++O+++++++++++++++++++++++++++++++",
"++++++++++o++++++++++++++++++++++++++++++o++++++",
"+++X+++++++++++++++++++++.+.++++++++++++++++++++",
"++++++++++++++++++++++++++++++++++++++++++++++++",
"+++++++++++++++++++++++++++++++++++++.++++ooo+++",
"+++++++++++++++++++o+++++.++X++++.++++++++++++X+",
"++++++++++++++++++++++++++++++++++++++++++++++++",
"+++++++++o++++++++++++++.++++++O++++++++++++++++",
"+++++++X+++++++++++++++++++++.++++++++++++++++++",
"+++++++++++++++++++++o+++++++++++++++++++++++X++",
"++++++o+++++++++++++.+++++++.+++++++++++++++++++",
"+++++++++++++++++O++++++++++++++++++++++++++++++",
"++++++++++++++++++++++++++++++O+++++++++++++o+++",
"+++++++++++++++++++++++++++++++O++++++++++++++++",
"++X+++++++++++++++++++++++++o++++++++++o++++++++",
"++++++++++++++++++++++++++++.+++++o+++++++++++++",
"+++++++++++++++++++++++++++++.++++o+++++++++++++",
"+++++++++++++++++++++++o++++++++++++++++o+++++++",
"++++++++o++++++++++X++++++++++++++++++++++++++++",
"+++++++++++++++++++++X++++++++++++++++++++++++++",
"++++++++++++++++++++++++++++++++++o+++++++++++++",
"+++++++++++++++++++++++++X++++++++++++++++++++++",
"++++++++++++++++++++++++++++++++++++++++++++++++",
"+++++o+++++o+++++++++++++++++++++++O++++++++++++",
"+++++++++++++++++..++++++++++++++++++++X++++++++",
"++++++++++++++++++++++++++++++++++++++++++++++++",
"++++++++++++X++++++++X++++++++X+++++++++++++++++",
"+++++++++++X++++++++++++++++++++++++X+++++++++++",
"++++++++X+++++++++++++++++++++++++++++++++++++++",
"++++++++X+++++++++++++++++++++++++++++++++++++++",
"++++++++++++++++++++++++++++++++++++++++++++++++"
};
