/* XPM */
static char *tiles____[] = {
/* columns rows colors chars-per-pixel */
"48 48 6 1",
"  c black",
". c red",
"X c #FFFF7F7F0000",
"o c yellow",
"O c gray100",
"+ c None",
/* pixels */
"++++++++++++++++++++++++++++++++++++++++++++++++",
"++++++++++++++++++++++++++++++++++++++++++++++++",
"++++++++++++++++++++++++++++++++++++++++++++++++",
"++++++++++++++++++++++++++++++++++++++++++++++++",
"+++++++++++++++++++++++++++++++++++++XXX++++++++",
"++++++++++++++++++++++++++++++++++++++XXX+++++++",
"+++++++++++++++++++++++++++++++++++++++XXX.+++++",
"++++++++++++++++++++++++++++++++++++++++X.X.++++",
"+++++++++++++++++++++++++++++++++XXXX+++.X.X++++",
"++++++++++++++++++++++++++++++XXXOXXXXX.X.X.++++",
"++++++++++++++++++++++++++++XXOXXXXX.X.X.X.+++++",
"+++++++++++++++++++++++++++XXXXXX.X...X.X.++++++",
"+++++++++++++++++++++++++XXXOXXX....++++++++++++",
"++++++++++++++++++++++++XXXXXXX...++++++++++++++",
"+++++++++++++++++OXX++XXXOXXXX...++XXX++++++++++",
"+++++++++++++++XOXXXXXXXXXXXX....XXXXX.+++++++++",
"++++++++++++++OXXXXXXXXOXXXXX..X.XXXXX.+++++++++",
"+++++++++++++XXXXXXXXXXXXXXXXX..XX.X...+++++++++",
"+++++++++++++XXX.X.XXOXXXXXXX.X.X.X.X..+++++++++",
"+++++++++++++XX.X.XXOXXXXXXX.X.X.X.X..++++++++++",
"++++++++++++++.X.XXXXXXXXXX.X.X.X.....++++++++++",
"++++++++++++++..XXXXXXXXXX.X.....X+..+++++++++++",
"++++++++++++++.XXXOXXXXXX.X.....++++++++++++++++",
"+++++++++++++++XXOXXXXXX.X....++++++++++++++++++",
"+++++++++XXX++XXXXXXXXX.X...++++++++++++++++++++",
"++++++++XXXXXXXOXXXXXX.X...+++++++++++++++++++++",
"++++++OXXXXXXXXXXXXXXX.... XXXX+++++++++++++++++",
"+++++OXXXXXXXOXXXXXXX.....XXXX.+++++++++++++++++",
"++++OXX.X.XXXXXXXXXXX.XXXXX.X.X+++++++++++++++++",
"++++XXX....OXXXXXXXX.X.X.X.X.X++++++++++++++++++",
"+++XX.X+++XXXXXXXXX.X.X.X.X..+++++++++++++++++++",
"+++++X+++XXXXXXXXX.X.X.X...+++++++++++++++++++++",
"++++++++XXXXXXXXX.X....+++++++++++++++++++++++++",
"+++++++XXXXXXXXX.X..++++++++++++++++++++++++++++",
"+++++++XXXXXXXX.X.++++++++++++++++++++++++++++++",
"++++++..XXXXXX.X.+++++++++++++++++++++++++++++++",
"++++++..XX.XX.X.++++++++++++++++++++++++++++++++",
"+++++.o.X..o.X.+++++++++++++++++++++++++++++++++",
"+++++XoX..o...++++++++++++++++++++++++++++++++++",
"+++++XXX.X...+++++++++++++++++++++++++++++++++++",
"+++++.XXX...++++++++++++++++++++++++++++++++++++",
"++++++....++++++++++++++++++++++++++++++++++++++",
"++++++++++++++++++++++++++++++++++++++++++++++++",
"++++++++++++++++++++++++++++++++++++++++++++++++",
"++++++++++++++++++++++++++++++++++++++++++++++++",
"++++++++++++++++++++++++++++++++++++++++++++++++",
"++++++++++++++++++++++++++++++++++++++++++++++++",
"++++++++++++++++++++++++++++++++++++++++++++++++"
};
