/* XPM */
static char *tiles____[] = {
/* columns rows colors chars-per-pixel */
"48 48 5 1",
"  c black",
". c red",
"X c #FFFF7F7F0000",
"o c yellow",
"O c None",
/* pixels */
"OOOOOOOOOOOOOOOOOOOOOOOOOOOOOOOOOOOOOOOOOOOOOOOO",
"OOOOOOOOOOOOOOOOOOOOOOOOOOOOOOOOOOOOOOOOOOOOOOOO",
"OOOOOOOOOOOOOOOOOOOOOOOOOOOOOOOOOOOOOOOOOOOOOOOO",
"OOOOOOOOOOOOOOOOOOOOOOOOOOOOOOOOOOOOOOOOOOOOOOOO",
"OOOOOOOOOOOOOOOOOOOOOOOOOOOOOOOOOOOOOOOOOOOOOOOO",
"OOOOOOOOOOOOOOOooOOOOOOOOOOOOOOooOOOOOOOOOOOOOOO",
"OOOOOOOOOOOOOOOOoOOOOOOOOOOOOoooOOOOOOOOOOOOOOOO",
"OOOOOOOOOOOOOOOOXXXXOOOOOOOOoOOOOOOOOOOXOOOOOOOO",
"OOOOOOXOOOOOOOOOOXXXXOOOOOOOoOOOOOOOOOOOOOOOOOOO",
"OOOOOOOOOOOOOOOOOOXOXOOOOOOoOXOOOOOOOOOOOOOOOOOO",
"OOOOOOOOOOOOOOOOOOXXOXOOOOoOXXOOOOOOOOOOOOOOOOOO",
"OOOOOOooooOOOOOOOOOXoOXOOoOXXOOOOOOOOOOOOOOOOOOO",
"OOOOooOOOXXXOOOOOOOXOoXXoOXOOOOOOOXXooooooOOOOOO",
"OOOoOXXXXXOoXXXOOOOOOoXXoXOO..OOXXooXOOOOOoOOOOO",
"OOOOOOOOOXXXOOoXXOOOOoOXXXOOOOOXXoXXOOOOOOOOOOOO",
"OOOOOOOOOOOXXOOooXXOOoX.X.OXXOXXXXXXOOOOOOOOOOOO",
"OOOOOOOOOOOOOXXOOooXXoXoXXX.OoXXXXOOOOOOOOOOOOOO",
"OOOOOOOOOOOOOoXXooooOoOoXXXOoXOXOOOOOOOOOOOOOOOO",
"OOOOOOOOOOOOoOOXXOOooOooXX.OOXXOOOOOOOOXXXOOOOOO",
"OOOOOOOOOOOX.XX.XOOOOooXoXoOOooOOOXXXOOOOOXOOOOO",
"OOOOOOOOOOOXOOOOooooooOOooooooOooXoooooooooOOOOO",
"OOOOOOOOOOOOOOooOO.XXoOoooXOoXoXXXOOOXXXXOOOOOOO",
"OOOOOOOXOOOOOoOOOOOoooooXooooXXXOOOOOOOOOOOOOOOO",
"OOOOOOOOOOOOoOOXooooOOooXXXoooXXOOOXOOOOOOOOOOOO",
"OOOOOOOOOOOXXOXoOOOXXoooooooooooXXXXXOOOOOOOOOOO",
"OOOOOOOOOOOoXXXXXXXXOooOooooXXooooOOXXXXOOOOOOOO",
"OOOOOOOOOOoOXoOOOOOoooXoooOOoXOoOoooOOOOOOOOOOOO",
"OOOOOOOOOOoOXoOOOooX.oXooXoOOoXXOOOoOOOOOOOOOOOO",
"OOOOOOOOOoOOoOXoooooXXoXoXXOOoXXXOOOoOOOOOOOOOOO",
"OOOOOOOOoOOOXXooOOXXOOoXoOXOOOoXXOOOOoOOOOOOXOOO",
"OOOOOOOOoOOXoooOO.OOXXoXOoXOOOOoXOOOOooOOOOOOOOO",
"OOOOOOOOOOXXooOOOXOXXoOXOoXOXOOoXOOOOOOOOOOOOOOO",
"OOOOOOOOOXOooOOOXXXOOoOXOoXOXOOOXXOOOOOOOOOOOOOO",
"OOOOOOOOOOoOXXXXXOXOOoOXOoOOXOOOoXOOOOOOOOOOOOOO",
"OOOOOOOOOoOoOOOOOOXOoOOXOoOOXOOOOXOOOOOOOOOOOOOO",
"OOOOOOOOoOOoOOOOOXOOOOOOOoOOOOOOOXOOOOOOOOOOOOOO",
"OOOOOOOOoOOoOOOOOXOOOOOOoOOOOOOOOOoOOOOOOOOOOOOO",
"OOOOOOOOoOOOOOOOOOOOOOOoOOOOOOOOOOoOOOOOOOOOOOOO",
"OOOOOOOOOOOOOOOOOOOOOOOOOOOOOOOOOOOoOOOOOOOOOOOO",
"OOOOOOOOOOOOOOOOOOOOOOOOOOOOOOOOOOOoOOOOOOOOOOOO",
"OOOOOOOOOOOOOOOOOOOOOOOOOOOOOOOOOOOoOOOOOOOOOOOO",
"OOOOOOOOOOOOOOOOOOOOOOOOOOXOOOOOOOOoOOOOOOOOOOOO",
"OOOOOOOOOOOOXOOOOOOOOOOOOOOOOOOOOOOOOOOOOOOOOOOO",
"OOOOOOOOOOOOOOOOOOOOOOOOOOOOOOOOOOOOOOOOOOOOOOOO",
"OOOOOOOOOOOOOOOOOOOOOOOOOOOOOOOOOOOOOOOOOOOOOOOO",
"OOOOOOOOOOOOOOOOOOOOOOOOOOOOOOOOOOOOOOOOOOOOOOOO",
"OOOOOOOOOOOOOOOOOOOOOOOOOOOOOOOOOOOOOOOOOOOOOOOO",
"OOOOOOOOOOOOOOOOOOOOOOOOOOOOOOOOOOOOOOOOOOOOOOOO"
};
