/* XPM */
static char *tiles__[] = {
/* columns rows colors chars-per-pixel */
"48 48 11 1",
"  c black",
". c #3F3F3F3F3F3F",
"X c #00007F7F0000",
"o c gray50",
"O c #00000000E6E6",
"+ c #0000E6E60000",
"@ c #99997E7E4C4C",
"# c red",
"$ c #FFFF7B7B0000",
"% c #CCCC7E7E6666",
"& c yellow",
/* pixels */
" ###############################################",
" #                                             #",
" #++X++++++++++++++++++++++++++++++++++++++++X #",
" #+X+++++++++++X+++++++++++X++++++++++++++++++ #",
" #++XX++X++++++++++++++X+++++++++ooooooooooo++ #",
" #X+XX+X+++++++++++++++++o+++++++ooooooooooo++ #",
" #+X++++################o######## $$$oooOOOo++ #",
" #+X+++##              o        #o$$$oooOOOo++ #",
" #++++###.......o.....o........ #ooooooooooo++ #",
" #+++####......o............... #.oooooo%%%o++ #",
" #++##@##.....o................ #.oooooo%%%o++ #",
" #++##@##....o................. #.oooooooooo++ #",
" #++#####...................... #.  oooooooo++ #",
" #++#####...................... #.  oooooooo++ #",
" #++#@#@#...#########################ooooooo++ #",
" #++#@#@#..##.......................#ooo ooooooo",
" #++#####.###oooooooooooooooooooooo.#ooooooooooo",
" #X+##@####@#oooooooooooooooooooooo.#ooooooooooo",
" #++##@#@##@#oooooooooooooooooooooo.#ooooooooooo",
" #++####@####oo.&&&&&&&o.&&&&&ooooo.#.oooooo++ #",
" #++#@#######oo.&&&&&&&o.&&&&&&oooo.#.oooooo++ #",
" #++#@####@##oo.&&.....o.&&..&&&ooo.#.oooooo++ #",
" #++###@##@##oo.&&oooooo.&&oo.&&ooo.#.oooooo++ #",
" #++###@#####oo.&&oooooo.&&oo.&&ooo.#@@@@@@@@@ #",
" #++#@###@###oo.&&&&&&oo.&&oo.&&ooo.#        @ #",
" #++#@###@#@#oo.&&&&&&oo.&&oo.&&ooo.#....... @ #",
" #++#######@#oo.&&....oo.&&oo.&&ooo.#..o ... @ #",
" #++###@#####oo.&&oooooo.&&oo.&&ooo.#.....o. @ #",
" #X+###@#####oo.&&oooooo.&&oo&&&ooo.#....o.. @ #",
" #++#@#######oo.&&oooooo.&&&&&&.ooo.#...o... @ #",
" #++#@###@###oo.&&oooooo.&&&&&.oooo.#..o.... @ #",
" #++###@#@###oo...oooooo......ooooo.#....... @ #",
" #++###@#####oooooooooooooooooooooo.#....... # #",
" #++######@##oooooooooooooooooooooo.#....... # #",
" #++#@####@##########################....... # #",
" #++#@#@############################..o o .. # #",
" #++###@###########################...o o .. # #",
" #++##############################.......... # #",
" #++#@#######       ###       ################ #",
" #++#@###### @.@.@.### @.@.@.################+ #",
" #++####### @.@.@.### @.@.@.###.##.######.##X+ #",
" #X+###### @.@.@.### @.@.@.### .# .#  ## .#XX+ #",
" #++##### @%@%@%### @%@%@%#########  #####XXX+ #",
" #+++XXXXX.....XXXXX.....XXXXXXXXXXXXXXXXXXXX+ #",
" #++++XXXX.....XXXXX.....XXXXXXXXXXXXXXXXXXXX+ #",
" #++X++XXX.....XXXXX.....XXXXXXXXXX++++++X++++ #",
" #######@@.....@@@@@.....@@@@@@@@@@#############",
"          .....     .....                       "
};
