/* XPM */
static char *tiles____[] = {
/* columns rows colors chars-per-pixel */
"48 48 4 1",
"  c black",
". c #FFFF7F7F0000",
"X c yellow",
"o c None",
/* pixels */
"oooooooooooooooooooooooooooooooooooooooooooooooo",
"oooooooooooooooooooooooooooooooooooooooooooooooo",
"oooooooooooooooooooooooooooooooooooooooooooooooo",
"oooooooooooooooooooooooooooooooooooooooooooooooo",
"oooooooooooooooooooooooooooooooooooooooooooooooo",
"oooooooooooooooooooooooooooooooooooooooooooooooo",
"oooooooooooooooooooooooooooooooooooooooooooooooo",
"oooooooooooooooooooooooooooooooooooooooooooooooo",
"oooooooooooooooooooooooooooooooooooooooooooooooo",
"oooooooooooooooooooooooooooooooooooooooooooooooo",
"oooooooooooooooooooooooooooooooooooooooooooooooo",
"oooooooooooooooooooooooooooooooooooooooooooooooo",
"oooooooooooooooooooooooooooooooooooooooooooooooo",
"oooooooooooooooooooooooooooooooooooooooooooooooo",
"ooooooooooooooooooooo.oooooooooooooooooooooooooo",
"oooooooooooooooooooooooooooooooooooooooooooooooo",
"oooooooooooooooooooXXXXXXXoooooooooooooooooooooo",
"ooooooooooooooooooXXXXXXXoXXoooooooooooooooooooo",
"oooooooooooooooo.oXXXXoXXXoXXooooooooooooooooooo",
"oooooooooooooooooXoXXXXXX.XXXooooooooooooooooooo",
"ooooooooooooooooXXXXXXXXXXXXXXoooooooooooooooooo",
"ooooooooooooooooXXXXXXXXXXXXXXoooooooooooooooooo",
"ooooooooooooooooXoXXXXXXXXXXXXoooooooooooooooooo",
"ooooooooooooooooXXXXXXXXXXXXoXoooooooooooooooooo",
"oooooooooooooooooXXXXXXXXXXXoXoooooooooooooooooo",
"ooooooooooooooooooXXXXXXXXXXo.oooooooooooooooooo",
"oooooooooooooooooX.XXXooXXXXoXoooooooooooooooooo",
"ooooooooooooooooooXXXXXXXXoXXooooooooooooooooooo",
"ooooooooooooooooooooXXX.XXXXoooooooooooooooooooo",
"oooooooooooooooooooooooooooooooooooooooooooooooo",
"oooooooooooooooooooooooooooooooooooooooooooooooo",
"oooooooooooooooooooooooooooooooooooooooooooooooo",
"oooooooooooooooooooooooooooooooooooooooooooooooo",
"oooooooooooooooooooooooooooooooooooooooooooooooo",
"oooooooooooooooooooooooooooooooooooooooooooooooo",
"oooooooooooooooooooooooooooooooooooooooooooooooo",
"oooooooooooooooooooooooooooooooooooooooooooooooo",
"oooooooooooooooooooooooooooooooooooooooooooooooo",
"oooooooooooooooooooooooooooooooooooooooooooooooo",
"oooooooooooooooooooooooooooooooooooooooooooooooo",
"oooooooooooooooooooooooooooooooooooooooooooooooo",
"oooooooooooooooooooooooooooooooooooooooooooooooo",
"oooooooooooooooooooooooooooooooooooooooooooooooo",
"oooooooooooooooooooooooooooooooooooooooooooooooo",
"oooooooooooooooooooooooooooooooooooooooooooooooo",
"oooooooooooooooooooooooooooooooooooooooooooooooo",
"oooooooooooooooooooooooooooooooooooooooooooooooo",
"oooooooooooooooooooooooooooooooooooooooooooooooo"
};
