/* XPM */
static char *tiles___[] = {
/* columns rows colors chars-per-pixel */
"93 14 6 1",
"  c black",
". c red",
"X c #FFFF7F7F0000",
"o c yellow",
"O c gray69",
"+ c gray75",
/* pixels */
"OOOOOOOOOOOOOOOOOOOOOOOOOOOOOOOOOOOOOOOOOOOOOOOOOOOOOOOOOOOOOOOOOOOOOOOOOOOOOOOOOOOOOOOOOOOOO",
"OOOOOOOOOOOOOOOOOOOOOO                                             OOOOOOOOOOOOOOOOOOOOOOOOOO",
"OOOOOOOOOOOOOOOOOOOOOO ++++++++++ oooooooooo XXXXXXXXXX .......... OOOOOOOOOOOOOOOOOOOOOOOOOO",
"OOOOOOOOOOOOOOOOOOOOOO ++++++++++ oooooooooo XXXXXXXXXX .......... OOOOOOOOOOOOOOOOOOOOOOOOOO",
"OO OOOOO OO OO OOOO OO ++++++++++ oooooooooo XXXXXXXXXX .......... OO OOOOO OOOO OOOO OOOO OO",
"OO  OOO  OO OO  OOO OO ++++++++++ oooooooooo XXXXXXXXXX .......... OO  OOO  OOO O OOOO OO OOO",
"OO O O O OO OO O OO OO ++++++++++ oooooooooo XXXXXXXXXX .......... OO O O O OO OOO OOOO  OOOO",
"OO OO OO OO OO OO O OO ++++++++++ oooooooooo XXXXXXXXXX .......... OO OO OO O       OOO  OOOO",
"OO OOOOO OO OO OOO  OO ++++++++++ oooooooooo XXXXXXXXXX .......... OO OOOOO O OOOOO OO OO OOO",
"OO OOOOO OO OO OOOO OO ++++++++++ oooooooooo XXXXXXXXXX .......... OO OOOOO O OOOOO O OOOO OO",
"OOOOOOOOOOOOOOOOOOOOOO ++++++++++ oooooooooo XXXXXXXXXX .......... OOOOOOOOOOOOOOOOOOOOOOOOOO",
"OOOOOOOOOOOOOOOOOOOOOO ++++++++++ oooooooooo XXXXXXXXXX .......... OOOOOOOOOOOOOOOOOOOOOOOOOO",
"OOOOOOOOOOOOOOOOOOOOOO                                             OOOOOOOOOOOOOOOOOOOOOOOOOO",
"OOOOOOOOOOOOOOOOOOOOOOOOOOOOOOOOOOOOOOOOOOOOOOOOOOOOOOOOOOOOOOOOOOOOOOOOOOOOOOOOOOOOOOOOOOOOO"
};
