/* XPM */
static char *tiles____[] = {
/* columns rows colors chars-per-pixel */
"48 48 6 1",
"  c black",
". c red",
"X c #FFFF7F7F0000",
"o c yellow",
"O c gray100",
"+ c None",
/* pixels */
"++++++++++++++++++++++++++++++++++++++++++++++++",
"++++++++++++++++++++++++++++++++++++++++++++++++",
"++++++++++++++++++++++++++++++++++++++++++++++++",
"++++++++++++++++++++++++++++++++++++++++++++++++",
"+++++++++++++++++++++++++++++++++OXXXXX+++++++++",
"++++++++++++++++++++++++++++++++X...XXX.++++++++",
"+++++++++++++++++++++++++++++++...++.XXX.+++++++",
"++++++++++++++++++++++++++++++++++++XXX..+++++++",
"++++++++++++++++++++++++++++++++++++XXXX.+++++++",
"+++++++++++++++++++++++++++++++++++XXXX..+++++++",
"++++++++++++++++++++++++++++++++++XXXXX..+++++++",
"++++++++++++++++++++++++OX.++++++XXXXX.X++++++++",
"+++++++++++++++++++++++XOXX.++++XXOXX.X.++++++++",
"+++++++++++++++++++++++XXX...++XOXXX.X.+++++++++",
"+++++++++++++++++++++++XXXX.++XXXXX.X.++++++++++",
"+++++++++++++++++++++++XXX..+OXXXX.X.+++++++++++",
"+++++++++++++++++++++OXXXXX XXXXX.X.X+++++++++++",
"++++++++++++++++++++OXXXXXXXXXXX.X.X++++++++++++",
"+++++++++++++++++++.X.XXXOXXXXX.X.X+++++++++++++",
"+++++++++++++++++++....XXXXXXX.X.X++++++++++++++",
"+++++++++++++++++++...XOXXXXXXX.X++.X.X+++++++++",
"+++++++++++++++++++XXXOXXXXXXX.X.X.X.X..++++++++",
"+++++++++++++OX.++XXXXXXXXXXX.X.X.X.X.X.++++++++",
"++++++++++++XXX...XXOXXXXXXX.X.X.X.X.X.X++++++++",
"++++++++++++OXX..XXXXXXXXXX.X.X.X...X..+++++++++",
"+++++++++++XXXXXXXOXXXXXXX.X.X.X.......+++++++++",
"+++++++++++.X.XXXXXXXXXXX.X......++...++++++++++",
"+++++++++++..XXXOXXXXXXX.X......++++++++++++++++",
"++++++++++....XXXXXXXXX.X.....++++++++++++++++++",
"++++++++++++..XXXXXXXX.X...+++++++++++++++++++++",
"+++++++++++++XXXXXXXX.X.X.++++++++++++++++++++++",
"++++++++++++XXXXXXXX.X.X.X.+++++++++++++++++++++",
"+++++++++++XXXXXXXX.X.X.X.X.++++++++++++++++++++",
"++++++++++XXXXXXXX.X.X.X.X..++++++++++++++++++++",
"+++++++++XXXXXXXX.X...X.X.X.++++++++++++++++++++",
"++++++++X.XXXXXX.......X.X..++++++++++++++++++++",
"++++++++X..XX.X...++++.....+++++++++++++++++++++",
"+++++++Xo..X.o...+++++...+++++++++++++++++++++++",
"+++++++XXoX.o...++++++++++++++++++++++++++++++++",
"+++++++XXXXX...+++++++++++++++++++++++++++++++++",
"+++++++XXXX...++++++++++++++++++++++++++++++++++",
"+++++++.....++++++++++++++++++++++++++++++++++++",
"++++++++++++++++++++++++++++++++++++++++++++++++",
"++++++++++++++++++++++++++++++++++++++++++++++++",
"++++++++++++++++++++++++++++++++++++++++++++++++",
"++++++++++++++++++++++++++++++++++++++++++++++++",
"++++++++++++++++++++++++++++++++++++++++++++++++",
"++++++++++++++++++++++++++++++++++++++++++++++++"
};
