/* XPM */
static char *tiles____[] = {
/* columns rows colors chars-per-pixel */
"48 48 6 1",
"  c black",
". c red",
"X c #FFFF7F7F0000",
"o c yellow",
"O c gray100",
"+ c None",
/* pixels */
"++++++++++++++++++++++++++++++++++++++++++++++++",
"++++++++++++++++++++++++++++++++++++++++++++++++",
"++++++++++++++++++++++++++++++++++++++++++++++++",
"++++++++++++++++++++++++++++++++++++++++++++++++",
"++++++++++++++++++++++++++++++++++++++++++++++++",
"+++++++++OOXXXX+++++++++++++++++++++++++++++++++",
"++++++++XXXX...X++++++++++++++++++++++++++++++++",
"+++++++XOXX.++...+++++++++++++++++++++++++++++++",
"+++++++XXXX.++++++++++++++++++++++++++++++++++++",
"+++++++XOXX.++++++++++++++++++++++++++++++++++++",
"+++++++XXXXX.+++++++++++++++++++++++++++++++++++",
"+++++++XXXXXX.++++++++++++++++++++++++++++++++++",
"++++++++XXXXXX.++++++...++++++++++++++++++++++++",
"++++++++XXOXXXX.++++.X...+++++++++++++++++++++++",
"+++++++++XXXXXXX.++.X.X..+++++++++++++++++++++++",
"++++++++++XXXXXXX.++.X.X.+++++++++++++++++++++++",
"+++++++++++XOXXXXX.+X.X..+++++++++++++++++++++++",
"+++++++++++XXXXXXXX. X.X...+++++++++++++++++++++",
"++++++++++++XXOXXXXX..X.X...++++++++++++++++++++",
"+++++++++++++XXXXXXXX........+++++++++++++++++++",
"++++++++++++++XXOXXXXX.......+++++++++++++++++++",
"+++++++++OOXX++XXXXXXXX......+++++++++++++++++++",
"++++++++XXXXOXXXXOXXXXXX.....+++++++++++++++++++",
"++++++++XXXXXXXXXXXXXXXXX.....++.X.+++++++++++++",
"++++++++XXXXXXXX.XXOXXXXX.X.....X.X.++++++++++++",
"+++++++++XXXXX...XXXXXXXXX.X...XXX..++++++++++++",
"+++++++++XXXX.....XXOXXXXXX.X.X.X....+++++++++++",
"++++++++++XXX++....XXXXXXXXX.X.X.X...+++++++++++",
"++++++++++++++++....XXOXXXXXX.X.X.X..+++++++++++",
"++++++++++++++++++...XXOXXXXXX.X.X....++++++++++",
"+++++++++++++++++++++XXXOXXXXXX.X...++++++++++++",
"++++++++++++++++++++++XXXXXXXXXX...+++++++++++++",
"+++++++++++++++++++++OXXXXOXXXXXX...++++++++++++",
"++++++++++++++++++++OXXXX.XXXXXXXX...+++++++++++",
"++++++++++++++++++++OXXXX..XXXXXXXX...++++++++++",
"++++++++++++++++++++XXXXX...XXXXXXXX..++++++++++",
"++++++++++++++++++++XXXXX....XXXXXXXX..+++++++++",
"+++++++++++++++++++++XXXX.++++XXXXXXXX..++++++++",
"+++++++++++++++++++++++XXX+++++XX..XX....+++++++",
"++++++++++++++++++++++++++++++++X.o.X..o.+++++++",
"+++++++++++++++++++++++++++++++++X.ooXoo.+++++++",
"++++++++++++++++++++++++++++++++++X.X.X.X+++++++",
"++++++++++++++++++++++++++++++++++++.X.X.+++++++",
"++++++++++++++++++++++++++++++++++++++++++++++++",
"++++++++++++++++++++++++++++++++++++++++++++++++",
"++++++++++++++++++++++++++++++++++++++++++++++++",
"++++++++++++++++++++++++++++++++++++++++++++++++",
"++++++++++++++++++++++++++++++++++++++++++++++++"
};
