/* XPM */
static char *tiles____[] = {
/* columns rows colors chars-per-pixel */
"67 57 8 1",
"  c black",
". c #00003F3F0000",
"X c #3F3F3F3F3F3F",
"o c #585858585858",
"O c #3F3F3F3FFFFF",
"+ c #0000BFBF0000",
"@ c #BFBF7F7F3F3F",
"# c #DFDFDFDFDFDF",
/* pixels */
"                                                                   ",
"  ###############################################################  ",
" # ############################################################# o ",
" ## ########################################################### oo ",
" ###                                                           ooo ",
" ### @@@@@@@@@@@@@@@@@@.@OOO@@@@@@@@@@@@@@@@@@@@@@@@@@@@@@@@@@ ooo ",
" ### @@@@@@@@@@@@.@@@@@@@OOO@@@@@@@@@@@@@@@@@@@@@@@@@@@@@@@@@@ ooo ",
" ### @@.@@@@@@@@@@@@@@@@@OOO@@@@@.@@@@@@@.@@@@@@@@@@.@@@@@@@@@ ooo ",
" ### @@@@@++++@@@@++@@@@@OOO@@@@@@@@@@@@@@@@@@@@@@@@@@@@@@@@@@ ooo ",
" ### @@@@@++@.@@@+++@@@@@OOO@@@@@@+++@@@@@@@@@@@@@@@@@@@@@@@@@ ooo ",
" ### @@@@@@@@@@@++@+@@@@ OOOO@@@@@+++@@@@@@@@@@@@@@@@.@@@@@@@@ ooo ",
" ### @@@@@+@@@@@@@@@@@@@@OOOO@@@@@@@@@@@@@@@@@@@.@@@@@@@@@@@@@ ooo ",
" ### @@@@@@@@@@@@@@@@@@@@@OOOO @@@@@@@@@@@@@@@@@@@@@@@@@.@@@@@ ooo ",
" ### @@.@@@@@@@@@@@@@@@@@@@ OOOO@@@@@@@@@@@@+@@@@@@@@@@@@@@@@@ ooo ",
" ### @@@@@++@@@@@@@@.@+@@@@@OOOOO@@@@@@@@++++@@@@@@@@@@@@@@@@@ ooo ",
" ### @@@@@@++++++@@@@+@@@@@@@OOOO@@@@@@@+++++@@@@@@@@@@@@@@@O@ ooo ",
" ### @@@@@@.@+@@@+@@@.@+++@@@@OOOO@@@@@@@@+++@@@@@@@@@@@@@OOO@ ooo ",
" ### @@@@@@@@@@@++@@@@@++++@@@OOOO@@@@@@@@@@@@@@@@@@@@@@OOO@@@ ooo ",
" ### @@@@@@@@@@@@@@@@@@@@@+@@@OOOOO@@@@@@@@@@@@@@OOOOOOOO@@@@@ ooo ",
" ### @@+@@@@@@+@@@@@@@@@@@@OOOOOOOOO@@@@@@@OOOOOOO@@@OOO@@@@@@ ooo ",
" ### @@@@@@++++@@@@@@OOO@@OOOOOOOOOOO@ @@@OO@@@@@@+@@@@OO@@@@@ ooo ",
" ### @@.+++OOOOOOOOOOOOOOOOOOOOO@@@@OOOOOOO@@@@@@@++@@@@O@@@@@ ooo ",
" ### @@@@@OO@@OOOOOOOOOOOOOOOO @@@@@@@@@@@@@@@@@@@@+++@@@O@@@@ ooo ",
" ### @@@OOO@@@O OOOOOOOOO@@@@@@@@@  @@@@@@@@@@@@@.@@@+@@@OO@@@ ooo ",
" ### @@OO@@@@OOOOO@@@@@@@@@@@@@@ XX @ XXX++@@+++@@@@@@@@@@O@@@ ooo ",
" ### @OO@@@@@OOOO@@@@@@@@@@ @@@@ XX @ XXX@@@@++++@@@@@@@@@O@@@ ooo ",
" ### OO@@@@@OOOOO@@@@@@@@        XX X@@XX@@@@@@@@@@@@@@@+@@@@@ ooo ",
" ### O@@@@@@OOOO@@@@@@@@@ X XXXX XX X XX @@@@@@@@@.@@@@@+@@.@@ ooo ",
" ### @@@@@@@OOOO@@@@+@@@@ X XXX       X    @@@+@@@@@@@++@@@@@@ ooo ",
" ### @+@@@@@OOO@@++++@@@  X XXXXX XXXXX@ XX@@@@@+@@++@@+@+@@@@ ooo ",
" ### @++@@@OOOO@@+@++@@@        X X    @ XX@@@@@++@@@@@+@+@@@@ ooo ",
" ### +++++@OOOO@@+++++@@@@ XX XX     X        @@@+@.@@@+.@+@@@ ooo ",
" ### @@@++@OOOO@@@@@+@@@@@ XX XX XX XX @ @XX@@@@@@@@@@@@+@@@@@ ooo ",
" ### @@@@@@OOOOO@@@@@@@@@@  X XX XX XX @@@XX@@@+@@+@@@@@@++@@@ ooo ",
" ### @@@@@@@OOOO@@@@@@@@@@@      XX XX @@@@@@@@+++@@@@@@@++@@@ ooo ",
" ### @@@@@@@OOOOO@@@@@@@@@@@@@@@@@@@@@@@@OOO@@@@@++@@@@@@+++@@ ooo ",
" ### @@@@@@@@OOOOO@@@@@@@@@@@@ @ OOOOOOOOO.OO@@@@@@@@@@@@@@@@@ ooo ",
" ### @@@@.@@@@OOOOOOO @@@ OOOOOOOOOOOOO@@@@@OOO@@@@@@ @@@@.@@@ ooo ",
" ### @@@@@@@@@@OOOOOOOO@OOOOOOOOOOOOOOOOO@@@@@OO@@@@OOO@.@@@@@ ooo ",
" ### @@@@@@@@@@@OOOOOOOOOOOOOO@.@.@.OOOOOO@@@@@OO@OOOOOO@@@@@@ ooo ",
" ### @@@@@@@@@@@@OOOOOOOOO @@@@@@@@@.@OOOOO@@@@@OOOOOOOO.@@@@@ ooo ",
" ### @@@@@@@@@@@@@OOO @@@@@@@@@@@@@@@@@OOOOO@@@@@.@.OOO.@@@@@@ ooo ",
" ### @@@@+@@@@@@@@@@OOOO @@@@@@@@@++@@@@OOOOO@@@@@@@.@.@@.@@@@ ooo ",
" ### @@@@+@@@@@@@@@@@@@OOO@@@@@@+@@@@@@@@OOOO@@@@@@@@@@@@@@@@@ ooo ",
" ### @@+@@@@@@@@@@@@@@@@@OO@@@@@+.@@++@@@@OOO@@@@@@@@@@@@@@@+@ ooo ",
" ### @@+++.@@@@@@+@@@@@@@@O@@@@@@@@@@@@@@@@OOO@.@@@@+@@+++@@+@ ooo ",
" ### @@@@@@+++.@@+@@@@@@@@O@@@@@@@@@@@.@@@.OOOO@@@@@@@@@@@@@@@ ooo ",
" ### @@@@@@@@+@+@@@@@.@@@@OO@@@++@@@@+@@@@@OOOOO@@@@@@@+.@@@@@ ooo ",
" ### @@@@@@@@@@@++++@@@@@@@O@@@@@@+@+@@+@@@@OOOOO@@++@@@@@@@@@ ooo ",
" ### @@@@.@+@@@@@@@@@@@@@@@O@@@@.@+@@.@@+@@@@OOOO.@@@+@@.@@@@@ ooo ",
" ### @@@@@@@@@@@@@@+@@@@@@OO@@@@@@@@@@@@@@@@@@OOOOO@@@@@@@@@@@ ooo ",
" ### @@@@@@@@@@@@@@@@@@@@@O.@@@@@@@@@@@@@@@@@.OOOOO.@@@@@@@@@@ ooo ",
" ###                                                           ooo ",
" ## ooooooooooooooooooooooooooooooooooooooooooooooooooooooooooo oo ",
" # ooooooooooooooooooooooooooooooooooooooooooooooooooooooooooooo o ",
"  ooooooooooooooooooooooooooooooooooooooooooooooooooooooooooooooo  ",
"                                                                   "
};
