/* XPM */
static char *tiles____[] = {
/* columns rows colors chars-per-pixel */
"48 48 5 1",
"  c black",
". c #3F3F3F3F3F3F",
"X c gray50",
"o c gray75",
"O c None",
/* pixels */
"OOOOOOOOOOOOOOOOOOOOOOOOOOOOOOOOOOOOOOOOOOOOOOOO",
"OOOOOOOO.OOOOOO.OOOOOOOOOO.OOO.OO.O.OOOOOOOOOOOO",
"OOOOOOOOOOX..O..OO...XO...O..OO.O.OOOOOOOOOOOOOO",
"OOOOO.OOO...o..XXX.oO.o..............OOOOOOOOOOO",
"OOOOOOoO.oXo...o.X..o.............. OOOOOOOOOOOO",
"OOOOOOOOooX.o.....X..X...X....XX..  .OOOOOOOOOOO",
"OOOOOOoOO..Ooo.X..X..X...X....... ....OOOOOOOOOO",
"OOOOOOO....oo..o..o..XX........ .OO.OOOOOOOOOOOO",
"OOOOOOOOOOO.oo....o.oo.XX....    ..OOOOOOOOOOOOO",
"OOOOOOOO..OOo.o.o.X.oXX.......    OOOOOOOOOOOOOO",
"OOOOOOOOOOOOooOoooooXXXXX....    OOOOOOOOOOOOOOO",
"OOOOOOOOOOOOOooooooXXXXX.X...    OOOOOOOOOOOOOOO",
"OOOOOOOOOOOOOOoooXoooX......    OOOOOOOOOOOOOOOO",
"OOOOOOOOOOOOOOOooooXXXXX... .   OOOOOOOOOOOOOOOO",
"OOOOOOOOOOOOOOOooooXX...XX.. .  OOOOOOOOOOOOOOOO",
"OOOOOOOOOOOOOOOoooooXXXX.. .    OOOOOOOOOOOOOOOO",
"OOOOOOOOOOOOOOOoooooXXXXX...    OOOOOOOOOOOOOOOO",
"OOOOOOOOOOOOOOOOooooXX.XX...   OOOOOOOOOOOOOOOOO",
"OOOOOOOOOOOOOOOOoooooXXXXX.     OOOOOOOOOOOOOOOO",
"OOOOOOOOOOOOOOOOooooXXXX....   OOOOOOOOOOOOOOOOO",
"OOOOOOOOOOOOOOOoooooXXXX.X     OOOOOOOOOOOOOOOOO",
"OOOOOOOOOOOOOOOOOooooXXX.....  OOOOOOOOOOOOOOOOO",
"OOOOOOOOOOOOOOOOOooooXXXX..   OOOOOOOOOOOOOOOOOO",
"OOOOOOOOOOOOOOOOOoooXXXX...   OOOOOOOOOOOOOOOOOO",
"OOOOOOOOOOOOOOOOOOoooXXXX...  OOOOOOOOOOOOOOOOOO",
"OOOOOOOOOOOOOOOOOOoooXXXXX..  OOOOOOOOOOOOOOOOOO",
"OOOOOOOOOOOOOOOOOOOOoooXX.. . OOOOOOOOOOOOOOOOOO",
"OOOOOOOOOOOOOOOOOOOooXoX.... OOOOOOOOOOOOOOOOOOO",
"OOOOOOOOOOOOOOOOOOOoooo....  OOOOOOOOOOOOOOOOOOO",
"OOOOOOOOOOOOOOOOOOOoooXXX.  OOOOOOOOOOOOOOOOOOOO",
"OOOOOOOOOOOOOOOOOOOooXXX.   OOOOOOOOOOOOOOOOOOOO",
"OOOOOOOOOOOOOOOOOOooXX... OOOOOOOOOOOOOOOOOOOOOO",
"OOOOOOOOOOOOOOOOOOooXX.. OOOOOOOOOOOOOOOOOOOOOOO",
"OOOOOOOOOOOOOOOOOoooXX... OOOOOOOOOOOOOOOOOOOOOO",
"OOOOOOOOOOOOOOOOOOooX.. OOOOOOOOOOOOOOOOOOOOOOOO",
"OOOOOOOOOOOOOOOOOOooXXX  OOOOOOOOOOOOOOOOOOOOOOO",
"OOOOOOOOOOOOOOOOOOoXXX. OOOOOOOOOOOOOOOOOOOOOOOO",
"OOOOOOOOOOOOOOOOOOoXX...OOOOOOOOOOOOOOOOOOOOOOOO",
"OOOOOOOOOOOOOOOOOoooXX. OOOOOOOOOOOOOOOOOOOOOOOO",
"OOOOOOOOOOOOOOOOOOOoXXX. OOOOOOOOOOOOOOOOOOOOOOO",
"OOOOOOOOOOOOOOOOOOOX.. OOOOOOOOOOOOOOOOOOOOOOOOO",
"OOOOOOOOOOOOOOOOOOooXX OOOOOOOOOOOOOOOOOOOOOOOOO",
"OOOOOOOOOOOOOOOOOOOoX  OOOOOOOOOOOOOOOOOOOOOOOOO",
"OOOOOOOOOOOOOOOOOOOOOoX.OOOOOOOOOOOOOOOOOOOOOOOO",
"OOOOOOOOOOOOOOOOOOOOOOoX.OOOOOOOOOOOOOOOOOOOOOOO",
"OOOOOOOOOOOOOOOOOOOOOooX.OOOOOOOOOOOOOOOOOOOOOOO",
"OOOOOOOOOOOOOOOOOOOOOOOOoOOOOOOOOOOOOOOOOOOOOOOO",
"OOOOOOOOOOOOOOOOOOOOOOOOOOoOOOOOOOOOOOOOOOOOOOOO"
};
