/* XPM */
static char *tiles___[] = {
/* columns rows colors chars-per-pixel */
"48 48 10 1",
"  c black",
". c #3F3F3F3F3F3F",
"X c gray50",
"o c #00000000E6E6",
"O c red",
"+ c #FFFF7F7F0000",
"@ c #CCCC7F7F6666",
"# c gray75",
"$ c gray100",
"% c None",
/* pixels */
"%%%%%%%%%%%%%%%%%%%%%%%%%%%%%%%%%%%%%%%%%%%%%%%%",
"%%%%%%%%%%%%%%%%%%%%%%%%%%%%%%%%%%%%%%%%%%%%%%%%",
"%%%%%%%%%%%%%%%%%%%%%%%%%%%%%%%%%%%%%%%%%%%%%%%%",
"%%%%%%%%%%%%%%%%%%%%%%%%%%%%%%%%%%%%%%%%%%%%%%%%",
"%%%%%%%%%%%%%%%%%%%%%%%%%%%%%%%%%%%%%%%%%%%%%%%%",
"%%%%%%%%%%%%%%%%%%%%%%%%%%%%%%%%%%%%%%%%%%%%%%%%",
"%%%%%%%%%%%%%%%%%%%%%%%%%%o%%%%%%%%%%%%%%%%%%%%%",
"%%%%%%%%%%%o%%%%%%%%%%%%%%%%%o%%%%%%%%%%%%%%%%%%",
"%%%%%%%%%%%%%%%%%%%%%%%%%%%%%%%%%%%%%%%%%%%%%%%%",
"%%%%%%%%%%%%%%%%%%%%%%%%%%%%%%%%%%%%%%%%%%%%%%%%",
"%%%%%%%%%%%%%o%%%%%%%%%%%%%%%o%%o%%%%%%%%%%%%%%%",
"%%%%%%%%%%%%%%o%%%%%%%%%%%%%%%%%%%%%%%%%%%%%%%%%",
"%%%%%%%%%%%%%%%%%    %%%%%%%%%%%%%%%%%%%%%%%%%%%",
"%%%%%%%o%%%%%%%% @@@.  %%%%%%%o%%%%%%%%%%%%%%%%%",
"%%%%%%%%%%o%%%% @@@@@@##%%%%%%%%%o%%%%%%%%%%%%%%",
"%%%%%%%%%%%%o% @@@@@@#X#X%%%%%%%%%%%%%%%%%%%%%%%",
"%%%%%%%%%%%%%% .@@@@#X#XXX%%%%%%%%%%%%%%%%%%%%%%",
"%%%%%%%%%%%%%%  @@@#X#XXX   %%%%o%%%%%%%%%%%%%%%",
"%%%%%%%%%%%%%%  @@#X#XXX  .  %%%%%%o%%%%%%%%%%%%",
"%%%%%%%%%%%%%%   XXXXXXX   . %%%%%%%%%%%%%%%%%%%",
"%%%%%%%%%%%%%%%   ...XXX+    %%%%%%%%%%%%%%%%%%%",
"%%%%%%%%%%%%%%%O   . .XX +  OX%%%%%%%o%%%%%%%%%%",
"%%%%%%%%%%%%%%%%O     .X. ++ X   %%%%%%%%%%%%%%%",
"%%%%%%%%%%%%%%%%%O  X  .X.     .  %%%%%%%%%%%%%%",
"%%%%o%%%%%%%%%%%%%O     .X.     . %%%%o%%%%%%%%%",
"%%%%%%%%o%%%%%%%%%%O  X  .XXX+    %%%%%%%%%%%%%%",
"%%%%%o%%%%%%%%%%%%%%O     .XX +  OX%%%%o%%%%%%%%",
"%%%%%%%%%%o%%%%%%%%%%O  X  .X. ++ XX%%%%%%%%%%%%",
"%%%%%%%%%%%%%%o%%%%%%%O     .X.   XXX%%%%o%%%%%%",
"%%%%%%%%%%%%%%%%%%%%%%%O  X  .X.  XX$X%%%%%%%%%%",
"%%%%%%%%%%%%o%%%%%%%%%%%O     .XXXXXXX#%o%%%%%%%",
"%%%%%%%%%%%%%%%%%%%%%%%%%O  X  .XX$XX##%%%%%%%%%",
"%%%%%%%%%%%%%%%o%%o%%%%%%%O     .XXX#X# %%o%%%%%",
"%%%%%%%%%%%%%%%%%%%%%%%%%%%O  X  .X#X#@@ %%%%%%%",
"%%%%%%%%%%%%%%%%%%%%%o%%%%%%O     #X#@@@@ %%%%%%",
"%%%%%%%%%%%%%%%%%%%%%%%%%%%%%O  X ##@@@@@.%%%%%%",
"%%%%%%%%%%%%%%%%%%%%%o%%%%%%%%O   #@@@@@.@ %%%%%",
"%%%%%%%%%%%%%%%%%%%%%%%%o%%%%%%O   @@@@@@@ %%%%%",
"%%%%%%%%%%%%%%%%%%%%%%%%%%%o%%%%O   @@.@@@.%%%%%",
"%%%%%%%%%%%%%%%%%%%%%%%%%%%%%%%%%O   @@@@.@ %%%%",
"%%%%%%%%%%%%%%%%%%%%%%%%%%%%%o%o%%O   .@@@@ %%%%",
"%%%%%%%%%%%%%%%%%%%%%%%%%%%%%%%%%o%%O   .@@ %%%%",
"%%%%%%%%%%%%%%%%%%%%%%%%%%%%%%%%%%%%%%O    %%%%%",
"%%%%%%%%%%%%%%%%%%%%%%%%%%%%%%%%%%%%%%%%%%%%%%%%",
"%%%%%%%%%%%%%%%%%%%%%%%%%%%%%%%%%%%%%%%%%%%%%%%%",
"%%%%%%%%%%%%%%%%%%%%%%%%%%%%%%%%%%%%%%%%%%%%%%%%",
"%%%%%%%%%%%%%%%%%%%%%%%%%%%%%%%%%%%%%%%%%%%%%%%%",
"%%%%%%%%%%%%%%%%%%%%%%%%%%%%%%%%%%%%%%%%%%%%%%%%"
};
