/* XPM */
static char *tiles___[] = {
/* columns rows colors chars-per-pixel */
"93 14 6 1",
"  c black",
". c #00007F7F0000",
"X c #0000E6E60000",
"o c #FFFF7F7F0000",
"O c yellow",
"+ c gray69",
/* pixels */
"+++++++++++++++++++++++++++++++++++++++++++++++++++++++++++++++++++++++++++++++++++++++++++++",
"+++++++++++++++                       ++++++++++++++++                       ++++++++++++++++",
"+++++++++++++++ OOOOOOOOOO oooooooooo ++++++    ++++++ .......... XXXXXXXXXX ++++++++++++++++",
"+++++++++++++++ OOOOOOOOOO oooooooooo +++++  ++  +++++ .......... XXXXXXXXXX +++++++  +++++++",
"+++++++++++++++ OOOOOOOOOO oooooooooo ++++  ++++  ++++ .......... XXXXXXXXXX +++++++  +++++++",
"+++++++++++++++ OOOOOOOOOO oooooooooo ++++  +++   ++++ .......... XXXXXXXXXX +++++++  +++++++",
"+++        ++++ OOOOOOOOOO oooooooooo +++  +++ ++  +++ .......... XXXXXXXXXX ++++        ++++",
"+++        ++++ OOOOOOOOOO oooooooooo +++  ++ +++  +++ .......... XXXXXXXXXX ++++        ++++",
"+++++++++++++++ OOOOOOOOOO oooooooooo ++++   +++  ++++ .......... XXXXXXXXXX +++++++  +++++++",
"+++++++++++++++ OOOOOOOOOO oooooooooo ++++  ++++  ++++ .......... XXXXXXXXXX +++++++  +++++++",
"+++++++++++++++ OOOOOOOOOO oooooooooo +++++  ++  +++++ .......... XXXXXXXXXX +++++++  +++++++",
"+++++++++++++++ OOOOOOOOOO oooooooooo ++++++    ++++++ .......... XXXXXXXXXX ++++++++++++++++",
"+++++++++++++++                       ++++++++++++++++                       ++++++++++++++++",
"+++++++++++++++++++++++++++++++++++++++++++++++++++++++++++++++++++++++++++++++++++++++++++++"
};
