/* XPM */
static char *tiles__[] = {
/* columns rows colors chars-per-pixel */
"64 64 14 1",
"  c black",
". c #3F3F3F3F3F3F",
"X c #00007F7F0000",
"o c gray50",
"O c #00000000E6E6",
"+ c #66666666E6E6",
"@ c #0000E6E60000",
"# c #99997E7E4C4C",
"$ c red",
"% c #FFFF7B7B0000",
"& c #CCCC7E7E6666",
"* c yellow",
"= c gray75",
"- c gray100",
/* pixels */
"&&&&&&&&&&&&&&&&&===============&&&&&&&&&&&&&&&&&&&&&&&&&&&&&&&&",
"&&&&&&&&&&&&&&&&==$oooooooooooo$.&&&&&&&&&&&&&&&&&&&&&&&&&&&&&&&",
"&&&&&&&===========ooooooooooooooo.&&&&&&&&&&&&&&&&&&&&&&&&&&&&&&",
"******==%ooooo====oooooooooooooooo.*****************************",
"*&&&&===ooooo=====oooooooooooooo.oo.&&&&&&&&&&&&&&&&&&&&&&&&&&&*",
"*&&&====ooooo=====ooooooooooooo.  oo.&&&&&&&&&&&&&&&&&&&&&&&&&&*",
"*&&=====ooooo=====oooooooooooo.  oooo.&&&&&&&&&&&&&&&&&&&&&&&&&*",
"*&&=====ooooo=====ooooooooooo.  ooooo.&&&&&&&&&&&&&&&&&&&&&&&&&*",
"*&&=====o-.oo=====oooooooooo+  oooooo.&&&&&&&&&&&&&&&&&&&&&&&&&*",
"*&&=o===o-.oo===-=ooooooooo++Oooooooo.&&&&&&&&&&&&&&&&&&&&&&&&&*",
"*&&oo===ooooo==-o=oooooooo.+Ooooooooo.&&&&&&&&&&&&&&&&&&&&&&&&&*",
"*&&o====ooooo=-o==ooooo.o.  ooooooooo.&&&&&&&&&&&&&&&&&&&&&&&&&*",
"*&&=====ooooo=o===oooooo.  ooooo.oooo.&&&&&&&&&&&.&&.&&.&&.&&.&*",
"*&&=====ooooo=====oooooo  ooooo.  ooo.&&&&&&&&&&.&&.&&.&&.&&.&&*",
"*&&=o===ooooo=====ooooo.oo.ooo.  oooo.&&&&&&&&&&&#&&#&&#&&#&&#&*",
"*&&=====ooooo=====ooooooooooo.  ooooo.#&&&&&&&&&&&&&&&&&&&&&&&&*",
"*&&=o===ooooo=====oooooooooo+  oooooo.##&&&&&&&&&.&&&&&&&&&&&.&*",
"*&&=====ooooo=====ooooooooo++Oooooooo.##&&&&&&&&.&&&&&&&&&&&.&&*",
"*&&=o===ooooo=====oooooooo.+Ooooooooo.##&&&&&&&&&#&&&&&&&&&&&#&*",
"*&&=====ooooo=====ooooo.o.  ooooooooo.##&&&&&&&&&&&&&&&&&&&&&&&*",
"*&&=o===ooooo===-=oooooo.  ooooo.oooo.##&&&&&&&&&.&&&&&&&&&&&.&*",
"*&&=====ooooo==-o=oooooo  ooooo.  ooo.##&&&&&&&&.&&&&&&&&&&&.&&*",
"*&&====-.oooo=-o==ooooo.oo.ooo.  oooo.##&&&&&&&&&#&&&&&&&&&&&#&*",
"*&&===-oooooo=o===ooooooooooo.  ooooo.##&&&&&&&&&&&&&&&&&&&&&&&*",
"*&&==-o=ooooo=====o oooooooo+  oooooo.##&&&.&&.&&.&&&&&&&&&&&.&*",
"*&&=-o==ooooo=====ooooooooo++Oooooooo.##&&.&&.&&.&&&&&&&&&&&.&&*",
"*&&-o===ooooo=====oooooooo.+Ooooooooo.##&&&#&&#&&#&&&&&&&&&&&#&*",
"*&&o===-.oooo=====ooooo.o.  ooooooooo.##&&&&&&&&&&&&&&&&&&&&&&&*",
"*&&===-oooooo=====o oooo.  ooooo.oooo.##&&&.&&&&&&&&&&&&&&&&&.&*",
"*&&==-o=ooooo=====oooooo  ooooo.  ooo.##&&.&&&&&&&&&&&&&&&&&.&&*",
"*&&=-o==ooooo=====ooooo.oo.ooo.  oooo.##&&&#&&&&&&&&&&&&&&&&&#&*",
"*&&-o===ooooo===-=ooooooooooo.  ooooo.##&&&&&&&&&&&&&&&&&&&&&&&*",
"*&&o====ooooo==-o=o oooooooo+  oooooo.##&&&.&&&&&&&&&&&&&&&&&.&*",
"*&&=====ooooo=-o==ooooooooo++Oooooooo.##&&.&&&&&&&&&&&&&&&&&.&&*",
"*&&=====ooooo=o===oooooooo.+Ooooooooo.##&&&#&&&&&&&&&&&&&&&&&#&*",
"*&&===o=ooooo=====ooooo.o.  ooooooooo.##&&&&&&&&&&&&&&&&&&&&&&&*",
"*&&==oo=o-.-.=====o oooo.  oooooooooo.##&&&.&&&&&&&&&&&&&&&&&.&*",
"*&&=o=o=o-.-.=====oooooo  oooooooooo.###&&.&&&&&&&&&&&&&&&&&.&&*",
"*&&o==o=ooooo=====ooooo.oo.oooooooo.####&&&#&&&&&&&&&&&&&&&&&#&*",
"*&&==oo=o-.-.=====oooooooooooooooo..####&&&&&&&&&&&&&&&&&&&&&&&*",
"*&&=o=o=ooooo===o=ooooooooooooooo.o.####&&&.&&.&&.&&.&&.&&.&&.&*",
"*&&o==o=o-.-.=====$oooooooooooo$.oo.####&&.&&.&&.&&.&&.&&.&&.&&*",
"*&&==oo=ooooo=o==o..............ooo.####&&&#&&#&&#&&#&&#&&#&&#&*",
"*&&=o=o=o-.-.===o..............oooo.####&&&&&&&&&&&&&&&&&&&&&&&*",
"*&&o==o=o-.-.==o..............ooooo.#...oooXXooooooooooooooo&&&*",
"*&&==o==ooooo=o..............ooo oo.#...oooXXooooooooooooooo&&&*",
"*&&=o===oooooo..............ooooooo.#...oooXXooooooooooooooooooo",
"*&&o====oooooooooooooooooooooooo oo.#..ooooooooooooooooooooooooo",
"*&&=====ooooooooooooo*ooooooooooooo.#.oooooooooooooooooooooooooo",
"*&&=====oo.ooooooo*o*oooo.oooooo oo..ooooooooooooooooooooooooooo",
"*&&=====ooooooooo***ooooooooooooooo.#ooooooooooooooooooooooo&&&*",
"*&&=====oo.ooooo***oooooo.oooooo oo.#ooooooooooooooooOOooooo&@&*",
"*&&=====ooooooo*o*ooooooooooooooooo.#ooooooooooooooooOOooooo@&&*",
"*&&=====oo.ooo*oooooooooo.oooooo oo.#ooooooooooooooooOOooooo&&&*",
"*&&=====%ooooooooooooooooooooooooo%.#ooooooooooooooooooooooo&&&*",
"*&&=====............................#ooooooooooooooooooooooo&@&*",
"*&&====............................##ooooooooooooooooooooooo&&&*",
"*&&===............................###oo##ooooooooooooooooooo&@&*",
"*&&==.... .. ............ ... ...####oo##oooOOoXXooooooooooo&&&*",
"*&&=............................#####oo##oooOOoXXooooooooooo@@&*",
"*&&&#################################oooooooOOoXXooooooooooo&&&*",
"*&&&&##########################X##X##@&&@&&@&&@&&@&oooo&&&&&&&&*",
"*&&&&&###############################&&&&&&&&&&&&&&oooo&&@&@&&&*",
"***************************************************oooo*********"
};
