/* XPM */
static char *tiles___[] = {
/* columns rows colors chars-per-pixel */
"48 48 9 1",
"  c black",
". c #3F3F3F3F3F3F",
"X c gray50",
"o c #66666666E6E6",
"O c red",
"+ c yellow",
"@ c gray75",
"# c gray100",
"$ c None",
/* pixels */
"$$$$$$$$$$$$$$$$$$$$$$$$$$$$$$$$$$$$$$$$$$$$$$$$",
"$$$$$$$$$$$$$$$$$$$$$$$$$$$$$$$$$$$$$$$$$$$$$$$$",
"$$$$$$$$$$$$$$$$$$$$$$$$$$$$$$$$$$$$$$$$$$$$$$$$",
"$$$$$$$$$$$$$$$$$$$$$$$$$$$$$$$$$$$$$$$$$$$$$$$$",
"$$$$$$$$$$$$$$$$$@$$$$$$$$$$$$$$$$$$$$$$$$$$$$$$",
"$$$$$$$$$$$$$$$$@#@$$$$$$$$$$$$$$$$$$$$$$$$$$$$$",
"$$$$$$$$$$$$$$$.##@$$$$$$$$$$$$$$$$$$$$$$$$$$$$$",
"$$$$$$$$$$$$$$.###@$$$$$$$$$$$$$$$$$$$$$$$$$$$$$",
"$$$$$$$$$$$$$.###@$$$$$$$$$$$$$$$$$$$$$$$$$$$$$$",
"$$$$$$$$$$$$+####@$$$$$$$$$$$$$$$$$$$$$$$$$$$$$$",
"$$$$$$$$$$$.#X##@$$$$$$$$$$$$$$$$$$$$$$$$$$$$$$$",
"$$$$$$$$$$.###X#@$$$$$$$$$$$$$$$$$$$$$$$$$$$$$$$",
"$$$$$$$$$.#####@@$$$$$$$$$$$$$$$$$$$$$$$$$$$$$$$",
"$$$$$$$$@####@@@@X$$$$$$$$$$$$$$$$$$#$$$$$$$$$$$",
"$$$$$$$@###@@$..#XX##$$$$$$$$$$$$$$X##$$$$$$$$$$",
"$$$$$$$$@@@$$$$..##X##$$$$$$$$$$$$@###O$$$$$$$$$",
"$$$$$$$$$$$$$$$$.###X#O$$$$$$$$$$@#####$$$$$$$$$",
"$$$$$$$$$$$$$$$$$@###X##$$$$$$$$X#####$$$$$$$$$$",
"$$$$$$$$$$$$$$$$##@###X$$$$$$$$@######$$$$$$$$$$",
"$$$$$$$$$$$$$$$$X##@###X$$$$$$X######@$$$$$$$$$$",
"$$$$$$$$$$$$$$$$$XO#@###X$$$$@######@$$$$$$$$$$$",
"$$$$$$$$$$$$$$$$$$X#o@###X$$@#######X$$$$$$$$$$$",
"$$$$$$$$$$$$$$$$$$$$Xo@###XX#######@.$$$$$$$$$$$",
"$$$$$$$$$$$$$$$$$$$$$Xo@###X#######X$$$$$$$$$$$$",
"$$$$$$$$$$$$$$$$$$$$$$X @###X######.$$$$$$$$$$$$",
"$$$$$$$$$$$$$$$$$$$$$$$Xo@###X####@.$$$$$$$$$$$$",
"$$$$$$$$$$$$$$$$$$$$$$$XX @###X###X$$$$$$$$$$$$$",
"$$$$$$$$$$$$$$$$$$$$$$@#@Xo@###X##.$$$$$$$$$$$$$",
"$$$$$$$$$$$$$$$$$$$$$@###@X @###XX.$$$$$$$$$$$$$",
"$$$$$$$$$$$$$$$$$$$$X#####@Xo@###X$$$$$$$$$$$$$$",
"$$$$$$$$$$$$$$$$$$$@#######@X @###X$$$$$$$$$$$$$",
"$$$$$$$$$$$$$$$$$$X##########Xo@###X$$$$$$$$$$$$",
"$$$$$$$$$$$$$$$$$@###########@X @###X$$$$$$$$$$$",
"$$$$$$$$$$$$$$$$@#########@X..$Xo@###X$$$$$$$$$$",
"$$$$$$$$$$$$$$$X#######@X..$$$$$X @###X$$$$$$$$$",
"$$$$$$$$$$$$$$#######@X.$$$$$$$$$Xo@###X$$$$$$$$",
"$$$$$$$$$$$$$$$#####@$$$$$$$$$$$$$X @###X$$$$$$$",
"$$$$$$$$$$$$$$$$O#$$$$$$$$$$$$$$$$$Xo@###X$$$$$$",
"$$$$$$$$$$$$$$$$$$$$$$$$$$$$$$$$$$$$X @###X$$$$$",
"$$$$$$$$$$$$$$$$$$$$$$$$$$$$$$$$$$$$$Xo@###X$$$$",
"$$$$$$$$$$$$$$$$$$$$$$$$$$$$$$$$$$$$$$X@.##.$$$$",
"$$$$$$$$$$$$$$$$$$$$$$$$$$$$$$$$$$$$$$$X@. @.$$$",
"$$$$$$$$$$$$$$$$$$$$$$$$$$$$$$$$$$$$$$$$XX@..$$$",
"$$$$$$$$$$$$$$$$$$$$$$$$$$$$$$$$$$$$$$$$$$...$$$",
"$$$$$$$$$$$$$$$$$$$$$$$$$$$$$$$$$$$$$$$$$$$$$$$$",
"$$$$$$$$$$$$$$$$$$$$$$$$$$$$$$$$$$$$$$$$$$$$$$$$",
"$$$$$$$$$$$$$$$$$$$$$$$$$$$$$$$$$$$$$$$$$$$$$$$$",
"$$$$$$$$$$$$$$$$$$$$$$$$$$$$$$$$$$$$$$$$$$$$$$$$"
};
