/* XPM */
static char *noname[] = {
/* width height ncolors chars_per_pixel */
"32 32 10 1",
/* colors */
"` c #000000",
"a c #7F7F7F",
"b c #00FF00",
"c c #3F3F3F",
"d c #3F3F00",
"e c #00DF00",
"f c #3C00BF",
"g c #FFFFFF",
"h c #3C00FF",
"i c #BFBFBF",
/* pixels */
"````````````````````````````````",
"``eeeeeeeeeeeeeeeeeeeeeeeeeeee``",
"`e`eeeeeeeeeeeeeeeeeeeeeeeeee`b`",
"`ee`eeeeeeeeeeeeeeeeeeeeeeee`bb`",
"`eee````````````````````````bbb`",
"`eee`ffffffffffffffffffffff`bbb`",
"`eee`fhfhfhfhfhfhfhfhfhfhfh`bbb`",
"`eee`hfhfhfhfhfhfhfhfhfhfhf`bbb`",
"`eee`hhfh`hfchhfhhhfhhhfhhh`bbb`",
"`eee`hhhh`hc``hhhhhhhhhhhhh`bbb`",
"`eee`fhhh`c````cccccchhhhfh`bbb`",
"`eee`hhhhc``````c`````hhhhh`bbb`",
"`eee`hhhc````````c`````hhhh`bbb`",
"`eee`hhc``````````c`````hhh`bbb`",
"`eee`hhhgggggggggiiiiiihhhh`bbb`",
"`eee`hhhgaaggaaggiaiaiihhhh`bbb`",
"`eee`eeegacggacggiiiiiieeee`bbb`",
"`eee`eeegggggggggiiiiiieeee`bbb`",
"`eee`eeeggaagaaggiaiaiieeee`bbb`",
"`eee`eeeggacgacggiiiaiieeee`bbb`",
"`eee`eeeggacgggggeeeeeeeeee`bbb`",
"`eee`eeeeeddeeeeeeeeeeeeeee`bbb`",
"`eee`eeeeedddeeeeeeeeeeeeee`bbb`",
"`eee`eeeeeddddeeeeeeeeeeeee`bbb`",
"`eee`eeeeeeddddddeeeeeeeeee`bbb`",
"`eee`eeeeeeeddddddddeeeeeee`bbb`",
"`eee`eeeeeeeeedddddddddeeee`bbb`",
"`eee````````````````````````bbb`",
"`ee`bbbbbbbbbbbbbbbbbbbbbbbb`bb`",
"`e`bbbbbbbbbbbbbbbbbbbbbbbbbb`b`",
"``bbbbbbbbbbbbbbbbbbbbbbbbbbbb``",
"````````````````````````````````"
};
