/* XPM */
static char *noname[] = {
/* width height ncolors chars_per_pixel */
"34 50 11 1",
/* colors */
"` c #000000",
"a c #0000AF",
"b c #00FF00",
"c c #5D5D5D",
"d c #007F00",
"e c #BF7900",
"f c #4F4FFF",
"g c #FFFFFF",
"h c #7F7F00",
"i c #BFBFBF",
"j c #0000FF",
/* pixels */
"iiiiiiiiiiiiiiiiiiiiiiiiiiiiiiiiii",
"iffffffffffffffffffffffffffffffffc",
"iffffffffffffffffffffffffffffffffc",
"iffccccccccccccccccccccccccccccffc",
"iffcggggggggggggggggggggggggggiffc",
"iffcgggggghhhhhhhhhhhhhgggggggiffc",
"iffcgggggghhhhhhhhhhhhhhggggggiffc",
"iffcgggggghhcccccccccccccgggggiffc",
"iffcgggggghhc`````c`````cgggggiffc",
"iffcgggggghhc`````caaaaaaaggggiffc",
"iffcgggggghhcccccccajjjjjjjgggiffc",
"iffcgggggghhc`````cajaajaajgggiffc",
"iffcgggggghhc`````cajaajaajgggiffc",
"iffcgggggghhcccccccajjjjjjjgggiffc",
"iffcgggggghhc`````cajaajaajgggiffc",
"iffcgggdddddddddd`cajaajaajgggiffc",
"iffcgggdbbbbbbbbbbcajjjjjjjgggiffc",
"iffcgggdbccbccbccbcajaajaajgggiffc",
"iffcgggdbccbccbccbcajaajaajgggiffc",
"iffcgggdbbbbbbbbbbcajjjjjjjgggiffc",
"iffcgggdbccbccbccbcajaajaajgggiffc",
"iffcg`fdbccbccbccbcajaajaajffgiffc",
"iffcg`fdbbbbbbbbbbcajjjjjjj`fgiffc",
"iffcg`fdbccbccbccbcajaajaaj`fgiffc",
"iffcg`fdbccbccbccbeajaajaaj`fgiffc",
"iffcg`febbbbbbbbbbeejjjjjjj`fgiffc",
"iffcg`feeeeeeeeeeeeeeeeeeee`fgiffc",
"iffcg`feeeeeee`fffffeeeeeee`fgiffc",
"iffcg`feeeeee`ff```ffeeeeee`fgiffc",
"iffcg`feeeee`ff`eee`ffeeeee`fgiffc",
"iffcg`feeeee`ffeeeee``eeeee`fgiffc",
"iffcg`feeeee`ffeeeeeeeeeeee`fgiffc",
"iffcg`feeeee`ffeeeeeeeeeeee`fgiffc",
"iffcg`feeeee`ffeeeeeeeeeeee`fgiffc",
"iffcg`feeeee`ffeeeeeeeeeeee`fgiffc",
"iffcg`feeeee`ffeeeeeffeeeee`fgiffc",
"iffcg`feeeee``ffeeeff`eeeee`fgiffc",
"iffcg`feeeeee``fffff`eeeeee`fgiffc",
"iffcg`feeeeeee``````eeeeeee`fgiffc",
"iffcg`feeeeeeeeeeeeeeeeeeee`fgiffc",
"iffcg`feeeeeeeeeeeeeeeeeeee`fgiffc",
"iffcg`feeeeeeeeeeeeeeeeeeee`fgiffc",
"iffcg`feeeeeeeeeeeeeeeeeeee`fgiffc",
"iffcg`fffffffffffffffffffffffgiffc",
"iffcg````````````````````````giffc",
"iffcggggggggggggggggggggggggggiffc",
"iffciiiiiiiiiiiiiiiiiiiiiiiiiiiffc",
"iffffffffffffffffffffffffffffffffc",
"iffffffffffffffffffffffffffffffffc",
"iccccccccccccccccccccccccccccccccc"
};
