/* XPM */
static char *noname[] = {
/* width height ncolors chars_per_pixel */
"34 34 8 1",
/* colors */
"# c #000000"
"` c #7F7F7F",
"a c #5D5D5D",
"  c #FFFFFF",
"c c #FFFF00",
"d c #FF7700",
"e c #BFBFBF",
"f c #3F3F3F"
/* pixels */
"eeeeeeeeeeeeeeeeeeeeeeeeeeeeeeeeee",
"effffffffffffffffffffffffffffffffa",
"effffffffffffffffffffffffffffffffa",
"effaaaaaaaaaaaaaaaaaaaaaaaaaaaaffa",
"effa                          effa",
"effa                          effa",
"effa                          effa",
"effa         f                effa",
"effa        fff               effa",
"effa       fffff              effa",
"effa      fffffff             effa",
"effa     fffffffff            effa",
"effa    `ffffffffff           effa",
"effa   ```ffffffffff          effa",
"effa   ````ffffffffff e e e e effa",
"effa    ````ffffffffff e e e eeffa",
"effa     ````ffffffffffeeeeeeeeffa",
"effa      ````ffffffffff      effa",
"effa   `   ````fffffffffa     effa",
"effa    `   ````fffffffaaa    effa",
"effa     `   ````fffffaaaa    effa",
"effa      `   ````fffaaaa     effa",
"effa   `   `   ````faaaa      effa",
"effa    `   `   ```aaaa       effa",
"effa     `   `   ``aaa        effa",
"effa      `   `   `aa         effa",
"effa               a          effa",
"effa                          effa",
"effa                          effa",
"effa                          effa",
"effaeeeeeeeeeeeeeeeeeeeeeeeeeeeffa",
"effffffffffffffffffffffffffffffffa",
"effffffffffffffffffffffffffffffffa",
"eaaaaaaaaaaaaaaaaaaaaaaaaaaaaaaaaa"
};
