/* XPM */
static char *noname[] = {
/* width height ncolors chars_per_pixel */
"34 34 11 1",
/* colors */
"` c #000000",
"a c #7F7F7F",
"b c #00FF00",
"c c #5D5D5D",
"d c #007F00",
"e c #FF0000",
"f c #4F4FFF",
"g c #FFFFFF",
"h c #FFFF00",
"i c #BFBFBF",
"j c #0000FF",
/* pixels */
"iiiiiiiiiiiiiiiiiiiiiiiiiiiiiiiiii",
"ijjbbbbjjjjbbbbjjjjbbbbjjjjbbbbjjc",
"ijjbbbbjjjjbbbbjjjjbbbbjjjjbbbbjjc",
"ijjccccccccccccccccccccccccccccjjc",
"ijjcggggggggggggggggggggggggggijjc",
"ibbcgbb`bbbbbbbbbcbbcbbbbbbbbgibbc",
"ibbcgaibbbababbfcffcfffffffbbgibbc",
"ibbcgaibbbbabbj```````````jbbgibbc",
"ibbcgccbbbabajfaaaaaaaaaa`jbbgibbc",
"ijjcgbbbjacccffahhhaahhaa`jcagijjc",
"ijjcgcbjfacccfjchcchchcha`jcagijjc",
"ijjcgbjffaca`jfchhhcchcha`jcagijjc",
"ijjcgbffjacccffchccachcha`jcagijjc",
"ibbcgbfjfacccfjchaaachcha`jcagibbc",
"ibbcgbjffaca`jfchaaachhca`jcagibbc",
"ibbcgbffjacccffcaaaacccaa`jcagibbc",
"ibbcgbfjfacccfjjjjjjjjjjjjccagibbc",
"ijjcgbjffaaaaj`j`j`j`j`j`aaaagijjc",
"ijjcgbffjjjjjjjgj```jgjjjjjjbgijjc",
"ijjcgbfjj`j`j`aj`ccja`j`j`jdbgijjc",
"ijjcgbjjjjjjjaj`ccjajjjjjjddbgijjc",
"ibbcgbbddddddacaccacadddddddbgibbc",
"ibbcgbbbddddcccccccccccdddddbgibbc",
"ibbcgbbbbbbaaaccccccccccdbbbbgibbc",
"ibbcgbbbdbaabbaabbbbabbaabdbbgibbc",
"ijjcgbbbbbaaaaaja``aajaaabbbdgijjc",
"ijjcgbdbbbaaba``agea``baabbbbgijjc",
"ijjcgbbbdbaabagea``agebaabbdbgijjc",
"ijjcgbdbbbaaba``aaaa``baadbbbgijjc",
"ibbcggggggggggggggggggggggggggibbc",
"ibbciiiiiiiiiiiiiiiiiiiiiiiiiiibbc",
"ibbjjjjbbbbjjjjbbbbjjjjbbbbjjjjbbc",
"ibbjjjjbbbbjjjjbbbbjjjjbbbbjjjjbbc",
"iccccccccccccccccccccccccccccccccc"
};
