/* XPM */
static char *noname[] = {
/* width height ncolors chars_per_pixel */
"34 50 8 1",
/* colors */
"# c #000000",
"a c #0000AF",
"b c #00FF00",
"c c #5D5D5D",
"d c #BF7900",
"  c #FFFFFF",
"f c #BFBFBF",
"g c #0000FF",
/* pixels */
"ffffffffffffffffffffffffffffffffff",
"fbbbbbbbbbbbbbbbbbbbbbbbbbbbbbbbbc",
"fbbbbbbbbbbbbbbbbbbbbbbbbbbbbbbbbc",
"fbbccccccccccccccccccccccccccccbbc",
"fbbc##########################fbbc",
"fbbc# # # # # ### # # # # # ##fbbc",
"fbbc## # # # #cc## # # # # # #fbbc",
"fbbc# # # # #ccccc### # # # ##fbbc",
"fbbc## # # #ccccc#####ccc# # #fbbc",
"fbbc# # # #ccccc##gg##ccc # ##fbbc",
"fbbc## # #ccccc##gggg##cc# # #fbbc",
"fbbc# # #ccccc##gggggg##c # ##fbbc",
"fbbc## #ccccc##gggaaggg### # #fbbc",
"fbbc# ##cccc##gggggggggg### ##fbbc",
"fbbc## ##cc##gggggggggggg### #fbbc",
"fbbc# #aa###gaggagaagaggag####fbbc",
"fbbc## aaa#gggggggggggggggg# #fbbc",
"fbbc# #aaaagggggggggggggggg ##fbbc",
"fbbc## aaaagggggggggggggggg# #fbbc",
"fbbc# #aaaaggg####ggcc#ccgg ##fbbc",
"fbbc## aaaaggg####ggcc#ccgg# #fbbc",
"fbbc##baaaaggg####gg#####ggbb#fbbc",
"fbbc##b#aaagggc###ggcc#ccgg#b#fbbc",
"fbbc##b #aaggg####ggcc#ccgg#b#fbbc",
"fbbc##b# #aggg####ggggggggg#b#fbbc",
"fbbc##b # #ggg####ggggggggg#b#fbbc",
"fbbc##b# # # # # # # # # # #b#fbbc",
"fbbc##b # # #bbbbbbb# # # ##b#fbbc",
"fbbc##b# # ###bb###bb# # # #b#fbbc",
"fbbc##b # # ##bb# ##bb# # ##b#fbbc",
"fbbc##b# # # #bb # #bb # # #b#fbbc",
"fbbc##b # # ##bb# ##bb# # ##b#fbbc",
"fbbc##b# # # #bb # bb# # # #b#fbbc",
"fbbc##b # # ##bbbbbb# # # ##b#fbbc",
"fbbc##b# # # #bb #bb # # # #b#fbbc",
"fbbc##b # # ##bb###bb # # ##b#fbbc",
"fbbc##b# # # #bb ###bb # # #b#fbbc",
"fbbc##b # # #bbbb #bbbb # ##b#fbbc",
"fbbc##b# # ##### ##### # # #b#fbbc",
"fbbc##b # # # # # # # # # ##b#fbbc",
"fbbc##b# # # # # # # # # # #b#fbbc",
"fbbc##b # # # # # # # # # ##b#fbbc",
"fbbc##b# # # # # # # # # # #b#fbbc",
"fbbc##bbbbbbbbbbbbbbbbbbbbbbb#fbbc",
"fbbc##########################fbbc",
"fbbc##########################fbbc",
"fbbcfffffffffffffffffffffffffffbbc",
"fbbbbbbbbbbbbbbbbbbbbbbbbbbbbbbbbc",
"fbbbbbbbbbbbbbbbbbbbbbbbbbbbbbbbbc",
"fccccccccccccccccccccccccccccccccc"
};
