/* XPM */
static char *noname[] = {
/* width height ncolors chars_per_pixel */
"42 42 9 1",
/* colors */
"# c #000000",
"a c #7F7F7F",
"b c #00FF00",
"c c #5D5D5D",
"d c #007F00",
"e c #BF7900",
"  c #FFFFFF",
"g c #BFBFBF",
"h c #7F7F00",
/* pixels */
"gggggggggggggggggggggggggggggggggggggggggg",
"gaabbbbaaaabbbbaaaabbbbaaaabbbbaaaabbbbaac",
"gaabbbbaaaabbbbaaaabbbbaaaabbbbaaaabbbbaac",
"gaaccccccccccccccccccccccccccccccccccccaac",
"gaac                                  gaac",
"gbbc eeeebeebaaabebebeegggggggeeeeeee gbbc",
"gbbc eeedeebeaaadeeeeggcccccccggeebee gbbc",
"gbbc eeaaaaaaaaaeeedgccc#####cccgeeee gbbc",
"gbbc ebaaaaaaaaaedbgcc##ccccc##ccgeee gbbc",
"gaac aaaaaaaaaaaeeegc#ccc###ccc#cgeeb gaac",
"gaac aaacacacacaeegc#c###ccc###c#cgee gaac",
"gaac eeaaaaaaaaabeg#c#c#c#c#c#c#c#gee gaac",
"gaac eeaaaaaaaaaecgc###########cc#gee gaac",
"gbbc eeacacacacacc #ccacccccccc#c#gee gbbc",
"gbbc ebaaaaaaaaac  #c#########c#c#gee gbbc",
"gbbc edaaaaaaaaa   #c#dddggdd#c#c#gee gbbc",
"gbbc eeacacacaca  g#c#bbbgbbb#c#c#gee gbbc",
"gaac eeaaaaaaaaa cg#c#bdbbbdb#c#c#gbe gaac",
"gaac eeaaaaaaaaaccg#c#bdbbbdb#a#c#gee gaac",
"gaac eeacacacacacgg#c#bbbbbbb#c#c#gee gaac",
"gaac eeaaaaaaaaaggg#c#dbdbdbd#a#c#gee gaac",
"gbbc eeaaaaaaaaaggg#c#bbbbbbb#c#c#gee gbbc",
"gbbc ebacacacacagcg#c#bdbbbdb#a#c#geb gbbc",
"gbbc eeaaaaaaaaaccg#c#bdbbbdb#c#c#gee gbbc",
"gbbc eeaaaaaaaaacgg#c#bbbggbb#c#c#gee gbbc",
"gaac eeacacacacaggg#c#dddgddd#c#c#gee gaac",
"gaac eeaaaaaaaaaggg#c#########c#c#gee gaac",
"gaac eeaaaaaaaaaggg#ccccccccccc#c#gee gaac",
"gaac eeacacacacagggc###########cc#gbe gaac",
"gbbc aaaaaaaaaaagggc#cc#c#c#c#c#c#gee gbbc",
"gbbc aaaaaaaaaaa#aag#ccc#####ccc#gcee gbbc",
"gbbc ebeaaaaaaaaeaagc##ccccccc##cgdee gbbc",
"gbbc eeebaaaaaaaeaaagcc#######ccgdhbe gbbc",
"gaac edeeebaaaeebeacaggcccccccgghheee gaac",
"gaac eebbeeaaaeeeebaacaggggggghhheeeb gaac",
"gaac eedeeeaaaeeeebbcaacaaccchhheeeee gaac",
"gaac ebeeeeaaaebededcacaaccchdhbebeee gaac",
"gbbc                                  gbbc",
"gbbcgggggggggggggggggggggggggggggggggggbbc",
"gbbaaaabbbbaaaabbbbaaaabbbbaaaabbbbaaaabbc",
"gbbaaaabbbbaaaabbbbaaaabbbbaaaabbbbaaaabbc",
"gccccccccccccccccccccccccccccccccccccccccc"
};
