/* XPM */
static char *lefthilite[] = {
/* columns rows colors chars-per-pixel */
"50 50 256 2",
"   c #015C05",
".  c #036508",
"X  c #016D05",
"o  c #016C0C",
"O  c #056204",
"+  c #016712",
"@  c #04651B",
"#  c #017206",
"$  c #01720E",
"%  c #007D07",
"&  c #057B0B",
"*  c #08770B",
"=  c #087D00",
"-  c #0A7E0C",
";  c #027312",
":  c #027C14",
">  c #04791B",
",  c #13770A",
"<  c #117F01",
"1  c #028402",
"2  c #03830A",
"3  c #028B04",
"4  c #008F08",
"5  c #0A8201",
"6  c #0B820C",
"7  c #0C8B01",
"8  c #038411",
"9  c #048119",
"0  c #019503",
"q  c #019509",
"w  c #009903",
"e  c #009C0A",
"r  c #089401",
"t  c #009D12",
"y  c #049216",
"u  c #108F00",
"i  c #1B872F",
"p  c #01A402",
"a  c #00A50A",
"s  c #01AA03",
"d  c #00AA0A",
"f  c #0BA000",
"g  c #0BAC01",
"h  c #02B301",
"j  c #00B40C",
"k  c #00BA02",
"l  c #00BB0B",
"z  c #08B200",
"x  c #07B414",
"c  c #16A82F",
"v  c #1CA92F",
"b  c #1BBA2A",
"n  c #1DBB36",
"m  c #229F27",
"M  c #249A28",
"N  c #23A42B",
"B  c #24A92E",
"V  c #28A52C",
"C  c #29AE2C",
"Z  c #24B929",
"A  c #29B027",
"S  c #2BB528",
"D  c #28BA2A",
"F  c #20B031",
"G  c #35B927",
"H  c #30B829",
"J  c #25AC40",
"K  c #01C101",
"L  c #00C10B",
"P  c #00CB01",
"I  c #0BC300",
"U  c #00C713",
"Y  c #05CA1F",
"T  c #00D103",
"R  c #00D40C",
"E  c #00DE02",
"W  c #00D612",
"Q  c #12DA00",
"!  c #01EA00",
"~  c #00EE0C",
"^  c #0DE900",
"/  c #00ED10",
"(  c #00F30F",
")  c #01FB03",
"_  c #06FD0A",
"`  c #01FF12",
"'  c #00F81D",
"]  c #0FF711",
"[  c #10EA00",
"{  c #16ED18",
"}  c #10FF0F",
"|  c #13FF11",
" . c #16FF1A",
".. c #18FF10",
"X. c #19FF1F",
"o. c #15FF20",
"O. c #26CB2F",
"+. c #28C12B",
"@. c #2ECF33",
"#. c #21FF0D",
"$. c #20FD14",
"%. c #25E338",
"&. c #2CFF3D",
"*. c #3AFF31",
"=. c #25CA42",
"-. c #31CF45",
";. c #37FE4B",
":. c #3EFF48",
">. c #4CFF3F",
",. c #55FF3F",
"<. c #46C76B",
"1. c #5CCF7F",
"2. c #5FD37F",
"3. c #40E24B",
"4. c #46FF41",
"5. c #43FF4E",
"6. c #4CFF45",
"7. c #4AFC49",
"8. c #45FF50",
"9. c #4CFF55",
"0. c #48FF5D",
"q. c #54F952",
"w. c #5EEE6C",
"e. c #55FE70",
"r. c #57FD7D",
"t. c #69DB78",
"y. c #61FE5F",
"u. c #6BFE5D",
"i. c #71FE5D",
"p. c #6DEC64",
"a. c #63FE62",
"s. c #61FE6C",
"d. c #61FB70",
"f. c #6AFE75",
"g. c #7DF070",
"h. c #55B58C",
"j. c #56BF99",
"k. c #4FB3BF",
"l. c #54BFA7",
"z. c #59BFA6",
"x. c #53BCAC",
"c. c #52B3BC",
"v. c #6BBFBE",
"b. c #4FA7CC",
"n. c #4EA9CA",
"m. c #4CA2D4",
"M. c #4EAAD1",
"N. c #51AFC6",
"B. c #54ABCB",
"V. c #58AECD",
"C. c #52A5D5",
"Z. c #54A5D8",
"A. c #55A9D5",
"S. c #56A9D9",
"D. c #58A5D5",
"F. c #59A5D9",
"G. c #5AAAD5",
"H. c #5BAAD9",
"J. c #53B3C1",
"K. c #58B5C1",
"L. c #5AB2CC",
"P. c #5DB9C2",
"I. c #5CB8C9",
"U. c #5DB1D1",
"Y. c #61ACD6",
"T. c #63AEDA",
"R. c #69ADDA",
"E. c #61B3CE",
"W. c #64BCCA",
"Q. c #6ABDC7",
"!. c #6ABBCA",
"~. c #64B4D3",
"^. c #66B0DC",
"/. c #66B8D8",
"(. c #68B5D3",
"). c #6AB2DD",
"_. c #6BB8D4",
"`. c #6CB8DB",
"'. c #70AFD8",
"]. c #74BECC",
"[. c #78BECC",
"{. c #70B3D6",
"}. c #71B5DE",
"|. c #77B9D3",
" X c #73B8DD",
".X c #79B0DC",
"XX c #66BAE1",
"oX c #6CB4E0",
"OX c #6EB9E0",
"+X c #72B6E0",
"@X c #75B8E0",
"#X c #7BBBE2",
"$X c #5EC59C",
"%X c #5DC99B",
"&X c #56C2A4",
"*X c #5DC6A0",
"=X c #5CC3A9",
"-X c #63C79A",
";X c #65C99C",
":X c #72DC8B",
">X c #72D895",
",X c #63C5AE",
"<X c #65C9A2",
"1X c #6AC4A8",
"2X c #6ACBA3",
"3X c #6ACCA9",
"4X c #64C6B0",
"5X c #68C7B0",
"6X c #6DC9B3",
"7X c #64C3B9",
"8X c #6ED1A2",
"9X c #72C6AC",
"0X c #72CCA3",
"qX c #73CCAA",
"wX c #70C7BB",
"eX c #71CBB5",
"rX c #74D0A3",
"tX c #76D0AA",
"yX c #7AD0AC",
"uX c #79D0B3",
"iX c #6BFE80",
"pX c #74E088",
"aX c #7BE084",
"sX c #7EE289",
"dX c #7DE192",
"fX c #77FB88",
"gX c #78FD8C",
"hX c #7FFB92",
"jX c #6DC7C4",
"kX c #6DC1CA",
"lX c #6BC3D2",
"zX c #70C2C7",
"xX c #73C3CB",
"cX c #71C1D0",
"vX c #86F27D",
"bX c #83FA7C",
"nX c #8AFC7E",
"mX c #95FC7D",
"MX c #81BEE3",
"NX c #81E38B",
"BX c #82EB84",
"VX c #82E391",
"CX c #83F589",
"ZX c #81FC86",
"AX c #8DF48E",
"SX c #88FC80",
"DX c #88F792",
"FX c #98F486",
"GX c #91F491",
"HX c #91F49D",
"JX c #84FBA8",
"KX c #8BFCAC",
"LX c #8CFBB8",
"PX c #92F4A6",
"IX c #83C0E4",
"UX c #88C1E5",
/* pixels */
"#X#X#X#X#X#X#X#X#X#X#X#X#X#X@X#X@X#X+XOX`.oXR.R.^.T.^.T.Y.T.H.H.G.H.F.A.D.C.C.m.m.m.m.m.m.m.m.m.m.m.",
"#X#X#X#XIXMX#X#X#X#X#X#X#X#X#X#X@X@X@XoX`.^.^.T.T.T.T.H.Y.H.H.H.G.G.A.M.C.m.m.m.m.m.m.m.m.m.m.m.m.m.",
"#X#XIXMXIX#XIX#X#XMXMX#X#X#X#X@X@X@X+XoX).^.^.^.H.H.T.H.H.G.H.H.H.G.N.k.B.m.m.m.m.m.m.m.m.m.m.m.m.m.",
"#X#XIXMXIXIX#XIX#XMX#X#X#X#X#X@X@X+X+XoX^.^.H.H.H.F.H.H.S.H.F.F.M.k.&X%Xc.n.m.m.m.m.m.m.m.m.m.m.m.m.",
"MXMXIX#XMXMX#XMX#XIX#XMX#X#X@X@X@X`.`.oX).T.H.G.F.A.A.S.S.F.A.M.k.$X:X<.x.n.m.m.m.m.m.m.C.m.m.m.m.m.",
"MXIXMXIXMXMX#XIXIX#X#X#X#X@X#X@X+X`.`.`.T.H.F.S.A.S.C.C.Z.D.G.c.$Xt.-.-.l.n.M.m.m.m.m.m.m.m.m.C.m.m.",
"IXMXIXIXIXIXIXIXIX#X#X#X#X@X@X@X+XoXR.).T.F.H.S.C.C.C.C.n.B.I.&X:Xp.{ @.&Xn.m.C.m.C.m.C.D.C.m.C.Z.C.",
"MXMXIXIXIXIX#XIXMXMXMX#X#X#X@X@XoXoXR.R.T.F.Z.C.Z.S.C.M.G.k.%XaXvX7.Y O.&XB.m.C.m.C.C.C.C.C.C.C.Z.C.",
"UXMXUXMXIXIX#X#XIX#X#X#X#X@X+X+XoXoX^.T.F.T.F.C.M.m.C.C.c.$XsXGXs._ d D x.V.C.C.C.Z.C.Z.Z.Z.C.Z.m.C.",
"MXUXUXMXIXIXIXIX#XIX#X#X#X@X@X+XoX`.^.T.H.F.F.C.M.C.A.J.<XsXFXJX;.P q H =XV.C.C.C.A.C.C.A.C.C.A.Z.Z.",
"UXUXMXMXIXIXIX#X#X#X#X#X#X@X+X+X}.R.^.T.H.S.Z.D.D.B.c.$XVXGXFXe.) g 8 D =XV.D.C.C.C.C.A.C.S.C.C.D.Z.",
"UXUXMXUXIXIX#XIX#X#X#X#X@X+X+X+X`.R.^.H.H.Z.B.D.C.k.-X:XHXgXq.&.K 7 : A =XV.C.D.Z.D.Z.D.Z.D.D.Z.Z.Z.",
"UXIXIXIXIX#X#X#X#X#X#X@X+X+XoXR.oXT.T.T.H.A.A.G.c.%XNXHXSXs.5.' p 3 & S =XL.A.A.A.A.A.F.S.S.Z.S.D.S.",
"UXIXIXIXIXIX#X#X#X#X@X@X@X+XoXoXT.T.T.H.G.A.A.c.-XNXAXKXu.6.} U w 7 o S =XL.H.H.S.F.G.S.S.S.F.H.H.F.",
"IXIXIXIX#XIX#X#X#X#X@X@XoX+XoX).R.T.H.H.G.H.J.<XsXPXLXu.5.X.Q h 7 < > b 4XU.G.S.H.S.S.F.S.H.H.H.S.H.",
"UXIXIXIXIX#X#X#X#XOX@XoXoX+XoXoXT.R.Y.G.G.c.<XVXAXnXa.0. .( I d t 1 # D =XU.H.F.H.H.F.H.H.H.H.H.H.H.",
"UXUXIXIX#X#X#X@X@X@X+X+X}.`.R.^.T.Y.T.H.K.<XVXGXhXa.4.| ! R z d t 1 # S ,XU.H.H.H.H.H.H.H.H.H.H.H.H.",
"UXMXMXMX#X#X#X#X@X+X+XoXoXXX^.^.T.H.U.I.<XdXAXZXf.8...^ P L g d e 1 # S ,XL.U.H.H.T.H.H.H.H.^.H.T.H.",
"UXMXIX#X#X#X@X@X+X+X+X`.oXR.^.R.^.U.P.<XVXGXZXi.,.X./ T K k s s e 1 # Z ,XE.H.H.T.H.T.T.^.H.^.H.H.T.",
"UXMXIX#X#X#X#X+X@X@X+XoXoX`.^.R.^.P.2XVXGXDXiX>.#.~ W k k j g s q 5 # D 5XE.^.H.H.T.H.T.H.T.H.T.Y.H.",
"UXIX#X#X#X@X@X#X+X+X+XR.}.(.(.W.7X8XVXGXSXs.5.o.( R K z s l g s 0 1 o Z ,XE.Y.T.T.T.T.T.T.T.H.H.H.H.",
"UXIXIX#X@X#X@X+X+X+X+X`.).(.!.3XpXsXCXhXa.4. .~ W K s z j k g p 0 1 $ Z ,X~.^.T.T.T.T.T.T.T.^.H.T.H.",
"IXIX#X#X@X@X@X+X+X+XoXR.`.!.5X:Xg.g.hXy.0...^ T k z z k k k g p 0 1 ; Z 6X(.^.^.^.^.T.T.T.T.T.T.T.H.",
"IXIX#X#X#X@X@X.X+XoXoX`./.7X>Xp.q.r.9.*.} ! P K k h d L z l s s e = $ D eX(.^.^.R.^.^.T.T.T.T.H.T.T.",
"IX#X#X#X@X+X+X@XoXoX}.R./.jX1.%.| $.` ) E P h h k k j h s l z s w = $ D 6X(.^.^.^.^.^.T.T.^.T.T.T.H.",
"IX#X#X#X#X+X+X+XoX+X}.R.`.!.1X=.x g s j h h h k h j k h z l s d 0 = $ D 6X(.^.^.^.^.^.^.^.^.^.T.T.T.",
"IXMXMX#X@X@X@X+X.X`.`.R.).{.Q.2Xn y w p p s s k h h h k s l z s e = $ D 6X(.T.^.^.^.^.oX^.oX^.^.T.T.",
"IXcX#X#X@X@X@X+X+XoXoXoX}.^. XkX;XF 9 1 w s s s h h h z z l g d w = $ D 6X(.^.^.^.oX^.).R.^.^.^.T.H.",
"MXMX#X#X#X#X X+X}.}.`.oX).).^./.Q.-XB 8 1 w s s s k h z z l s s e = $ D 6X).^.^.^.oXoX^.).).^.^.^.T.",
"MXMX#X#X@X@X X@X}.+X+X`.).}.^.^.).Q.-Xv 6 1 w a d h h k z l z s w = $ Z 6XR.^.^.oX^.^.oX^.).^.^.T.T.",
"MXMX#X#X@X X+X X@X}.oXoXoX).R.`.T.`.!.2Xm - 4 e d s s z z l s s w = ; D 6X(.^.oX^.^.oX^.).^.^.^.^.T.",
"MXMXMX#X#X#X#X@X@X+X.XoX`.`.R.oXR.^.).Q.3XB * 5 e p p h s l z d w 5 X D 6X(.^.^.oX^.oX^.).^.).^.^.^.",
"MXMXMXMX#X#X#X@X X@X+X+X}.oXR.oXR.oX^.).].2XN 8 5 0 a s s j h a w 5 # Z 6X_./.^.R.).^.).^.).^.).oXT.",
"MXMXMX#X#X#X#X#X@X@X X}.}.`.R.oXoXR.^.).{.Q.qXB & 1 w p s j h a 0 = % D 6X_.^.^.).).).).).^.^.^.T.R.",
"UXMXMXMX#X#X#X#X#X#X+X+X+X+X+X`.R.oX).R.(.}.kXqXN & 1 a f s p d w = X D 6X_.^.).^.).).).).).^.^.T.T.",
"MXMXMXMXIX#X#X#X#X X@X@X+X+X+XR.oXoX`.oX+X).oXkXtXB 9 1 w d f a w = # D 6X_.).R.).^.).^.^.^.^.T.T.T.",
"UXMXIX#X#XIX#X#X#X#X#X@X@X+X+X}.}.R.R.oX`.R.^.@XcXqXB & 3 e r a q = X D eX_.(.R.).^.).).^.R.^.^.T.T.",
"MXMXIXIXIX#X#X#X#X#X@X@X@X@X X}.+XoX+X`.R.+X`. X}.xXyXB 6 1 r e 0 = X Z 6X_.).^.^.^.^.^.).^.^.^.T.T.",
"MXIXMX#X#X#X#X#X#X@X#X@X@X@X@X}..X`.}.+XoX@XR. X X X[.qXN 8 5 4 3 = X D 6X(.^.^.^.).).T.^.^.^.^.^.T.",
"MXIXIXMX#XIX#X#X#X#X#X@X@X@X@X XoX}.+X+XoX`.+X.X}.}. XzXeXB , = 1 : o G 3X(.^.^.^.^.).).R.^.^.^.T.H.",
"MXMXIX#XIX#X#X#X#X#X@X#X+X@X@X+X+X+XoX}.}.'.oX+X+X+X.X X[.0XV > # % o G 6X(.R.^.).^.).).^.^.^.^.T.T.",
"MXMXMXMX#X#XIX#X#X#X#X#X@X@X@X@X+X+X+X}.oXoXoX.X+X+X}. X|.xXqXc ; + O S 6X_.).oX).^.^.^.^.^.^.T.T.T.",
"MXMXMXMXIX#XIX#X#X#X X@X X@X@X X+X+X`.`.'.+XoX+X+X+XoX+X`. XxXuXM .   D 6X_.`.).).).^.).^.^.^.^.T.T.",
"MXMX#XIX#XIX#XIX#X@X#X X@X@X+X+XoXoXoXR.oXR.oX+XoX`.}.+X X X).|.0XM @ A eX_.R.`.).^.).^.^.^.^.^.T.T.",
"MXMXMXMX#XMXMX#X#X#X@X@X`.+X+XoX).).).oXR.oXR.oXoXoX.X+X@X}. X`.xX0Xi F wX_.}.R.).).).).oXR.^.^.T.T.",
"MXMXIXMXIXMX#X#X#X#X@X}.`.oX`.R.).R.oX^.oXoX`.oX}.R.R.}.}.{. X`.`.zXeXh.zX_.`.R.).).^.^.^.T.^.^.T.T.",
"IXIXIXIXMXMXIX#X#X#X@X XoXoXoXoXoX^.oX^.R.oXR.oX}.oX+X`.R. X.X+XXX{.|.cX`.).oX`.^.^.R.).oX^.T.T.T.T.",
"IXMXIXIXIXIXMX#X#X#X@X@X XR.oXR.^.^.^.).R.T.oXR.R.R.oXoX}.+XoX}.+X}.`.}.+X`.R.).).).R.T.T.^.T.T.T.T.",
"IXIXIXIXIXIXIX#X#X#X X+X XR.`.oXT.).T.oXT.^.R.oXoXR.).oX`.+X}.oX`.oX`.`.oX}.R.oXR.`.oX^.R.^.^.T.T.T.",
"IXIXIXIXIXIXIX#XMX X#X+X+X+X`.R.).T.oXT.T.^.T.T.R.oX).).oXoX}.oXoXoX.XoXoXoXoXR.oXR.T.R.^.^.T.T.T.T."
};
