/* XPM */
static char *noname[] = {
/* width height ncolors chars_per_pixel */
"64 64 13 1",
/* colors */
"` c #000000",
"a c #7F7F7F",
"b c #0000E6",
"c c #3F3F3F",
"d c #007F00",
"e c #FF0000",
"f c #997E4C",
"g c #00E600",
"h c #FFFFFF",
"i c #FFFF00",
"j c #CC7E66",
"k c #FF7B00",
"l c #BFBFBF",
/* pixels */
"`iiiiiiiiiiiiiiiiiiiiiiiiiihhhehhhiiiiiiiiiiiiiiiihhhehhhiiiiiii",
"`i```````````````````````hhaaaaaaahh````````````hhaaaaaaahh````i",
"`ijjjjjjjjjfjjjjjjjjjjjjhac`c`c`c`cahjjjjjjjjjjhac`c`c`c`cahjj`i",
"`ijfjjjjjjjjjjjjjjjjjjjhac`c`c`c`c`cahjjjjjjjjhac`c`c`c`c`cahj`i",
"`ijjjjjliccccccccccccchac`c`c`c`c`c`cahcccccchac`c`c`c`c`c`cah`i",
"`ijjjjllcccccccccccccchc`c`c`c`c`c`c`chcccccchc`c`c`c`c`c`c`ch`i",
"`ijjjlllca`ccccccccccha`c`c`c`c`c`c`c`ahccccha`c`c`c`c`c`c`c`ahi",
"`ijjllllca`cccccccccch`c`c`c`c`c`c`c`cahcccch`c`c`c`c`c`c`c`cahi",
"`ijlllllcccccccccccclhc`c`c`c`c`c`c`c`ahccclhc`c`c`c`c`c`c`c`ahi",
"`ijlalllcccccccccchhle`c`c`c`c`c`c`c`caechhle`c`c`c`c`c`c`c`caei",
"`ijlllllcccccccchhhhlhc`c`c`c`c`c`c`c`ahlhhlhc`c`c`c`c`c`c`c`ahi",
"`ijlllllccccccchhhhhlh`c`c`c`c`c`c`c`cahlhhlh`c`c`c`c`c`c`c`cahi",
"`ijlalllcccccchhhhhhlha`c`c`c`c`c`c`c`ahlhhlha`c`c`c`c`c`c`c`ahi",
"`ijlllllccccchlhhhhhllhc`c`c`c`c`c`c`chllhhllhc`c`c`c`c`c`c`ch`i",
"`ijlllllccccchhhhhhlllhac`c`c`c`c`c`cahlhhlllhac`c`c`c`c`c`cah`i",
"`ijlalllcccchhhhhhhllllhac`c`c`c`c`cchlhhhllllhac`c`c`c`c`cchj`i",
"`ijlllllcccchhhhhhllllllhac`c`c`c`cahlhhhllllllhac`c`c`c`cahjj`i",
"`ijlllllcccchhhhhllllllllhha`c`c`ahhlhhhllllllllhha`c`c`ahhjjj`i",
"`ijlalllcccchlhhlllllllllaahhhehhhcllhhlllllllllaahhhehhhccjjj`i",
"`ijlllllcccchhllllllllllaaaaaaaaacclhllllllllllaaaaaaaaacccjjj`i",
"`ijlllllcccchlllllllllaaaaaaaaaaccchlllllllllaaaaaaaaaaccccfjj`i",
"`ijlalllcccclllllllllaaaaaaaaaacccclllllllllaaaaaaaaaacccccfjj`i",
"`ijlllllcccccllallllaaaaaaaaaaccccccllallllaaaaaaaaaaccccccfjj`i",
"`ijlllllcccccllllllaaaaaaaaaaaccccccllllllaaaaaaaaaaaccccccfjj`i",
"`ijlalllcccccclllllaaaaaaacaacccccccclllllaaaaaaacaacccccccfjj`i",
"`ijlllllccccccclllaacaaaaaaacccccccccclllaacaaaaaaaccccccccfjj`i",
"`ijlllllcccccccclaaaaaaaaaacccccccccccclaaaaaaaaaacccccccccfjj`i",
"`ijlalllca`cccccccaaaaaaaccccccccccccccccaaaaaaacccccccccccfjj`i",
"`ijlllllca`ccccccccccccccccccccccccccccccccccccccccccccca`cfjj`i",
"`ijlllllcccccccccccc`c`c`ccccccccccccccccccccccccccccccca`cfjj`i",
"`ijlalllccccccclllllllllllllllllllcccccccccccccccccccccccccfjj`i",
"`ijlllllicccccclaaaaaaaaaaaaaaaaalccccccccccccccccccccccccifjf`i",
"`ijllllaaaaaaaalaaaaaaaaaaaaaaaaalaacacacaaaaaaaaaaaaaaaaaafjj`i",
"`ijlalaaaaaaaaalaaaaaaaaaaaaaaaaalaaaaaaaaaaaaaaaaaaaaaaaaffjj`i",
"`ijllaaaaaaaaaalaaacccaaaaacccaaalccccccccccccccccccccaaafffjj`i",
"`ijlaaaaaaaaaallaacaaaccaccaaacaalccccccccccccccccccccaaffffjj`i",
"`ijaaaaaaaaaalalaacaaaaacaaaaacaalccccccccciccccccccccafffffjj`i",
"`ijjfffffffflallaaiaaaaiacaaaacaalccccccccicccccccccccffffffjj`i",
"`ijjjfffffffalalaaacaacaaacaacaaalccccccciccccccccccccffffffjj`i",
"`ijjjjfffffflallaaacacaaeaacacaaalccccccicccccccccccccffffffjj`i",
"`ijjjjjfffffalllaaaacaaeekaacaaaalccccciccccccccccccccffffffjj`i",
"`ijjjjjjffffllllaaacacaakaacacaaalcccciiiiicccccccccccffffffjj`i",
"`ijjjjjjjjjjlallaaacaacaaacaacaaalccciiiiiccccccccccccfjjjjjjj`i",
"`ijjjjjjjjjjllllaacaaaacaiaaaaiaalccccccicccccccccccccfjjjjjjj`i",
"`ijjjjjjjjjjlallaacaaaaacaaaaacaalcccccicccccaaaaaaacffjjjjjfj`i",
"`ijjjjjfjjjjllllaacaaaccaccaaacaalcccciccccccaaaaaacfffjjjjjjj`i",
"`ijjjjjjjjjjlallaaacccaaaaacccaaalcccicccccccccccccaaaallkklllll",
"`ijjjgdjjjjjllllaaaaaaaaaaaaaaaaalcciccccccccaaaaaaaaaallkklllll",
"`ijjjddjjjjjlallaaaaaaaaaaaaaaaaalcccccccccccaaaaaaaaaalllllllll",
"`ijjfjjjjjjjllllacacacacacacacacaccccccccccccaaaaaaaaaalllllllll",
"`ijfjjjjjjjjlalacacacacacacacacacccccccccccccaaaaaaaaaalllllllll",
"`ijjjjjjjgdjlllccccccccccccccccccccccccccccccallllllllllllllllll",
"`ijjjjjjjddjlalccccccccccccccccccccccccccccccalllllllllllllllj`i",
"`ijjjjjjfjjjllaaaaaaaaaaaaaaaaaaaaaaaaaaaaaacalllllllllllllllj`i",
"`ijjjjjfjjjjlaaacacacacaaaaaaaaaaaacacaacaacaalllllllllllllllj`i",
"`ijjjjjgdjjjaaaaaaaaaaaaaaaaaaaaaaaaaaaaaacaaalllllllllllllllj`i",
"`ijjjjjddjjjjfffffffffffffffffffffffffffffaaadglbblllllllllllj`i",
"`ijjjjfjjjjjjjffffffffffffffffffffffffffffaaadglbblllllllllllj`i",
"`ijjjfjjjjjjjjjfffffffffffffffffffffffffffaaaalllllllllllllllj`i",
"`ijjjjjjjjjjjjjjffffffffffffffffffffffffffffffjjjjjjjjjjjjjjjj`i",
"`ijjjjjjjjjfjjjjjjjjjjjjjjjjjjjjjjjjjjjjjjjjjjjjjjjjjjjlhlhjjj`i",
"`ijjjjjjjjjjjjjjjjjjjjjjjjjjjjjjfjjjjjjjjjjjjjjjjjjjjjhhlhfjjj`i",
"`iiiiiiiiiiiiiiiiiiiiiiiiiiiiiiiiiiiiiiiiiiiiiiiiiiiiiiiiiiiiiii",
"````````````````````````````````````````````````````````````````"
};
