/* XPM */
static char * obj1_3_xpm[] = {
"32 32 7 1",
" 	c None",
".	c #BFBFBFBFBFBF",
"X	c #000000000000",
"o	c #FFFFFFFFFFFF",
"O	c #FFFF00000000",
"+	c #7F7F7F7F7F7F",
"@	c #3F3F3F3F3F3F",
"                                ",
"                                ",
"                                ",
"                                ",
"                                ",
"                                ",
"                    ..X         ",
"                   .oooXX       ",
"                  .oOooXX+      ",
"                 .oooooXX+      ",
"                .ooooo+X++      ",
"               .ooooo+++++      ",
"              .ooooo+@++@       ",
"             .ooooo++@+@        ",
"            .ooooo+@++@         ",
"           .ooooo++@+@          ",
"          .ooooo+@+++           ",
"         .ooooo++@++            ",
"        .ooooo+@+++             ",
"       XoOooo++@++              ",
"      XXoooo+@++@               ",
"     ..X+oo++@+@                ",
"     ..+XXX+++@                 ",
"     ...XX+++@                  ",
"      ....+++                   ",
"       ...+                     ",
"                                ",
"                                ",
"                                ",
"                                ",
"                                ",
"                                "};
