/* XPM */
static char * obj3_4_xpm[] = {
"48 48 9 1",
" 	c None",
".	c #BFBFBFBFBFBF",
"X	c #3F3F3F3F3F3F",
"o	c #7F7F7F7F7F7F",
"O	c #FFFFFFFF0000",
"+	c #FFFFFFFFFFFF",
"@	c #66666666E6E6",
"#	c #000000000000",
"$	c #FFFF00000000",
"                                                ",
"                    .XoooXOXoooX.               ",
"                    ++++++o.++++.               ",
"                    .+++++..++++.               ",
"                     .++++o.++..                ",
"                       .++....                  ",
"                        ..o.                    ",
"                        X+.                     ",
"                        @+.                     ",
"                     +.o@+.o.                   ",
"                     +.o#+.o.                   ",
"                     +.o@+.o.                   ",
"                     $$o@+.o$                   ",
"                     +.o#+.o.                   ",
"                       o@+.o                    ",
"                       o#+.o                    ",
"                       o@+.o                    ",
"                       o#+.o                    ",
"                       o@+.o                    ",
"                       o#+.o                    ",
"          +o....o+o...o+@+.oo...o+o....o+       ",
"          ++++++++++++++#+.o.++++++++++++       ",
"          ++++.+++++.+++@+.o.+.++++.+++++       ",
"          $+++++++++++++#+.o.+++++++++++$       ",
"            ++++++++++++@+.o.++++++++++         ",
"              ++++++++++#+.o.++++++++           ",
"                Xo.+++++@+.o.+++.oX             ",
"                  Xo.+++#+.o.+.oX               ",
"                    Xo.+@+.o.oX                 ",
"                      XX#+.oX                   ",
"                       .@+.o                    ",
"                       .@+.o                    ",
"                       .#+.o                    ",
"                       .@+.o                    ",
"                       .#+.o                    ",
"                       .@+.o                    ",
"                       .#+.o                    ",
"                       .@+.o                    ",
"                       .#+.o                    ",
"                       .@+.o                    ",
"                       .++.o                    ",
"                       .X#.o                    ",
"                       .+XXX                    ",
"                        ++.                     ",
"                        XXX                     ",
"                         X                      ",
"                                                ",
"                                                "};
