/* XPM */
static char * obj4_5_xpm[] = {
"48 48 10 1",
" 	c None",
".	c #00000000E6E6",
"X	c #000000000000",
"o	c #3F3F3F3F3F3F",
"O	c #CCCC7F7F6666",
"+	c #BFBFBFBFBFBF",
"@	c #7F7F7F7F7F7F",
"#	c #FFFF7F7F0000",
"$	c #FFFF00000000",
"%	c #FFFFFFFFFFFF",
"                                                ",
"                                                ",
"                                                ",
"                                       .        ",
"                        .                       ",
"                                                ",
"                        .                       ",
"                    .                .          ",
"                                                ",
"                                                ",
"                 .    .           .             ",
"                                           .    ",
"                   .         XXXX      .        ",
"                           oXOOOOX              ",
"                 .        ++OOOOOOX .           ",
"                         @+@+OOOOOOX            ",
"                  .     @@@+@+OOOOOX            ",
"               .      XXX@@@+@+OOOXX            ",
"                     XXoXX@@@+@+OXXX       .   .",
"                     XoXX#@@@@++XXX$            ",
"               .     XXX#X@@@oooXXX             ",
"            .       @X##XX@@oXXXXX$             ",
"                 XXX@XXXXo@oXXXXX$          .   ",
"             .  XXoXXXXXo@oXX@XX$               ",
"                XoXX#XXo@oXXXXX$        .       ",
"           .    XXX#X@@@oXX@XX$                 ",
"               @X##XX@@oXXXXX$       .          ",
"           .  @@XXXXo@oXX@XX$          .        ",
"             @@@XXXo@oXXXXX$     .              ",
"          . @@%@XXo@oXX@XX$                     ",
"            +@@@@@@oXXXXX$     .   .            ",
"         . X@+@@%@oXX@XX$  .                    ",
"          XO+@+@@oXXXXX$      .                 ",
"         XOOO+@+oXX@XX$     .                   ",
"        XOOOOO++oXXXX$ .                        ",
"        oOOOOOO+o@XX$    .                      ",
"       XOoOOOOOOoXX$                            ",
"       XOOOOOOOXXX$   .                         ",
"       oOOOoOOXXX$   .                          ",
"      XOoOOOOXXX$ .                             ",
"      XOOOOoXXX$                                ",
"      XOOoXXX$ . .                              ",
"       XXXX$                                    ",
"                                                ",
"                                                ",
"                                                ",
"                                                ",
"                                                "};
