/* XPM */
static char * obj5_9_xpm[] = {
"48 48 6 1",
" 	c None",
".	c #FFFF7F7F0000",
"X	c #FFFF00000000",
"o	c #FFFFFFFF0000",
"O	c #FFFFFFFFFFFF",
"+	c #000000000000",
"                                                ",
"                                                ",
"                                                ",
"                                                ",
"                                                ",
"                                                ",
"      ....                                      ",
"     ....X.X                                    ",
"     ...XooXX                                   ",
"     .oX.XoXXX                                  ",
"     .oX..X.X.X                                 ",
"      X......X.X                                ",
"      X.......X.X                               ",
"       ...O....X.X                              ",
"       X........X.XX                            ",
"        X........X...XX                         ",
"     O   X..O.....X.......X                     ",
"    O..   X...........X.....X                   ",
"    .....O....O........X...X.X                  ",
"    ........X..O.......XX.X.X.X                 ",
"     X.X...X.X..........XXXX.X.                 ",
"      X.X.X.X.X.O.......XX+XXXX                 ",
"        .X.XXXXX.........XX                     ",
"         XXX  XX..O.......XX                    ",
"               .X.........XXX.                  ",
"              ...X..O......X....                ",
"              ..............X..... .X           ",
"              .O......O..............X          ",
"             O.....X................X.          ",
"             ..X.X.XX.........XX...X.X.         ",
"             .X.X.X.XX.........XX.X.X.X         ",
"              .X.X.XXXX.X......XXX.X.X.         ",
"               XXXXXXXXX.X......XXXXXXX         ",
"                 XXX  XXX.X......  XXX          ",
"                        XX.X......              ",
"                         XX.X.......            ",
"                           XX.X.X.........      ",
"                            XXXX.X.........     ",
"                              XXXXXXXXXX..X.    ",
"                                 XXXX   .X.X    ",
"                                        X.X.    ",
"                                       X.X.     ",
"                                      X.X       ",
"                                     X.X        ",
"                                     .          ",
"                                                ",
"                                                ",
"                                                "};
