/* XPM */
static char * obj5_5_xpm[] = {
"48 48 6 1",
" 	c None",
".	c #FFFF7F7F0000",
"X	c #FFFFFFFFFFFF",
"o	c #FFFF00000000",
"O	c #000000000000",
"+	c #FFFFFFFF0000",
"                                                ",
"                                                ",
"                                                ",
"                                                ",
"          .                                     ",
"        X.o                                     ",
"       X.o                                      ",
"     ...o                                       ",
"    ...o                                        ",
"    ....   ....                                 ",
"    o.............                              ",
"    oooo.....X......                            ",
"      oooooo...X.....                           ",
"            ..........o                         ",
"              ..X....o.o                        ",
"          .X.  .......o.o.  o.o                 ",
"         .X......X.....o.o.o.o.o.               ",
"         .........X.....o.o.o.o.o.              ",
"         ......o.........o.o.o.o.o.             ",
"         ......oo.........ooo.o.o.o             ",
"          ...oo.o...X......oooooooo             ",
"          ..oooooo..........oooooo              ",
"           .o ooooo..X.......ooooo              ",
"                oo............oooo              ",
"                  .....X.......oo               ",
"                    ............oo  o.o         ",
"                     ....X.......o.o.o.o        ",
"                 ....O....X.......o.o.o.o.      ",
"                 ..X.X.............o.o.o.o.     ",
"                 ............X......o.ooo.o.    ",
"                  ........o..........ooooooo    ",
"                   .......oo..........   oooo   ",
"                     ooooooo...........   o     ",
"                         oooo...........        ",
"                            oo...........       ",
"                              ...........       ",
"                               o..........      ",
"                                o...o....o      ",
"                                 o.o+o..o+o     ",
"                                  o.o++.o+o     ",
"                                   o.ooooo.     ",
"                                    o.o.o.o     ",
"                                      oo.o      ",
"                                                ",
"                                                ",
"                                                ",
"                                                ",
"                                                "};
