/* XPM */
static char * obj7_3_xpm[] = {
"48 48 4 1",
" 	c None",
".	c #FFFF00000000",
"X	c #FFFF7F7F0000",
"o	c #FFFFFFFF0000",
"                                                ",
"                                                ",
"                                                ",
"                   .          XXX XX            ",
"         XXXXXX              X  XX  XXXX        ",
"     X X   XX...X        .  X  ..      X        ",
"                ..X         X... X              ",
"                X..X       Xo.  XX   XXX        ",
"      X          X..X      X.  XX     X         ",
"                  X..      X.XX                 ",
"                  XX.X    oX X                  ",
"      oooo         X..X  o X              X     ",
"    oo  XXXX     . X oXXo X       XXoooXXXXXX   ",
"   X ........XX      oX      .   XooX X   o  X  ",
"  XX     XX...oX         X  X  X...X XXXX       ",
"   X       XX..  XX    .X   X XX.XXXX           ",
"  X   X      XX               XX X              ",
"      X XX   oX ooo     X                       ",
"         XXXo   X    X.X   .      .    XXX      ",
"      X    X.XX    X   X          XXX...  X     ",
"           X       X     X  .X    oo.oX.XXo     ",
"              o     X.  X            XXXX XXX   ",
"       X     o     X        .       .       X   ",
"          X o   o.           .     X         X  ",
"     X XXX XX X        .X      o XXXX           ",
"    .....  oXXXX     XX      X   o  XXXX        ",
"    X     o Xo.   XXXX      .     oo            ",
"   X  X   o Xo   o   o        .X   o            ",
"       X o  o Xoooo       .   XXX   XX          ",
"   X    o   XXoo  XX   Xo     o  .   XX     X   ",
"        o  Xooo  .         .   oX    oX         ",
"          XXXX.. X XXo      X. oX.    XX        ",
"         X XX  XXXX  o X XX X   X.X    X        ",
"          X XXXXX X  o X XX X   o.X    X        ",
"         X..X X   X.o  X o. X    .X     X  .    ",
"        X.XX     X .     o.      .X     X       ",
"       X..Xo     X   .. o .       X  .  .X      ",
"       X.XX            o .        X             ",
"       X X              ..         o     X      ",
"       X X              X    .     o            ",
"     X     X            X         Xo            ",
"         X              X X       Xo            ",
"            X         X X       XX              ",
"       X X X         X X   .    X               ",
"     X                         X.   .           ",
"                                                ",
"                                                ",
"                                                "};
