/* XPM */
static char * obj1_1_xpm[] = {
"32 32 7 1",
" 	c None",
".	c #BFBFBFBFBFBF",
"X	c #000000000000",
"o	c #FFFFFFFFFFFF",
"O	c #7F7F7F7F7F7F",
"+	c #FFFF00000000",
"@	c #3F3F3F3F3F3F",
"                                ",
"                                ",
"                                ",
"                                ",
"                                ",
"                                ",
"                                ",
"                                ",
"                                ",
"                                ",
"                                ",
"        ...................     ",
"      XXoooooooooooooooooooX    ",
"     .XOo+ooooooooooooooo+oX@   ",
"    ..OXooooooooooooooooooo@@   ",
"    ..XXoooooooooooooooooooX@   ",
"    ..XXX..@@..@@..@@..@@.XX@   ",
"    ...XOO@@OO@@OO@@OO@@OOOO@   ",
"    ..OOOOOOOOOOOOOOOOOOOOO@    ",
"      OO@@@@OOOOOOOO@@@@OO@     ",
"                                ",
"                                ",
"                                ",
"                                ",
"                                ",
"                                ",
"                                ",
"                                ",
"                                ",
"                                ",
"                                ",
"                                "};
