/* XPM */
static char *noname[] = {
/* width height ncolors chars_per_pixel */
"67 57 8 1",
/* colors */
"` c #000000",
"a c #00BF00",
"b c #3F3F3F",
"c c #3F3FFF",
"d c #BF7F3F",
"e c #003F00",
"f c #585858",
"g c #DFDFDF",
/* pixels */
"```````````````````````````````````````````````````````````````````",
"``ggggggggggggggggggggggggggggggggggggggggggggggggggggggggggggggg``",
"`g`ggggggggggggggggggggggggggggggggggggggggggggggggggggggggggggg`f`",
"`gg`ggggggggggggggggggggggggggggggggggggggggggggggggggggggggggg`ff`",
"`ggg```````````````````````````````````````````````````````````fff`",
"`ggg`ddd`dddddddddd``bbbbbbbbbb`dd`d```bbbbbbbbbbbbbbbbbbbbbbd`fff`",
"`ggg`ddd`ddddbbddddbbbbbb`ddddb`dd`ddd```bbbbbbbbbbbbbbbbbbbdd`fff`",
"`ggg`d`d`d`bbbbbbbbbbe`bb`dddbbbbd`ddd```````bbbbb``````bbbddc`fff`",
"`ggg`ad```ebe`ebbbbbbbbbb`bb`bd`db`ddddd`bbbbb```b`bb```bbbdcc`fff`",
"`ggg`aad`eebbbbbbbb`bbbbb`dd`bd`ddb`````````````````bb``bb`ccc`fff`",
"`ggg`aad`eeeeeeeeee`bbbbb`bb`bbbbb`bb`bb`````````b`b```bbbbccc`fff`",
"`ggg`daa````eeeeeee`````````````````dbbb``````bbbb`bbb`bbb`dcc`fff`",
"`ggg`dadaaad`````eebbddbdbbb`bbbbbb`bb`bbbbbb`bbbb`bbb`bbdddcc`fff`",
"`ggg`daddd`adaaad``bbddbbbbb`dddbbb```````````````````bbbdddcc`fff`",
"`ggg`daaddda`aaaddddbbbbbbbd`bbbbbbbbb``bbbb`bbbbb````bbbdd`cc`fff`",
"`ggg`aaaaaadd`ddadddd`dddddd`dddd``bbb`bbbbb`bbbbb`b``bb`d`bcc`fff`",
"`ggg`adadaddd`ddaaaadd`dddddddddbbbbbb`bbbbb`bbbbb`bbbbb`ddbcc`fff`",
"`ggg`adadaadd`ddaadaddd```a`````bbbbbb`bbbb```bbbb`bbbbb`d`bcc`fff`",
"`ggg`aaadaadd``dddaadddd`daddd`bbbbbbb`bbbb```bbbb`bbb```dd`cc`fff`",
"`ggg`aaddaaadd``ddaadddd`aaddb`bbbbbbb`bbbbb```bb``````````ccc`fff`",
"`ggg`aaddaddadd`dd`dddaddaadbb`bb````````````````````````bcccc`fff`",
"`ggg`daadaddda``bbb```aaaaa`bb`bbbbb`b`bbbbb`bbbbb`ddd`d`ccccc`fff`",
"`ggg`ddaaaaaaaabbbbbbbbbbbb`bb`bbbbbbb`bbbbb`bbbbb`ddd`ddccccc`fff`",
"`ggg`ddadadddaabbbbbbbbb````````````````bbbb`bbb`b`ddd```bcccc`fff`",
"`ggg`d`daadddd``bbbbbbbbbbbbbb`bb`bbbb`bb``b`bbbb`````````cccc`fff`",
"`ggg`d``````````bbbbbbbbbbbbbb`b`bbbb``bb````bbbbbaaaa`````ccc`fff`",
"`ggg`d`bbb`bbb``bbbbbbbbbbbbbb`b`bbb````b````bbbbbaaaa`aaaaccc`fff`",
"`ggg`d`bbb`bbb````````````b``````````````````````````````a`ccc`fff`",
"`ggg`d`bbb`bbbddddddddd`dd```b`b`bb`````b````bbcc`aaaaaaa`cccc`fff`",
"`ggg`d`bbb`bbbdddd`dddddddd`bb`bbbb`````b````bbbcc`a`a`a`ccccc`fff`",
"`ggg`d`bbb`bbbd`d`ccd`ddddddbb`b`bb`````b````bbbbcc`bbb`cccccc`fff`",
"`ggg`d````````dd`ccc`ddddddd`b`bbbb`````b`````bbbbcccccccccccc`fff`",
"`ggg```dddddddd`ccccccddd`dd`b`bbbbbbbbbb`b````bbbbbbccccccccc`fff`",
"`ggg`b`ddd`d`d`ccccccdddd`dd`b``bbbbbbbbb`b`````bbbbbbcc``cccc`fff`",
"`ggg`b``d`ccccccccccc`d`d`dd`b`bbbbbbb``b`bb``````bbbb````cccc`fff`",
"`ggg`b``ddcccccd`ccc`d`dd`d```````````````````bbb```bbbb```ccc`fff`",
"`ggg`b``dddccccdd`d`ddddd`d`bb`bbb```bbbb`bbbbbbbbbbbbbbdd`ccc`fff`",
"`ggg`b```ddccccdddddd``dd``bbb`bb`bbbbbbb`bbbbbbbbbbbbbbbdcccc`fff`",
"`ggg`bb```ddd`ddddddd``dd`bbbbb`bbbbbbbbb`bbbbbbbbbbbbbbb`cccc`fff`",
"`ggg`bb`d``d`````dd````````````````````````bbbbbbbb```````cccc`fff`",
"`ggg`bb``````````d`````````````bbbddccccd`bbbbbb`d`dd`ddd`cccc`fff`",
"`ggg`c``````````````````bb`bbbbddddcccccc`ddbbbb`d`dddddddcccc`fff`",
"`ggg`cc```bbbbbb`bbbbb`bbb`bbdddbccccccccccddd`d`dddd`dddddccc`fff`",
"`ggg`cccc`bbbbbb`bbbbb`bbb`ddccccccccccccccccc`d`dddcccdddddcc`fff`",
"`ggg`cccc``bb````bbbbb`bdd`cccccccccccccccccccdd`dddccccddddcc`fff`",
"`ggg`ccccddbbbbb`bbbbb`ddccccccccccccccccccccddd`ddcccccccdccc`fff`",
"`ggg`ccccc``bbbd`dbbbb`dccccccccccccccccccccc`dd`ddcccccccdccc`fff`",
"`ggg`cccccc`bbdccddddddccccccccccccccccccccccddddddccccccccccc`fff`",
"`ggg`cccccccccccccccddbcccccccccccccccccccccddddddddcccccccccc`fff`",
"`ggg`ccccccccccccccccccccccccccccccccccccccccddddd`dcccccccccc`fff`",
"`ggg`ccccccccccccccccccccccccccccccccccccccccccccccccccccccccc`fff`",
"`ggg`ccccccccccccccccccccccccccccccccccccccccccccccccccccccccc`fff`",
"`ggg```````````````````````````````````````````````````````````fff`",
"`gg`fffffffffffffffffffffffffffffffffffffffffffffffffffffffffff`ff`",
"`g`fffffffffffffffffffffffffffffffffffffffffffffffffffffffffffff`f`",
"``fffffffffffffffffffffffffffffffffffffffffffffffffffffffffffffff``",
"```````````````````````````````````````````````````````````````````"
};
