/* XPM */
static char *tiles___[] = {
/* columns rows colors chars-per-pixel */
"34 34 13 1",
"  c black",
". c #00007F7F0000",
"X c #7F7F7F7F0000",
"o c #5D5D5D5D5D5D",
"O c gray50",
"+ c blue",
"@ c green",
"# c #BFBF79790000",
"$ c red",
"% c #FFFF77770000",
"& c yellow",
"* c gray75",
"= c gray100",
/* pixels */
"**********************************",
"*$$@@@@$$$$@@@@$$$$@@@@$$$$@@@@$$o",
"*$$@@@@$$$$@@@@$$$$@@@@$$$$@@@@$$o",
"*$$oooooooooooooooooooooooooooo$$o",
"*$$o==========================*$$o",
"*@@o=@@.@@@@@.@@@@@@@@.@@@@@.=*@@o",
"*@@o=@.@@.@@@@@@@.@@O@@@@@@@@=*@@o",
"*@@o=@@.@@$$$$O$$$$O$$OOOOO@@=*@@o",
"*@@o=@@.@$   O    O  $%%O++@@=*@@o",
"*$$o=.@@$$ooOooooOooo$oOOOO@@=*$$o",
"*$$o=@@$#$oOooooooooo$o O##@@=*$$o",
"*$$o=@@$$$oo$$$$$$$$$$$$OOO@@=*$$o",
"*$$o=@@$$#o$ooooooooooo$O OOO=*$$o",
"*@@o=@@#$$$#OOOOOOOOOOo$OOOOO=*@@o",
"*@@o=@@$#$$$O&&&&O&&OOo$oOO@@=*@@o",
"*@@o=@@$$$#$o&ooOo&o&Oo$oOO@@=*@@o",
"*@@o=.@#$$$$o&&&Oo&o&Oo$XXXXX=*@@o",
"*$$o=@@$$$#$o&oOOo&o&Oo$    X=*$$o",
"*$$o=@@$#$$#o&OOOo&o&Oo$O oOX=*$$o",
"*$$o=@@$$#$$o&OOOo&&OOo$ooO X=*$$o",
"*$$o=@@#$$$$ooOOOoooOOo$oOo X=*$$o",
"*@@o=@@$$#$$OOOOOOOOOOo$ooo $=*@@o",
"*@@o=.@$$$#$$$$$$$$$$$$ O O $=*@@o",
"*@@o=@@$#$$$    $    $ooooo $=*@@o",
"*@@o=@@$$$$ ooo$ ooo$$$$$$$$$=*@@o",
"*$$o=.@#$$ ooo$ ooo$ $ $ $ $@=*$$o",
"*$$o=@@$$ ###$ ###$$$$$ $$$.@=*$$o",
"*$$o=@@@..ooo..ooo..........@=*$$o",
"*$$o=@@.@.ooo..ooo.....@@@.@@=*$$o",
"*@@o==========================*@@o",
"*@@o***************************@@o",
"*@@$$$$@@@@$$$$@@@@$$$$@@@@$$$$@@o",
"*@@$$$$@@@@$$$$@@@@$$$$@@@@$$$$@@o",
"*ooooooooooooooooooooooooooooooooo"
};
