/* XPM */
static char *tiles___[] = {
/* columns rows colors chars-per-pixel */
"42 42 14 1",
"  c black",
". c #00007F7F0000",
"X c #7F7F7F7F0000",
"o c #5D5D5D5D5D5D",
"O c gray50",
"+ c blue",
"@ c #4F4F4F4FFFFF",
"# c green",
"$ c #BFBF79790000",
"% c red",
"& c #FFFF77770000",
"* c yellow",
"= c gray75",
"- c gray100",
/* pixels */
"==========================================",
"=OO****OOOO****OOOO****OOOO****OOOO****OOo",
"=OO****OOOO****OOOO****OOOO****OOOO****OOo",
"=OOooooooooooooooooooooooooooooooooooooOOo",
"=OOo----------------------------------=OOo",
"=**o-$$$$$$$$========$$XO$o$$$o$o$$$$-=**o",
"=**o-$$$======%OOOOO%OXOOXo$XOOo$$$o$-=**o",
"=**o-$$==&OO==OOOOOOo oo$$$XO$$O$$o$$-=**o",
"=**o-$===OOO==OOOOO@ OOo$OoO$$XXo$X$$-=**o",
"=OOo-$=O=-oO=-OOOOo@OOOXXoX$$$o$$$oo$-=OOo",
"=OOo-$O==OOO-OOOOo OOoX$$$$$$O$$ooo$$-=OOo",
"=OOo-$===OOOO=OOO OOo Oo$O$$OoXXo$$X$-=OOo",
"=OOo-$=O=OOO==OOOOO@ OOoXoO$oX$$$$$$$-=OOo",
"=**o-$===OOO==OOOOo@OOOXXooO$o$$$$$o$-=**o",
"=**o-$=O=OOO=-OOOo OOOooX$$$$$oOXOXo$-=**o",
"=**o-$===oOO-OOOO OOo OoX$$$ooOo$$$o$-=**o",
"=**o-$==-OOOO=OOOOO@ OOoX$oOOXoo$$$$$-=**o",
"=OOo-$=-=OOO==OOOOo@OOOXoOoXXo$$$$$o$-=OOo",
"=OOo-$-==oOO==OOOo OOoXoXo$$$$$$$$$$$-=OOo",
"=OOo-$==OOOO==OOO OOo OoX$o$$$$$$$$o$-=OOo",
"=OOo-$=O=OOO=-OOOOO@ OOoX$$$$$$$$$$$$-=OOo",
"=**o-$O==OOO-OOOOOo@OOOoX$o$$$$$$$$o$-=**o",
"=**o-$===o-oO=OOOo OOOOoX$$$$$$$$$$$$-=**o",
"=**o-$=O=o-o==OOO OOOOOoX$o$$$$$$$$o$-=**o",
"=**o-$OO=OOO==OOOOOOOOoXX$$$$$$$$$$$$-=**o",
"=OOo-$=O=o-o==%OOOOO%ooXX$o$$o$$o$$o$-=OOo",
"=OOo-$OO=o-o=OoooooooOoXX$$$$$$$$$$$$-=OOo",
"=OOo-$=O=OOOOooooooo OoXoOO.OOOOOOO$$-=OOo",
"=OOo-$O==OoOOOOOO*OOOOoXoOO.OOOOOOOOO-=OOo",
"=**o-$===OOOOO***OoO OooOOOOOOOOOOOOO-=**o",
"=**o-$===OoOO***OOOOOOoXOOOOOOOO+OO$#-=**o",
"=**o-$===&OO*OOOOOoO &oXOOOOOOOO+OO#$-=**o",
"=**o-$===ooooooooooooooXOOOOOOOOOOO$#-=**o",
"=OOo-$==oooooooooooooooXOoO+O.OOOOO$$-=OOo",
"=OOo-$=ooooooooooooooooXOXO+O.OOOOO#$-=OOo",
"=OOo-$$XXXXXXXXXXXXX.X.X#$#$#$#OO$$$$-=OOo",
"=OOo-$$$XXXXXXXXXXXXXXXX$$$$$$$OO$#$#-=OOo",
"=**o----------------------------------=**o",
"=**o===================================**o",
"=**OOOO****OOOO****OOOO****OOOO****OOOO**o",
"=**OOOO****OOOO****OOOO****OOOO****OOOO**o",
"=ooooooooooooooooooooooooooooooooooooooooo"
};
