/* XPM */
static char *tiles____[] = {
/* columns rows colors chars-per-pixel */
"48 48 6 1",
"  c black",
". c #99997F7F4C4C",
"X c red",
"o c #FFFF7F7F0000",
"O c yellow",
"+ c None",
/* pixels */
"++++++++++++++++++++++++++++++++++++++++++++++++",
"++++++++++++++++++++++++++++++++++++++++++++++++",
"+++++++++++++++++++++++XX+++++++++++++++++++++++",
"+++++++++++++++++++X++++++++++ooo+oo++++++++++++",
"+++++++++XXXo+o++++++++++++++++++++++++o++++++++",
"+++++XXXX++XX+++o++++++++X+.++++++++++++++++++++",
"++++XX+++++++XX++Xo+++++++++o++++o+++XXX++++++++",
"++++++++++.+++++++X++++++++o+X+.oo+++ooXX+++++++",
"++++++o++++++.++++++++++++.++++o++++.+o+X+++++++",
"+++++++++++++++++.++.+++++++++++++++++++XXX+++++",
"++++++++++++++++++o++++++.+++o++++.+++++.+++++++",
"++++++OOOO+++++++++oX+.++++++++++++.++++++o+++++",
"++++OO++++oo+++++X+o++++++o+++.++++oO+O.o.XXo+++",
"+++o+++XX+++++.++++++++++++++++++++++++++++XXX++",
"++oX+++++oo++X+o+++++++++o+++++oX+X++++++++++XX+",
"+++X+++++++o++++++o++.++++++o++++++o++++++.+++X+",
"++oX++o+++++++++++++++.+++++++oo++++++++++++++X+",
"+XX+++o+oo+++O++OO++++++++++++++++++++.+++++++X+",
"+X+X+++++oo+O+++o++++++++++X++++++X++++ooo++++X+",
"++XX++o+.++oX+++.++++++.+.+..+++++++++++++o+++++",
"+++++++++++++++++.+o+++++o++++++++O+.++XooO+++++",
"+++++++++++.++O+++++oX++.+.++.++++++...oo+ooo+++",
"+++++++.+++++O+++++o+++++.++X++++.++X+++++++o+X+",
"+++++++++++.+++++X++++++++++++++++++++++.++++oX+",
"++++++++oo+oo++.+++++++X.++++++O++++o+++++++++X+",
"+++++XXXX++O+o+..++++++++++++.+++++++ooo+++++XX+",
"++++++++++O+++++++o+oo++++++X+++++++++++.++++X++",
"+++o++o+++O+o++++O++.O++++++.+X++.++++++++++++++",
"++XXX++o+O+++++++O+++++..+++++++o+++o+++++.+++++",
"++XX++++++.+++O+++++++++++++++O++++++.o+++++o+++",
"++XX+++++++++++++++++++++++++++O+++++Oo+++++++++",
"++XX+++++++++o+X+++o+.++++++o++O++++++oo+++.++++",
"++XX+++++o+++++oo+.+++++++o+.++.++o++++o.+++++++",
"+++++++++++++o++++o++++o+++++.++++o++++o++++++++",
"+++++++++++++.+++++++++o+O++++++++o+++++o++X++++",
"++++++++o+o.+++++++X+++++.+++++++Xo+++++o+++++++",
"+++++++oX+o++++++o+++XX+O++++++.++o++X++Xo++++++",
"+++++++o++o++++++++++++O+X++++++++o+++++++++++++",
"++++++++X+++++++++.+++++XX+++++++++O++++XX++++++",
"++++++++X+++++++++++++++o++++X+++++O+++XX+++++++",
"+++++o+XX++o++++++++XXX+o+++++++++oO+++X++++++++",
"+++++++XXo+++++++..+X+++o+o+++++++oO+++X++++++++",
"++++++++XXXXX+++++++XXo+o.++++++oo++.+++++++++++",
"+++++++oXX+XX++++++++X+o+++X++X+o+++++++++++++++",
"+++++o+XX++X++++++++++++++++++XXX+++X+++++++++++",
"++++++++X+++++++++++X+++++++++++++++++++++++++++",
"++++++++X+++++++++++++++++++++++++++++++++++++++",
"++++++++++++++++++++++++++++++++++++++++++++++++"
};
