/* XPM */
static char *tiles___[] = {
/* columns rows colors chars-per-pixel */
"34 34 11 1",
"  c black",
". c #00007F7F0000",
"X c #7F7F7F7F0000",
"o c #5D5D5D5D5D5D",
"O c gray50",
"+ c green",
"@ c #BFBF79790000",
"# c red",
"$ c #FFFF77770000",
"% c gray75",
"& c gray100",
/* pixels */
"%%%%%%%%%%%%%%%%%%%%%%%%%%%%%%%%%%",
"%@@++++@@@@++++@@@@++++@@@@++++@@o",
"%@@++++@@@@++++@@@@++++@@@@++++@@o",
"%@@oooooooooooooooooooooooooooo@@o",
"%@@o&&&&&&&&&&&&&&&&&&&&&&&&&&%@@o",
"%++o&&&&&&&&&.+.+++.++&&&&&&&&%++o",
"%++o&&&&&&+++++++.++.++.+.&&&&%++o",
"%++o&&&&&+.+++.++++.++.++.+&&&%++o",
"%++o&&&+++++++++.++++.+.++..&&%++o",
"%@@o&&&+.+++++.++.+.+.+.+.+.&&%@@o",
"%@@o&&+++++.++++.+.+.+.+...+.&%@@o",
"%@@o&&.+++++.+.++.+.++...++..&%@@o",
"%@@o&+++.+.++++.+.++..+.+..+.&%@@o",
"%++o&++++.++.+++.+...+.+.+..&&%++o",
"%++o&.+.+.+.+.+.+.+.+.....O&&&%++o",
"%++o&++.++.+.+.+.+.+...&&&O&&&%++o",
"%++o&&.++.+.+.+......O&&&&O&&&%++o",
"%@@o&&&..........&&&&O&&&&O&&&%@@o",
"%@@o&&&&&&&XXXooo&&&&O&&&&O&&&%@@o",
"%@@o&&&&&&&XXXooo&&&&O&&&&O&&&%@@o",
"%@@o&&&&&&&XXXooo&&&&O&$$&O&&&%@@o",
"%++o&&&&&&&XXXooo&&&&O ## O&&&%++o",
"%++o&&&&&&&XXXooo&&&&O    O&&&%++o",
"%++o&&&&&&XXXoooo&&&&O&##&O&&&%++o",
"%++o&&&&XXXXoooooo&&&o####o&&&%++o",
"%@@o&&XXXXXoooooooo&&& && &&&&%@@o",
"%@@o&XXXXXooooooo@@@@@ @@ @@@&%@@o",
"%@@o&@@@XX@oo@@ooo@@@@@o@o@@@&%@@o",
"%@@o&@@XX@@o@@@@oo@@@@o@o@@@@&%@@o",
"%++o&&&&&&&&&&&&&&&&&&&&&&&&&&%++o",
"%++o%%%%%%%%%%%%%%%%%%%%%%%%%%%++o",
"%++@@@@++++@@@@++++@@@@++++@@@@++o",
"%++@@@@++++@@@@++++@@@@++++@@@@++o",
"%ooooooooooooooooooooooooooooooooo"
};
