/* XPM */
static char *tiles____[] = {
/* columns rows colors chars-per-pixel */
"48 48 3 1",
"  c black",
". c #0000E6E60000",
"X c #CCCC7E7E6666",
/* pixels */
" ...............................................",
" .                                             .",
" .XXXXXXXXXXXXXXXXXXXXXXXXXXXXXXXXXXXXXXXXXXXX .",
" .XXXXXXXXXXXXXXXXXXXXXXXXXXXXXXXXXXXXXXXXXXXX .",
" .XXXXXXXXXXXXXXXXXXXXXXXXXXXXXXXXXXXXXXXXXXXX .",
" .XXXXXXXXXXXXXXXXXXXXXXXXXXXXXXXXXXXXXXXXXXXX .",
" .XXXXXXXXXXXXXXXXXXXXXXXXXXXXXXXXXXXXXXXXXXXX .",
" .XXXXXXXXXXXXXXXXXXXXXXXXXXXXXXXXXXXXXXXXXXXX .",
" .XXXXXXXXXXXXXXXXXXXXXXXXXXXXXXXXXXXXXXXXXXXX .",
" .XXXXXXXXXXXXXXXXXXXXXXXXXXXXXXXXXXXXXXXXXXXX .",
" .XXXXXXXXXXXXXXXXXXXXXXXXXXXXXXXXXXXXXXXXXXXX .",
" .XXXXXXXXXXXXXXXXXXXXXXXXXXXXXXXXXXXXXXXXXXXX .",
" .XXXXXXXXXXXXXXXXXXXXXXXXXXXXXXXXXXXXXXXXXXXX .",
" .XXXXXXXXXXXXXXXXXXXXXXXXXXXXXXXXXXXXXXXXXXXX .",
" .XXXXXXXXXXXXXXXXXXXXXXXXXXXXXXXXXXXXXXXXXXXX .",
" .XXXXXXXXXXXXXXXXXXXXXXXXXXXXXXXXXXXXXXXXXXXX .",
" .XXXXXXXXXXXXXXXXXXXXXXXXXXXXXXXXXXXXXXXXXXXX .",
" .XXXXXXXXXXXXXXXXXXXXXXXXXXXXXXXXXXXXXXXXXXXX .",
" .XXXXXXXXXXXXXXXX.......XXXXXXXXXXXXXXXXXXXXX .",
" .XXXXXXXXXXXXXXX  ..   ..XXXXXXXXXXXXXXXXXXXX .",
" .XXXXXXXXXXXXXXXX ..XX  ..XXXXXXXXXXXXXXXXXXX .",
" .XXXXXXXXXXXXXXXX ..XXX ..XXXXXXXXXXXXXXXXXXX .",
" .XXXXXXXXXXXXXXXX ..XXX ..XXXXXXXXXXXXXXXXXXX .",
" .XXXXXXXXXXXXXXXX ..XXX..XXXXXXXXXXXXXXXXXXXX .",
" .XXXXXXXXXXXXXXXX ......XXXXXXXXXXXXXXXXXXXXX .",
" .XXXXXXXXXXXXXXXX ..  ..XXXXXXXXXXXXXXXXXXXXX .",
" .XXXXXXXXXXXXXXXX ..X  ..XXXXXXXXXXXXXXXXXXXX .",
" .XXXXXXXXXXXXXXXX ..XX  ..XXXXXXXXXXXXXXXXXXX .",
" .XXXXXXXXXXXXXXXX....XX....XXXXXXXXXXXXXXXXXX .",
" .XXXXXXXXXXXXXXX    XX    XXXXXXXXXXXXXXXXXXX .",
" .XXXXXXXXXXXXXXXXXXXXXXXXXXXXXXXXXXXXXXXXXXXX .",
" .XXXXXXXXXXXXXXXXXXXXXXXXXXXXXXXXXXXXXXXXXXXX .",
" .XXXXXXXXXXXXXXXXXXXXXXXXXXXXXXXXXXXXXXXXXXXX .",
" .XXXXXXXXXXXXXXXXXXXXXXXXXXXXXXXXXXXXXXXXXXXX .",
" .XXXXXXXXXXXXXXXXXXXXXXXXXXXXXXXXXXXXXXXXXXXX .",
" .XXXXXXXXXXXXXXXXXXXXXXXXXXXXXXXXXXXXXXXXXXXX .",
" .XXXXXXXXXXXXXXXXXXXXXXXXXXXXXXXXXXXXXXXXXXXX .",
" .XXXXXXXXXXXXXXXXXXXXXXXXXXXXXXXXXXXXXXXXXXXX .",
" .XXXXXXXXXXXXXXXXXXXXXXXXXXXXXXXXXXXXXXXXXXXX .",
" .XXXXXXXXXXXXXXXXXXXXXXXXXXXXXXXXXXXXXXXXXXXX .",
" .XXXXXXXXXXXXXXXXXXXXXXXXXXXXXXXXXXXXXXXXXXXX .",
" .XXXXXXXXXXXXXXXXXXXXXXXXXXXXXXXXXXXXXXXXXXXX .",
" .XXXXXXXXXXXXXXXXXXXXXXXXXXXXXXXXXXXXXXXXXXXX .",
" .XXXXXXXXXXXXXXXXXXXXXXXXXXXXXXXXXXXXXXXXXXXX .",
" .XXXXXXXXXXXXXXXXXXXXXXXXXXXXXXXXXXXXXXXXXXXX .",
" .XXXXXXXXXXXXXXXXXXXXXXXXXXXXXXXXXXXXXXXXXXXX .",
" ...............................................",
"                                                "
};
