/* XPM */
static char *tiles____[] = {
/* columns rows colors chars-per-pixel */
"48 48 6 1",
"  c black",
". c red",
"X c #FFFF7F7F0000",
"o c yellow",
"O c gray100",
"+ c None",
/* pixels */
"++++++++++++++++++++++++++++++++++++++++++++++++",
"++++++++++++++++++++++++++++++++++++++++++++++++",
"+++++++++++++++++XXXXXXX++++++++++++++++++++++++",
"+++++++++++++++XXXXXXXXXXXX+++++++++++++++++++++",
"++++++++++++++X.XX....XXXXXX++++++++++++++++++++",
"+++++++++++++....++.++.XXXXX++++++++++++++++++++",
"++++++++++++.++++++++++...XX++++++++++++++++++++",
"+++++++++++++++++++++++.X.XX.+++++++++++++++++++",
"+++++++++++++++++++++++...XX.+++++++++++++++++++",
"+++++++++++++++++++++++..XXX.+++++++++++++++++++",
"+++++++++++++++++++++++..XXX.+++++++++++++++++++",
"+++++++++++++++++++++++.XXXX.+++++++++++++++++++",
"++++++++++++++++++++++...XXX.+++++++++++++++++++",
"++++++++++++++++++++++..XXXX.+++++++++++++++++++",
"+++++++++++++++++++++++.XXXX.++XX.++++++++++++++",
"++++++++++++++++++++++XXXXXX.++XX.X+++++++++++++",
"+++++++++++++++++++O+XXXOXXX.++XX..X++++++++++++",
"+++++++++++++++++OXOXXXXXXXX.+.X...X.+++++++++++",
"++++++++++++++++XXXXXXXXXXXXXXXXX.XX++++++++++++",
"++++++++++++++++XXX.XXXOXXXXXX....+X++++++++++++",
"++++++++++++++++XXX.XXXXXXXX.XX...++++++++++++++",
"++++++++++++++++XXX.XXOXXXXX.XX..+++++++++++++++",
"++++++++++++++++X...XXXXXXXXXX...+++++++++++++++",
"++++++++++++++++....XXXXXXXX.X..++++++++++++++++",
"++++++++++++++++....XXXXXXXX...+++++++++++++++++",
"+++++++++++++++++++.XXXXXXXX...+++++++++++++++++",
"+++++++++++++++++++XXXXXXXXX...+++++++++++++++++",
"+++++++++++++++++++XXXOXXXXX..++++++++++++++++++",
"+++++++++++++++++++XXXXXXXXX.+++++++++++++++++++",
"++++++++++++++++XX+XXOXXXXXX.+++..++++++++++++++",
"+++++++++++++++XOXOXXXXXXXXXX.+XX.++++++++++++++",
"+++++++++++++++XXXXXOXXXXXXXX.XX..++++++++++++++",
"++++++++++++++XXX.XXXXXXXX.X......++++++++++++++",
"++++++++++++++XXX.XXXXXXX..X......++++++++++++++",
"++++++++++++++XX...XOXXXX.XX...+.+++++++++++++++",
"++++++++++++++XX...XXXXXX.....++++++++++++++++++",
"+++++++++++++XX..+.XXXXX...+.+++++++++++++++++++",
"+++++++++++++XX..+.XXXXXX.++++++++++++++++++++++",
"++++++++++++++..++.XXXX..+++++++++++++++++++++++",
"++++++++++++++++++..XXX..+++++++++++++++++++++++",
"++++++++++++++++++...XX..+++++++++++++++++++++++",
"++++++++++++++++++.o.X.o.+++++++++++++++++++++++",
"++++++++++++++++++.oXX.o++++++++++++++++++++++++",
"+++++++++++++++++++.XX..++++++++++++++++++++++++",
"++++++++++++++++++..XX...+++++++++++++++++++++++",
"+++++++++++++++++++.....++++++++++++++++++++++++",
"++++++++++++++++++++.+.+++++++++++++++++++++++++",
"++++++++++++++++++++++++++++++++++++++++++++++++"
};
