/* XPM */
static char *tiles____[] = {
/* columns rows colors chars-per-pixel */
"64 64 12 1",
"  c black",
". c #3F3F3F3F3F3F",
"X c #00007F7F0000",
"o c gray50",
"O c #00000000E6E6",
"+ c #66666666E6E6",
"@ c #0000E6E60000",
"# c #99997D7D4C4C",
"$ c #FFFF77770000",
"% c #CCCC7E7E6666",
"& c yellow",
"* c gray75",
/* pixels */
"+++++++++++++++++++++++++++++++++++++++ oooooo++++++++++++++++++",
"+++++++++++++++++++++++++++++++++++++++ oooooo++++++++$$++++++++",
"++++%%%%%%%%%%%%%%%%%%%%%%%%%%%%%%%%%%%%oooooo%%%%%%%.%$$%%%%%++",
"+++ %%%#%#%%%%%%%%%%%%%#%%%#%%%#%%%%%%%%oooooo%%%%%%.%%%$$%%%%++",
"++O %%%ooooooooooooooooooooooooooooooooooooooo%%%%% %%%%%$$%%%++",
"++O %%oooooooooooooooooooooooooooo ooooooooooo%%%%%%%%%%% $$%%++",
"++O %%ooooooooooooooooooooooooooo . oooooooooooooooooo%% % $$%++",
"++O %%oo*oo*oo*o&& o*oo*oo*oo*oooo oooo*oo*ooooooooo.o% % %$%%++",
"++O %%oooooooooo&& oooooooooooooooooooooooooooooooooo. . %%%%%++",
"++O %%oooooooooooooooooooooooooooooooooo******ooooooo . %%%%%%++",
"oooooooo*oooooo*******ooooo******o&.&o&**oooo.ooooooo. .%%%%%%++",
"ooooooooooo%%%**ooooo.oooo**oooo.ooooo***oooo.oooooo.o%%.%%%%%++",
"ooooooooooo%%***ooooo..oo***oooo..ooo****oooo..*oo*ooo%%%#%%%%++",
"oo*oo*oo*oo%****ooooo..o****oooo..ooo****oooo..ooooooo%%%%#%%%++",
"ooooooooooo*****ooooo..o****oooo..ooo****oooo..ooooooo%%*....%++",
"ooooooooooo*****ooooo..o****oooo..ooo****oooo..ooo*ooo%**ooo.%++",
"oooooooooo%**.**o*******************************ooooooo**o o.%++",
"    %%%%%%%*******.............................*ooooooo**ooo.%++",
"++O %%%%%%%**.****oooooooooooooooooooooooooooo.*oo*oooo**ooo.#++",
"++O %%%***********oooooooooooo*++ooooooooooooo.*ooooooo**o o.#++",
"++O %%**.....*****oo*.ooooooo*+o*+oooooooo*.oo.*oooooo%**ooo.#++",
"++O %***.....*.***oo*.ooooooo*+o*+oooooooo*.oo.*.o*ooo%**....#++",
"++O %***.....*****oooooooooooo*+Oooooooooooooo.*.ooooo%*....##++",
"++O %***...oo*****oooooooooooo*+Oooooooooooooo.*.oooooo@XX####++",
"++O %***...oo*****oooooooooo*+++O++ooooooooooo.*.o*ooo@@XX%%%%++",
"++O %***...oo*****oooooooooooo*+Oooooooooooooo.*.ooooo@@XX%%%%++",
"++O %***...oo*****oooooooooooo*+Oooooooooooooo.*.ooooo@XXooo%%++",
"++O %***...oo.****oooooooooooo*+Oooooooooooooo.*.o*oooo@XXo@XX++",
"++O %***...oo*****ooooooo*+++o*+Oo*+++oooooooo.*.ooooo@@XX@@XX++",
"++O %***...oo*****oo*.oooo*+Oo*+Oo*O+ooooo*.oo.*.ooooo@@XX@@XX++",
"++O %**oooooo*****oo*.ooooo*+OO+OOO+oooooo*.oo.*.o*ooo@XXo@XXo++",
"++O %*oooo#oo*****oooooooooo*++++++ooooooooooo.*.ooooooooooooooo",
"++O %oooo##o*.****oooooooooooooooooooooooooooo.*.ooooooooooooooo",
"++O %%#####o************************************.o*oo*oo*oo*oo*o",
"++O %%%####o*****oooooooooooooooooooooooooooooo..ooooooooooooooo",
"++O %+..###*****oooooooooooooooooooooooooooooo...ooooooooooooooo",
"++O %+..%%%*****.............................o...o*ooooooooooooo",
"++O %+OO%%%**.**.............................o..oooooo%%%%%%%%  ",
"++O %%%%%%%*.***.............................o..oooooo%%%%*ooo++",
"++O %+..%%%*****.............................o..oo*ooo%%%&*ooo.+",
"++O %+..%%%****ooooooooooooooooooooooooooooooo..oooooo%%&.*ooo++",
"++O %+OO%%%***ooooooooooooooooooooooooooooooo...oooooo%&.%****.+",
"++O %%%%%%%**ooo    oooo    oooo    oooooooo#...oo*ooo%%%&.%&.++",
"++O %+..%%%*ooo ...oooo ...oooo ...oooooooo##...oooooo%%&.%&.%++",
"++O %+..%%%ooo....oooo....oooo....oooooooo###...oooooo%&.%&.%%++",
"++O %+OO%%%%##.....###..........................oo*ooo%%#%%#%%++",
"++O %%%%%%%%%##...........*%%...................oooooo%%%#%%#%++",
"++$$$$$$$$$$$$$$$$**.....**%%..*%%..........$...oooooo%%%%o%#%++",
"++$$$$$$$$$$$$$$$$..ooooo**..o**%%oo*oo*oo**.$o*oo*ooo%%%*o.%%++",
"++O %%%%%%%%* .%%*..ooooo*..oo**..oooooooo*.$.oooooooo%%%%o%%%++",
"++O %%%%%%%* .%%%...oooooooo*o*..ooooooooo...$oooooooo%%o%%%o%++",
"++O %%%%%%* .%%%%%%ooooooooooooooooooooooooo$.oooooooo%*o.%*o.++",
"++O %%%%%* .%%%%%%%%%%%%%%oooooo%%%%%%%%%%%*.$%%%%%%%%%%o%%%o%++",
"++O %%%%* .%%%%%%%%%%%%%%%oo*ooo%%%%%%%%%%* $.%%%%%%%%%%%%o%%%++",
"++O %%%* .%ooooooooooooooooooooo%%%%%%%%%* ..$%%%%%%#%#%%*o.%%++",
"++O %%%%.%%ooooooooooooooooooooo%%.....%* .%$.%%%%%%%%%%%%o%%%++",
"++O %%%%%#%oo*oo*oo*oo*oo*oo*ooo%%.%%%%* .%%.$%%%%%%#%#%%%%%%%++",
"++O %%%%%%#ooooooooooooooooooooo%%.%%%* .%%%$.%%%%%%%%%%%%%%%%++",
"++O % %%%%%.oooooooooooooooooooo%%.%%* .%%%%.$%%%%%%%%%%%%%%%%++",
"++O %%%%%%%o.*.oo%%%%%%%%%%%%%%%%%.%%%.%%%%%$.%%%#%%%%%%%%%%%%++",
"++O        .....o                           .$                ++",
"++OOOOOOOO ooooooOOOOOOOOOOOOOOOOOOOOOOOOOOO$.OOOOOOOOOOOOOOO+++",
"++++++++++ oo*ooo+++++++++++++++++++++++++++.+++++++++++++++++++",
"++++++++++ oooooo+++++++++++++++++++++++++++++++++++++++++++++++"
};
