/* XPM */
static char *tiles____[] = {
/* columns rows colors chars-per-pixel */
"37 47 12 1",
"  c #7F7F7F7F0000",
". c blue",
"X c #0000CFCF0000",
"o c #BFBF00000000",
"O c red",
"+ c #BFBFBFBF3F3F",
"@ c #FFFFBBBB0000",
"# c #FFFFBFBF7F7F",
"$ c yellow",
"% c #FFFFFFFF7F7F",
"& c gray75",
"* c #FFFFBFBFFFFF",
/* pixels */
"&&&&&&&&                        &&&&&",
"&&&&&&& ######################## &&&&",
"&&&&&& ######       ########@@@@# &&&",
"&&&&& #####  XXXXXXX  #####@%%%%@# &&",
"&&&&& #### XXXXXXXXXXX ####@%%%%@# &&",
"&&&&& ### XXXXXXXXXXXXX ###@%%%%@# &&",
"&&&++++++++XXXXXXXXXXXXX ##@%%%%@# &&",
"&&&& ### XXXXXXXXXXXXXXX ##@%%%%@# &&",
"&&&+++++++XXXXXXXXXXXXXXX ##@@@@## &&",
"&&&& ## XXXXXXXXXXXXXXXXX ###oo### &&",
"&&&&& # XXXXXXXXXXXXXXXXX ##oOOo## &&",
"&&&&++# XXXXXXXXXXXXXXXXX #oOOOOo## &",
"&&& ++# XXXXXXXXXXXXXXXXX ##oooo### &",
"&&& ++# XXXXXXXXXXXXX+++++++++++++++ ",
"&&& ++## XXXXXXXXXXXXXXX ########## &",
"&&& ++## XXXXXXXXXXX++++++++++++++++ ",
"&&& ++### XXXXXXXXXXXXX ########### &",
"&& #++#### XXXXXXX++++++++++++++++++ ",
"& ###+##### XXXXXXXXX ############# &",
"++++++++++++++++++++++++++++++++++++ ",
"++++++++++++++++++++++++++++++++++++ ",
"& ###+############################# &",
"&& #++#+++++++#o#####o##o##o##o##o## ",
"&&& ++#+$+$$$+oOo###oOooOooOoo*ooOo# ",
"&&& ++#+$+$$$+oOo###oOooOooOoo*ooOo# ",
"&&& ++#+++++++#o#####o##o##o##o##o## ",
"&&& ++############################## ",
"&&& ++############################## ",
"&&& +ooooo++++++++++++++++++++++++++ ",
"&&& +oOOOo++++++#######ooooooooo### &",
"&&& +oOOOo++++++######o%%%%%%%%%o# &&",
"&&& +#oOOo+++++######o%%%%%%%o%%%o &&",
"&&& +##ooo+++++######o%%%%%%o%%%%o &&",
"&&& #+####++++#######o%%%%%%o%%%%o &&",
"&&& #+###########%%##o%%%%%o%%%%%o &&",
"&&& #+##########%%%%##ooooooooooo# &&",
"&&& #+#########%%oo%%#####oo####### &",
"&&&& #+#########oOOo#####oOOo#$$### &",
"&&&&& #+########oooo#####oooo$$$...+ ",
"&&&&& #+####################$$....# &",
"&&&&& ##+###################....$$++ ",
"&&&&&& #+##################...$$$## &",
"&&&&&&& #+####################$$#### ",
"&&&&   ##+######################### &",
"&&& ######++++++++++++++++++++++++++ ",
"&&& ############################### &",
"&&&&                               &&"
};
