/* XPM */
static char *tiles___[] = {
/* columns rows colors chars-per-pixel */
"48 48 3 1",
"  c black",
". c #CCCC7E7E6666",
"X c yellow",
/* pixels */
" XXXXXXXXXXXXXXXXXXXXXXXXXXXXXXXXXXXXXXXXXXXXXXX",
" X                                             X",
" X............................................ X",
" X............................................ X",
" X............................................ X",
" X............................................ X",
" X............................................ X",
" X............................................ X",
" X............................................ X",
" X............................................ X",
" X............................................ X",
" X............................................ X",
" X............................................ X",
" X............................................ X",
" X............................................ X",
" X............................................ X",
" X............................................ X",
" X................... XXXX.................... X",
" X...................  XX .................... X",
" X.................... XX..................... X",
" X.................... XX..................... X",
" X.................... XX..................... X",
" X.................... XX..................... X",
" X.................... XX..................... X",
" X.................... XX..................... X",
" X.................... XX..................... X",
" X.................... XX..................... X",
" X................... XXXX.................... X",
" X...................     .................... X",
" X............................................ X",
" X............................................ X",
" X............................................ X",
" X............................................ X",
" X............................................ X",
" X............................................ X",
" X............................................ X",
" X............................................ X",
" X............................................ X",
" X............................................ X",
" X............................................ X",
" X............................................ X",
" X............................................ X",
" X............................................ X",
" X............................................ X",
" X............................................ X",
" X............................................ X",
" XXXXXXXXXXXXXXXXXXXXXXXXXXXXXXXXXXXXXXXXXXXXXXX",
"                                                "
};
