/* XPM */
static char *tiles____[] = {
/* columns rows colors chars-per-pixel */
"58 67 11 1",
"  c #7F7F7F7F0000",
". c blue",
"X c #BFBF00000000",
"o c red",
"O c #BFBFBFBF3F3F",
"+ c #FFFFBBBB0000",
"@ c #FFFFBFBF7F7F",
"# c yellow",
"$ c #FFFFFFFF7F7F",
"% c gray75",
"& c #FFFFBFBFFFFF",
/* pixels */
"%%%%%%%%%%%%%%%%%%%                             %%%%%%%%%%",
"%%%%%%%%%%%%%%%    @@@@@@@@@@@@@@@@@@@@@@@@@@@@ %%%%%%%%%%",
"%%%%%%%%%%%%%  @@@@@@@@@@@@@@@@@@@@@@@@@@@@@@@@@  %%%%%%%%",
"%%%%%%%%%%%  @@@@@@@@@@@@@@@@@@@@@@@@@@@@@@@@@@@@  %%%%%%%",
"%%%%%%%%%% @@@@@@@@@@@       @@@@@@@@@@@@@@@@@@@@@@  %%%%%",
"%%%%%%%%% @@@@@@@@@             @@@@@@@@@@@+++++++@@ %%%%%",
"%%%%%%%%% @@@@@@@     ......      @@@@@@@@+$$$$$$$+@ %%%%%",
"%%%%%%%% @@@@@@@    ...........    @@@@@@@+$$$$$$$+@ %%%%%",
"%%%%%%%% @@@@@@   ...............   @@@@@@+$$$$$$$+@ %%%%%",
"%%%%%%%% @@@@@  ..................   @@@@@+$$$$$$$+@ %%%%%",
"%%%%%%OOOOOOOOOOO..................   @@@@+$$$$$$$+@ %%%%%",
"%%%%%OOOOOOOOOOOOO..................   @@@+$$$$$$$+@ %%%%%",
"%%%%%%%% @@@  .......................  @@@+$$$$$$$+@ %%%%%",
"%%%%%%OOOOOOOOOO.....................  @@@+++++++++@ %%%%%",
"%%%%%OOOOOOOOOOOO.....................  @@@@@@@@@@@@ %%%%%",
"%%%%%%% @@@  .........................  @@@@@XX@@@@@ %%%%%",
"%%%%%%%% @@  .........................  @@@@XooX@@@@ %%%%%",
"%%%%%%%   @  .........................  @@@@XooXX@@@@   %%",
"%%%%%  O@O@  .........................  @@@@oXXo@@@@@@@@ %",
"%%%%% @O@O@  .........................  @@@@@@@@@@@@@@@@ %",
"%%%%% @O@O@   .....................OOOOOOOOOOOOOOOOOOOOO@ ",
"%%%%% @O@O@@  ....................OOOOOOOOOOOOOOOOOOOOOOO%",
"%%%%% @O@O@@  .......................  @@@@@@@@@@@@@@@@@ %",
"%%%%% @O@O@@@  .................OOOOOOOOOOOOOOOOOOOOOOOO@ ",
"%%%%% @O@O@@@   ...............OOOOOOOOOOOOOOOOOOOOOOOOOO%",
"%%%%% @O@O@@@@   .................   @@@@@@@@@@@@@@@@@@@ %",
"%%%   @O@O@@@@@    .........OOOOOOOOOOOOOOOOOOOOOOOOOOOO  ",
"%%% @@@@@O@@@@@@           OOOOOOOOOOOOOOOOOOOOOOOOOOOOOO%",
"%%  @@@@@O@@@@@@@@               @@@@@@@@@@@@@@@@@@@@@@@ %",
"%OOOOOOOOOOOOOOOOOOOOOOOOOOOOOOOOOOOOOOOOOOOOOOOOOOOOOOO %",
"OOOOOOOOOOOOOOOOOOOOOOOOOOOOOOOOOOOOOOOOOOOOOOOOOOOOOOOOO ",
"%%% @@@@@O@@@@@@@@@@@@@@@@@@@@@@@@@@@@@@@@@@@@@@@@@@@@@@ %",
"%%%% @@@@O@@@@@@@@@@@@@@@@@@@@@@@@@@@@@@@@@@@@@@@@@@@@@@ %",
"%%%%% @O@O@OOOOOOOOOOO@XX@@@@@@@XXX@@XXX@@XXX@@ooo@@XXX@ %",
"%%%%% @O@O@O###O#####OXooX@@@@@XoooXXoooXXoooXo&&&oXoooX %",
"%%%%% @O@O@O###O#####OXooXX@@@@XoooXXoooXXoooXo&&&oXoooX %",
"%%%%% @O@O@O###O#####OoXXo@@@@@XoooXXoooXXoooXo&&&oXoooX %",
"%%%%% @O@O@OOOOOOOOOOO@@@@@@@@@XXXXXXXXXXXXXXXoooooXXXXX %",
"%%%%% @O@O@@@@@@@@@@@@@@@@@@@@@@@@@@@@@@@@@@@@@@@@@@@@@@ %",
"%%%%% @O@O@@@@@@@@@@@@@@@@@@@@@@@@@@@@@@@@@@@@@@@@@@@@@@ %",
"%%%%% @O@O@@@@@@@@@@@@@@@@@@@@@@@@@@@@@@@@@@@@@@@@@@@@@@ %",
"%%%%% @O@XXXXXXXOOOOOOOOOOOOOOOOOOOOOOOOOOOOOOOOOOOOOOOO%%",
"%%%%% @O@XoooooXOOOOOOOOO@@@@@@@@@@@XXXXXXXXXXXX@@@@ %%%%%",
"%%%%% @O@XoooooXOOOOOOOOO@@@@@@@@@@X$$$$$$$$$$$$XX@@ %%%%%",
"%%%%% @O@@XooooXOOOOOOOOO@@@@@@@@@X$$$$$$$$$$$$$$$X@ %%%%%",
"%%%%% @O@@XooooXOOOOOOOO@@@@@@@@@X$$$$$$$$$$$X$$$$$X %%%%%",
"%%%%% @O@@@XXooXOOOOOOOO@@@@@@@@@X$$$$$$$$$$$X$$$$$X %%%%%",
"%%%%% @O@@@@@XXXOOOOOOO@@@@@@@@@@X$$$$$$$$$$X$$$$$$X %%%%%",
"%%%%% @@O@@@@@@@OOOOOO@@@@@@@@@@@X$$$$$$$$$$X$$$$$$X %%%%%",
"%%%%%% @O@@@@@@@OOOOO@@@@@@@@$@@@@X$$$$$$$$X$$$$$$X@ %%%%%",
"%%%%%% @O@@@@@@@@@@@@@@@@@@$$$$$@@X$$$$$$$$X$$$$$XX@ %%%%%",
"%%%%%% @@O@@@@@@@@@@@@@@@$$$$$$$$@@XXXXXXXXXXXXXX@@@ %%%%%",
"%%%%%%% @O@@@@@@@@@@@@@@@$$$XX$$$@@@@@@@@XX@@@@@@@@@@  %%%",
"%%%%%%% @O@@@@@@@@@@@@@@$$$XooX$$$@@@@@@XooX@@@@#@@@@@@ %%",
"%%%%%%% @@O@@@@@@@@@@@@@@@@XooXX@@@@@@@@XooXX@####@@@@  %%",
"%%%%%%%% @@O@@@@@@@@@@@@@@@oXXo@@@@@@@@@oXXo#######...O %%",
"%%%%%%%%% @O@@@@@@@@@@@@@@@@@@@@@@@@@@@@@@@@####.OOOO.OO%%",
"%%%%%%%%% @O@@@@@@@@@@@@@@@@@@@@@@@@@@@@@@@##..OO.OO.. %%%",
"%%%%%%%%%% @O@@@@@@@@@@@@@@@@@@@@@@@@@@@@@...OOOOO..@OO  %",
"%%%%%%%%%% @@O@@@@@@@@@@@@@@@@@@@@@@@@@@@@@OOOO..###OOOO%%",
"%%%%%%%%%%% @O@@@@@@@@@@@@@@@@@@@@@@@@@@@@@.O.######@@@ %%",
"%%%%%%      @@O@@@@@@@@@@@@@@@@@@@@@@@@@@@@@@######@@OO %%",
"%%%%% @@@@@@@@@O@@@@@@@@@@@@@@@@@@@@@@@@@@@@@@@@@@@@OOOO %",
"%%%%% @@@@@@@@@@O@@@@@@@@@@@@@@@@@@@@@@@@@@@@@@@@@@@@@@ %%",
"%%%%% @@@@@@@@@@@OOOOOOOOOOOOOOOOOOOOOOOOOOOOOOOOOOOOOO%%%",
"%%%%  @@@@@@@@@@@@@@@@@@@@@@@@@@@@@@@@@@@@@@@@@@@@@@@@  %%",
"%%%%                                                   %%%"
};
