/* XPM */
static char *tiles___[] = {
/* columns rows colors chars-per-pixel */
"34 50 10 1",
"  c black",
". c #00007F7F0000",
"X c #7F7F7F7F0000",
"o c #5D5D5D5D5D5D",
"O c #00000000AFAF",
"+ c blue",
"@ c #4F4F4F4FFFFF",
"# c green",
"$ c gray75",
"% c gray100",
/* pixels */
"$$$$$$$$$$$$$$$$$$$$$$$$$$$$$$$$$$",
"$@@@@@@@@@@@@@@@@@@@@@@@@@@@@@@@@o",
"$@@@@@@@@@@@@@@@@@@@@@@@@@@@@@@@@o",
"$@@oooooooooooooooooooooooooooo@@o",
"$@@o                          $@@o",
"$@@o % % %XXXXXXXXXXXXX% % %  $@@o",
"$@@o  % % XXXXXXXXXXXXXX% % % $@@o",
"$@@o % % %XXooooooooooooo% %  $@@o",
"$@@o  % % XXo     o     o % % $@@o",
"$@@o % % %XXo     oOOOOOOO %  $@@o",
"$@@o  % % XXoooooooO+++++++ % $@@o",
"$@@o % % %XXo     oO+OO+OO+%  $@@o",
"$@@o  % % XXo     oO+OO+OO+ % $@@o",
"$@@o % % %XXoooooooO+++++++%  $@@o",
"$@@o  % % XXo     oO+OO+OO+ % $@@o",
"$@@o % .......... oO+OO+OO+%  $@@o",
"$@@o  %.##########oO+++++++ % $@@o",
"$@@o % .#oo#oo#oo#oO+OO+OO+%  $@@o",
"$@@o  %.#oo#oo#oo#oO+OO+OO+ % $@@o",
"$@@o % .##########oO+++++++%  $@@o",
"$@@o  %.#oo#oo#oo#oO+OO+OO+ % $@@o",
"$@@o  @.#oo#oo#oo#oO+OO+OO+@@ $@@o",
"$@@o  @.##########oO+++++++ @ $@@o",
"$@@o  @.#oo#oo#oo#oO+OO+OO+ @ $@@o",
"$@@o  @.#oo#oo#oo#%O+OO+OO+ @ $@@o",
"$@@o  @%########## %+++++++ @ $@@o",
"$@@o  @ % % % % % % % % % % @ $@@o",
"$@@o  @% % % % @@@@@ % % %  @ $@@o",
"$@@o  @ % % % @@   @@ % % % @ $@@o",
"$@@o  @% % % @@  %  @@ % %  @ $@@o",
"$@@o  @ % %  @@ % %   % % % @ $@@o",
"$@@o  @% % % @@% % % % % %  @ $@@o",
"$@@o  @ % %  @@ % % % % % % @ $@@o",
"$@@o  @% % % @@% % % % % %  @ $@@o",
"$@@o  @ % %  @@ % % % % % % @ $@@o",
"$@@o  @% % % @@% % %@@ % %  @ $@@o",
"$@@o  @ % %   @@% %@@ % % % @ $@@o",
"$@@o  @% % %   @@@@@ % % %  @ $@@o",
"$@@o  @ % % %       % % % % @ $@@o",
"$@@o  @% % % % % % % % % %  @ $@@o",
"$@@o  @ % % % % % % % % % % @ $@@o",
"$@@o  @% % % % % % % % % %  @ $@@o",
"$@@o  @ % % % % % % % % % % @ $@@o",
"$@@o  @@@@@@@@@@@@@@@@@@@@@@@ $@@o",
"$@@o                          $@@o",
"$@@o                          $@@o",
"$@@o$$$$$$$$$$$$$$$$$$$$$$$$$$$@@o",
"$@@@@@@@@@@@@@@@@@@@@@@@@@@@@@@@@o",
"$@@@@@@@@@@@@@@@@@@@@@@@@@@@@@@@@o",
"$ooooooooooooooooooooooooooooooooo"
};
