/* XPM */
static char *tiles____[] = {
/* columns rows colors chars-per-pixel */
"48 48 6 1",
"  c black",
". c red",
"X c #FFFF7F7F0000",
"o c yellow",
"O c gray100",
"+ c None",
/* pixels */
"++++++++++++++++++++++++++++++++++++++++++++++++",
"++++++++++++++++++++++++++++++++++++++++++++++++",
"++++++++++++++++++++++++++++++++++++++++++++++++",
"++++++++++++++++++++++++++++++++++++++++++++++++",
"++++++++++++++++++++++++++++++++++++++++++++++++",
"++++++++++++++++++++++++++++++++++XXOXX+++++++++",
"+++++++++++++++++++++++++++++++XXXOXXXXX++++++++",
"++++++++++++++++++++++++++++++XXOXXXXXXXX+++++++",
"++++++++++++++++++OXX...+++++XXXXXX.X.X.XX++++++",
"+++++++++++++++++OXXXX.X.+++XXOXXXX....X.XX+++++",
"+++++++++++++++++XXXX.X.+++XXXXXXX..+++.X.X+++++",
"+++++++++++++++++++XXX.+++XXOXXXX..+++++.X..++++",
"++++++++++++++++++XXX..++XXOXXXX..+++++++...++++",
"++++++++++++++++++OX.X.+XXXXXXX..+++++++++...+++",
"+++++++++++++++++XXXX.XXXOXXXX...+++++++++...+++",
"+++++++++++++++++OXXXXXXOXXXX...+++++++++++..+++",
"+++++++++++++++++XXXXXXXXXXX...+++++++++++++.+++",
"+++++++++++++++++XXXXXOXXXX....+++++++++++++.+++",
"++++++++++++++++XXXXXXXXXXXX...+++++++++++++++++",
"+++++++++++X.+++XXXXOXXXXXXXX..+++++++++++++++++",
"++++++++++XX.+++XXXXXXXXXXXX.X..++++++++++++++++",
"+++++++++OXX.+++XXOXXXXXXXX.X.X..+++++++++++++++",
"++++++++OXXX.++.XOXXXXXXXX.X.X...+++++++++++++++",
"++++++++XXXX..XXXXXXXXXXX.X.X.X..+++++++++++++++",
"++++++++++XXX..XXXXXXXXX.X...X..++++++++++++++++",
"++++++++++OXXXXOXXXXXXX.X...X...++++++++++++++++",
"++++++++++XXXXXXXXXXXX.X...X...+++++++++++++++++",
"++++++++++OXXXXXXXXXX.X..+....++++++++++++++++++",
"++++++++++XXXXXXXXXX.X..+++..+++++++++++++++++++",
"+++++++++++XXXXXXXX.X..+++++++++++++++++++++++++",
"+++++++++++XXXXXXX.X..++++++++++++++++++++++++++",
"+++++++++++XXXXXX.X......+++++++++++++++++++++++",
"+++++++++++XXXXX.X.X.X.X.+++++++++++++++++++++++",
"++++++++++XXXXXXX.X.X.X..+++++++++++++++++++++++",
"++++++++++XXXXXX.X...X...+++++++++++++++++++++++",
"+++++++++XXXXXX.X...X...++++++++++++++++++++++++",
"++++++++XXXXXX.X.. X...+++++++++++++++++++++++++",
"+++++++X..XXX.X..+X....+++++++++++++++++++++++++",
"+++++++Xo.XX.o..++....++++++++++++++++++++++++++",
"+++++++XoXX.o..++.....++++++++++++++++++++++++++",
"+++++++XXX.X..++++...+++++++++++++++++++++++++++",
"++++++++....++++++++++++++++++++++++++++++++++++",
"++++++++++++++++++++++++++++++++++++++++++++++++",
"++++++++++++++++++++++++++++++++++++++++++++++++",
"++++++++++++++++++++++++++++++++++++++++++++++++",
"++++++++++++++++++++++++++++++++++++++++++++++++",
"++++++++++++++++++++++++++++++++++++++++++++++++",
"++++++++++++++++++++++++++++++++++++++++++++++++"
};
