/* XPM */
static char *tiles___[] = {
/* columns rows colors chars-per-pixel */
"48 48 6 1",
"  c black",
". c red",
"X c #FFFF7F7F0000",
"o c yellow",
"O c gray100",
"+ c None",
/* pixels */
"++++++++++++++++++++++++++++++++++++++++++++++++",
"++++++++++++++++++++++++++++++++++++++++++++++++",
"++++++++++++++++++++++++++++++++++++++++++++++++",
"++++++++++++++++++++++++++++++++++++++++++++++++",
"++++++++++++++++++++++++++++++++++++++++++++++++",
"++++++++++++++++++++++++++++++++++++++++++++++++",
"+++++++XXXX.++++++++++++++++++++++++++++++++++++",
"+++++++XXXXX..++++++++++++++++++++++++++++++++++",
"+++++++XX.X.o..+++++++++++++++++++++++++++++++++",
"+++++++X.o.X.o..++++++++++++++++++++++++++++++++",
"+++++++X.o.XXX.X.+++++.X.+++++++++++++++++++++++",
"++++++++X.XXXXXX..++++X.X.X+++++++++++++++++++++",
"+++++++++XXXXXXXX....X.X.X..++++++++++++++++++++",
"++++++++++XXOXXXXXXXX.X.X.X.++++++++++++++++++++",
"++++++++++.XXXXXXXXX.X.X.X..++++++++++++++++++++",
"+++++++++++.XXOXXXXXX.......++++++++++++++++++++",
"++++++++++++.XXOXXXXXX.....+++++++++++++++++++++",
"+++++++++++++.XXXXXXXXX...++++++++++++++++++++++",
"++++++++++++XXOXXOXXXXXX...+++++++++++++++++++++",
"++++++++++OXXOXXXXXXXXXXX.....++++++++++++++++++",
"+++++++++++XXXXXXXOOXXXXXX..X.X.++++++++++++++++",
"+++++++++++XXXX..XXXXXXXXXX..X.X.++X..++++++++++",
"+++++++++++XXX.X..XXOXXXXXX.X.X.X.X.X..+++++++++",
"++++++++++++X.X.X..XXOXXXXXX...X.X.X.X.+++++++++",
"++++++++++++.X......XXXXXXXXX.....X.X.X.++++++++",
"+++++++++++++...++...XXOXXXXXX.......X..++++++++",
"+++++++++++++++++++XX.XXOXXXXX..........++++++++",
"+++++++++++++++++++XOXXXXXXXXXXX.++....+++++++++",
"+++++++++++++++++++XXXXX.XXXXXX.X.++++++++++++++",
"+++++++++++++++++++OXXXX...XXXXX.X.+++++++++++++",
"++++++++++++++++++++XX.X....XXXXX.X.++++++++++++",
"+++++++++++++++++++++XX.X.. .XXXXX.X.+++++++++++",
"+++++++++++++++++++++++X.X..+.XXXXX.X+++++++++++",
"+++++++++++++++++++++++.X.X.++.XXXXX.X++++++++++",
"+++++++++++++++++++++++X.X...++.XXXXX.X+++++++++",
"+++++++++++++++++++++++.....++++.XXXXX.X++++++++",
"++++++++++++++++++++++++...++++++.XXXXX.++++++++",
"++++++++++++++++++++++++++++++++++.XXX.X.+++++++",
"+++++++++++++++++++++++++++++++++++.XXX.X+++++++",
"++++++++++++++++++++++++++++++++++++XX.X.+++++++",
"++++++++++++++++++++++++++++++++++++X.X.X+++++++",
"+++++++++++++++++++++++++++++++XOX++.X.X.+++++++",
"++++++++++++++++++++++++++++++++.XXXX.X.++++++++",
"+++++++++++++++++++++++++++++++++......+++++++++",
"++++++++++++++++++++++++++++++++++++++++++++++++",
"++++++++++++++++++++++++++++++++++++++++++++++++",
"++++++++++++++++++++++++++++++++++++++++++++++++",
"++++++++++++++++++++++++++++++++++++++++++++++++"
};
