/* XPM */
static char *tiles___[] = {
/* columns rows colors chars-per-pixel */
"48 48 9 1",
"  c black",
". c #3F3F3F3F3F3F",
"X c gray50",
"o c #66666666E6E6",
"O c red",
"+ c yellow",
"@ c gray75",
"# c gray100",
"$ c None",
/* pixels */
"$$$$$$$$$$$$$$$$$$$$$$$$$$$$$$$$$$$$$$$$$$$$$$$$",
"$$$$$$$$$$$$$$$$$$$$$$$$$$$$$$$$$$$$$$$$$$$$$$$$",
"$$$$$$$$$$$$$$$$$$$$$$$$$$$$$$$$$$$$$$$$$$$$$$$$",
"$$$$$$$$$$$$$$$$$$$$$$$$$$$$$$$$$$$$$$$$$$$$$$$$",
"$$$$$$$$$$$$$$$$$$$$$$$$$$$$$$$$$$$$$$$$$$$$$$$$",
"$$$$$$$$$$$$$$$$$$$$$$$$$$$$$$$$$$$$$$$$$$$$$$$$",
"$$$$$$$$$$$$$$$$$$$$$$$$$$$$$$$$$$$$$$$$$$$$$$$$",
"$$$$$$$$$$$$$$$$$$$$$$$$$$$$$$$$$$$$$$$$$$$$$$$$",
"$$$$$$$$$$$$$$$$$$$$$$$$$$$$$$$$$$$$$$$$$$$$$$$$",
"$$$$$$$$$$$$$$$$$$$$$$$$$$$$$$$$$$$$$$$$$$$$$$$$",
"$$$$$$$$$$$$$$$$$$$$###O$$$$$$$$$$$$$$$$$$$$$$$$",
"$$$$$$$$$$$$$$$$$$$$X###$$$$$$$$$$$$$$$$$$$$$$$$",
"$$$$$$$$$$$$$$$$$$$$@####$$$$$$$$$$$$$$$$$$$$$$$",
"$$$$$$$$$$$$$$$$$$$$@####$$$$$$$$$$$$$$$$$$$$$$$",
"$$$$$$$$$$$$$$$$$$$$@#####$$$$$$$$$$$$$$$$$$$$$$",
"$$$$$$$$$$$$$$$$$$$$@#@###$$$$$$$$$$$$$$$$$$$$$$",
"$$$$$$$$$$$$$$$$$$$$X#####.$$$$$$$$$$$$$$$$$$$$$",
"$$$$$$$$$$$$$$$$$$$$######X$$$$$$$$$$$$$$$$$$$$$",
"$@@@$$$$$$$$$$$$$$$$X#####@.$$$$$$$$$$$$$$$$$$$$",
"$.##@$$$$$$$$$$$$$$$@######X$$$$$$$$$$$$$$$$$$$$",
"$X##@$$$$$$$$$$$$$$$@#@####@.$$$$$$$$$$$$$$$$$$$",
"$X###@$$$$$$$$$$$$$$@#######X$$$$$$$$$$$$$$$$$$$",
"$X###@$$$@@@O@$$$$$$X#######@.$$$$$$$$$$$$$$$$$$",
"$.####@$$@@@@@@@@@@@@@@@@@@@@@@@@@@@@@@@@@.$$$$$",
"$+X@X@X@##################################.@.$$$",
"$.@@@@@@@@@@@@@@@@@@@@@@@@@@@@@@@@@@@@@@@ .@..$$",
"$X###@@.oo oo o o o o o o o o oo o o o o#.@@.$$$",
"$X###@$$$XXXXXXXXXXX@@@@@@@@@.@@@@@@@@@@@@@$$$$$",
"$X##@$$$$@@@O@$$$$$$X@@@@@@@@.$$$$$$$$$$$$$$$$$$",
"$.##@$$$$###O#$$$$$$@#######X$$$$$$$$$$$$$$$$$$$",
"$@@@$$$$$$$$$$$$$$$$@#@####@.$$$$$$$$$$$$$$$$$$$",
"$$$$$$$$$$$$$$$$$$$$@######X$$$$$$$$$$$$$$$$$$$$",
"$$$$$$$$$$$$$$$$$$$$X#####@.$$$$$$$$$$$$$$$$$$$$",
"$$$$$$$$$$$$$$$$$$$$######X$$$$$$$$$$$$$$$$$$$$$",
"$$$$$$$$$$$$$$$$$$$$X#####.$$$$$$$$$$$$$$$$$$$$$",
"$$$$$$$$$$$$$$$$$$$$@#####$$$$$$$$$$$$$$$$$$$$$$",
"$$$$$$$$$$$$$$$$$$$$@#@###$$$$$$$$$$$$$$$$$$$$$$",
"$$$$$$$$$$$$$$$$$$$$@####$$$$$$$$$$$$$$$$$$$$$$$",
"$$$$$$$$$$$$$$$$$$$$@####$$$$$$$$$$$$$$$$$$$$$$$",
"$$$$$$$$$$$$$$$$$$$$X###$$$$$$$$$$$$$$$$$$$$$$$$",
"$$$$$$$$$$$$$$$$$$$$###O$$$$$$$$$$$$$$$$$$$$$$$$",
"$$$$$$$$$$$$$$$$$$$$$$$$$$$$$$$$$$$$$$$$$$$$$$$$",
"$$$$$$$$$$$$$$$$$$$$$$$$$$$$$$$$$$$$$$$$$$$$$$$$",
"$$$$$$$$$$$$$$$$$$$$$$$$$$$$$$$$$$$$$$$$$$$$$$$$",
"$$$$$$$$$$$$$$$$$$$$$$$$$$$$$$$$$$$$$$$$$$$$$$$$",
"$$$$$$$$$$$$$$$$$$$$$$$$$$$$$$$$$$$$$$$$$$$$$$$$",
"$$$$$$$$$$$$$$$$$$$$$$$$$$$$$$$$$$$$$$$$$$$$$$$$",
"$$$$$$$$$$$$$$$$$$$$$$$$$$$$$$$$$$$$$$$$$$$$$$$$"
};
