/* XPM */
static char *noname[] = {
/* width height ncolors chars_per_pixel */
"32 32 8 1",
/* colors */
"` c #000000",
"a c #7F7F7F",
"b c #3F3F3F",
"c c #3F3F00",
"d c #727272",
"e c #DFDFDF",
"f c #7F3D00",
"g c #BFBFBF",
/* pixels */
"````````````````````````````````",
"``eeeeeeeeeeeeeeeeeeeeeeeeeeee``",
"`e`eeeeeeeeeeeeeeeeeeeeeeeeee`d`",
"`ee`eeeeeeeeeeeeeeeeeeeeeeee`dd`",
"`eee````````````````````````ddd`",
"`eee`gggggggggggggggggggggg`ddd`",
"`eee`gggggggggggggggggggggg`ddd`",
"`eee`gggggggggggggggggggggg`ddd`",
"`eee`ggbbgb``````gggggggbgg`ddd`",
"`eee`ggg```bbbbbbbbbbbbb`gg`ddd`",
"`eee`ggg```b```b`````````gg`ddd`",
"`eee`ggg```b```b`gggggggggg`ddd`",
"`eee`ggg`````````gggggggagg`ddd`",
"`eee`ggcc``gbg`gggggggabggg`ddd`",
"`eee`ggccc`gbg`gggggabbaggg`ddd`",
"`eee`gccccg```ggggabbabgggg`ddd`",
"`eee`gcfccgggggggabbabagggg`ddd`",
"`eee`gccccggggggabbabbggggg`ddd`",
"`eee`gccccgg`gggbbabbaggggg`ddd`",
"`eee`ggggggga`gababbagggggg`ddd`",
"`eee`gggggggga`babbaggggggg`ddd`",
"`eee`ggggggggga`baggggggggg`ddd`",
"`eee`ggggggggcca`gggggggggg`ddd`",
"`eee`gggggggcfcga`ggggggggg`ddd`",
"`eee`ggggggcfcggga`gggggggg`ddd`",
"`eee`ggggggccgggggggggggggg`ddd`",
"`eee`gggggggggggggggggggggg`ddd`",
"`eee````````````````````````ddd`",
"`ee`dddddddddddddddddddddddd`dd`",
"`e`dddddddddddddddddddddddddd`d`",
"``dddddddddddddddddddddddddddd``",
"````````````````````````````````"
};
