/* XPM */
static char *noname[] = {
/* width height ncolors chars_per_pixel */
"34 34 9 1",
/* colors */
"` c #000000",
"a c #7F7F7F",
"b c #5D5D5D",
"c c #BF7900",
"d c #FF0000",
"e c #FFFFFF",
"f c #FF7700",
"g c #BFBFBF",
"h c #0000FF",
/* pixels */
"gggggggggggggggggggggggggggggggggg",
"gccccccccccccccccccccccccccccccccb",
"gccccccccccccccccccccccccccccccccb",
"gccbbbbbbbbbbbbbbbbbbbbbbbbbbbbccb",
"gccbeeeeeeeeeeeeeeeeeeeeeeeeeegccb",
"gccbeeeeeeeeeeeeeeeeeeeeeeeeeegccb",
"gccbeeeeeeeeeeeeeeeeeeeeeeeeeegccb",
"gccbeeeeeeeeeeeeeeeeeeeeeeeeeegccb",
"gccbeeeeffdddddfeeeeeeeeeeeeeegccb",
"gccbeeeedfffffffeeeeeeeeeeebeegccb",
"gccbeeeeddffeeeeeeeeeeeeeeabeegccb",
"gccbeeeeddfffeeeeee`eeeeeabeeegccb",
"gccbeeeeddffhheeeee`eeeeaabeeegccb",
"gccbeeeeddffhe`eeee`eeee``beeegccb",
"gccbeeeeddfffffdddd`ddde``beeegccb",
"gccbeeeeddfffffffffffffe``beeegccb",
"gccbeeeeddfffffffffffffb``beeegccb",
"gccbeeeee`b`fb`fb`fb`aaa``beeegccb",
"gccbeeeb`bbbbbbbbbbbb`ba``beeegccb",
"gccbee`bbbb``b``b``bbbb```beeegccb",
"gccbeebbbb```b``b```bbbb``beeegccb",
"gccbee`bb`bb``bb``bb`bb```beeegccb",
"gccbee`bb`bb``bb``bb`bb`aabeeegccb",
"gccbeebbbb```b``b```bbbbeabeeegccb",
"gccbee`bbbb``b``b``bbbb`eeabeegccb",
"gccbeeeb`bbbbbbbbbbbb`beeeebeegccb",
"gccbeeeee`b`eb`eb`eb`eeeeeeeeegccb",
"gccbeeeeeeeeeeeeeeeeeeeeeeeeeegccb",
"gccbeeeeeeeeeeeeeeeeeeeeeeeeeegccb",
"gccbeeeeeeeeeeeeeeeeeeeeeeeeeegccb",
"gccbgggggggggggggggggggggggggggccb",
"gccccccccccccccccccccccccccccccccb",
"gccccccccccccccccccccccccccccccccb",
"gbbbbbbbbbbbbbbbbbbbbbbbbbbbbbbbbb"
};
