/* XPM */
static char *noname[] = {
/* width height ncolors chars_per_pixel */
"34 50 8 1",
/* colors */
"` c #000000",
"a c #7F7F7F",
"b c #5D5D5D",
"c c #BF7900",
"d c #FFFFFF",
"e c #FFFF00",
"f c #7F7F00",
"g c #BFBFBF",
/* pixels */
"gggggggggggggggggggggggggggggggggg",
"geeeeeeeeeeeeeeeeeeeeeeeeeeeeeeeeb",
"geeeeeeeeeeeeeeeeeeeeeeeeeeeeeeeeb",
"geebbbbbbbbbbbbbbbbbbbbbbbbbbbbeeb",
"geebddddddddddddddddddddddddddgeeb",
"geebdddddddddddddffdddffffddddgeeb",
"geebddddddddddddfbbdbbffbbbbddgeeb",
"geebdddddddddffbbbbbffbbbfbffdgeeb",
"geebdddddddddffbbbbbffbbbfbffdgeeb",
"geebdddddddddfbbfbbbbbbfbbbdddgeeb",
"geebddddddddfbbbdbbfbbbbffddddgeeb",
"geebdddddddbfbbddfffbfffddddddgeeb",
"geebdddddddbfbbdffffbbbdddddddgeeb",
"geebddddddfbbddbfbbdddddddddddgeeb",
"geebddddddbb`ddbb`ddddddddddddgeeb",
"geebddddddbb`ddbb`ddddddddddddgeeb",
"geebddddddbb`ddbb`ddddddddddddgeeb",
"geebdddbaabb`aabb`aaaaaaadddddgeeb",
"geebdddbbaab`aaab`aaaaaaaaddddgeeb",
"geebdddbbbbbbbbbbbbbbbbbbbbdddgeeb",
"geebdddbbb````````````````bdddgeeb",
"geebd`ebbb````````````````beedgeeb",
"geebd`ebbb`bb`bb`bb`bb`bb`b`edgeeb",
"geebd`ebbb`bb`bb`bb`bb`bb`b`edgeeb",
"geebd`ecbb`bb`bb`bb`bb`bb`b`edgeeb",
"geebd`eccb````````````````b`edgeeb",
"geebd`ecccccccccccccccccccc`edgeeb",
"geebd`eccccccc`eeeecccccccc`edgeeb",
"geebd`eccccccc``ee`cccccccc`edgeeb",
"geebd`ecccccccc`eeccccccccc`edgeeb",
"geebd`ecccccccc`eeccccccccc`edgeeb",
"geebd`ecccccccc`eeccccccccc`edgeeb",
"geebd`ecccccccc`eeccccccccc`edgeeb",
"geebd`ecccccccc`eeccccccccc`edgeeb",
"geebd`ecccccccc`eeccccccccc`edgeeb",
"geebd`ecccccccc`eeccccccccc`edgeeb",
"geebd`ecccccccc`eeccccccccc`edgeeb",
"geebd`eccccccc`eeeecccccccc`edgeeb",
"geebd`eccccccc`````cccccccc`edgeeb",
"geebd`ecccccccccccccccccccc`edgeeb",
"geebd`ecccccccccccccccccccc`edgeeb",
"geebd`ecccccccccccccccccccc`edgeeb",
"geebd`ecccccccccccccccccccc`edgeeb",
"geebd`eeeeeeeeeeeeeeeeeeeeeeedgeeb",
"geebd````````````````````````dgeeb",
"geebddddddddddddddddddddddddddgeeb",
"geebgggggggggggggggggggggggggggeeb",
"geeeeeeeeeeeeeeeeeeeeeeeeeeeeeeeeb",
"geeeeeeeeeeeeeeeeeeeeeeeeeeeeeeeeb",
"gbbbbbbbbbbbbbbbbbbbbbbbbbbbbbbbbb"
};
