/* XPM */
static char *noname[] = {
/* width height ncolors chars_per_pixel */
"42 42 13 1",
/* colors */
"` c #000000",
"a c #7F7F7F",
"b c #00FF00",
"c c #5D5D5D",
"d c #007F00",
"e c #BF7900",
"f c #FF0000",
"g c #FFFFFF",
"h c #FFFF00",
"i c #7F7F00",
"j c #FF7700",
"k c #BFBFBF",
"l c #0000FF",
/* pixels */
"kkkkkkkkkkkkkkkkkkkkkkkkkkkkkkkkkkkkkkkkkk",
"kaahhhhaaaahhhhaaaahhhhaaaahhhhaaaahhhhaac",
"kaahhhhaaaahhhhaaaahhhhaaaahhhhaaaahhhhaac",
"kaaccccccccccccccccccccccccccccccccccccaac",
"kaacggggggggggggggggggggggggggggggggggkaac",
"khhcgeeeeeeieeeeeeegfgeeeeeeeeegfgeeegkhhc",
"khhcgieeeeeeeeeeeegc`cgeeeeeeeg`c`geegkhhc",
"khhcgeeekhcccccccgc`c`cgcccccg`c`c`gegkhhc",
"khhcgeekkck`ccccgc`c`c`cgcccg`c`c`c`ggkhhc",
"kaacgekakccccccgf`c`c`c`fccgfc`c`c`cfgkaac",
"kaacgekkkccccggggc`c`c`cgkggg`c`c`c`ggkaac",
"kaacgekkkcccgggkkgc`c`cgkggkkg`c`c`gegkaac",
"kaacgekakccgcgkkkkgc`cgkggkkkkg`c`gaegkaac",
"khhcgekkkccggkkkkkcgfgcggkkkkkagfgaeegkhhc",
"khhcgekkkccgkkkkkaaaaacgkkkkkaaaaaceegkhhc",
"khhcgekakcckakkkaaaaacckkckaaaaaccceegkhhc",
"khhcgekkkccckkkaaacaccckkkaaaacaccceegkhhc",
"kaacgekkkcccckacaaaccccckkacaaacccceegkaac",
"kaacgekakcccccaaaaccccccccaaacccccceegkaac",
"kaacgekkkck`ccc`c`c`cccccccccccck`ceegkaac",
"kaacgekkahccckkkkkkkkkccccccccccccheigkaac",
"khhcgekaaaaaakaaaaaaakaaaaaaaaaaaaieegkhhc",
"khhcgeaaaaaakkachaccakccccccccccaiieegkhhc",
"khhcgeeiiiikkkcaacaahkccccchcccciiieegkhhc",
"khhcgeeeiiikkkcacacackcccchccccciiieegkhhc",
"kaacgeeeeiikkkacafacakccchcccccciiieegkaac",
"kaacgeeieeekkkcacacackcchhhcccccieeiegkaac",
"kaacgeeeeeekkkhaacaackccchccaaacieeeegkaac",
"kaacgeebdeekkkaccahcakcchccccccaakjkkgkaac",
"khhcgeeieeekkkaaaaaaakchccccaaaaakkkkgkhhc",
"khhcgeieebdkkcacacacaccccccckkkkkkkkkgkhhc",
"khhcgeeeeiekaaaaaaaaaaaaaaackkkkkkkkegkhhc",
"khhcgeeebdeaaacacacaaacacacakkkkkkkkegkhhc",
"kaacgeeeieeeiiiiiiiiiiiiiiaablkkkkkkegkaac",
"kaacgeeieeeeeiiiiiiiiiiiiiiieeeeeeeeegkaac",
"kaacgeeeeeieeeeeeeeeeeeeeeeeeeeegkgeegkaac",
"kaacgeeeeeeeeeeeeeeeeieeeeeeeeegkgkeegkaac",
"khhcggggggggggggggggggggggggggggggggggkhhc",
"khhckkkkkkkkkkkkkkkkkkkkkkkkkkkkkkkkkkkhhc",
"khhaaaahhhhaaaahhhhaaaahhhhaaaahhhhaaaahhc",
"khhaaaahhhhaaaahhhhaaaahhhhaaaahhhhaaaahhc",
"kccccccccccccccccccccccccccccccccccccccccc"
};
