/* XPM */
static char * obj3_9_xpm[] = {
"48 48 9 1",
" 	c None",
".	c #FFFFFFFFFFFF",
"X	c #FFFF00000000",
"o	c #7F7F7F7F7F7F",
"O	c #BFBFBFBFBFBF",
"+	c #3F3F3F3F3F3F",
"@	c #000000000000",
"#	c #FFFFFFFF0000",
"$	c #66666666E6E6",
"                                                ",
"                                                ",
"                                                ",
"                                                ",
"                                                ",
"                                                ",
"                                                ",
"                                                ",
"                       ..X                      ",
"                       o..                      ",
"                       O..                      ",
"                       O...                     ",
"                       OO..                     ",
"                       o...+                    ",
"                       ....o                    ",
"       OOO             o...O+                   ",
"       +.O             O....o                   ",
"       o.O             OO...O+                  ",
"       o..O  @OOXO     o.....o+                 ",
"       +...O @OOOOOOOOOOOOOOOOOOOOOOOOOOO+      ",
"       #ooOoO............................++     ",
"       +OOOOOOOOOOOOOOOOOOOOOOOOOOOOOOOO@+++    ",
"       o..OO+$@$$@@$@$@@$@$@@$@$@$@$@@$.+O+     ",
"       o..O  ooooooooooOOOOOOO+OOOOOOOOOOO      ",
"       o.O   @OOXO     oOOOOOO+                 ",
"       +OO   @..X      OO...O+                  ",
"                       O....o                   ",
"                       o...O+                   ",
"                       ....o                    ",
"                       o...+                    ",
"                       O...                     ",
"                       OO..                     ",
"                       O..                      ",
"                       o..                      ",
"                       ..X                      ",
"                                                ",
"                                                ",
"                                                ",
"                                                ",
"                                                ",
"                                                ",
"                                                ",
"                                                ",
"                                                ",
"                                                ",
"                                                ",
"                                                ",
"                                                "};
