/* XPM */
static char * obj4_6_xpm[] = {
"48 48 10 1",
" 	c None",
".	c #00000000E6E6",
"X	c #000000000000",
"o	c #7F7F7F7F7F7F",
"O	c #3F3F3F3F3F3F",
"+	c #BFBFBFBFBFBF",
"@	c #FFFFFFFFFFFF",
"#	c #FFFF7F7F0000",
"$	c #CCCC7F7F6666",
"%	c #FFFF00000000",
"                                                ",
"                                                ",
"                                                ",
"                                                ",
"                                           .    ",
"                                                ",
"                                                ",
"                                   .    .       ",
"                                          .     ",
"                              .      .          ",
"                         .                      ",
"                                 .              ",
"                         .  .                   ",
"                    .                           ",
"                . .   .                         ",
"                                                ",
"              . .                               ",
"            .        XXXX    XXXX              .",
"               oooooXXOOXXooXXOOXXo+XXXX     .  ",
"         XXXXO+o@ooX#XXXXXoX#XXXXXo++$$$OX .    ",
"      XXO$$$$++oooXXX###XoXXX###Xoo++$$$$$X     ",
"    XO$$$O$$$++ooXXXXXXXoXXXXXXXooo++$$$$$X     ",
"   X$$O$$$$$$++oooXXXXXoooXXXXXoooo++$$$$$X     ",
"   X$$$$$$$$$++o@ooXXOoooooXXOooooo++$$$$$X     ",
"    XO$$$O$$$++oooooooooooooooooooo++$$$$$X     ",
"     XXXO$$$$+OXXXXXXXXXXXXXXXXXXXX++$$$OX      ",
"      %XXXXXXXXoXXoXXoXXoXXoXXoXXXXXXXXXXX .    ",
"        %XXXXXXXXXXXXXXXXXXXXXXXXXXXXXXX%     . ",
"          %%%%%%%%%%%%%%%%%%%%%%%%%%%%%         ",
"            .                                   ",
"                 .                              ",
"               .     .  .                       ",
"                                                ",
"                    .     .   .        .        ",
"                                 .              ",
"                            .       .           ",
"                                        .   .   ",
"                                .               ",
"                                         .    . ",
"                                                ",
"                                                ",
"                                                ",
"                                                ",
"                                                ",
"                                                ",
"                                                ",
"                                                ",
"                                                "};
