/* XPM */
static char * obj4_1_xpm[] = {
"48 48 10 1",
" 	c None",
".	c #000000000000",
"X	c #3F3F3F3F3F3F",
"o	c #CCCC7F7F6666",
"O	c #00000000E6E6",
"+	c #BFBFBFBFBFBF",
"@	c #7F7F7F7F7F7F",
"#	c #FFFF00000000",
"$	c #FFFFFFFFFFFF",
"%	c #FFFF7F7F0000",
"                                                ",
"                                                ",
"                                                ",
"                                                ",
"                                                ",
"                                        ..      ",
"                                      .Xoo.     ",
"                                    .Xoooo.     ",
"                                O .XoooXoo.     ",
"                             O   .ooXooooX.     ",
"                          O     .oooooooo..     ",
"                               ++oooooXoX..     ",
"                         O O  @+@+oooooo..#     ",
"                   O         @@@+@+oooo...      ",
"                     O      @@$@@+@+oo...#      ",
"                         ....@@@@@++o....       ",
"               O  O     ..X.%.@@$@XX....#       ",
"                        .X..%..@@XX.@..#O       ",
"          O  O          ...%..X@XX....#         ",
"                       @X.%..X@XX.@..#  O       ",
"      O               @@@X..X@XX....# O         ",
"         O         ....@@@XX@XX.@..#            ",
"                  ..X.%.@@@@XX....#             ",
"    O             .X..%..@@XX.@..#   O          ",
"                  ...%..X@XX....#               ",
"                 @X.%..X@XX.@..#     O          ",
"                +@@X..X@XX....#    O            ",
"               .@+@@XX@XX.@..#   O              ",
"              .@+@+@@@XX....#                   ",
"              .oo+@+@XX.@..#      O             ",
"             XXooo+@@.....#    O                ",
"             .ooooo+@....#                      ",
"             .oooooo....#        O              ",
"             .Xooooo...#      O                 ",
"            O .XoooX..#                         ",
"               .....#       O O                 ",
"        O  O                                    ",
"               O O            O                 ",
"                            O                   ",
"                                                ",
"     O        O                                 ",
"                O          O                    ",
"                         O                      ",
"            O                                   ",
"                                                ",
"                        O                       ",
"                                                ",
"                                                "};
