/* XPM */
static char * obj4_7_xpm[] = {
"48 48 10 1",
" 	c None",
".	c #000000000000",
"X	c #CCCC7F7F6666",
"o	c #00000000E6E6",
"O	c #3F3F3F3F3F3F",
"+	c #BFBFBFBFBFBF",
"@	c #FFFF00000000",
"#	c #7F7F7F7F7F7F",
"$	c #FFFFFFFFFFFF",
"%	c #FFFF7F7F0000",
"                                                ",
"                                                ",
"                                                ",
"                                                ",
"                                                ",
"        ..                                      ",
"       .XX..                                    ",
"       .XXXX..   o                              ",
"       .XXOXXX..     o                          ",
"       .OXXXXOXX.  o                            ",
"       ..XXXXXXXX.    o  o   o                  ",
"       ..OXOXXXX+++               o             ",
"       @..XXXXX+#+##       o                    ",
"        ...XXX+#+##$#         o o  o  o         ",
"        @...X+#+######                          ",
"         ....++##$###O...          o        o   ",
"        o@.....O####.%.O..                o     ",
"          @..#..O##..%..O.            o         ",
"        o  @.....O#O..%...               o      ",
"            @..#..O#O..%.##                 o   ",
"         o   @.....O#O.O####                    ",
"              @..#..O#O####....                 ",
"         o     @.....O####.%.O..                ",
"           o    @..#..O##..%..O.                ",
"                 @.....O#O..%...                ",
"          o       @..#..O#O..%.##               ",
"            o      @.....O#O..###+              ",
"                    @..#..O#O###+#.             ",
"           o o       @.....O###+#+X.            ",
"                      @..#..O#+#+XX.            ",
"                       @.....O#+XXXOO           ",
"            o o         @....O+XXXXX.           ",
"                         @....XXXXXX.           ",
"                          @...XXXXXX.           ",
"             o  o          @..OXXXX.  o         ",
"                             @.....     o       ",
"                                 o              ",
"                o o                        o    ",
"                                  o             ",
"                                                ",
"                o                               ",
"                   o                o           ",
"                                                ",
"                  o                             ",
"                                                ",
"                                                ",
"                                                ",
"                                                "};
