/* XPM */
static char * obj7_1_xpm[] = {
"48 48 4 1",
" 	c None",
".	c #FFFFFFFF0000",
"X	c #FFFF7F7F0000",
"o	c #FFFF00000000",
"                                                ",
"                                                ",
"                                                ",
"                                                ",
"                                                ",
"                                                ",
"                                                ",
"                                                ",
"                                                ",
"                                                ",
"                                                ",
"                           ..                   ",
"                          ...                   ",
"                         .. .                   ",
"                 XX      .  .   X               ",
"                 .XX     .  X  ...              ",
"                .. X  ..... . ...               ",
"                  ..   ... .........            ",
"             ........ X..X.. .....              ",
"             .X  .... X.. ..... ..              ",
"             .... .X .. ........ .              ",
"               X ............X.  .              ",
"                X ............. XXXXXX          ",
"                   ............X                ",
"             .X.  .................             ",
"              X .. . ............  .            ",
"             ...   .......o.... ......          ",
"               X....... ..... ..XX  ...         ",
"               X .... X........  XX   .         ",
"                 .....  ......                  ",
"              X . .X  .    X X                  ",
"                .. X ...  XX.X                  ",
"               X X    XX  X                     ",
"                                                ",
"                X                               ",
"                                                ",
"                                                ",
"                                                ",
"                                                ",
"                                                ",
"                                                ",
"                                                ",
"                                                ",
"                                                ",
"                                                ",
"                                                ",
"                                                ",
"                                                "};
