/* XPM */
static char *tiles___[] = {
/* columns rows colors chars-per-pixel */
"42 42 13 1",
"  c black",
". c #00007F7F0000",
"X c #7F7F7F7F0000",
"o c #5D5D5D5D5D5D",
"O c gray50",
"+ c blue",
"@ c #4F4F4F4FFFFF",
"# c green",
"$ c #BFBF79790000",
"% c #FFFF77770000",
"& c yellow",
"* c gray75",
"= c gray100",
/* pixels */
"******************************************",
"*OO++++OOOO++++OOOO++++OOOO++++OOOO++++OOo",
"*OO++++OOOO++++OOOO++++OOOO++++OOOO++++OOo",
"*OOooooooooooooooooooooooooooooooooooooOOo",
"*OOo==================================*OOo",
"*++o=$$$$$$$$$$$$$$$$$$$$OOO$$$$o%%$$=*++o",
"*++o=$$$X$$$$$$$X$$$$$$$$O*O$$$o$$%%$=*++o",
"*++o=$$$OOOOOOOOOOOOOO OOOOO$$$$$$ %%=*++o",
"*++o=$$$O*O*O& *O*O*O o O***OOOo$ $ %=*++o",
"*OOo=OOOOOOOO***OOO*** O*OOo*OOO o $%=*OOo",
"*OOo=*O*O*O$*OOoOO*OOo&**OOooO*Oo ooo=*OOo",
"*OOo=OOOOOO**OOoo**OOoo**OOooOOo$*O o=*OOo",
"*OOo=$$$$$$*o****************O*O$*OOo=*OOo",
"*++o=$$$$$$***OOOOOOOOOOOOOO*OOOO*O o=*++o",
"*++o=$$$$***o*OOOOOO*+OOOOOO*O*OO*ooo=*++o",
"*++o=$$$*ooo*oO*oOO*+*+OO*oO*oOO$ooXX=*++o",
"*++o=$$**ooO**OOOOOO*+OOOOOO*o*OO.XXX=*++o",
"*OOo=$$**ooOo*OOOOOO*+OOOOOO*oOO#.$$$=*OOo",
"*OOo=$$**ooO**OOOOOO*+OOOOOO*o*OO.O.$=*OOo",
"*OOo=$$*OOOO**O*oO*+*+*+O*oO*oOO#.#.$=*OOo",
"*OOo=$$OOXOOo*OOOOO*+++OOOOO*o*OOOOOO=*OOo",
"*++o=$$$XXO******************oOOO*OO*=*++o",
"*++o=$$@oX*o*OOOOOOOOOOOOOOOoo*OOOOOO=*++o",
"*++o=$$@+$***ooooooooooooooOoOOO$$$$$=*++o",
"*++o=$$@o$*o*ooooooooooooooOoO*O$$*OO=*++o",
"*OOo=$$@+$o*OOOOOOOOOOOOOOOooOOO$&***=*OOo",
"*OOo=$$@o$*OOooOOooOOooOOOXooO*O&o&o&=*OOo",
"*OOo=$$@+$OOooOoooOOooOOOXXooOOOo&o&o=*OOo",
"*OOo=$$$$$$ooooooooooooooooooO*O$o&o$=*OOo",
"*++o=$$$$$$*o$oOO*o*oOOOOO*%OOOO$$X$X=*++o",
"*++o=%%%%%%%%%%OOO*O*O*O*O*o*O*O$$*o$=*++o",
"*++o=$$$$*o$$$$OOOOOOOOOOO*%OOOO$$$$$=*++o",
"*++o=$$$*o$$$$$$$O*OO$$$$*oo$$$$*o$*o=*++o",
"*OOo=$$$X$$OOOOOOOOOO$oo*o$%$$$$$$$$$=*OOo",
"*OOo=$$$$X$O*O*O*O*OO$o*o$$o$$X$X$*o$=*OOo",
"*OOo=$ $$$XOOOOOOOOOO$o$o$$%$$X$X$$$$=*OOo",
"*OOo=$$$$$$o*O$$$$$$$$o$$$$o$$$$$$$$$=*OOo",
"*++o==================================*++o",
"*++o***********************************++o",
"*++OOOO++++OOOO++++OOOO++++OOOO++++OOOO++o",
"*++OOOO++++OOOO++++OOOO++++OOOO++++OOOO++o",
"*ooooooooooooooooooooooooooooooooooooooooo"
};
