/* XPM */
static char *tiles___[] = {
/* columns rows colors chars-per-pixel */
"32 32 8 1",
"  c black",
". c #00003F3F0000",
"X c #727272727272",
"o c #0000BFBF0000",
"O c red",
"+ c yellow",
"@ c gray75",
"# c #DFDFDFDFDFDF",
/* pixels */
"                                ",
"  ############################  ",
" # ########################## X ",
" ## ######################## XX ",
" ###                        XXX ",
" ### @@@@@@@@@@@@@@@@@@@@@@ XXX ",
" ### @@@@@@@@@@@@@@@@@@@@@@ XXX ",
" ### @@@@@@oooooo@@@@  @@@@ XXX ",
" ### @@@@ooo.o..o@@@@  @@@@ XXX ",
" ### @@@@oo..o.oo@@      @@ XXX ",
" ### @@@@@oooooo@@@      @@ XXX ",
" ### @@@@@@oooo.@@@@@  @@@@ XXX ",
" ### @@@@@oo+ooo.@@@@  @@@@ XXX ",
" ### @@@.oo+++ooo.@@@@@@@@@ XXX ",
" ### @@ooo+.+.+ooo.@@@@@@@@ XXX ",
" ### @@ooo+o+o.ooo..@@@@@@@ XXX ",
" ### @@ooo.+++oooo..@@@@@@@ XXX ",
" ### @.oooo.+.+ooo..@@@@@@@ XXX ",
" ### @oooo+o+o+ooo..@@@@@@@ XXX ",
" ### @oooo.+++.ooo..@@@@@@@ XXX ",
" ### @@oooo.+.oooo..@@@@@@@ XXX ",
" ### @@.oooo.oooo..@@@@@@@@ XXX ",
" ### @@@.ooooooo..@@OOOOO@@ XXX ",
" ### @@@@........@@@OOOOO@@ XXX ",
" ### @@@@@@@@@@@@@@@@@@@@@@ XXX ",
" ### @@@@@@@@@@@@@@@@@@@@@@ XXX ",
" ### @@@@@@@@@@@@@@@@@@@@@@ XXX ",
" ###                        XXX ",
" ## XXXXXXXXXXXXXXXXXXXXXXXX XX ",
" # XXXXXXXXXXXXXXXXXXXXXXXXXX X ",
"  XXXXXXXXXXXXXXXXXXXXXXXXXXXX  ",
"                                "
};
