/* XPM */
static char *tiles___[] = {
/* columns rows colors chars-per-pixel */
"32 32 15 1",
"  c black",
". c #00003F3F0000",
"X c #3F3F3F3F0000",
"o c #3F3F3F3F3F3F",
"O c #7F7F3D3D0000",
"+ c #727272727272",
"@ c gray50",
"# c #3C3C0000BFBF",
"$ c #3C3C0000FFFF",
"% c #0000BFBF0000",
"& c #FFFF3C3C0000",
"* c yellow",
"= c gray75",
"- c #DFDFDFDFDFDF",
"; c gray100",
/* pixels */
"                                ",
"  ----------------------------  ",
" - -------------------------- + ",
" -- ------------------------ ++ ",
" ---                        +++ ",
" --- ###################### +++ ",
" --- ###################### +++ ",
" --- #$#$#$#$#$#$#$#$#$#$#$ +++ ",
" --- $#$#$#OOOOO#$#$#$#$#$# +++ ",
" --- #$$$#$OXXXX$#$$$#$$$#$ +++ ",
" --- $$$$$$OoXoX$$$$$$$$$$$ +++ ",
" --- $$$$$$OXXXX$$$$$$$$$$$ +++ ",
" --- $$$$$$OoX@@@@@@@$$$$$$ +++ ",
" --- $$$$$$OXX;=======$$$$$ +++ ",
" --- $$*@@@@oX;=o=o=o=$$$$$ +++ ",
" --- $$*&&&&&X;=======$$$$$ +++ ",
" --- $$*&&&&&X;=o=o=o=$$$$$ +++ ",
" --- $$*&@&@&X;=======$$$$$ +++ ",
" --- ..*&&&&&X;=o=o=o=..... +++ ",
" --- ..*&&&&&X;=======..... +++ ",
" --- ..*&@&@&X;=o=o=o=..... +++ ",
" --- ..*&&&&&X;=======..... +++ ",
" --- ..*&&&&&.;=o=o=o=...%. +++ ",
" --- .%*&@&@&.;=======%.%.% +++ ",
" --- %.%&&&&&%;=o=o=o=.%.%. +++ ",
" --- %%%%%%%%%%=======%%%%% +++ ",
" --- %%%%%%%%%%%%%%%%%%%%%% +++ ",
" ---                        +++ ",
" -- ++++++++++++++++++++++++ ++ ",
" - ++++++++++++++++++++++++++ + ",
"  ++++++++++++++++++++++++++++  ",
"                                "
};
