/* XPM */
static char *tiles____[] = {
/* columns rows colors chars-per-pixel */
"48 48 5 1",
"  c black",
". c #3F3F3F3F3F3F",
"X c gray50",
"o c gray75",
"O c None",
/* pixels */
"OOOOOOOOOOOOOOOOOOOOOOOOOOOOOOOOOOOOOOOOOOOOOOOO",
"OOOOOOOOoOOOOOOOOOOO ....OOOO.OOO OOOOOOOOOOOOOO",
"OOOOOOOOOOOOO OoO ..O.OO..OOO...OOOOOOOOOOOOOOOO",
"OOOOOOOOOOo.O....X X. .XO..O. O... OO.OOOOOOOOOO",
"OOOOOOOO.oo.o..oooXXX.XXX............OOOOOOOOOOO",
"OOOOOOOoOoo.Xo.oo...X..XX...... .... OOOOOOOOOOO",
"OOOOOOOOOoXXX.X.XX....XX.....o......OOOOOOOOOOOO",
"OOOOOOoOOO.o...o...oX.X....X...o.... OOOOOOOOOOO",
"OOOOOOOoO.O. X.ooXooXo.XX...... .   .OOOOOOOOOOO",
"OOOOOOOOOOOO.OOoooo.ooXX.......    OOOOOOOOOOOOO",
"OOOOOOOOOOOOOO OoooooXXXXXX....    OOOOOOOOOOOOO",
"OOOOOOOOOOOOOOOooooooXXXXX.X...    OOOOOOOOOOOOO",
"OOOOOOOOOOOOOOOOOoooXoooX......    OOOOOOOOOOOOO",
"OOOOOOOOOOOOOOOOOOooooXXXXX... .   OOOOOOOOOOOOO",
"OOOOOOOOOOOOOOOOOOooooXXX...XX.. .  OOOOOOOOOOOO",
"OOOOOOOOOOOOOOOOOOOoooooXXXX.. .    OOOOOOOOOOOO",
"OOOOOOOOOOOOOOOOOOOoooooXXXXX...    OOOOOOOOOOOO",
"OOOOOOOOOOOOOOOOOOOOooooXX.XX...   OOOOOOOOOOOOO",
"OOOOOOOOOOOOOOOOOOOOoooooXXXXX.     OOOOOOOOOOOO",
"OOOOOOOOOOOOOOOOOOOOooooXXXX....   OOOOOOOOOOOOO",
"OOOOOOOOOOOOOOOOOOOOooooXXXX.X     OOOOOOOOOOOOO",
"OOOOOOOOOOOOOOOOOOOOOooooXXX.....  OOOOOOOOOOOOO",
"OOOOOOOOOOOOOOOOOOOOOooooXXXX..   OOOOOOOOOOOOOO",
"OOOOOOOOOOOOOOOOOOOOOoooXXXX...   OOOOOOOOOOOOOO",
"OOOOOOOOOOOOOOOOOOOOOOoooXXXX...  OOOOOOOOOOOOOO",
"OOOOOOOOOOOOOOOOOOOOOOooXXXXX..   OOOOOOOOOOOOOO",
"OOOOOOOOOOOOOOOOOOOOOOOoooXX.. .  OOOOOOOOOOOOOO",
"OOOOOOOOOOOOOOOOOOOOOOooXoXX.... OOOOOOOOOOOOOOO",
"OOOOOOOOOOOOOOOOOOOOOOOoooX....  OOOOOOOOOOOOOOO",
"OOOOOOOOOOOOOOOOOOOOOOOoooXXXX.  OOOOOOOOOOOOOOO",
"OOOOOOOOOOOOOOOOOOOOOOOoooXXX.   OOOOOOOOOOOOOOO",
"OOOOOOOOOOOOOOOOOOOOOOOooXX... OOOOOOOOOOOOOOOOO",
"OOOOOOOOOOOOOOOOOOOOOOOooXX.. OOOOOOOOOOOOOOOOOO",
"OOOOOOOOOOOOOOOOOOOOOOoooXX...OOOOOOOOOOOOOOOOOO",
"OOOOOOOOOOOOOOOOOOOOOOOooX.. OOOOOOOOOOOOOOOOOOO",
"OOOOOOOOOOOOOOOOOOOOOOooXXX  OOOOOOOOOOOOOOOOOOO",
"OOOOOOOOOOOOOOOOOOOOOOoXXX. OOOOOOOOOOOOOOOOOOOO",
"OOOOOOOOOOOOOOOOOOOOOOoXX...OOOOOOOOOOOOOOOOOOOO",
"OOOOOOOOOOOOOOOOOOOOOOooXX. OOOOOOOOOOOOOOOOOOOO",
"OOOOOOOOOOOOOOOOOOOOOOOoXXX.OOOOOOOOOOOOOOOOOOOO",
"OOOOOOOOOOOOOOOOOOOOOOOX.. OOOOOOOOOOOOOOOOOOOOO",
"OOOOOOOOOOOOOOOOOOOOOOoXX OOOOOOOOOOOOOOOOOOOOOO",
"OOOOOOOOOOOOOOOOOOOOOOoX  OOOOOOOOOOOOOOOOOOOOOO",
"OOOOOOOOOOOOOOOOOOOOOOOoX.OOOOOOOOOOOOOOOOOOOOOO",
"OOOOOOOOOOOOOOOOOOOOOOOoX.OOOOOOOOOOOOOOOOOOOOOO",
"OOOOOOOOOOOOOOOOOOOOOOoX.OOOOOOOOOOOOOOOOOOOOOOO",
"OOOOOOOOOOOOOOOOOOOOOOOoOOOOOOOOOOOOOOOOOOOOOOOO",
"OOOOOOOOOOOOOOOOOOOOOOOOoOOOOOOOOOOOOOOOOOOOOOOO"
};
