/* XPM */
static char *tiles___[] = {
/* columns rows colors chars-per-pixel */
"58 58 12 1",
"  c black",
". c #00007F7F0000",
"X c #7F7F7F7F0000",
"o c #5D5D5D5D5D5D",
"O c gray50",
"+ c blue",
"@ c #4F4F4F4FFFFF",
"# c #BFBF79790000",
"$ c red",
"% c #FFFF77770000",
"& c gray75",
"* c gray100",
/* pixels */
"&&&&&&&&&&&&&&&&&&&&&&&&&&&&&&&&&&&&&&&&&&&&&&&&&&&&&&&&&&",
"&OO####OOOO####OOOO####OOOO####OOOO####OOOO####OOOO####OOo",
"&OO####OOOO####OOOO####OOOO####OOOO####OOOO####OOOO####OOo",
"&OOooooooooooooooooooooooooooooooooooooooooooooooooooooOOo",
"&OOo                                                  &OOo",
"&##o * * * * * * * * * *   * * * * * * * * * * * * *  &##o",
"&##o  * * * * * * * * * * o&* * * *OOOOOo&o&o&o * * * &##o",
"&##o * * * * * * * * * *   o * * *OO&O&OoOOoOoo* * *  &##o",
"&##o  * * * * * * * * * *o    * * OOOOOOoOOoOoo * * * &##o",
"&OOo * * * * * * * * * *oXX@ * * OO&O* *oOOoOOo* * *  &OOo",
"&OOo  oooooooooooooooooooooooooooooooooooooooooooooo* &OOo",
"&OOo *&oooooooooooooooooooooooooooooooooooo&ooooOOo&  &OOo",
"&OOo  ooOoooooooooooooooooooooooooooooooooo&ooooOoOo* &OOo",
"&##o *&OoOo&&o&&o&&o&&o&&o&&o&&o&&o&&o&&o&&o&&ooooo&  &##o",
"&##o  oOOoooooooooooooooooooooooooooooooooo&oooooOOo* &##o",
"&##o *&oooooooooooooooooooooooooooooooooooo&ooooOoO&  &##o",
"&##o  oooooooooooooooooooooooooooooooooooooooooooooo* &##o",
"&OOo * *O&OO * * * * * * * * * * OOOO* *ooo&ooo* * *  &OOo",
"&OOo  * OOOO* * * * * * * * * * *O&OO * ooo&ooo * * * &OOo",
"&OOo * *O&OO * * * * * * * * * * OOOO* *ooooooo* * *  &OOo",
"&OOo  * OOOO* * * * * * * * * * *O&OO * ooo&ooo * * * &OOo",
"&##o * *O&OO * * * * * * * * * * OOOO* *ooo&ooo* * *  &##o",
"&##o  * OOOOO * * * * * * * *&&&&&&&O * ooooooo * * * &##o",
"&##o * OOO&OO***OOOOOO*O*OOO &&&$&o&O* *ooo&ooo* * *  &##o",
"&##o  *OOOOO&O*O&O&O&O****Oo &&o&&&&O * ooo&ooo * * * &##o",
"&OOo * OOOO**o*o**OOOOOo*OoO &o&&&$&O* *ooooooo* * *  &OOo",
"&OOo  *OOOOO*****O$&&&&&&oOo &&O&o&&O * ooo&ooo * * * &OOo",
"&OOo * $&&&&o$&&&o*O*O*O&OoO &&&O&O&O* *ooo&ooo* * *  &OOo",
"&OOo  o&*O*Oo*O*Oo&&&&&&&oOo &&&&&o&O * ooooooo * * * &OOo",
"&##o *o&&&&&o&&&&o&&&&&&&OoO       OO* *ooo&ooo* * *  &##o",
"&##o  o&&&&&o&&&&o*O*O*O&oOooooooO&OO * ooo&ooo * * * &##o",
"&##o *o&*O*Oo*O*Oo$&&&&&&OoooooooOOOO* *ooooooo* * *  &##o",
"&##o  o$&&&&o$&&&o+++++++&OOOOOooO&OO * ooo&ooo * * * &##o",
"&OOo *o+++++++  ++ ++ ++@&&OO&OooOOOO* *ooo&ooo* * *  &OOo",
"&OOo  * XXXooXooXXoX o @@&oOOoOooO&OO * ooooooo * * * &OOo",
"&OOo * *OOOOooooooo oo  @&*&O*OoOOOOO* *ooo&ooo* * *  &OOo",
"&OOo  *Oo OXXOOOOOO OOO @&O&&O&oO*&OO * ooo&ooo * * * &OOo",
"&##o * O  OoooooooOOOO @@&*&&*&o**OO** *ooooooo* * *  &##o",
"&##o o&OOOoOoOoOoOoOOOO @&O&&O&**O&** * ooo&ooo * * * &##o",
"&##o ooOOOoXXXX* oo@OOO @$&&&&$******* *ooo&ooo* * *  &##o",
"&##o o&OO.ooooo *Oo@OO @oooooooo*OOOO * ooooooo * * * &##o",
"&OOo ooOO.ooooo* ooOOO @&O*OO*Oo**&OOOOOooo&ooo* * *  &OOo",
"&OOo o&OOOooooo *OoOO. @&&O&&O&oO*OOOOOOooo&ooo * * * &OOo",
"&OOo ooOOOooooo* ooOO.O &&*&&*&oOO&O&O&Oooooooo* * *  &OOo",
"&OOo o&OOOo   * *OoOOOO $&O&&O$oOOOOOOOOooo&ooo * * * &OOo",
"&##o ooOOOO* * * oOOOO @ooooooooOO&OO* *ooo&ooo* * *  &##o",
"&##o o&OOOOOOOOOOOOOOO @&OOOOOoOOOOOO * ooooooo * * * &##o",
"&##o ooOOOOOOOOXOOOOOOO &*&&*&oOOOOOO* *oOOooOo* * *  &##o",
"&##o o&oOOOOOOOOOOOOOOO &O&&O&oOOOOOO * ooOoOoo * * * &##o",
"&OOo *oo&o&o&o&o&o&O%O @$&&&&$ * * * * *oOOoOOo* * *  &OOo",
"&OOo  *ooooooooooooO%O*oooooo * * * * * o&o&o&o * * * &OOo",
"&OOo * * * * * * o OOO * * * * * * * * * * * * * * *  &OOo",
"&OOo  * * * * * *oOOO * * * * * * * * * * * * * * * * &OOo",
"&##o                                                  &##o",
"&##o&&&&&&&&&&&&&&&&&&&&&&&&&&&&&&&&&&&&&&&&&&&&&&&&&&&##o",
"&##OOOO####OOOO####OOOO####OOOO####OOOO####OOOO####OOOO##o",
"&##OOOO####OOOO####OOOO####OOOO####OOOO####OOOO####OOOO##o",
"&ooooooooooooooooooooooooooooooooooooooooooooooooooooooooo"
};
