/* XPM */
static char *tiles___[] = {
/* columns rows colors chars-per-pixel */
"48 48 10 1",
"  c black",
". c #3F3F3F3F3F3F",
"X c gray50",
"o c #00000000E6E6",
"O c red",
"+ c #FFFF7F7F0000",
"@ c #CCCC7F7F6666",
"# c gray75",
"$ c gray100",
"% c None",
/* pixels */
"%%%%%%%%%%%%%%%%%%%%%%%%%%%%%%%%%%%%%%%%%%%%%%%%",
"%%%%%%%%%%%%%%%%%%%%%%%%%%%%%%%%%%%%%%%%%%%%%%%%",
"%%%%%%%%%%%%%%%%%%%%%%%%%%%%%%%%%%%%%%%%%%%%%%%%",
"%%%%%%%%%%%%%%%%%%%%%%%%%%%%%%%%%%%%%%%%%%%%%%%%",
"%%%%%%%%%%%%%%%%%%%%%%%%%%%%%%%%%%%%%%%%%%%%%%%%",
"%%%o%%%%%%%%o%%%%%%%%%%%%%%%%%%%%%%%%%%%%%%%%%%%",
"%%%%%%%%%o%%%%%%%%%%%%%%%%%%%%%%%%%%%%%%%%%%%%%%",
"%%%%%%%o%%%o%%%%%%%%%%%%%%%%%%%%%%%%%%%%%%%%%%%%",
"%%%%%%%%%%%%%%%%%%o%%%%%%%%%%%%%%%%%%%%%%%%%%%%%",
"%%%%%%%%%%%%%%%%o%%%%%%%%%%%%%%%%%%%%%%%%%%%%%%%",
"%%%%%%%%%%%%o%%%%%%%%o%%%%%%%%%%%%%%%%%%%%%%%%%%",
"%%%%%%%%%%%%%%%%%o%%%%%%%%%%%%%%%%%%%%%%%%%%%%%%",
"%%%%%%%%%%%%%%%%%%%%o%%o%%%%%%%%%%%%%%%%%%%%%%%%",
"%%%%%%%%%%%%%%%%%%%%%%%%%%%o%o%%%%%%%%%%%%%%%%%%",
"%%%%%%%%%%%%%%%%%%%%%%%%o%%%%%%%%%%%%%%%%%%%%%%%",
"%%%%%%%%%%%%%%%%%%%%%%%%%%%%%o%o%%o%%%%%%%%%%%%%",
"%%%o%%%%%%%%%%%%%%%%%%%%%%%%%%%%%o%%%%%%%%%%%%%%",
"%%%%%%o%%%%%%%%%%    %%%%    %%%%%%%%o%%%%%%%%%%",
"%%%%%%o%%%   ##X. .. .XX. .. .XXXXX%%%%%%%%%%%%%",
"%%%%%%%% .@@@##X     +.X     +.XX$X#     %%%%%%%",
"%%%o%%% @@@@@##XX +++  .X +++  .XXX##@@@@.  %%%%",
"%%%%%o% @@@@@##XXX      .X      .XX##@@@.@@@. %%",
"%%%%%%% @@@@@##XXXX    .XXX    .XXX##@@@@@@.@@ %",
"%%%%%%% @@@@@##XXXXX...XXXXX...XX$X##@@@@@@@@@ %",
"%%%%%%% @@@@@##XXXXXXXXXXXXXXXXXXXX##@@@.@@@. %%",
"%%%%%%%% .@@@#                     ##@@@@.   %%%",
"%%%%%%%%        X  X  X  X  X  X            %%%%",
"%%%%%%%%%                                 %%%%%%",
"%%%%%%o%%%%OOOOOOOOOOOOOOOOOOOOOOOOOOOOO%%%%%%%%",
"%%%%o%%%%%%%%%%%%%%%%%%%%%%%%%%%%%%%%%%%%%%%%%%%",
"%%%%%%%o%%%%%%%%%%%%%%%%%%%%%%%%%%o%o%%%%%%%%%%%",
"%%%%%%%%%%%%%%%%%%%%%%%%%%o%%%%o%%%%%%%%%%%%%%%%",
"%%%%%%o%%%%%%%%%%%%%%%%o%%%%%%%%%%%%%%%%%%%%%%%%",
"%%%%%%%%%%%%%o%%%o%%%%%%%%%%o%%%%%%%%%%%%%%%%%%%",
"%%%%%%%%%%%%%%%%%%%%o%%o%%%%%%%%%%%%%%%%%%%%%%%%",
"%%%%%%%%%%o%%%%%%%%%%%%%%%%%%%%%%%%%%%%%%%%%%%%%",
"%%%%%%%%%%%%%%%o%%%%%%%%%%%%%%%%%%%%%%%%%%%%%%%%",
"%%%%%%%%%%%%%%%%%%%%%%%%%%%%%%%%%%%%%%%%%%%%%%%%",
"%%%%%%%%%%%%o%%%%%%%%%%%%%%%%%%%%%%%%%%%%%%%%%%%",
"%%%%%%%%o%%%%%%%%%%%%%%%%%%%%%%%%%%%%%%%%%%%%%%%",
"%%%%o%%%%%%%%%%%%%%%%%%%%%%%%%%%%%%%%%%%%%%%%%%%",
"%%%%%%%%%%%%%%%%%%%%%%%%%%%%%%%%%%%%%%%%%%%%%%%%",
"%%%%%%%%%%%%%%%%%%%%%%%%%%%%%%%%%%%%%%%%%%%%%%%%",
"%%%%%%%%%%%%%%%%%%%%%%%%%%%%%%%%%%%%%%%%%%%%%%%%",
"%%%%%%%%%%%%%%%%%%%%%%%%%%%%%%%%%%%%%%%%%%%%%%%%",
"%%%%%%%%%%%%%%%%%%%%%%%%%%%%%%%%%%%%%%%%%%%%%%%%",
"%%%%%%%%%%%%%%%%%%%%%%%%%%%%%%%%%%%%%%%%%%%%%%%%",
"%%%%%%%%%%%%%%%%%%%%%%%%%%%%%%%%%%%%%%%%%%%%%%%%"
};
