/* XPM */
static char *tiles___[] = {
/* columns rows colors chars-per-pixel */
"42 42 10 1",
"  c black",
". c #5D5D5D5D5D5D",
"X c gray50",
"o c blue",
"O c green",
"+ c red",
"@ c #FFFF77770000",
"# c yellow",
"$ c gray75",
"% c gray100",
/* pixels */
"$$$$$$$$$$$$$$$$$$$$$$$$$$$$$$$$$$$$$$$$$$",
"$XX####XXXX####XXXX####XXXX####XXXX####XX.",
"$XX####XXXX####XXXX####XXXX####XXXX####XX.",
"$XX....................................XX.",
"$XX.                                  $XX.",
"$##. % % % % % % % %+% % % % % %+% %  $##.",
"$##.  % % % % % % %. .% % % % % . % % $##.",
"$##. % %$#.......%. . .%.....% . . %  $##.",
"$##.  %$$.$ ....%. . . .%...% . . . % $##.",
"$XX. %$X$......%+ . . . +..%+. . . .+ $XX.",
"$XX.  $$$....%%%%. . . .%$%%% . . . % $XX.",
"$XX. %$$$...%%%$$%. . .%$%%$$% . . %  $XX.",
"$XX.  $X$..%.%$$$$%. .%$%%$$$$% . %X% $XX.",
"$##. %$$$..%%$$$$$.%+%.%%$$$$$X%+%X%  $##.",
"$##.  $$$..%$$$$$XXXXX.%$$$$$XXXXX. % $##.",
"$##. %$X$..$X$$$XXXXX..$$.$XXXXX...%  $##.",
"$##.  $$$...$$$XXX.X...$$$XXXX.X... % $##.",
"$XX. %$$$....$X.XXX.....$$X.XXX....%  $XX.",
"$XX.  $X$.....XXXX........XXX...... % $XX.",
"$XX. %$$$.$ ... . . ............$ .%  $XX.",
"$XX.  $$X#...$$$$$$$$$............# % $XX.",
"$##. %$XXXXXX$XXXXXXX$XXXXXXXXXXXX %  $##.",
"$##.  XXXXXX$$X.#X..X$..........X % % $##.",
"$##. % % % $$$.XX.XX#$.....#.... % %  $##.",
"$##.  % % %$$$.X.X.X.$....#.....% % % $##.",
"$XX. % % % $$$X.X+X.X$...#...... % %  $XX.",
"$XX.  % % %$$$.X.X.X.$..###.....% % % $XX.",
"$XX. % % % $$$#XX.XX.$...#..XXX. % %  $XX.",
"$XX.  % % %$$$X..X#.X$..#......XX$@$$ $XX.",
"$##. % % % $$$XXXXXXX$.#....XXXXX$$$$ $##.",
"$##.  % % %$$.X.X.X.X.......$$$$$$$$$ $##.",
"$##. % % % $XXXXXXXXXXXXXXX.$$$$$$$$  $##.",
"$##.  % % %XXX.X.X.XXX.X.X.X$$$$$$$$% $##.",
"$XX. % % % % % % % % % % %XXOo$$$$$$  $XX.",
"$XX.  % % % % % % % % % % % % % % % % $XX.",
"$XX. % % % % % % % % % % % % % % % %  $XX.",
"$XX.  % % % % % % % % % % % % % % % % $XX.",
"$##.                                  $##.",
"$##.$$$$$$$$$$$$$$$$$$$$$$$$$$$$$$$$$$$##.",
"$##XXXX####XXXX####XXXX####XXXX####XXXX##.",
"$##XXXX####XXXX####XXXX####XXXX####XXXX##.",
"$........................................."
};
