/* XPM */
static char *tiles___[] = {
/* columns rows colors chars-per-pixel */
"48 48 9 1",
"  c black",
". c #3F3F3F3F3F3F",
"X c gray50",
"o c #66666666E6E6",
"O c red",
"+ c yellow",
"@ c gray75",
"# c gray100",
"$ c None",
/* pixels */
"$$$$$$$$$$$$$$$$$$$$$$$$$$$$$$$$$$$$$$$$$$$$$$$$",
"$$$$$$$$$$$$$$$$$$$$$$$$$$$$$$$$$$$$$$$$$$$$$$$$",
"$$$$$$$$$$$$$$$$$$$$$$$$$$$$$$$$$$$$$$$$$$$$$$$$",
"$$$$$$$$$$$$$$$$$$$$$$$$$$$$$$$$$$$$$$$$$$$$$$$$",
"$$$$$$$$$$$$$$$$$$$$$$$$$$$$$$$$$$$$$$$$$...$$$$",
"$$$$$$$$$$$$$$$$$$$$$$$$$$$$$$$$$$$$$$$X.#..$$$$",
"$$$$$$$$$$$$$$$$$$$$$$$$$$$$$$$$$$$$$$X## #.$$$$",
"$$$$$$$$$$$$$$$$$$$$$$$$$$$$$$$$$$$$$X##@.X$$$$$",
"$$$$$$$$$$$$$$$$$$$$$$$$$$$$$$$$$$$$X##@.@X$$$$$",
"$$$$$$$$$$$$$$$$$$$$$$$$$$$$$$$$$$$X##@@@X$$$$$$",
"$$$$$$$$$$$$$$$O#$$$$$$$$$$$$$$$$$X##@@oX$$$$$$$",
"$$$$$$$$$$$$$$#####@$$$$$$$$$$$$$X##@@ X$$$$$$$$",
"$$$$$$$$$$$$$#######@X.$$$$$$$$$X##@@oX$$$$$$$$$",
"$$$$$$$$$$$$$$X#######@X..$$$$$X##@@ X$$$$$$$$$$",
"$$$$$$$$$$$$$$$@#########@X..$X##@@oX$$$$$$$$$$$",
"$$$$$$$$$$$$$$$$@###########XX##@@ X$$$$$$$$$$$$",
"$$$$$$$$$$$$$$$$$X##########X##@@oX$$$$$$$$$$$$$",
"$$$$$$$$$$$$$$$$$$#########X##@@ X$$$$$$$$$$$$$$",
"$$$$$$$$$$$$$$$$$$$X######X##@@oX$$$$$$$$$$$$$$$",
"$$$$$$$$$$$$$$$$$$$$@####X##@@ X@.$$$$$$$$$$$$$$",
"$$$$$$$$$$$$$$$$$$$$$@##X##@@oX@@.$$$$$$$$$$$$$$",
"$$$$$$$$$$$$$$$$$$$$$$XX##@@ X@@#X$$$$$$$$$$$$$$",
"$$$$$$$$$$$$$$$$$$$$$$X##@@oX@@##@.$$$$$$$$$$$$$",
"$$$$$$$$$$$$$$$$$$$$$X##@@ X@@####.$$$$$$$$$$$$$",
"$$$$$$$$$$$$$$$$$$$$X##@@oX@@#####X$$$$$$$$$$$$$",
"$$$$$$$$$$$$$$$$$#$X##@@ XX@######@.$$$$$$$$$$$$",
"$$$$$$$$$$$$$$$$O#X##@@oX$$@#######X$$$$$$$$$$$$",
"$$$$$$$$$$$$$$$##X##@@oX$$$$@######@$$$$$$$$$$$$",
"$$$$$$$$$$$$$$##X##@@oX$$$$$$X######@$$$$$$$$$$$",
"$$$$$$$$$$$$$$#X##@@##$$$$$$$$#######$$$$$$$$$$$",
"$$$$$@@@$$$$$$X##@@#OX$$$$$$$$$X#####$$$$$$$$$$$",
"$$$$@###@@$$$XX#@@##X$$$$$$$$$$$@#####$$$$$$$$$$",
"$$$$$@####@@@@#..$#X$$$$$$$$$$$$$@###O$$$$$$$$$$",
"$$$$$$.#####@@..$$$$$$$$$$$$$$$$$$X##$$$$$$$$$$$",
"$$$$$$$.###X#@.$$$$$$$$$$$$$$$$$$$$#$$$$$$$$$$$$",
"$$$$$$$$.#X##@$$$$$$$$$$$$$$$$$$$$$$$$$$$$$$$$$$",
"$$$$$$$$$+####@$$$$$$$$$$$$$$$$$$$$$$$$$$$$$$$$$",
"$$$$$$$$$$.###@$$$$$$$$$$$$$$$$$$$$$$$$$$$$$$$$$",
"$$$$$$$$$$$.###@$$$$$$$$$$$$$$$$$$$$$$$$$$$$$$$$",
"$$$$$$$$$$$$.##@$$$$$$$$$$$$$$$$$$$$$$$$$$$$$$$$",
"$$$$$$$$$$$$$@#@$$$$$$$$$$$$$$$$$$$$$$$$$$$$$$$$",
"$$$$$$$$$$$$$$@$$$$$$$$$$$$$$$$$$$$$$$$$$$$$$$$$",
"$$$$$$$$$$$$$$$$$$$$$$$$$$$$$$$$$$$$$$$$$$$$$$$$",
"$$$$$$$$$$$$$$$$$$$$$$$$$$$$$$$$$$$$$$$$$$$$$$$$",
"$$$$$$$$$$$$$$$$$$$$$$$$$$$$$$$$$$$$$$$$$$$$$$$$",
"$$$$$$$$$$$$$$$$$$$$$$$$$$$$$$$$$$$$$$$$$$$$$$$$",
"$$$$$$$$$$$$$$$$$$$$$$$$$$$$$$$$$$$$$$$$$$$$$$$$",
"$$$$$$$$$$$$$$$$$$$$$$$$$$$$$$$$$$$$$$$$$$$$$$$$"
};
