/* XPM */
static char *noname[] = {
/* width height ncolors chars_per_pixel */
"32 32 9 1",
/* colors */
"` c #000000",
"a c #BFBF00",
"b c #3F3F3F",
"c c #3F3F00",
"d c #003F00",
"e c #FF3C00",
"f c #FFFF00",
"g c #7F3D00",
"h c #3C00FF",
/* pixels */
"````````````````````````````````",
"``aaaaaaaaaaaaaaaaaaaaaaaaaaaa``",
"`a`aaaaaaaaaaaaaaaaaaaaaaaaaa`f`",
"`aa`aaaaaaaaaaaaaaaaaaaaaaaa`ff`",
"`aaa````````````````````````fff`",
"`aaa`hhhhhhhhhhhhhhgccccchh`fff`",
"`aaa`hhhhhhhhhhhhccccgcgchc`fff`",
"`aaa`hhhhhhhhhhhhgcgchc`cch`fff`",
"`aaa`hhhhhhhhhhcgcccgccchch`fff`",
"`aaa`hhhhhhhhhcccgchccchchh`fff`",
"`aaa`hhhhhhhhhccc`ccccchhhh`fff`",
"`aaa`hhhhhhhggcchccgchhhchh`fff`",
"`aaa`hhhhhhccchhgcchhhhhhch`fff`",
"`aaa`hhhhhhcchhcchhhhhhhghh`fff`",
"`aaa`hhhhgch`ccchhhchhhcchc`fff`",
"`aaa`hhhhcchgcchhhhhhhhgcgc`fff`",
"`aaa`hhhchhchhhhhhhhhhgcchh`fff`",
"`aaa`hhchhchhhhhhhhhhggccch`fff`",
"`aaa`hh`h`hhhhhhhhhhhchchhh`fff`",
"`aaa`hh`h`hhhhhhhhhhchchhhh`fff`",
"`aaa`hh`h`hhhhhhhhhbhbhhhhh`fff`",
"`aaa`hh`h`hhhhhhhhhbhbhhhhh`fff`",
"`aaa`h````````hhhbbbbbhhhhh`fff`",
"`aaa`d``b`b```dddb`b`bddddd`fff`",
"`aaa`d````````dddddddeddddd`fff`",
"`aaa`dddddddddedddedddddddd`fff`",
"`aaa`dddddddddddddddddddddd`fff`",
"`aaa````````````````````````fff`",
"`aa`ffffffffffffffffffffffff`ff`",
"`a`ffffffffffffffffffffffffff`f`",
"``ffffffffffffffffffffffffffff``",
"````````````````````````````````"
};
