/* XPM */
static char *noname[] = {
/* width height ncolors chars_per_pixel */
"34 50 8 1",
/* colors */
"# c #000000",
"a c #7F7F7F",
"b c #5D5D5D",
"c c #BF7900",
"  c #FFFFFF",
"e c #FFFF00",
"f c #7F7F00",
"g c #BFBFBF",
/* pixels */
"gggggggggggggggggggggggggggggggggg",
"geeeeeeeeeeeeeeeeeeeeeeeeeeeeeeeeb",
"geeeeeeeeeeeeeeeeeeeeeeeeeeeeeeeeb",
"geebbbbbbbbbbbbbbbbbbbbbbbbbbbbeeb",
"geeb##########################geeb",
"geeb# # # # # # #ff # ffff# ##geeb",
"geeb## # # # # #fbb#bbffbbbb #geeb",
"geeb# # # # #ffbbbbbffbbbfbff#geeb",
"geeb## # # # ffbbbbbffbbbfbff#geeb",
"geeb# # # # #fbbfbbbbbbfbbb ##geeb",
"geeb## # # #fbbb bbfbbbbff # #geeb",
"geeb# # # #bfbb #fffbfff# # ##geeb",
"geeb## # # bfbb#ffffbbb# # # #geeb",
"geeb# # # fbb #bfbb # # # # ##geeb",
"geeb## # #bb## bb# # # # # # #geeb",
"geeb# # # bb# #bb## # # # # ##geeb",
"geeb## # #bb## bb# # # # # # #geeb",
"geeb# #baabb#aabb#aaaaaaa # ##geeb",
"geeb## bbaab#aaab#aaaaaaaa # #geeb",
"geeb# #bbbbbbbbbbbbbbbbbbbb ##geeb",
"geeb## bbb################b# #geeb",
"geeb##ebbb################bee#geeb",
"geeb##ebbb#bb#bb#bb#bb#bb#b#e#geeb",
"geeb##ebbb#bb#bb#bb#bb#bb#b#e#geeb",
"geeb##e#bb#bb#bb#bb#bb#bb#b#e#geeb",
"geeb##e #b################b#e#geeb",
"geeb##e# # # # # # # # # # #e#geeb",
"geeb##e # # # #eeee # # # ##e#geeb",
"geeb##e# # # ###ee## # # # #e#geeb",
"geeb##e # # # ##ee# # # # ##e#geeb",
"geeb##e# # # # #ee # # # # #e#geeb",
"geeb##e # # # ##ee# # # # ##e#geeb",
"geeb##e# # # # #ee # # # # #e#geeb",
"geeb##e # # # ##ee# # # # ##e#geeb",
"geeb##e# # # # #ee # # # # #e#geeb",
"geeb##e # # # ##ee# # # # ##e#geeb",
"geeb##e# # # # #ee # # # # #e#geeb",
"geeb##e # # # #eeee # # # ##e#geeb",
"geeb##e# # # ####### # # # #e#geeb",
"geeb##e # # # # # # # # # ##e#geeb",
"geeb##e# # # # # # # # # # #e#geeb",
"geeb##e # # # # # # # # # ##e#geeb",
"geeb##e# # # # # # # # # # #e#geeb",
"geeb##eeeeeeeeeeeeeeeeeeeeeee#geeb",
"geeb##########################geeb",
"geeb##########################geeb",
"geebgggggggggggggggggggggggggggeeb",
"geeeeeeeeeeeeeeeeeeeeeeeeeeeeeeeeb",
"geeeeeeeeeeeeeeeeeeeeeeeeeeeeeeeeb",
"gbbbbbbbbbbbbbbbbbbbbbbbbbbbbbbbbb"
};
