/* XPM */
static char *noname[] = {
/* width height ncolors chars_per_pixel */
"42 42 13 1",
/* colors */
"# c #000000",
"a c #7F7F7F",
"b c #00FF00",
"c c #5D5D5D",
"d c #007F00",
"e c #BF7900",
"f c #4F4FFF",
"  c #FFFFFF",
"h c #FFFF00",
"i c #7F7F00",
"j c #FF7700",
"k c #BFBFBF",
"l c #0000FF",
/* pixels */
"kkkkkkkkkkkkkkkkkkkkkkkkkkkkkkkkkkkkkkkkkk",
"kaallllaaaallllaaaallllaaaallllaaaallllaac",
"kaallllaaaallllaaaallllaaaallllaaaallllaac",
"kaaccccccccccccccccccccccccccccccccccccaac",
"kaac##################################kaac",
"kllc# # # # # # # # # # #aaa# # # # ##kllc",
"kllc## # # # # # # # # # aka # # # # #kllc",
"kllc# # aaaaaaaaaaaaaa#aaaaa# # # # ##kllc",
"kllc## #akakah#kakaka#c#akkkaaac # # #kllc",
"kaac#aaaaaaaakkkaaakkk#akaackaaa# # ##kaac",
"kaac#kakaka#kaacaakaachkkaaccaka # # #kaac",
"kaac#aaaaaakkaacckkaacckkaaccaac# # ##kaac",
"kaac## # # kckkkkkkkkkkkkkkkkaka # # #kaac",
"kllc# # # #kkkaaaaaaaaaaaaaakaaa# # ##kllc",
"kllc## # kkkckaaaaaaklaaaaaakaka # # #kllc",
"kllc# # kccckcakcaaklklaakcakcaa# # ##kllc",
"kllc## kkccakkaaaaaaklaaaaaakcka # # #kllc",
"kaac# #kkccackaaaaaaklaaaaaakcaa# # ##kaac",
"kaac## kkccakkaaaaaaklaaaaaakcka # # #kaac",
"kaac# #kaaaakkakcaklklklakcakcaa# # ##kaac",
"kaac## aa#aackaaaaaklllaaaaakckaaaaaa#kaac",
"kllc# # # akkkkkkkkkkkkkkkkkkcaaakaak#kllc",
"kllc## # #kckaaaaaaaaaaaaaaacckaaaaaa#kllc",
"kllc# # # kkkccccccccccccccacaaa# # ##kllc",
"kllc## # #kckccccccccccccccacaka # # #kllc",
"kaac# # # ckaaaaaaaaaaaaaaaccaaa# # ##kaac",
"kaac## # #kaaccaaccaaccaaaiccaka # # #kaac",
"kaac# # # aaccacccaaccaaaiiccaaa# # ##kaac",
"kaac## # # ccccccccccccccccccaka # # #kaac",
"kllc# # # # # #aakckcaaaaakjaaaa# # ##kllc",
"kllc## # # # # aaakakakakakckaka # # #kllc",
"kllc# # # # # #aaaaaaaaaaakjaaaa# # ##kllc",
"kllc## # # # # # akaa# # # # # # # # #kllc",
"kaac# # # #aaaaaaaaaa # # # # # # # ##kaac",
"kaac## # # akakakakaa# # # # # # # # #kaac",
"kaac# # # #aaaaaaaaaa # # # # # # # ##kaac",
"kaac## # # cka # # # # # # # # # # # #kaac",
"kllc##################################kllc",
"kllckkkkkkkkkkkkkkkkkkkkkkkkkkkkkkkkkkkllc",
"kllaaaallllaaaallllaaaallllaaaallllaaaallc",
"kllaaaallllaaaallllaaaallllaaaallllaaaallc",
"kccccccccccccccccccccccccccccccccccccccccc"
};
