/* XPM */
static char *noname[] = {
/* width height ncolors chars_per_pixel */
"34 34 6 1",
/* colors */
"# c #000000",
"a c #5D5D5D",
"  c #FFFFFF",
"c c #FFFF00",
"d c #7F7F00",
"e c #BFBFBF",
/* pixels */
"eeeeeeeeeeeeeeeeeeeeeeeeeeeeeeeeee",
"ecc####cccc####cccc####cccc####cca",
"ecc####cccc####cccc####cccc####cca",
"eccaaaaaaaaaaaaaaaaaaaaaaaaaaaacca",
"ecca##########################ecca",
"e##a# # # # # # # # # # # # ##e##a",
"e##a## # # da# # # # # # # # #e##a",
"e##a# #####aa###### # # # # ##e##a",
"e##a## # # da# # # # # # # # #e##a",
"ecca# # # #da # # # # # # # ##ecca",
"ecca## # # da# # # # # # # # #ecca",
"ecca# #####aa###### # # # # ##ecca",
"ecca## # # da# # # # # # # # #ecca",
"e##a# # # #da # # # a # # # ##e##a",
"e##a## # # da# # ###a### # # #e##a",
"e##a# # # #da # # # a # # # ##e##a",
"e##a## # # da# # # #a# # # # #e##a",
"ecca# # # #da # ####a#### # ##ecca",
"ecca## # # da# # # #a# # # # #ecca",
"ecca# # # #da # # # a ###a####ecca",
"ecca## # # da# # # #a# # a # #ecca",
"e##a# # # #da # # # a ###a####e##a",
"e##a## # # da# # # #a# # a # #e##a",
"e##a# # # #da # # # a # #a# ##e##a",
"e##a## # # da# # # #a# # a # #e##a",
"ecca# # # #da # # # a # #a# ##ecca",
"ecca## # # da# # # #a# # # # #ecca",
"ecca# # # #da # # # # # # # ##ecca",
"ecca## # # # # # # # # # # # #ecca",
"e##a##########################e##a",
"e##aeeeeeeeeeeeeeeeeeeeeeeeeeee##a",
"e##cccc####cccc####cccc####cccc##a",
"e##cccc####cccc####cccc####cccc##a",
"eaaaaaaaaaaaaaaaaaaaaaaaaaaaaaaaaa"
};
