/* XPM */
static char * obj1_0_xpm[] = {
"32 32 7 1",
" 	c None",
".	c #BFBFBFBFBFBF",
"X	c #FFFFFFFFFFFF",
"o	c #000000000000",
"O	c #3F3F3F3F3F3F",
"+	c #FFFF00000000",
"@	c #7F7F7F7F7F7F",
"                                ",
"                                ",
"                                ",
"               ....             ",
"              .XooOoo           ",
"             .XXoXXXX.          ",
"             ....XX+X.          ",
"             ...OXXXX.          ",
"             @.OOXXXX.          ",
"             @.O.XXXX.          ",
"             @...XXXX.          ",
"             @..OXXXX.          ",
"             ..OOXXXX.          ",
"             ..O.XXXX.          ",
"             ....XXXX.          ",
"             ...OXXXX.          ",
"             ..OOXXXX.          ",
"             ..O.XXXX.          ",
"             ....XXXX.          ",
"             @..OXXXX.          ",
"             @.OOXXXX.          ",
"             @.O.XXXX.          ",
"             @...XX+X.          ",
"             ...oXXXX.          ",
"             ..oooo@o           ",
"             .@@oo@oo           ",
"              @@@@@@            ",
"              @@@@@             ",
"                                ",
"                                ",
"                                ",
"                                "};
