/* XPM */
static char * obj2_3_xpm[] = {
"32 32 10 1",
" 	c None",
".	c #FFFFFFFF0000",
"X	c #7F7F7F7F7F7F",
"o	c #BFBFBFBFBFBF",
"O	c #FFFF00000000",
"+	c #FFFFFFFFFFFF",
"@	c #66666666E6E6",
"#	c #3F3F3F3F3F3F",
"$	c #000000000000",
"%	c #00000000E6E6",
"                                ",
"                                ",
"                                ",
"      .                         ",
"       X                        ",
"        .                       ",
"       o X      OOOOOOO         ",
"      XXo .  OOO       OO       ",
"     oXXXo  O            O      ",
"      oooooO              O     ",
"          Oo+              O    ",
"         O oo+    X         O   ",
"        O   oo++@  X         O  ",
"        O    ooo++# X        O  ",
"        O    Xooo++X X       O  ",
"       O     @Xooo+++#X       O ",
"       O      XXooo+++ o      O ",
"       O    X #XXo##+++       O ",
"       O     X #Xo##X$#       O ",
"       O      X XXoX$%$#      O ",
"       O       X#XX$%$$#      O ",
"        O       X X$$$$#     O  ",
"        O        o  ###      O  ",
"        O                    O  ",
"         O                  O   ",
"          O                O    ",
"           O              O     ",
"            O            O      ",
"             OOO       OO       ",
"                OOOOOOO         ",
"                                ",
"                                "};
