/* XPM */
static char * obj2_1_xpm[] = {
"32 32 10 1",
" 	c None",
".	c #FFFF00000000",
"X	c #BFBFBFBFBFBF",
"o	c #3F3F3F3F3F3F",
"O	c #7F7F7F7F7F7F",
"+	c #FFFFFFFFFFFF",
"@	c #000000000000",
"#	c #00000000E6E6",
"$	c #66666666E6E6",
"%	c #FFFFFFFF0000",
"                                ",
"                                ",
"               ......           ",
"            ...      ...        ",
"           .            .       ",
"          .              .      ",
"         .                .     ",
"        .                  .    ",
"       .                    .   ",
"       .        X  ooo      .   ",
"      .        O +o@@@o      .  ",
"      .       Oo++@#@@o      .  ",
"      .      O +++O@#@o      .  ",
"      .     O O++ooO@@       .  ",
"      .    O o++XooXOO       .  ",
"      .      ++XXXXOO X      .  ",
"      .     $+XXXOOOoO       .  ",
"       .    +XXXOOo O       .   ",
"       .    +XXOOo O        .   ",
"       .   +XXO$  O         .   ",
"        . +XX    O         .    ",
"         .XX              .     ",
"       % X.              .      ",
"      O XX .            .       ",
"     % XOX  ...      ...        ",
"    O XOOX     ......           ",
"   %   OOX                      ",
"        X                       ",
"                                ",
"                                ",
"                                ",
"                                "};
