/* XPM */
static char * obj3_6_xpm[] = {
"48 48 9 1",
" 	c None",
".	c #FFFF00000000",
"X	c #FFFFFFFFFFFF",
"o	c #7F7F7F7F7F7F",
"O	c #BFBFBFBFBFBF",
"+	c #3F3F3F3F3F3F",
"@	c #FFFFFFFF0000",
"#	c #000000000000",
"$	c #66666666E6E6",
"                                                ",
"                                                ",
"                                                ",
"                                                ",
"                                                ",
"                                                ",
"                                                ",
"                                                ",
"                                                ",
"                         .XXX                   ",
"                         XXXo                   ",
"                        XXXXO                   ",
"                        XXXXO                   ",
"                       OXXXXO                   ",
"                       XXXOXO                   ",
"                      +XXXXXo                   ",
"                      oXXXXXX                   ",
"                     +OXXXXXo                OOO",
"                     oXXXXXXO               OXX+",
"                    +OXXXXOXO               OXXo",
"                    oXXXXXXXO              OXXXo",
"                   +OXXXXXXXo      O.OOO   OXXXo",
"      +OOOOOOOOOOOOOOOOOOOOOOOOOOOOOOOOO  OXXXX+",
"    +O+XXXXXXXXXXXXXXXXXXXXXXXXXXXXXXXXXXOoOoOo@",
"   ++X+#XXXXXXXXXXXXXXXXXXXXXXXXXXXXXXXXXOOOOOO+",
"    +XX+X$#$#$#$#$$#$#$#$#$#$#$#$#$#$$#$$+OOXXXo",
"      OOOOOOOOOOOOO+OOOOOOOOOooooooooooo   OXXXo",
"                   +OOOOOOOOo      O.OOO    XXXo",
"                    oXXXXXXXO      X.XXX    OXX+",
"                    +OXXXXOXO                OXO",
"                     oXXXXXXO                   ",
"                     +OXXXXXo                   ",
"                      oXXXXXX                   ",
"                      +XXXXXo                   ",
"                       XXXXXO                   ",
"                       OXXOXO                   ",
"                        XXXXO                   ",
"                        XXXXO                   ",
"                         XXXo                   ",
"                         .XXX                   ",
"                                                ",
"                                                ",
"                                                ",
"                                                ",
"                                                ",
"                                                ",
"                                                ",
"                                                "};
