/* XPM */
static char * obj3_5_xpm[] = {
"48 48 9 1",
" 	c None",
".	c #BFBFBFBFBFBF",
"X	c #FFFFFFFFFFFF",
"o	c #3F3F3F3F3F3F",
"O	c #FFFFFFFF0000",
"+	c #7F7F7F7F7F7F",
"@	c #FFFF00000000",
"#	c #66666666E6E6",
"$	c #000000000000",
"                                                ",
"                                                ",
"                                                ",
"                                                ",
"                              .                 ",
"                             .X.                ",
"                             .XXo               ",
"                             .XXXo              ",
"                              .XXXo             ",
"                              .XXXXO            ",
"                               .XX+Xo           ",
"                               .X+XXXo          ",
"                               ..XXXXXo         ",
"           X                  +....XXXX.        ",
"          XX+              XX++Xoo ..XXX.       ",
"         @XXX.            XX+XXoo    ...        ",
"         XXXXX.          @X+XXXo                ",
"          XXXXX+        XX+XXX.                 ",
"          XXXXXXX        +XXX.XX                ",
"          .XXXXXX+      +XXX.XX+                ",
"           .XXXXXX.    +XXX.X@+                 ",
"           +XXXXXXX.  +XXX.#X+                  ",
"           o.XXXXXXX++XXX.#+                    ",
"            +XXXXXXX+XXX.#+                     ",
"            oXXXXXX+XXX.$+                      ",
"            o.XXXX+XXX.#+                       ",
"             +XXX+XXX.$++                       ",
"             oXX+XXX.#+...                      ",
"             o++XXX.$+...X.                     ",
"              +XXX.#+...XXX+                    ",
"             +XXX.$+...XXXXXX                   ",
"            +XXX.#+...XXXXXXX+                  ",
"           +XXX.$+...XXXXXXXXX.                 ",
"          +XXX.#+ oo+.XXXXXXXXX.                ",
"         +XXX.$+     oo+.XXXXXXX+               ",
"        +XXX.#+         o+.XXXXXXX              ",
"       +XXX.$+             .XXXXX               ",
"      +XXX.#+                 X@                ",
"     +XXX.$+                                    ",
"    +XXX.#+                                     ",
"    oXXo.+                                      ",
"   oX$o.+                                       ",
"   ooX++                                        ",
"   ooo                                          ",
"                                                ",
"                                                ",
"                                                ",
"                                                "};
