/* XPM */
static char * obj5_1_xpm[] = {
"48 48 6 1",
" 	c None",
".	c #FFFF7F7F0000",
"X	c #FFFFFFFF0000",
"o	c #FFFF00000000",
"O	c #FFFFFFFFFFFF",
"+	c #000000000000",
"                                                ",
"                                                ",
"                                                ",
"                                                ",
"                                                ",
"                                                ",
"                                                ",
"                                     .....      ",
"                                   .......      ",
"                                  .X....o.      ",
"                                 .XO...X.o      ",
"                        .O.     ..O...XXo.      ",
"                      .O...    ........o.       ",
"                     .................o.        ",
"                     .........O......o.         ",
"                     ...............ooo         ",
"                     ......O.......ooo          ",
"                      ............ooo           ",
"                      ...........ooo            ",
"                      ...O......o.o.o           ",
"                   O...........o.o.o.oo         ",
"                 .O...O.......o.o.o.o.          ",
"           O..  .....O.........ooo.o.o          ",
"          ....................ooooo.oo          ",
"          O........O.........oooooooo           ",
"         O..................ooooooooo           ",
"         ..................o.oo  ooo            ",
"         ...................oo                  ",
"          ....  ...........o.o                  ",
"               ........oo.o.oo                  ",
"              ........oo.o.ooo                  ",
"             ......o.oo.o.ooo                   ",
"            ......o.o+oo.ooo                    ",
"            .....o.o oo.o.                      ",
"           .....o.o  ooo.o                      ",
"          .....o.o  oooooo                      ",
"         .....o.o    ooooo                      ",
"         ....o.o      ooo                       ",
"        ....o.o                                 ",
"        ...o.o                                  ",
"        ..o.o                                   ",
"        ...o.                                   ",
"        o...o  ..o                              ",
"         o.....oo                               ",
"          oooooo                                ",
"                                                ",
"                                                ",
"                                                "};
