/* XPM */
static char * obj6_0_xpm[] = {
"48 48 5 1",
" 	c None",
".	c #3F3F3F3F3F3F",
"X	c #7F7F7F7F7F7F",
"o	c #000000000000",
"O	c #BFBFBFBFBFBF",
"                                                ",
"         .XX o . ...    .o                      ",
"   O     .O..XO. . oo... ... . .....            ",
"     OX   XOXOO ..XXX..X..XX........            ",
"     OOOO..X.OXOXX.XXXO...X.......o.            ",
"    oO .X.XOOX..XXXX..X...XX.oO....             ",
"    OX .OO...OO..X..........X.......            ",
"     O   OO......XX.....X.ooooo.... .           ",
"     .O  .....O.OOOXX.X....ooooo                ",
"         .. O..OXOOX.O......oooo o              ",
"       o     OOOOOXXXXXXX....oooo               ",
"             OOOOOOXXXXX.X...oooo               ",
"              OOOXOOOX..X....oooo               ",
"                OOOOXXXXX...o.ooo               ",
"                OOOOXXXX...XX..o.o              ",
"                  OOOOOXXXX..o.oooo             ",
"                  OOOOOXXXXXX...oooo            ",
"                    OOOOOXX.XX...ooo            ",
"                     OOOOOXXXXX.ooooo           ",
"                      OOOOXXXX....ooo           ",
"                      OOOOXXXX.Xooooo           ",
"                       OOOOXXX.....oo           ",
"                       OOOOXXXX..ooo            ",
"                       OOOXXXX...ooo            ",
"                        OOOXXXX...oo            ",
"                        OOXXXXX..ooo            ",
"                         OOOXX..o.oo            ",
"                        OOXOXX....o             ",
"                         OOOX....oo             ",
"                         OOOXXXX.oo             ",
"                         OOOXX.ooo              ",
"                        OOXX...o                ",
"                        OOXX..o                 ",
"                       OOOXX..o                 ",
"                       OOX..o                   ",
"                      OOXXXoo                   ",
"                      OXXX.o                    ",
"                      OX...                     ",
"                     OOXX.o                     ",
"                     OXXX.o                     ",
"                      X..o                      ",
"                     OXXo                       ",
"                     OXo                        ",
"                     OX.                        ",
"                     OX.                        ",
"                     OX.                        ",
"                      O                         ",
"                      O                         "};
