/* XPM */
static char *noname[] = {
/* width height ncolors chars_per_pixel */
"48 48 11 1",
/* colors */
"` c #000000",
"a c #7F7F7F",
"b c #0000E6",
"c c #3F3F3F",
"d c #007F00",
"e c #6666E6",
"f c #FF0000",
"g c #00E600",
"h c #FFFFFF",
"i c #FFFF00",
"j c #BFBFBF",
/* pixels */
"`eeeeeeeeeeeeeeeeeeeeeeeeeeeeeeeeeeeeeeeeeeeeeee",
"`e`````````````````````````````````````````````e",
"`egggggggggggggggggggggcggcggggggggggggggggggg`e",
"`eggg`ggggggggggggggggcggcgggggggggggggggggggg`e",
"`eajjggggggagaggggeeeeeeeeeeeeeeeeeeeeeeeegggg`e",
"`eajjgggggggaggggee``````````````````````bgggg`e",
"`eajjggggggagaggebeaaaaaaaaaaaaaaaaaaaaa`bgggg`e",
"`eajjgggggaggggebeeaaaaaaaaaaaaaaaaaaaaa`bgggg`e",
"`ecccggeaccccccbeeeaaciiiiiiaaciiiiiaaaa`bccca`e",
"`eggggeeacccccceebeaaciiiiiiiaciiiiiiaaa`bccca`e",
"`eg`gebeaccccccebeeaaciiccciiaciicciiiaa`bccca`e",
"`eggebeeaccccccbeeeaaciiaaciiaciiaaciiaa`bccca`e",
"`egebeeeacca`cceebeaaciiaaciiaciiaaciiaa`bccca`e",
"`egeeebeacca`ccebeeaaciiiiiiiaciiaaciiaa`bccca`e",
"`egeebeeaccccccbeeeaaciiiiiicaciiaaciiaa`bccca`e",
"`egebeeeacccccceebeaaciiccccaaciiaaciiaa`bccca`e",
"`egeeebeaccccccebeeaaciiaaaaaaciiaaciiaa`bccca`e",
"`egeebeeacca`ccbeeeaaciiaaaaaaciiaaiiiaa`bccca`e",
"`egebeeeacca`cceebeaaciiaaaaaaciiiiiicaa`bccca`e",
"`egeeebeaccccccebeeaaciiaaaaaaciiiiicaaa`bccca`e",
"`egeebeeaccccccbeeeaacccaaaaaaccccccaaaa`bccca`e",
"`egebeeeacccccceebeaaaaaaaaaaaaaaaaaaaaa`bccca`e",
"`egeeebeaccccccebeebbbbbbbbbbbbbbbbbbbbbbbccca`e",
"`egeebeeaccccccbeebbbbbbbbbbbbbbbbbbbbbbbcccca`e",
"`egebeeeacccccceebb`bb`bb`bb`bb`bb`bb`bbccccca`e",
"`egeeebeaaaaaaaebbbbbbbbbbbbbbbbbbbbbbbaaaaaaa`e",
"`egeebeebbbbbbbbb`bb`bb`bbbbb`bb`bb`bbbbbbbbbb`e",
"`egebeebbbbbbbbbbbbbbbbb`````bbbbbbbbbbbbbbbbg`e",
"`egeeebbb`bb`bb`bb`bhbb`ccccbbbhb`bb`bb`bbbbdg`e",
"`egeebbbbbbbbbbbbbbabb`ccccbbbabbbbbbbbbbbbddg`e",
"`egebbbbbbbbbbbbbbabb`ccccbbbabbbbbbbbbbbbdddg`e",
"`eggddddddddddddddacaccccccacaaddddddddddddddg`e",
"`egggdddddddddddddaccccccccccadddddddddddddddg`e",
"`eggggddddddddccccccccccccccccccccccdddddddddg`e",
"`egggggggggggaaaaccccccccccccccccccccdddgggggg`e",
"`eggggggggggaaaaaaccccccccccccccccccccddgggggg`e",
"`egggggggggaaaaaaaaccccccccccccccccccccdgdgggg`e",
"`eggggggggaaaaggggaaagggggggggaaggggaaaagggggg`e",
"`eggggdgggaaaaggggaaagggggggggaaggggaaaaggggdg`e",
"`eggggggggaaaaaaaaaabbaaaa``aaaabbaaaaaagggggg`e",
"`egdggggggaaaaaaaaaabbaaaahfaaaabbaaaaaaggdggg`e",
"`eggggggggaaaaaaaaaabbaaaa``aaaabbaaaaaagggggg`e",
"`egggggdggaaaaggaaaaaaaaaaaaaaaaaaggaaaagggggg`e",
"`eggggggggaaaagga``a``a``aaa``aaaaggaaaagggggg`e",
"`egdggggggaaaaggahfahfahfaaahfaaaaggaaaagggggg`e",
"`eggggggggaaaagga``a``a``aaa``aaaaggaaaagdgggg`e",
"`eeeeeeeeeaaaaeeeeeeeeeeeeeeeeeeeeeeaaaaeeeeeeee",
"``````````aaaa``````````````````````aaaa````````"
};
