/* XPM */
static char *noname[] = {
/* width height ncolors chars_per_pixel */
"67 57 7 1",
/* colors */
"` c #000000",
"a c #7F7F7F",
"b c #FFBF7F",
"c c #00FF00",
"d c #585858",
"e c #7F7FFF",
"f c #DFDFDF",
/* pixels */
"```````````````````````````````````````````````````````````````````",
"``ddddddddddddddddddddddddddddddddddddddddddddddddddddddddddddddd``",
"`d`ddddddddddddddddddddddddddddddddddddddddddddddddddddddddddddd`f`",
"`dd`ddddddddddddddddddddddddddddddddddddddddddddddddddddddddddd`ff`",
"`ddd```````````````````````````````````````````````````````````fff`",
"`ddd`bbbbbbbbbbbb`bb`ebbbbeeeebbbbbbbb`b`bbbbbbb`bbbbbbbbbbbbb`fff`",
"`ddd`bbbbbbbbbbbb`bbbebbbbeeeebbb`bbb`bb`bbbbb`b`bbbbbbbbbbbbb`fff`",
"`ddd`bbbccccbbbbb`bb`e`bbb`eebb`bb`aaa`bbbbbbb`b`bbbbbbbbbbbbb`fff`",
"`ddd`bccccccbbbbb`bbbeebbbbee`bbb`eaaabbbbbbbbbb`bb`bb`bbbbbbb`fff`",
"`ddd`bccccbb`bb```bbbeeb`bbeebbb`eeeeaab````b`````````aab`bbbb`fff`",
"`ddd`bccccbbbbb`a`b`bbeebbbee`baaeeee``b`aaaaaaaaaaaaaaabbbbbb`fff`",
"`ddd`bccccbbbbb`a`bbbb`eeb`eea`aaee``````a```aaaaaaa`````bbbbb`fff`",
"`ddd`bbcccbb`bbaa`bbb`a`eeeeaaaaaee``````a````aa`````````bbbbb`fff`",
"`ddd`bbccb`bbb`a````bbaa`eeeaaaa`ee`a````aa```aa````````bbbeee`fff`",
"`ddd`bbbbbb`````a`bbb`aaa`eeeaaa`ee```````a`aaa````````bbbeee``fff`",
"`ddd`bbbbb`a````aa```eeeeeeeeaaaeeeeeeeaaaaa`aabbbbbbeeeeeaa`b`fff`",
"`ddd``bb```a````a`aeeeeeeeeeeaa`eeeeeeeeaaaaaaeeeeeeeee`b`aabb`fff`",
"`ddd`````````````aaeeaaeeeeeeaaaeeeeeeeeeeeeeeeeeaab`b`b`b`bbb`fff`",
"`ddd`bbb```````eeeee`aa``aaeeeaaeeeeeeeaaaaaaaaaaaabbbbbbbbcbb`fff`",
"`ddd`bbbbbeeeeeeeeeaaaaaaaaaeeeeeeeeaaaaa````````a`bbbccccbcbb`fff`",
"`ddd`bb`b`b`b`b`bb```a`aa``aaeeeeeeeaaaaaaaaaaaaaa`b`bbbccccbb`fff`",
"`ddd`bbb`bbbbbbbb``````````aaaeeeeee`a````aa````aa`b`bb`bbbcbb`fff`",
"`ddd`bbcbbbbb``````````````aaaaeeeeee```````aaaaaa`b`bbbbbbcbb`fff`",
"`ddd`bcccccbb`aaa``````aaaaaaa`eeeeee`````aaaa`aaa`b`bb```bbbb`fff`",
"`ddd`bcccbb```a`aaa````aaa```a``eeeeee````a````aaa`b`bbbbbbbbb`fff`",
"`ddd`bccbbbbb`a`aaaaa``a`````aa`eeeeeeaa``a`````aaa``bbbb`bbbb`fff`",
"`ddd`bccbbaaa`a`aaa````a````aaa`eeeeeeaa``aaa```aaaa`b`bbbbbbb`fff`",
"`ddd`bbb`aaaaaaaaaa````a````aaaaeeeeeeaa``aaa```aa`a```````bbb`fff`",
"`ddd`b``aaaaaaaaaa````aa`````aaeeeeeeeaaa``aa```aa`aabbbbbbbbb`fff`",
"`ddd``````````````````a``````aaeeeeeeeaaa``aa```aa`aabbbcbbbbb`fff`",
"`ddd``bb`a`````````````aaaa``aaeeeeeeea`a```a``aaa`a``bbbcbbbb`fff`",
"`ddd`bbb``````````````aaaaaaaa`eeeeeeeaaa````a``aa`a`bbbcccc`b`fff`",
"`ddd`bbb`bbbbbb`aaaaa`aaaaaa``eeeeeeeaa``````a``aaaaabbcccccbb`fff`",
"`ddd`bbb`bbbbbb`aa```````````e`eeeeeaa```````a`aaa`aabbcccbcbb`fff`",
"`ddd`bbb`bbb````````````aaaaaeeeeeeaa````````a```a`aa```bcccbb`fff`",
"`ddd`bbb`bbbbbbbbb`aaaa`aaaaaeeeeeaaa````aa``a```a`aabbbbccbbb`fff`",
"`ddd`bbb`bbbbbbbbbaaaaaaaaaaaeeeee````a``aa``a```a`aabbbbcc`bb`fff`",
"`ddd`bbb``bbbbbccb`aaa``aaaaeeeeee````a``a```a```a`aa````bbbbb`fff`",
"`ddd`bbb`b`bbbbccc`aa`a```a`ee`eee````aa`a```aaa`aaaaaabb`bbbb`fff`",
"`ddd`bbb`bb`bbbccc`aaaaaaaa`ee`ee`aa``aaa``````````````bbbbbbb`fff`",
"`ddd`bcb`bbb`bbccc`aaaa`aa`ee`ee`aaa``a`````````````bb`bbbbcbb`fff`",
"`ddd`cbb`bbbb`bbbb`aaaa`aaaea`eeaaaa``aa`aaa````aaccbb`bccccbb`fff`",
"`ddd`cbb`bb`````````aa````ee``eeaaaa`aaaaaa``aaaaccc`b`````bbb`fff`",
"`ddd`bbbbbbbbbb`aaaaaa````ebb`e`aaaa`a`aaaa```aaaccaccccccb``b`fff`",
"`ddd`bbbbbbbbbbb`aaa```````bb`a`aaaaaa`aa`````accacccccbbcbbb``fff`",
"`ddd`eeebbb`bbb````a```bbbbbb`aaa```aaaaaaaaaaacccccccccbcccbb`fff`",
"`ddd`eeeebbbb`````aa````````b`aaa```aaaa`````a``aaa``ccccbbcbb`fff`",
"`ddd`eeeeeeeeeeeeeaa`eeeeeeee`aeeeeeeeeeeee``aaa``````ccccbcbb`fff`",
"`ddd`eeeeeeeeeeeeeeeeeeeeeeeeeeeeeeeeeeeeeeeeeeeeeebbbbccccbbb`fff`",
"`ddd`eeeeeeeeeeeeeeeeeeeeeeeeeeeeeeeeeeeeeaeeeeeeeeeebbbbcbbbb`fff`",
"`ddd``a`b`a`b`b`bbeeee`eeeeaa`aaaaaaaaaaaaaaaaaeeeeeeebbbbbbbb`fff`",
"`ddd`aabbb`bbbbbbbbbb```aabbbbbbbbbbbbbbbbbbbbbbbeeeeeebbbbbbb`fff`",
"`ddd```````````````````````````````````````````````````````````fff`",
"`dd`fffffffffffffffffffffffffffffffffffffffffffffffffffffffffff`ff`",
"`d`fffffffffffffffffffffffffffffffffffffffffffffffffffffffffffff`f`",
"``fffffffffffffffffffffffffffffffffffffffffffffffffffffffffffffff``",
"```````````````````````````````````````````````````````````````````"
};
