/* XPM */
static char *noname[] = {
/* width height ncolors chars_per_pixel */
"67 57 5 1",
/* colors */
"` c #000000",
"a c #585858",
"b c #FFFF00",
"c c #DFDFDF",
"d c #0000FF",
/* pixels */
"```````````````````````````````````````````````````````````````````",
"``ccccccccccccccccccccccccccccccccccccccccccccccccccccccccccccccc``",
"`c`ccccccccccccccccccccccccccccccccccccccccccccccccccccccccccccc`a`",
"`cc`ccccccccccccccccccccccccccccccccccccccccccccccccccccccccccc`aa`",
"`ccc```````````````````````````````````````````````````````````aaa`",
"`ccc`ddddddddddddddddddddddddddddddddddddddddddddddddddddddddd`aaa`",
"`ccc`ddddddddddddddddddddddddddddddddddddddddddddddddddddddddd`aaa`",
"`ccc`ddddddddddddddddddddddddddddddddddddddddddddddddddddddddd`aaa`",
"`ccc`ddddddddddddddddddddddddddddddddddddddddddddddddddddddddd`aaa`",
"`ccc`ddddddddddddddddddddddddddddddddddddddddddddddddddddddddd`aaa`",
"`ccc`ddddddddddddddddddddddddddddddddddddddddddddddddddddddddd`aaa`",
"`ccc`ddddddddddddddddddddddddddddddddddddddddddddddddddddddddd`aaa`",
"`ccc`dddddddddbbbdddddddddddddddddddddddddddddddddbbbddddddddd`aaa`",
"`ccc`dddddddddbbbdddddddddddddddddddddddddddddddddbbbddddddddd`aaa`",
"`ccc`dddddddddbbbdddddddddddddddddddddddddddddddddbbbddddddddd`aaa`",
"`ccc`dddddddddbbbddddddddbbbbbddddbbbbbbddddddbbbdbbbddddddddd`aaa`",
"`ccc`dddddddddbbbdddddddbbbbbbbdddbbbbbbbddddbbbbbbbbddddddddd`aaa`",
"`ccc`dddddddddbbbddddddbbbbdbbbbddbdddbbbdddbbbbddbbbddddddddd`aaa`",
"`ccc`dddddddddbbbddddddbbbdddbbbdddbbbbbbdddbbbdddbbbddddddddd`aaa`",
"`ccc`dddddddddbbbddddddbbbdddbbbdbbbbbbbbdddbbbdddbbbddddddddd`aaa`",
"`ccc`dddddddddbbbddddddbbbdddbbbdbbbddbbbdddbbbdddbbbddddddddd`aaa`",
"`ccc`dddddddddbbbddddddbbbbdbbbbdbbbddbbbdddbbbddbbbbddddddddd`aaa`",
"`ccc`dddddddddbbbbbbbbddbbbbbbbddbbbbbbbbbdddbbbbbbbbddddddddd`aaa`",
"`ccc`dddddddddbbbbbbbbdddbbbbbddddbbbddbbbddddbbbdbbbddddddddd`aaa`",
"`ccc`ddddddddddddddddddddddddddddddddddddddddddddddddddddddddd`aaa`",
"`ccc`ddddddddddddddddddddddddddddddddddddddddddddddddddddddddd`aaa`",
"`ccc`ddddddddddddddddddddddddddddddddddddddddddddddddddddddddd`aaa`",
"`ccc`ddddddddddddddddddddddddddddddddddddddddddddddddddddddddd`aaa`",
"`ccc`ddddddddddddddddddddddddddddddddddddddddddddddddddddddddd`aaa`",
"`ccc`ddddddddddddddddddddddddddddddddddddddddddddddddddddddddd`aaa`",
"`ccc`dddddddddddddddbbbbbbbdbbbddddddddddddddddddddddddddddddd`aaa`",
"`ccc`ddddddddddddddbbbbbbbbdbbbdddddbbdddddddddddddddddddddddd`aaa`",
"`ccc`dddddddddddddbbbbddddbddddddddbbbdddddddddddddddddddddddd`aaa`",
"`ccc`ddddddddddddbbbbdddddddbbbdddbbbbbbbbbdddddbbdddddddddddd`aaa`",
"`ccc`ddddddddddddbbbddddddddbbbdddbbbbbbdbbbdddbbddddddddddddd`aaa`",
"`ccc`ddddddddddddbbbddddddddbbbddddbbbdddbbbdddbbddddddddddddd`aaa`",
"`ccc`ddddddddddddbbbddddddddbbbddddbbbdddbbbbdbbdddddddddddddd`aaa`",
"`ccc`ddddddddddddbbbddddddddbbbddddbbbddddbbbdbbdddddddddddddd`aaa`",
"`ccc`ddddddddddddbbbbdddddddbbbddddbbbddddbbbbbddddddddddddddd`aaa`",
"`ccc`dddddddddddddbbbbddddbdbbbddddbbbdddddbbbbddddddddddddddd`aaa`",
"`ccc`ddddddddddddddbbbbbbbbdbbbddddbbbbbdddbbbdddddddddddddddd`aaa`",
"`ccc`dddddddddddddddbbbbbbddbbbdddddbbbbdddbbbdddddddddddddddd`aaa`",
"`ccc`ddddddddddddddddddddddddddddddddddddddbbddddddddddddddddd`aaa`",
"`ccc`dddddddddddddddddddddddddddddddddddddbbbddddddddddddddddd`aaa`",
"`ccc`ddddddddddddddddddddddddddddddddddddbbbdddddddddddddddddd`aaa`",
"`ccc`ddddddddddddddddddddddddddddddddddddddddddddddddddddddddd`aaa`",
"`ccc`ddddddddddddddddddddddddddddddddddddddddddddddddddddddddd`aaa`",
"`ccc`ddddddddddddddddddddddddddddddddddddddddddddddddddddddddd`aaa`",
"`ccc`ddddddddddddddddddddddddddddddddddddddddddddddddddddddddd`aaa`",
"`ccc`ddddddddddddddddddddddddddddddddddddddddddddddddddddddddd`aaa`",
"`ccc`ddddddddddddddddddddddddddddddddddddddddddddddddddddddddd`aaa`",
"`ccc`ddddddddddddddddddddddddddddddddddddddddddddddddddddddddd`aaa`",
"`ccc```````````````````````````````````````````````````````````aaa`",
"`cc`aaaaaaaaaaaaaaaaaaaaaaaaaaaaaaaaaaaaaaaaaaaaaaaaaaaaaaaaaaa`aa`",
"`c`aaaaaaaaaaaaaaaaaaaaaaaaaaaaaaaaaaaaaaaaaaaaaaaaaaaaaaaaaaaaa`a`",
"``aaaaaaaaaaaaaaaaaaaaaaaaaaaaaaaaaaaaaaaaaaaaaaaaaaaaaaaaaaaaaaa``",
"```````````````````````````````````````````````````````````````````"
};
