/* XPM */
static char *noname[] = {
/* width height ncolors chars_per_pixel */
"67 57 5 1",
/* colors */
"` c #000000",
"a c #00FFFF",
"b c #585858",
"c c #FFFF00",
"d c #DFDFDF",
/* pixels */
"```````````````````````````````````````````````````````````````````",
"``bbbbbbbbbbbbbbbbbbbbbbbbbbbbbbbbbbbbbbbbbbbbbbbbbbbbbbbbbbbbbbb``",
"`b`bbbbbbbbbbbbbbbbbbbbbbbbbbbbbbbbbbbbbbbbbbbbbbbbbbbbbbbbbbbbb`d`",
"`bb`bbbbbbbbbbbbbbbbbbbbbbbbbbbbbbbbbbbbbbbbbbbbbbbbbbbbbbbbbbb`dd`",
"`bbb```````````````````````````````````````````````````````````ddd`",
"`bbb`aaaaaaaaaaaaaaaaaaaaaaaaaaaaaaaaaaaaaaaaaaaaaaaaaaaaaaaaa`ddd`",
"`bbb`aaaaaaaaaaaaaaaaaaaaaaaaaaaaaaaaaaaaaaaaaaaaaaaaaaaaaaaaa`ddd`",
"`bbb`aaaaaaaaaaaaaaaaaaaaaaaaaaaaaaaaaaaaaaaaaaaaaaaaaaaaaaaaa`ddd`",
"`bbb`aaaaaaaaaaaaaaaaaaaaaaaaaaaaaaaaaaaaaaaaaaaaaaaaaaaaaaaaa`ddd`",
"`bbb`aaaaaaaaaaaaaaaaaaaaaaaaaaaaaaaaaaaaaaaaaaaaaaaaaaaaaaaaa`ddd`",
"`bbb`aaaaaaaaaaaaaaaaaaaaaaaaaaaaaaaaaaaaaaaaaaaaaaaaaaaaaaaaa`ddd`",
"`bbb`aaaaaaaaaaaaaaaaaaaaaaaaaaaaaaaaaaaaaaaaaaaaaaaaaaaaaaaaa`ddd`",
"`bbb`aaaaaaaaacccaaaaaaaaaaaaaaaaaaaaaaaaaaaaaaaaacccaaaaaaaaa`ddd`",
"`bbb`aaaaaaaaaccc`aaaaaaaaaaaaaaaaaaaaaaaaaaaaaaaaccc`aaaaaaaa`ddd`",
"`bbb`aaaaaaaaaccc`aaaaaaaaaaaaaaaaaaaaaaaaaaaaaaaaccc`aaaaaaaa`ddd`",
"`bbb`aaaaaaaaaccc`aaaaaaacccccaaaaccccccaaaaaacccaccc`aaaaaaaa`ddd`",
"`bbb`aaaaaaaaaccc`aaaaaacccccccaaacccccccaaaacccccccc`aaaaaaaa`ddd`",
"`bbb`aaaaaaaaaccc`aaaaacccc`ccccaac```ccc`aacccc``ccc`aaaaaaaa`ddd`",
"`bbb`aaaaaaaaaccc`aaaaaccc``accc`aacccccc`aaccc``accc`aaaaaaaa`ddd`",
"`bbb`aaaaaaaaaccc`aaaaaccc`aaccc`cccccccc`aaccc`aaccc`aaaaaaaa`ddd`",
"`bbb`aaaaaaaaaccc`aaaaaccc`aaccc`ccc``ccc`aaccc`aaccc`aaaaaaaa`ddd`",
"`bbb`aaaaaaaaaccc`aaaaaccccacccc`ccc`accc`aaccc`acccc`aaaaaaaa`ddd`",
"`bbb`aaaaaaaaaccccccccaaccccccc``cccccccccaaacccccccc`aaaaaaaa`ddd`",
"`bbb`aaaaaaaaacccccccc`aaccccc``aaccc``ccc`aaaccc`ccc`aaaaaaaa`ddd`",
"`bbb`aaaaaaaaaa````````aaa`````aaaa```aa```aaaa```a```aaaaaaaa`ddd`",
"`bbb`aaaaaaaaaaaaaaaaaaaaaaaaaaaaaaaaaaaaaaaaaaaaaaaaaaaaaaaaa`ddd`",
"`bbb`aaaaaaaaaaaaaaaaaaaaaaaaaaaaaaaaaaaaaaaaaaaaaaaaaaaaaaaaa`ddd`",
"`bbb`aaaaaaaaaaaaaaaaaaaaaaaaaaaaaaaaaaaaaaaaaaaaaaaaaaaaaaaaa`ddd`",
"`bbb`aaaaaaaaaaaaaaaaaaaaaaaaaaaaaaaaaaaaaaaaaaaaaaaaaaaaaaaaa`ddd`",
"`bbb`aaaaaaaaaaaaaaaaaaaaaaaaaaaaaaaaaaaaaaaaaaaaaaaaaaaaaaaaa`ddd`",
"`bbb`aaaaaaaaaaaaaaacccccccacccaaaaaaaaaaaaaaaaaaaaaaaaaaaaaaa`ddd`",
"`bbb`aaaaaaaaaaaaaacccccccc`ccc`aaaaccaaaaaaaaaaaaaaaaaaaaaaaa`ddd`",
"`bbb`aaaaaaaaaaaaacccc````c`a```aaaccc`aaaaaaaaaaaaaaaaaaaaaaa`ddd`",
"`bbb`aaaaaaaaaaaacccc``aaaa`cccaaacccccccccaaaaaccaaaaaaaaaaaa`ddd`",
"`bbb`aaaaaaaaaaaaccc``aaaaaaccc`aacccccc`cccaaacc``aaaaaaaaaaa`ddd`",
"`bbb`aaaaaaaaaaaaccc`aaaaaaaccc`aaaccc```ccc`aacc`aaaaaaaaaaaa`ddd`",
"`bbb`aaaaaaaaaaaaccc`aaaaaaaccc`aaaccc`aaccccacc``aaaaaaaaaaaa`ddd`",
"`bbb`aaaaaaaaaaaaccc`aaaaaaaccc`aaaccc`aaaccc`cc`aaaaaaaaaaaaa`ddd`",
"`bbb`aaaaaaaaaaaaccccaaaaaaaccc`aaaccc`aaaccccc``aaaaaaaaaaaaa`ddd`",
"`bbb`aaaaaaaaaaaaaccccaaaacaccc`aaaccc`aaaacccc`aaaaaaaaaaaaaa`ddd`",
"`bbb`aaaaaaaaaaaaaacccccccc`ccc`aaacccccaaaccc``aaaaaaaaaaaaaa`ddd`",
"`bbb`aaaaaaaaaaaaaaacccccc``ccc`aaaacccc`aaccc`aaaaaaaaaaaaaaa`ddd`",
"`bbb`aaaaaaaaaaaaaaaa``````aa```aaaaa````aacc``aaaaaaaaaaaaaaa`ddd`",
"`bbb`aaaaaaaaaaaaaaaaaaaaaaaaaaaaaaaaaaaaaccc`aaaaaaaaaaaaaaaa`ddd`",
"`bbb`aaaaaaaaaaaaaaaaaaaaaaaaaaaaaaaaaaaaccc``aaaaaaaaaaaaaaaa`ddd`",
"`bbb`aaaaaaaaaaaaaaaaaaaaaaaaaaaaaaaaaaaaa```aaaaaaaaaaaaaaaaa`ddd`",
"`bbb`aaaaaaaaaaaaaaaaaaaaaaaaaaaaaaaaaaaaaaaaaaaaaaaaaaaaaaaaa`ddd`",
"`bbb`aaaaaaaaaaaaaaaaaaaaaaaaaaaaaaaaaaaaaaaaaaaaaaaaaaaaaaaaa`ddd`",
"`bbb`aaaaaaaaaaaaaaaaaaaaaaaaaaaaaaaaaaaaaaaaaaaaaaaaaaaaaaaaa`ddd`",
"`bbb`aaaaaaaaaaaaaaaaaaaaaaaaaaaaaaaaaaaaaaaaaaaaaaaaaaaaaaaaa`ddd`",
"`bbb`aaaaaaaaaaaaaaaaaaaaaaaaaaaaaaaaaaaaaaaaaaaaaaaaaaaaaaaaa`ddd`",
"`bbb`aaaaaaaaaaaaaaaaaaaaaaaaaaaaaaaaaaaaaaaaaaaaaaaaaaaaaaaaa`ddd`",
"`bbb```````````````````````````````````````````````````````````ddd`",
"`bb`ddddddddddddddddddddddddddddddddddddddddddddddddddddddddddd`dd`",
"`b`ddddddddddddddddddddddddddddddddddddddddddddddddddddddddddddd`d`",
"``ddddddddddddddddddddddddddddddddddddddddddddddddddddddddddddddd``",
"```````````````````````````````````````````````````````````````````"
};
