/* XPM */
static char *noname[] = {
/* width height ncolors chars_per_pixel */
"67 57 5 1",
/* colors */
"` c #000000",
"a c #585858",
"b c #FFFF00",
"c c #DFDFDF",
"d c #0000FF",
/* pixels */
"```````````````````````````````````````````````````````````````````",
"``ccccccccccccccccccccccccccccccccccccccccccccccccccccccccccccccc``",
"`c`ccccccccccccccccccccccccccccccccccccccccccccccccccccccccccccc`a`",
"`cc`ccccccccccccccccccccccccccccccccccccccccccccccccccccccccccc`aa`",
"`ccc```````````````````````````````````````````````````````````aaa`",
"`ccc`ddddddddddddddddddddddddddddddddddddddddddddddddddddddddd`aaa`",
"`ccc`ddddddddddddddddddddddddddddddddddddddddddddddddddddddddd`aaa`",
"`ccc`ddddddddddddddddddddddddddddddddddddddddddddddddddddddddd`aaa`",
"`ccc`ddddddddddddddddddddddddddddddddddddddddddddddddddddddddd`aaa`",
"`ccc`ddddddddddddddddddddddddddddddddddddddddddddddddddddddddd`aaa`",
"`ccc`ddddddddddddddddddddddddddddddddddddddddddddddddddddddddd`aaa`",
"`ccc`ddddddddddddddddddddddddddddddddddddddddddddddddddddddddd`aaa`",
"`ccc`dddddddddddbbbdddddbbdddddddddddddddddddddddddddddddddddd`aaa`",
"`ccc`dddddddddddbbbdddddbbdddddddddddddddddddddddddddddddddddd`aaa`",
"`ccc`dddddddddddbbbbddddbbdddddddddddddddddddddddddddddddddddd`aaa`",
"`ccc`dddddddddddbbbbbdddbbddddbbbbbdddbbbdddbbdddbbddddddddddd`aaa`",
"`ccc`dddddddddddbbbbbbddbbdddbbbbbbbddbbbddbbbbddbbddddddddddd`aaa`",
"`ccc`dddddddddddbbdbbbddbbddbbbdddbbbddbbddbbbbddbbddddddddddd`aaa`",
"`ccc`dddddddddddbbddbbbdbbddbbbdddbbbddbbddbbbbdbbdddddddddddd`aaa`",
"`ccc`dddddddddddbbddbbbbbbddbbbbbbbbbddbbbdbdbbdbbdddddddddddd`aaa`",
"`ccc`dddddddddddbbdddbbbbbddbbbbbbbbbddbbbbbdbbbbbdddddddddddd`aaa`",
"`ccc`dddddddddddbbddddbbbbddbbbdddddddddbbbbdbbbbbdddddddddddd`aaa`",
"`ccc`dddddddddddbbdddddbbbdddbbbbbbbbdddbbbdddbbbddddddddddddd`aaa`",
"`ccc`dddddddddddbbdddddbbbdddddbbbbbbdddbbbdddbbbddddddddddddd`aaa`",
"`ccc`ddddddddddddddddddddddddddddddddddddddddddddddddddddddddd`aaa`",
"`ccc`ddddddddddddddddddddddddddddddddddddddddddddddddddddddddd`aaa`",
"`ccc`ddddddddddddddddddddddddddddddddddddddddddddddddddddddddd`aaa`",
"`ccc`ddddddddddddddddddddddddddddddddddddddddddddddddddddddddd`aaa`",
"`ccc`ddddddddddddddddddddddddddddddddddddddddddddddddddddddddd`aaa`",
"`ccc`ddddddddddddddddddddddddddddddddddddddddddddddddddddddddd`aaa`",
"`ccc`dddddddddddddddbbbbbbbddbbbdddddddddddddddddddddddddddddd`aaa`",
"`ccc`ddddddddddddddbbbbbbbbddbbbddddbbdddddddddddddddddddddddd`aaa`",
"`ccc`dddddddddddddbbbbddddbddddddddbbbdddddddddddddddddddddddd`aaa`",
"`ccc`ddddddddddddbbbbddddddddbbbddbbbbbbbbbdddddbbdddddddddddd`aaa`",
"`ccc`ddddddddddddbbbdddddddddbbbddbbbbbbdbbbdddbbddddddddddddd`aaa`",
"`ccc`ddddddddddddbbbdddddddddbbbdddbbbdddbbbdddbbddddddddddddd`aaa`",
"`ccc`ddddddddddddbbbdddddddddbbbdddbbbdddbbbbdbbdddddddddddddd`aaa`",
"`ccc`ddddddddddddbbbdddddddddbbbdddbbbddddbbbdbbdddddddddddddd`aaa`",
"`ccc`ddddddddddddbbbbddddddddbbbdddbbbddddbbbbbddddddddddddddd`aaa`",
"`ccc`dddddddddddddbbbbddddbddbbbdddbbbdddddbbbbddddddddddddddd`aaa`",
"`ccc`ddddddddddddddbbbbbbbbddbbbdddbbbbbdddbbbdddddddddddddddd`aaa`",
"`ccc`dddddddddddddddbbbbbbdddbbbddddbbbbdddbbbdddddddddddddddd`aaa`",
"`ccc`ddddddddddddddddddddddddddddddddddddddbbddddddddddddddddd`aaa`",
"`ccc`dddddddddddddddddddddddddddddddddddddbbbddddddddddddddddd`aaa`",
"`ccc`ddddddddddddddddddddddddddddddddddddbbbdddddddddddddddddd`aaa`",
"`ccc`ddddddddddddddddddddddddddddddddddddddddddddddddddddddddd`aaa`",
"`ccc`ddddddddddddddddddddddddddddddddddddddddddddddddddddddddd`aaa`",
"`ccc`ddddddddddddddddddddddddddddddddddddddddddddddddddddddddd`aaa`",
"`ccc`ddddddddddddddddddddddddddddddddddddddddddddddddddddddddd`aaa`",
"`ccc`ddddddddddddddddddddddddddddddddddddddddddddddddddddddddd`aaa`",
"`ccc`ddddddddddddddddddddddddddddddddddddddddddddddddddddddddd`aaa`",
"`ccc`ddddddddddddddddddddddddddddddddddddddddddddddddddddddddd`aaa`",
"`ccc```````````````````````````````````````````````````````````aaa`",
"`cc`aaaaaaaaaaaaaaaaaaaaaaaaaaaaaaaaaaaaaaaaaaaaaaaaaaaaaaaaaaa`aa`",
"`c`aaaaaaaaaaaaaaaaaaaaaaaaaaaaaaaaaaaaaaaaaaaaaaaaaaaaaaaaaaaaa`a`",
"``aaaaaaaaaaaaaaaaaaaaaaaaaaaaaaaaaaaaaaaaaaaaaaaaaaaaaaaaaaaaaaa``",
"```````````````````````````````````````````````````````````````````"
};
