/* XPM */
static char *noname[] = {
/* width height ncolors chars_per_pixel */
"67 57 8 1",
/* colors */
"` c #000000",
"a c #7F7F7F",
"b c #FFBF7F",
"c c #00FF00",
"d c #007F00",
"e c #585858",
"f c #7F7FFF",
"g c #DFDFDF",
/* pixels */
"```````````````````````````````````````````````````````````````````",
"``eeeeeeeeeeeeeeeeeeeeeeeeeeeeeeeeeeeeeeeeeeeeeeeeeeeeeeeeeeeeeee``",
"`e`eeeeeeeeeeeeeeeeeeeeeeeeeeeeeeeeeeeeeeeeeeeeeeeeeeeeeeeeeeeee`g`",
"`ee`eeeeeeeeeeeeeeeeeeeeeeeeeeeeeeeeeeeeeeeeeeeeeeeeeeeeeeeeeee`gg`",
"`eee```````````````````````````````````````````````````````````ggg`",
"`eee`fffffffffffffffffffffffffffffffffffffffffffffffffffffffff`ggg`",
"`eee`fffffffffffffffffffffffffffffffffffffffffffffffffffffffff`ggg`",
"`eee`ffffffffffffffffffcccccfffff`aaafffffffffffffffffffffffff`ggg`",
"`eee`ffffffffffffffccccccccbccbbaa`a`a`fffffffffffffffffffffff`ggg`",
"`eee`fffffffffffffccccbcbcbcbcccb``````````````````affffffffff`ggg`",
"`eee`fffffffffffffccccbcacccbbbcb`aa`````aa`aa`a````ffffffffff`ggg`",
"`eee`ffffffffffcccccbcccaaccccccb`bb`aa````````a`a```affffffff`ggg`",
"`eee`ffffffffffccccccccccccccccbb`ba`aaa`a```````a```affffffff`ggg`",
"`eee`ffffffffcccccccccccccccacccb`````````````````````ffffffff`ggg`",
"`eee`fffffffccccbbbb`bbbbbbbbbabb`a`````````a````a````afffffff`ggg`",
"`eee`fffffccccccccb```````````````````````````````````aaffffff`ggg`",
"`eee`fffffbbbbbbbbbb`ba``a`a````````````````````a``````a`a`fff`ggg`",
"`eee`fffff```````````a``a``aa`bb`aa```a`````aa`````````a`affff`ggg`",
"`eee`fffb`bbb`````````a`a``aa`aa`a`a`aa``a``a``````a```a`affff`ggg`",
"`eee`fffb```````````````````````````````````````a````````affff`ggg`",
"`eee`fffb`aaa`aba`aa`aa`a``aa`aa`bb`a``a`ab````aa````````affff`ggg`",
"`eee`fffb`aaa`aaa`aa`aa`aaaaa`aa``bb`a`a````aa`````a``a``affff`ggg`",
"`eee`fffb``````````````````````````b```a```````````a``a``affff`ggg`",
"`eee`fffb`ccccccccccccccc`a```aa`bbabb`a`aa`aa`a``````a``affff`ggg`",
"`eee`fffb`ccccccccccccccc```````````b`aa`aa`ba```````````affff`ggg`",
"`eee`ffbb`ccccccccccccccc`a```bbbbccbb```````````a````a```ffff`ggg`",
"`eee`ffbb`ccccccccccccccc`aa``bbccccbbbbbbbbb````a````aa`affff`ggg`",
"`eee`ffbb`````````````````````bbbbcbccbbaaab``a```````ab`affff`ggg`",
"`eee`fffb`baa`aa`aa`aa`aa`b``ccdddccbccbbaa`a````````````affff`ggg`",
"`eee`fffb`baa`aa`aa`aa`a``bbbcbbbcdccbbbbbd`aa`a`a````a```ffff`ggg`",
"`eee`fffb`````a```a```````bbbddcbccbcbccbbb`aa```a``a`a````fff`ggg`",
"`eee`fffb`aaa`aa`bb`aa`ab`bbbcccbbccbbccbbb`aa`a````a````aafff`ggg`",
"`eee`fffb`aab`a``a``a``ab`bbdccbbbbccbccbab`````````````aa`fff`ggg`",
"`eee`fffb`````````````````bcccccbdcbcbbcbbb`a``a```````aa`afff`ggg`",
"`eee`fffb`aaa`aa`a``a```a`bcccbccccbccccbba`a``a`a````aa`aafff`ggg`",
"`eee`fffb`aaa``a`a``a``aa``cbbbbdbbbcbbccaa`a``a`a````a`aaffff`ggg`",
"`eee`ffbb````````````a````bcbcbbbbbbbdbcbbb`a``````````aafffff`ggg`",
"`eee`ffbb`bba`aa`aa````aa`bccbcbbbdbcbcbbbb`a``a`b``````afffff`ggg`",
"`eee`ffbb`bba`bb`aa`aa`ab``ccc`ccccccbbbb``````a``````aaa``fff`ggg`",
"`eee`ffbb`````````````````bcccbbccbbbbbbbbb`aa`a`a`aa``````fff`ggg`",
"`eee`fffb`aba`aa`aa`ba`aa`bccbbbbbbbbbbbbbb`aa```a`aa`bbb``fff`ggg`",
"`eee`fffb`````````````````cccb`a`````````````````a`aa`bbb``fff`ggg`",
"`eee`fffdbbbb`bb`ab`baaabbcccb`aaa`aaa`aaa`a`aa``a`aa``bb``fff`ggg`",
"`eee`fffbbffbbbbbbb`baabbcccbb```````````````````a`aaa`bb``fff`ggg`",
"`eee`fffdbfbfbbbabbbbbbbbccacb``ba``aa`aaa`aa``a```````bffffff`ggg`",
"`eee`fffbbffffbbbabbdbbbbbbccb`bba`````aaa`aa`a``b`bbb`bffffff`ggg`",
"`eee`ffddbfffffbbbbbbbbbbbbbbb```````````````````bbbbb`bffffff`ggg`",
"`eee`ffdbbbffffdbbbbdbbbbbbbbb`bbb```b`aaa`aaaaa`bbbbb`bbfffff`ggg`",
"`eee`fffbbbfffffbbbbdbbbbbbbbb`bbb`bbb`aaa`aaaaa`bbbbb`bbfffff`ggg`",
"`eee`fffbbbfffffbbbbbbbbbdbbbbbb`````````````````bbbbb`bbfffff`ggg`",
"`eee`fffbbbbbfffdbbbbbbbbbbbbbbbbbbbbbbbbbbbbbbbbbbbbb`bbbdfff`ggg`",
"`eee`ffdbbbbbbbbbbbbbbdbbdbbbbbbbbbbbbbbbbbbbbbbbbbbbb`bbbbfff`ggg`",
"`eee```````````````````````````````````````````````````````````ggg`",
"`ee`ggggggggggggggggggggggggggggggggggggggggggggggggggggggggggg`gg`",
"`e`ggggggggggggggggggggggggggggggggggggggggggggggggggggggggggggg`g`",
"``ggggggggggggggggggggggggggggggggggggggggggggggggggggggggggggggg``",
"```````````````````````````````````````````````````````````````````"
};
