/* XPM */
static char *noname[] = {
/* width height ncolors chars_per_pixel */
"67 57 8 1",
/* colors */
"` c #000000",
"a c #7F7F7F",
"b c #FFBF7F",
"c c #00FF00",
"d c #585858",
"e c #7F7FFF",
"f c #7B00FF",
"g c #DFDFDF",
/* pixels */
"```````````````````````````````````````````````````````````````````",
"``ddddddddddddddddddddddddddddddddddddddddddddddddddddddddddddddd``",
"`d`ddddddddddddddddddddddddddddddddddddddddddddddddddddddddddddd`g`",
"`dd`ddddddddddddddddddddddddddddddddddddddddddddddddddddddddddd`gg`",
"`ddd```````````````````````````````````````````````````````````ggg`",
"`ddd`bbbb`bbbbbbb`bbcbbbbbbbcbbbbbb`bbbbbcbbbbbbbcccbbbb`bbbbb`ggg`",
"`ddd`bbbbb`bbbbbb`bbbbbb`bbcbcbbbbb`bbbbbbbbbcbbbbbccbbb`bbbbb`ggg`",
"`ddd`bbbbb`cbcbbb`bbb```a``bbbbcbbc`bcb`b```bbbcbbccbbb``bbbbb`ggg`",
"`ddd`bcbbb`bbbbbb`bb`aaaaa`bbbbbb`b`b`````````bcbbbbbbb``bbbbb`ggg`",
"`ddd`bbbbb`bbbbbb`bb`aa`````bbbb`bb`bbbbaa``bbbb`bbbbb`bbbbbbb`ggg`",
"`ddd`bbbbb`bbbbbb`b``aa```cccbb`bbb`bbbb`a`bbbbb`cb```bbbbccbb`ggg`",
"`ddd```````bbb``````baab`bcccccbbb```bbb`aa`bbbb`bb``bbbbbcbcb`ggg`",
"`ddd`b`bbb`bbb`bb````bbb``cccccbb`a```bb``aaabaa`ab`bbbbbbbbbb`ggg`",
"`ddd`bb`bb`bb`bbb``aa``bccccccbbb`````aaaaaaa`aa`ab`ccbbbbbbbb`ggg`",
"`ddd`bbb`b```bb`a`aaaa``cbcc`````a`aaaaaaaaaa`aa`a```````bbbbb`ggg`",
"`ddd`bbbb`aaaa``a`aaaaaccccbaa`aaa`````````aaaaa`a``bbaaaabbbb`ggg`",
"`ddd`bbb```aa`aaa`aaaaaa```aaa`aaaa`aaaaaaa`````````a`aaaabbbb`ggg`",
"`ddd````````aaaaa`aaa``````aaa`aaaa`aaaaaaaa`aa``aa`aaaaaabbbb`ggg`",
"`ddd`a`aa`````````aaaa`aaa`aaa`aaaa`aaa``aaa`aaa`aa`aaaaaabbbb`ggg`",
"`ddd`a``aa`aaaaaa`aaaa`aaa`aaa`aaaa`aaa````````````````````````ggg`",
"`ddd`aaa``aaaaaaa```````````````````aaa``aaa`aaa`aa`aaaaa`aabb`ggg`",
"`ddd`aaaaa`aaaaaa`aaaa`aaa`aaa`aaa``aaa``aaa`aaa`aa`aaaaa`aabb`ggg`",
"`ddd`aaaaaa``aaaa`aaaa`aaa``aa``````a````````aaa`aa`aaaaa`aabb`ggg`",
"`ddd`eaaeaaa``````aaaa`aaa``aa`a````eeee``````````````````aabb`ggg`",
"`ddd`eeaeaaaaaaaa`aaaa`aaa`a```aaeeeecceee`a`aaaaaa`aaa`a`a`bb`ggg`",
"`ddd`eeea`````````aaaa`aaa`aaa``aeccccccceaa`aaaaaa`aaa`a`a`bb`ggg`",
"`ddd`eeeeaaaa`aaa`aaaa`aaa`a`a``aecccccccea`aaaa``````````a`bb`ggg`",
"`ddd`eeeeaaaa`aaa```````````````aecccccceea`aaaa`aa`aaa`a`a`bb`ggg`",
"`ddd`eeeea````````aa`aa`````a``aaeeeeccceaa``````aa`aaa`a`a`bb`ggg`",
"`ddd`eeeeeaaa`aaaaaa``aa```aa``aaa`aeeeeea``aaa`aaa`aaa`a```bb`ggg`",
"`ddd`eeeeeaaa`aaaaaa`aaaaa`aa``aaaaa``aaaaaaaaa`aaa`aaa`aaaabb`ggg`",
"`ddd`eeeeeaeeeeae`aa`aa`a`````````a``````aaaaaa`aaa`aaa`aaaab``ggg`",
"`ddd`eeeeeaeee`eeeee`aaaa``aa``a`aa`````a`aaaaa`aaa``````````a`ggg`",
"`ddd`eeeeeeeeeeeeeeeeeee`a``````````````````````````aa``aa`a`a`ggg`",
"`ddd`eeeeeeeeeeeeeeeeeeeeaeeaa`aaaaa``aaaaaaaaaaaaaaaaa`aaa``a`ggg`",
"`ddd`eeeeeeeeeeeeeeeeeeeeaeaaa`````aaaa```````````aaaaa`a`aa`a`ggg`",
"`ddd`eeeeeeeeeeeeeeeeeeeeeeeeeaaa``aeeeeee`eee`aaa`aaaa`a`aaa``ggg`",
"`ddd`eeeeeeeeeeeeeeefeeeeeeeeeaae`eeeeaaaeeeeee``aa`aaa`aaaaa``ggg`",
"`ddd`eeeeeeeeeeeeeeeeeeeeeeeeeeee`eeeeeeeeeeeaee`eaa`````aaaa``ggg`",
"`ddd`eeeeeeeeeeeeeeeeeeeeeeeeeeee`ee`e````e`eeeeeeeaa`a`a``````ggg`",
"`ddd`eeefeeeeeeeeeeeeeeeeeeeee```````````````aaaeeeaaa``aa``aa`ggg`",
"`ddd`eeeeeeeeeeeeeeeeeeeeeeeeee``aaa````aaaaaa`aeeeeeaa`aaa`aa`ggg`",
"`ddd`eeeeeeeeeeeeefeeeeeeeeeeee``aaa`````````````eeeeeea`aaaaa`ggg`",
"`ddd`eeeeeeeeeeeeeeeeeeeeeeeee``aaaa``caaa``b``aaaaee`eeeeaaaa`ggg`",
"`ddd`eeeeeeeeeeeeeeeeeeeeeeeee`aaaaa``aaaa``b``aaaaaee`eeeaeaa`ggg`",
"`ddd`eeeeeeeeeeeeeeeeeeeeeeeeeaaaaaa``aaaa``b```````b`b`eeaeea`ggg`",
"`ddd`eeeeeeeefeeeeeeeeeeeeeeee``````````````````bb`bbbbb`b`eee`ggg`",
"`ddd`eeeeeeeeeeeeeeeeefeeeeeeeee```a`aaaaaa`bbbbb``bbbbb`bb`b``ggg`",
"`ddd`eeeeeeeeeeeeeeeeeeeeeeeeeeeaa`a``aaaaa`cccb`a`bbbbb`bbbbb`ggg`",
"`ddd`eeeeeeeeeeeeeeeeeeeeefeeeee```aa````````````c````````bbbb`ggg`",
"`ddd`eeeeffeeeeeeeeeeeeeeeeeeeee`a`aa```bbbbbbbbbb`bbbbbbbbbbb`ggg`",
"`ddd`eeeeeeeeeeeeeeeeeeeeeeeeeeeaa`aa`bbbbbbbbbbbbbbbbbbbbbbbb`ggg`",
"`ddd```````````````````````````````````````````````````````````ggg`",
"`dd`ggggggggggggggggggggggggggggggggggggggggggggggggggggggggggg`gg`",
"`d`ggggggggggggggggggggggggggggggggggggggggggggggggggggggggggggg`g`",
"``ggggggggggggggggggggggggggggggggggggggggggggggggggggggggggggggg``",
"```````````````````````````````````````````````````````````````````"
};
