/* XPM */
static char *noname[] = {
/* width height ncolors chars_per_pixel */
"64 64 9 1",
/* colors */
"` c #000000",
"a c #7F7F7F",
"b c #3F3F3F",
"c c #007F00",
"d c #997E4C",
"e c #00E600",
"f c #FFFFFF",
"g c #CC7E66",
"h c #BFBFBF",
/* pixels */
"cccccccccccccccccccccccccccccccccccccccccccccccccccccccccccccccc",
"cgggggggggggggegaaaaagegggegggeggggggghhhhhhhhhggggggggggggggggc",
"cgggggeeggggggggaaaaagceggggggeggggghhhbbbbbbbhhhggggggggggggggc",
"cggggccgggggggggaaaaaggggggggggggghhbbbbbbbbbbbbbhhggggggggggggc",
"cgggggggggggeggeaaaaagggggggegeghhbbbbbbbbbbbbbbbgbhhggggggggggc",
"cgggaaaaaaaaaaaaaaaaaggggggccgehbbbbbb````````bbbbbbbhgggggggggc",
"cgegaaaaaaaaaaaaaaaaaggggggggghbbbbb``bbbbbbbb``bbbbbbhgggeggggc",
"cgegaaaaaaaaaaaaaaaaaggeggegghbbbb``bbbbbbbbbbbb``bbbbbhgggggggc",
"aaaaaaaaaaaaaaaaaaaaaggggcgghbbbb`bbbb```````bbbbb``bbbhgggggggc",
"aaaaaaaaaaaaaaaaaaaaaggggggh`bbb`bbb``bbbbbbb``bbbb``bbbhggggggc",
"aaaaaaaabaabaabaabaaagggggghbbb`bb``bbbbbbbbbbb``bbb`bbbhggggegc",
"aaaaaaaaaaaaaaaaaaaaagggggh`bb````bbbb``````bbbbb`bb``bbbhgggggc",
"aaaaaaaaaaaaaaaaaaaaagggghh`b```abb```bbbbbb``bbbb`````bbhgggggc",
"cgggaaaaaaaaaaaaaaaaagegghhbb`b`bb``bbbbbbbbbb``bbb`a``bbhgggggc",
"cgggaaaaaaaaaaaaaaaaaggghfhb`bb`b`bb`b`b`b`b`bbb`bb``bb`bbhggggc",
"cgggaaaaaaaaaaaaaaaaaggghfhb`b`b`bbbbbbbbbbbbbbbb`bb`bb`bbhggggc",
"cgggaaaaaaaaaaaaaaaaaggbffhb`b`b```````````````````b`bb`bbhggggc",
"cgggaaaabaabaabaabaaagbbffhbbb``baabbbbbbbbbbbbbbb`b`bbb`bhggggc",
"cgggaaaaaaaaaaaaaaaaa`bbffhbb`b`bbbbbbbbbbbbbbbbbb`bb`bb`bhggggc",
"cgggaaaaaaaaaaaaaaaaaabfffhbb``b`````````````````bb`b`bb`bhdgggc",
"cgegaaaaaaaaaaaaaaaaa`ffffhbb``b`cccccccchchcccc`bb`b`bb`bhdgggc",
"cgcgaaaaaaaaaaaaaaaaafhfffhbb``b`ccccccchhhccccc`bb`b`bb`bhdgggc",
"cgggaaaaaaaaaaaaaaaaafffffhbb``b`ccccccchccccccc`bb`b`bb`bhdgggc",
"cgggaaaaaaaaaaaaaaaaafhfhfhbb``b`ceeeeeeeeeeeeec`bb`b`bb`bhdgggc",
"cgggaaaabaabaabaabaaafhfffhbb``b`ceeeeeeeeeeeeec`bb`b`bb`bhdgggc",
"cgggaaaaaaaaaaaaaaaaafffhhhbb``b`ceecceeeeecceec`bb`b`bb`bhdgggc",
"cgggaaaaaaaaaaaaaaaaafhbhhhbb``a`ceeeeeeeeeeeeec`bb`b`bb`bhdeggc",
"cgggaaaaaaaaaaaaaaaaafbbhfhbb``b`ceeeeeeeeeeeeec`ab`b`bb`bhdgggc",
"cgggaaaaaaaaaaaaaaaaa`bbhhhbb``b`ceecceeeeecceec`bb`b`bb`bhdgggc",
"cgggaaaaaaaaaaaaaaaaaabhhhhbb``b`ceeeeeeeeeeeeec`bb`b`bb`bhdgggc",
"cgggaaaaaaaaaaaaaaaaa`hfhhhbb``a`ceeeeeeeeeeeeec`bb`b`bb`bhdgggc",
"cgggaaaabaabaabaabaaaghhhhhbb``b`ccececececececc`ab`b`bb`bhdgggc",
"cgggaaaaaaaaaaaaaaaaaghhhhhbb``b`ceeeeeeeeeeeeec`bb`b`bb`bhdgggc",
"cgggaaaaaaaaaaaaaaaaaghhhhhbb``b`ceeeeeeeeeeeeec`bb`b`bb`bhdgggc",
"cgggaaaaaaaaaaaaaaaaaghhhhhbb``a`ceecceeeeecceec`bb`b`bb`bhdgggc",
"cgegaaaaaaaaaaaaaaaaaghhhhhbb``b`ceeeeeeeeeeeeec`ab`b`bb`bhdggec",
"cgggaaaaaaaaaaaaaaaaaghbhhhbb``b`ceeeeeeeeeeeeec`bb`b`bb`bhdgggc",
"cgggaaaaaaaaaaaaaaaaagbbhhhbb``b`ceecceeeeecceec`bb`b`bb`bhdgggc",
"cgggaaaabaabaabaabaaa`bbhhhbb``b`ceeeeeeeeeeeeec`bb`b`bb`bhdgggc",
"cgggaaaaaaaaaaaaaaaaaabhhhhbb``b`ceeeeeeeeeeeeec`bb`b`bb`bhdgggc",
"cgggaaaaaaaaaaaaaaaaa`hhhhhbb``b`cccccccchchcccc`bb`b`bb`bhdgggc",
"cgggaaaaaaaaaaaaaaaaaghhhhhbb``b`ccccccchhhccccc`bb`b`bb`bhdgggc",
"cgggaaaaaaaaaaaaaaaaaghhhhhbb`b``ccccccchccccccc`b`bb`bb`bhdgggc",
"cgggaaaaaaaaaaaaaaaaaghhhhhbbb```````````````````b`b`bbb`bhdgggc",
"cgggaaaaaaaaaaaaaaaaaghhhhhb`b``bbbbbbbbbbbbbbbbbb`b`bbb`bhdeggc",
"cgggaaaabaabaabaabaaaghhhhha`bbb```````````````````b`bb`b`hdgggc",
"cgggaaaaaaaaaaaaaaaaaghhhhaa`bbbb`bbbbbbbbbbbbbb``b`bbb`bhddgggc",
"cgggaaaaaaaaaaaaaaaaaghhhaaaf``bbb``b`b`b`b`b```bbb``b`bbhddgggc",
"aaaaaaaaaaaaaaaaaaaaagahaaaaf````bb````bbbbb```bb``a```bhdddgggc",
"aaaaaaaaaaaaaaaaaaaaaaaaaaaaaf``b``bbb``````bbbb``b```bbhdddgggc",
"aaaaaaaaaaaaaaaaaaaaagaaa`aaahbbbb``bbbbbbbbbbb``bbb`bbhddddgggc",
"aaaaaaaaaaaaaaaaaaaaag`aaaaaah```bbb``bbbbbbb``bbbb``bhdddcdgggc",
"aaaaaaaabaabaabaabaaaggaaa`aaah```bbbb```````bbbbb``bhbddddgeggc",
"cggggaaaaaaaaaaaaaaaagggaaaaabah`b``bbbbbbbbbbbb``bbhbbdcddggggc",
"cgggegaaaaaaaaaaaaaaagggaaaabaaahhbb``bbbbbbbb``bbbhbbddddgggggc",
"cgggggeaaaaaaaaaaaaaaggggaabaaabaahhbb````````bbbhhbbdddddgggegc",
"cgggggggaaaaaaaaaaaaaggggeaaaabaaaaahhbbbbbbbbbhhfbddddddggggggc",
"cgccggggggegaaaaaagggegggeeaabaaaabaaahhhhhhhhhabbbddcddgggggggc",
"cgggeggggeegaaaaaagggggggceeaaaaabaaabaabbbbbbbbbbdddddggggggggc",
"cgggeeggggggaaaaaaggggggggeeeaaabaaabaababbb`bbbddddddgggggggggc",
"cggccgggggggaaaaaaggggggggcgcgdaaaabaabababbbbbddddcdggggggggggc",
"cggeggggggggaaaaaaggggggggggggdgbabaabababbbbdddccddeeggeegggggc",
"cgggggggggggaaaaaageggggggggeggdgbbbbbbbbbbdddddddddegggeggggggc",
"ccccccccccccaaaaaacccccccccccccccccccccccccccccccccccccccccccccc"
};
