/* XPM */
static char *tiles____[] = {
/* columns rows colors chars-per-pixel */
"67 57 7 1",
"  c black",
". c #3F3F3F3F3F3F",
"X c #585858585858",
"o c #3F3F3F3FFFFF",
"O c #0000BFBF0000",
"+ c #BFBF7F7F3F3F",
"@ c #DFDFDFDFDFDF",
/* pixels */
"                                                                   ",
"  @@@@@@@@@@@@@@@@@@@@@@@@@@@@@@@@@@@@@@@@@@@@@@@@@@@@@@@@@@@@@@@  ",
" @ @@@@@@@@@@@@@@@@@@@@@@@@@@@@@@@@@@@@@@@@@@@@@@@@@@@@@@@@@@@@@ X ",
" @@ @@@@@@@@@@@@@@@@@@@@@@@@@@@@@@@@@@@@@@@@@@@@@@@@@@@@@@@@@@@ XX ",
" @@@                                                           XXX ",
" @@@ ++++++++++++            +++++++++++++++++++++++++++++++++ XXX ",
" @@@ ++++++++++++  +++++++++ +++O++++++++++++ +++++++++++OO+++ XXX ",
" @@@ + ++    +++  + +     ++ ++ O+++++++        +++OOO++++OO++ XXX ",
" @@@ ++++ +++++++++++ ++ +++ +++O++O++++    . ++++OO+OOOOO+O++ XXX ",
" @@@ + ++ +++++++ ++ ++ ++++ +++O+O++ +     . +++++OOOO+++O+++ XXX ",
" @@@ +  +++++OO+ +  ++++++   +++OOO+ +      . ++++++++.+++++++ XXX ",
" @@@ +   ++++O+++++++ + ++   +++.OO......... .+++++++ .+++++++ XXX ",
" @@@   +++++O+++++ + +++ ++   ..     + ..... ....... ++.++O+++ XXX ",
" @@@  +++++ OOOO+ . +++       .....    .      ..   .   ..+++++ XXX ",
" @@@ +++++OOO+O++        ..   .....    .  ..    ......... .++o XXX ",
" @@@ ++++++++++++       ..... .....    ....   .............++o XXX ",
" @@@ +++++ +++++++  ......... ...      . ... .... ... .....+oo XXX ",
" @@@ +++++++++++++ .......                          . ... ++oo XXX ",
" @@@ ++                              . .  .. ..   .    ...++oo XXX ",
" @@@ ++++ ++++++++ ..........   ..   . .  .. ..   ........+ooo XXX ",
" @@@ ++++ ++OO++++ ..  ...    ........    .. ..   ..   ....ooo XXX ",
" @@@ ++O+ ++OO++++ ..     ... ....  .. ....  ..   ..    ..oooo XXX ",
" @@@ ++O+ +++  + + ..    .... ........ ...... .   ..    . o.oo XXX ",
" @@@ ++++ +++ ++   ..   ..... ........ .... . .   . .   . oooo XXX ",
" @@@      .        ..   .               ...   .   . .     .ooo XXX ",
" @@@ ++++ ..   . . ..   ..... ........ ...    .  ....     ..oo XXX ",
" @@@ ++++ .    . ....   ...   ........ ...       ....    ...oo XXX ",
" @@@ ++++ . ....  ...    ... ..          .    .  ....  .... oo XXX ",
" @@@ ++++  .....         ..  ......... ...    ..  ..  ..  .ooo XXX ",
" @@@ +                                        .  ...  .   .ooo XXX ",
" @@@ ++++  . .                     ...      .    ...  .   .ooo XXX ",
" @@@ O+++  . .             .   . ..  .      . .... .  ..  .ooo XXX ",
" @@@ +O++  . .  .            .   ..           .....   ..  .ooo XXX ",
" @@@ +O++  . .  .. ..  ..    .    .                       .ooo XXX ",
" @@@ +O++  . .  .. ..  ..O   .   ..   .   ... ..      .  ..ooo XXX ",
" @@@                .             .   .   .   ..      . ..oooo XXX ",
" @@@ ++++ .. .  .. ..  .. .       .   ... .    ..     O...oooo XXX ",
" @@@ ++++ .. . . . .  ... ..      ...   ...    .   .... ..oooo XXX ",
" @@@ ++++ .. . . . .  ... ..  O    O           .O.O.... oooooo XXX ",
" @@@ ++++ ..                   O                   .  oooooooo XXX ",
" @@@ ++++ ..  ..                O .O... ........ ...oooo +++oo XXX ",
" @@@ ++++     .   ...        ... ........     ..o..ooo+ +OO+oo XXX ",
" @@@ ++++ ..  .     .        ...      .  ooooo.ooooo++  +O++oo XXX ",
" @@@ ++++ .   .  . .. ..   . ...  .....ooooooooooooo++OO ++ooo XXX ",
" @@@ ++++ .                  ..... oo.oooooooooooooo +O  oooo+ XXX ",
" @@@            .. ...    .......ooooooooooooooooooooooooooo++ XXX ",
" @@@ ++            .    ......oooooooooooooo ooooooooo +++ +++ XXX ",
" @@@ ++++ +++++      ......oooooooo ++++++++++++  ++++++  ++++ XXX ",
" @@@ +O++ +++++  +   ......ooooo++++++++++  ++ +  +   +++ ++++ XXX ",
" @@@ ++OO +++++  +  .....oooo+++++++++O+ ++O+  +++++   ++ ++++ XXX ",
" @@@ ++++O++++++ + ....ooooo++++ OOO+O    +++OOOO++++++   ++++ XXX ",
" @@@ +++++++++++++ ..ooooo++++++++++++++++    +++O++OO++++++++ XXX ",
" @@@                                                           XXX ",
" @@ XXXXXXXXXXXXXXXXXXXXXXXXXXXXXXXXXXXXXXXXXXXXXXXXXXXXXXXXXXX XX ",
" @ XXXXXXXXXXXXXXXXXXXXXXXXXXXXXXXXXXXXXXXXXXXXXXXXXXXXXXXXXXXXX X ",
"  XXXXXXXXXXXXXXXXXXXXXXXXXXXXXXXXXXXXXXXXXXXXXXXXXXXXXXXXXXXXXXX  ",
"                                                                   "
};
