/* XPM */
static char *tiles___[] = {
/* columns rows colors chars-per-pixel */
"42 42 7 1",
"  c black",
". c #00007F7F0000",
"X c #5D5D5D5D5D5D",
"o c gray50",
"O c green",
"+ c gray75",
"@ c gray100",
/* pixels */
"++++++++++++++++++++++++++++++++++++++++++",
"+ooOOOOooooOOOOooooOOOOooooOOOOooooOOOOooX",
"+ooOOOOooooOOOOooooOOOOooooOOOOooooOOOOooX",
"+ooXXXXXXXXXXXXXXXXXXXXXXXXXXXXXXXXXXXXooX",
"+ooX                                  +ooX",
"+OOX  @ @ @ @ooo@ @ @ @+++++++@ @ @ @ +OOX",
"+OOX @ @ @ @ ooo @ @ ++XXXXXXX++ @ @  +OOX",
"+OOX  @ooooooooo@ @ @XXX     XXX+ @ @ +OOX",
"+OOX @ ooooooooo @ +XX  XXXXX  XX+ @  +OOX",
"+ooX ooooooooooo@ @+X XXX   XXX X+@ @ +ooX",
"+ooX oooXoXoXoXo @+X X   XXX   X X+@  +ooX",
"+ooX  @ooooooooo@ + X X X X X X X + @ +ooX",
"+ooX @ ooooooooo X+X           XX +@  +ooX",
"+OOX  @oXoXoXoXoXX@ XXoXXXXXXXX X + @ +OOX",
"+OOX @ oooooooooX@@ X         X X +@  +OOX",
"+OOX  @ooooooooo@@@ X ...++.. X X + @ +OOX",
"+OOX @ oXoXoXoXo@@+ X OOO+OOO X X +@  +OOX",
"+ooX  @ooooooooo@X+ X O.OOO.O X X + @ +ooX",
"+ooX @ oooooooooXX+ X O.OOO.O o X +@  +ooX",
"+ooX  @oXoXoXoXoX++ X OOOOOOO X X + @ +ooX",
"+ooX @ ooooooooo+++ X .O.O.O. o X +@  +ooX",
"+OOX  @ooooooooo+++ X OOOOOOO X X + @ +OOX",
"+OOX @ oXoXoXoXo+X+ X O.OOO.O o X +@  +OOX",
"+OOX  @oooooooooXX+ X O.OOO.O X X + @ +OOX",
"+OOX @ oooooooooX++ X OOO++OO X X +@  +OOX",
"+ooX  @oXoXoXoXo+++ X ...+... X X + @ +ooX",
"+ooX @ ooooooooo+++ X         X X +@  +ooX",
"+ooX  @ooooooooo+++ XXXXXXXXXXX X + @ +ooX",
"+ooX @ oXoXoXoXo+++X           XX +@  +ooX",
"+OOX ooooooooooo+++X XX X X X X X + @ +OOX",
"+OOX ooooooooooo oo+ XXX     XXX + @  +OOX",
"+OOX  @ oooooooo@oo+X  XXXXXXX  X+@ @ +OOX",
"+OOX @ @ ooooooo ooo+XX       XX+@ @  +OOX",
"+ooX  @ @ @ooo@ @ oXo++XXXXXXX++@ @ @ +ooX",
"+ooX @ @ @ ooo @ @ ooXo+++++++ @ @ @  +ooX",
"+ooX  @ @ @ooo@ @ @ XooXooXXX @ @ @ @ +ooX",
"+ooX @ @ @ ooo @ @ @XoXooXXX @ @ @ @  +ooX",
"+OOX                                  +OOX",
"+OOX+++++++++++++++++++++++++++++++++++OOX",
"+OOooooOOOOooooOOOOooooOOOOooooOOOOooooOOX",
"+OOooooOOOOooooOOOOooooOOOOooooOOOOooooOOX",
"+XXXXXXXXXXXXXXXXXXXXXXXXXXXXXXXXXXXXXXXXX"
};
