/* XPM */
static char *tiles___[] = {
/* columns rows colors chars-per-pixel */
"34 34 10 1",
"  c black",
". c #7F7F7F7F0000",
"X c #5D5D5D5D5D5D",
"o c gray50",
"O c green",
"+ c #BFBF79790000",
"@ c red",
"# c yellow",
"$ c gray75",
"% c gray100",
/* pixels */
"$$$$$$$$$$$$$$$$$$$$$$$$$$$$$$$$$$",
"$@@OOOO@@@@OOOO@@@@OOOO@@@@OOOO@@X",
"$@@OOOO@@@@OOOO@@@@OOOO@@@@OOOO@@X",
"$@@XXXXXXXXXXXXXXXXXXXXXXXXXXXX@@X",
"$@@X                          $@@X",
"$OOX  % % % % % % % % % % % % $OOX",
"$OOX % % % % % % % % % % % %  $OOX",
"$OOX  % % @@@@o@@@@o@@% % % % $OOX",
"$OOX % % @   o    o  @ % % %  $OOX",
"$@@X  % @@XXoXXXXoXXX@% % % % $@@X",
"$@@X % @+@XoXXXXXXXXX@ % % %  $@@X",
"$@@X  %@@@XX@@@@@@@@@@@@% % % $@@X",
"$@@X % @@+X@XXXXXXXXXXX@ % %  $@@X",
"$OOX  %+@@@+ooooooooooX@% % % $OOX",
"$OOX % @+@@@o####o##ooX@ % %  $OOX",
"$OOX  %@@@+@X#XXoX#X#oX@% % % $OOX",
"$OOX % +@@@@X###oX#X#oX@..... $OOX",
"$@@X  %@@@+@X#XooX#X#oX@    . $@@X",
"$@@X % @+@@+X#oooX#X#oX@o Xo. $@@X",
"$@@X  %@@+@@X#oooX##ooX@XXo . $@@X",
"$@@X % +@@@@XXoooXXXooX@XoX . $@@X",
"$OOX  %@@+@@ooooooooooX@XXX @ $OOX",
"$OOX % @@@+@@@@@@@@@@@@ o o @ $OOX",
"$OOX  %@+@@@    @    @XXXXX @ $OOX",
"$OOX % @@@@ XXX@ XXX@@@@@@@@@ $OOX",
"$@@X  %+@@ XXX@ XXX@ @ @ @ @% $@@X",
"$@@X % @@ +++@ +++@@@@@ @@@%  $@@X",
"$@@X  % % % % % % % % % % % % $@@X",
"$@@X % % % % % % % % % % % %  $@@X",
"$OOX                          $OOX",
"$OOX$$$$$$$$$$$$$$$$$$$$$$$$$$$OOX",
"$OO@@@@OOOO@@@@OOOO@@@@OOOO@@@@OOX",
"$OO@@@@OOOO@@@@OOOO@@@@OOOO@@@@OOX",
"$XXXXXXXXXXXXXXXXXXXXXXXXXXXXXXXXX"
};
