/* XPM */
static char *tiles___[] = {
/* columns rows colors chars-per-pixel */
"48 48 6 1",
"  c black",
". c red",
"X c #FFFF7F7F0000",
"o c yellow",
"O c gray100",
"+ c None",
/* pixels */
"++++++++++++++++++++++++++++++++++++++++++++++++",
"++++++++++++++++++++++++++++++++++++++++++++++++",
"++++++++++++++++++++++++++++++++++++++++++++++++",
"++++++++++++++++++++++++++++++++++++++++++++++++",
"++++++XXXX++++++++++++++++++++++++++++++++++++++",
"+++++XXXXX..++++OXO+++++++++++++++++++++++++++++",
"+++++XXX..o..++XXX.X++++++++++++++++++++++++++++",
"+++++XXo..XoXX++XXX.++++++++++++++++++++++++++++",
"+++++.Xo..XXXXX+XX.X.+++++++++++++++++++++++++++",
"++++++.X.XXXXXXX XX.X+++++++++++++++++++++++++++",
"+++++++.XXXXXXXX.X.X.X++++++++++++++++++++++++++",
"++++++++XXOXXXXXX.X.X.X+++++++++++++++++++++++++",
"++++++++.XXXXXX.X..X.X.+++++++++++++++++++++++++",
"+++++++++.XOXXXX.X.....+++++++++++++++++++++++++",
"+++++++++XXXXXXXX.X....+++++++++++++++++++++++++",
"+++++++++XXXOXXXXX.X++++++++++++++++++++++++++++",
"+++++++++OXXXXXXXXX.X+++++++++++++++++++++++++++",
"++++++++XXXXXXOXXXXX.X+++XX+++++++++++++++++++++",
"++++++++OXXX.XXOXXXXX.X+XXXX++++++++++++++++++++",
"++++++++XXX..XXXXXXXXX.XXXXXX+++++++++++++++++++",
"++++++++XX...XXXOXXXXXXXXXXX.X++++++++++++++++++",
"++++++++X.X...XXXXXXXXXXXXXXX.++++++++++++++++++",
"++++++XX.X....XXXXOXXXXX.X.X.X.+++++++++++++++++",
"++++++X.X..++.X.XXXXXXXXX.X.X..+++++++++++++++++",
"+++++++X.X.+++.X.XXXOXXXX......+++++++++++++++++",
"++++++++...+++..X.XXXXXXX.....++++++++++++++++++",
"+++++++++..+++...XXXXXXXXX...+++++++++++++++++++",
"++++++++++++++..X.XXXXXXXXX..+++++++++++++++++++",
"+++++++++++++++..X.XXXXXXX.X.+++++++++++++.+++++",
"+++++++++++++++.X.X.X.XXXXX.X+++++++++++++X+++++",
"+++++++++++++++..X...X.XXXXX.X+++++++++++OX+++++",
"+++++++++++++++.X.X...X.XXXXX.X+++++++++.X.+++++",
"++++++++++++++++.X.X.+.X.XXX.X.+++++++++O..+++++",
"++++++++++++++++X.X..++.X.XXX.X.+++++++X..++++++",
"+++++++++++++++++X.X.+++.X.XXX.X.+++++X.X.++++++",
"+++++++++++++++.X.X...+++.X.XXX.X.+++X.X.+++++++",
"+++++++++++++++X.X.X...+++.X.XXX.XX.X.X..+++++++",
"++++++++++++++++......+++++..X.X.X.X.X.X++++++++",
"++++++++++++++++++++++++++++..X.X.X.X.X+++++++++",
"+++++++++++++++++++++++++++++....X.X.X++++++++++",
"++++++++++++++++++++++++++++++++.....+++++++++++",
"++++++++++++++++++++++++++++++++++++++++++++++++",
"++++++++++++++++++++++++++++++++++++++++++++++++",
"++++++++++++++++++++++++++++++++++++++++++++++++",
"++++++++++++++++++++++++++++++++++++++++++++++++",
"++++++++++++++++++++++++++++++++++++++++++++++++",
"++++++++++++++++++++++++++++++++++++++++++++++++",
"++++++++++++++++++++++++++++++++++++++++++++++++"
};
