/* XPM */
static char *tiles____[] = {
/* columns rows colors chars-per-pixel */
"48 48 6 1",
"  c black",
". c red",
"X c #FFFF7F7F0000",
"o c yellow",
"O c gray100",
"+ c None",
/* pixels */
"++++++++++++++++++++++++++++++++++++++++++++++++",
"++++++++++++++++++++++++++++++++++++++++++++++++",
"++++++++++++++++++++++++++++++++++++++++++++++++",
"++++++++++++++++++++++++++++++++++++++++++++++++",
"++++++++++++++++++++++++++++++++++++++++++++++++",
"++++++++++++++++++++++++++++++++++++++++++++++++",
"++++++++++++++++++++++++++++++++++++++++++++++++",
"++++++++++++++++++++++++++++++++++++++++++++++++",
"++++++++++++++++++++++++++++++++++++++++++++++++",
"++++++++++++++++++++++++++++++++++++++++++++++++",
"++++++++++++++++++++++++++++++++++++++++++++++++",
"++++++++++++++++++++++++++++++++++++++++++++++++",
"++++++++++++++++++++++++++++++++++++++++++X+++++",
"++++++++++XOX++++++++++++++++++++++++++++++X++++",
"+++++++++XXXXXXXXX+++++++++++++++++++++++++XX+++",
"++++++++++XXXXXXOXX+++++O++XX++++++++++++++XXX++",
"+++++++++++XXXXXOXXX+++XOXXXXXX++++++++++++XXX++",
"++++++X+++++XXXXXXX+++++XXOXXXXX++++++++++++XXX+",
"++++XXXOOXXXXOOXXX+++++XXXOXXXXXX+++++++++++XX++",
"+++XXXXXXXXXXXXXOXXXXXXXXXXXXXXXX++++++++++XXX.+",
"++XXXXXXXXXXXXXXXXXXXXXXOXXXXXXXX+++++++++++XX.+",
"+.XXXXXXXXXXXXXXXXXXXXXXXXXXXXOXXX++++++++++XXX+",
"+.XXooo.XXXXXXXXXXXXXXXXXXXXXXXXXXX++++++++XXX.+",
"+.X...XXXXXXXXXXXXXXXXXXXXXXXXXXXXXXXXXX+XXXXX.+",
"++..........XXXXXXXXXXXXXXXXXXXXXXXXXOXXOXXXX..+",
"++++++X.....X..XXXXXXXXXXXXXXXXXXXXXXXXXXXXXXX.+",
"+++++++++++XXXXXXXXXXXXXXXXXXXXXXXXXXXXXXXXXX.++",
"++++++++++++X..XX..X..XXXXXX.XXXXXXXXX..XX...+++",
"++++++++++++X......X..X.XXXXXXX..X..X......+++++",
"++++++++++++XX.X........X......+........+.++++++",
"+++++++++++++X.X..+++...X..XX..+++++++++++++++++",
"++++++++++++++....++++..XXXXX...++++++++++++++++",
"++++++++++++++.X...++++++..XX......+++++++++++++",
"+++++++++++++X.X....++++++..........++++++++++++",
"++++++++++++++.....+++++++++.+.....+++++++++++++",
"++++++++++++++++++++++++++++++....++++++++++++++",
"+++++++++++++++++++++++++++++....+++++++++++++++",
"+++++++++++++++++++++++++++++++.++++++++++++++++",
"++++++++++++++++++++++++++++++++++++++++++++++++",
"++++++++++++++++++++++++++++++++++++++++++++++++",
"++++++++++++++++++++++++++++++++++++++++++++++++",
"++++++++++++++++++++++++++++++++++++++++++++++++",
"++++++++++++++++++++++++++++++++++++++++++++++++",
"++++++++++++++++++++++++++++++++++++++++++++++++",
"++++++++++++++++++++++++++++++++++++++++++++++++",
"++++++++++++++++++++++++++++++++++++++++++++++++",
"++++++++++++++++++++++++++++++++++++++++++++++++",
"++++++++++++++++++++++++++++++++++++++++++++++++"
};
