/* XPM */
static char *tiles___[] = {
/* columns rows colors chars-per-pixel */
"34 34 10 1",
"  c black",
". c #5D5D5D5D5D5D",
"X c gray50",
"o c blue",
"O c #4F4F4F4FFFFF",
"+ c green",
"@ c red",
"# c yellow",
"$ c gray75",
"% c gray100",
/* pixels */
"$$$$$$$$$$$$$$$$$$$$$$$$$$$$$$$$$$",
"$oo++++oooo++++oooo++++oooo++++oo.",
"$oo++++oooo++++oooo++++oooo++++oo.",
"$oo............................oo.",
"$oo.                          $oo.",
"$++. % % % % % % % % % % % %  $++.",
"$++.  % % % % %O.OO.OOOOOOO % $++.",
"$++. % % % % %o           o%  $++.",
"$++.  % % % %oOXXXXXXXXXX o % $++.",
"$oo. % %oX...OOX###XX##XX o.X $oo.",
"$oo.  %oOX...Oo.#..#.#.#X o.X $oo.",
"$oo. %oOOX.X oO.###..#.#X o.X $oo.",
"$oo.  OOoX...OO.#..X.#.#X o.X $oo.",
"$++. %OoOX...Oo.#XXX.#.#X o.X $++.",
"$++.  oOOX.X oO.#XXX.##.X o.X $++.",
"$++. %OOoX...OO.XXXX...XX o.X $++.",
"$++.  OoOX...Ooooooooooooo..X $++.",
"$oo. %oOOXXXXo o o o o o XXXX $oo.",
"$oo.  OOooooooo%o   o%oooooo% $oo.",
"$oo. %Ooo o o Xo ..oX o o o%  $oo.",
"$oo.  oooooooXo ..oXoooooo% % $oo.",
"$++. % % % % X.X..X.X% % % %  $++.",
"$++.  % % % ........... % % % $++.",
"$++. % % % XXX.......... % %  $++.",
"$++.  % % XX% XX% % X %XX % % $++.",
"$oo. % % %XXXXXoX  XXoXXX% %  $oo.",
"$oo.  % % XX%X  X%@X  %XX % % $oo.",
"$oo. % % %XX X%@X  X%@ XX% %  $oo.",
"$oo.  % % XX%X  XXXX  %XX % % $oo.",
"$++.                          $++.",
"$++.$$$$$$$$$$$$$$$$$$$$$$$$$$$++.",
"$++oooo++++oooo++++oooo++++oooo++.",
"$++oooo++++oooo++++oooo++++oooo++.",
"$................................."
};
