/* XPM */
static char *tiles____[] = {
/* columns rows colors chars-per-pixel */
"48 48 6 1",
"  c black",
". c red",
"X c #FFFF7F7F0000",
"o c yellow",
"O c gray100",
"+ c None",
/* pixels */
"++++++++++++++++++++++++++++++++++++++++++++++++",
"++++++++++++++++++++++++++++++++++++++++++++++++",
"++++++++++++++++++++++++++++++++++++++++++++++++",
"++++++++++++++++++++++++++++++++++++++++++++++++",
"++++++++++++++++++++++++++++++++++++++++++++++++",
"++++++++++++++++++++++++++++++++++++++++++++++++",
"++++++++++++++++++++++++++++++++++++++++++++++++",
"++++++++++++++++++++++++++++++++++++++++++++++++",
"++++++++++++++++++++++++++++++++++++++++++++++++",
"++++++++++++++++++++++++++++++++++++++++++++++++",
"++++++++++++++++++++++++++++++++++++++++++++++++",
"++++X+++++++++++++++++++++++++++++++++++++++++++",
"+++X++++++++++++++++++++++++++++X+XXX+++++++++++",
"++XXX++++++++++++++++++++++++XXXXXXXXX++++++++++",
"++XX++++++++++++++X+XO++++++XXXXXXXXXX++++++++++",
"+XXX++++++++++++XXXXXXXX+++XXXOOXXXX++++++++++++",
"+XXX+++++++++++XXXXOXXOX++++XXXXXX X++X+++++++++",
"+XXX+++++++++++XXXXOXXOX+++++XXXOOOXXOXOOX+X++++",
"+XXX+++++++++++XXXXXXXXXOXXXXXOXXXXXXXXXXXXXX+++",
"+XXX+++++++++++XXXXOXXXXOXXXXXXXXXXXXXXXXXXXXX++",
"+XX+++++++++++XXXOXOXXXXXXXXXXXXXXXXXXXXXXXXXX.+",
"+XXX++++++++X+OXXXXXXXXXXXXXXXXXXXXXXXX.ooo.XX++",
"+XXXX+XX+XXXXXOXXXXXXXXXXXXXXXXXXXXXXXXX.XX.XX++",
"+.XXXXOOXOXOXXXXXXXXXXXXXXXXXXXXXX.X.........+++",
"+.XXXXXXXXXXXXXXXXXXXXXXXXXXXXX.X..X.+.++XX+++++",
"+..XXXXXXXXXXXXXXXXXXXXXXXXXXXXXXXXX++++++++++++",
"++...X..XXXXXXXXXX.XXXXXX.X..X..X..+++++++++++++",
"+++.+.....X..X..XXXXXXXX..X..X.....+++++++++++++",
"++++++..+.....+......X..X.......X.X+++++++++++++",
"++++++++++++++++..X..X..X.++++..X.++++++++++++++",
"+++++++++++++++...XXXXXX.++++....+++++++++++++++",
"+++++++++++++....XX....+++++....++++++++++++++++",
"+++++++++++++.........+++++.....X+++++++++++++++",
"++++++++++++++.....+++++++++.+...+++++++++++++++",
"++++++++++++++....++++++++++++++++++++++++++++++",
"+++++++++++++++....+++++++++++++++++++++++++++++",
"+++++++++++++++++.++++++++++++++++++++++++++++++",
"++++++++++++++++++++++++++++++++++++++++++++++++",
"++++++++++++++++++++++++++++++++++++++++++++++++",
"++++++++++++++++++++++++++++++++++++++++++++++++",
"++++++++++++++++++++++++++++++++++++++++++++++++",
"++++++++++++++++++++++++++++++++++++++++++++++++",
"++++++++++++++++++++++++++++++++++++++++++++++++",
"++++++++++++++++++++++++++++++++++++++++++++++++",
"++++++++++++++++++++++++++++++++++++++++++++++++",
"++++++++++++++++++++++++++++++++++++++++++++++++",
"++++++++++++++++++++++++++++++++++++++++++++++++",
"++++++++++++++++++++++++++++++++++++++++++++++++"
};
